<svg width="289" height="288" viewBox="0 0 289 288" fill="none" xmlns="http://www.w3.org/2000/svg">
<path d="M0.75 8C0.75 3.58173 4.33172 0 8.75 0H280.75C285.168 0 288.75 3.58172 288.75 8V280C288.75 284.418 285.168 288 280.75 288H8.75C4.33173 288 0.75 284.418 0.75 280V8Z" fill="#782F40"/>
<path d="M16.75 16H272.75V8H16.75V16ZM272.75 16V272H280.75V16H272.75ZM272.75 272H16.75V280H272.75V272ZM16.75 272V16H8.75V272H16.75ZM16.75 272H16.75H8.75C8.75 276.418 12.3317 280 16.75 280V272ZM272.75 272V280C277.168 280 280.75 276.418 280.75 272H272.75ZM272.75 16H280.75C280.75 11.5817 277.168 8 272.75 8V16ZM16.75 8C12.3317 8 8.75 11.5817 8.75 16H16.75V16V8Z" fill="white"/>
<path d="M144.753 105.566C131.23 105.566 120.317 116.48 120.317 130.002C120.317 143.524 131.23 154.438 144.753 154.438C158.275 154.438 169.188 143.524 169.188 130.002C169.188 116.48 158.275 105.566 144.753 105.566ZM144.753 145.883C136.008 145.883 128.871 138.747 128.871 130.002C128.871 121.257 136.008 114.121 144.753 114.121C153.498 114.121 160.634 121.257 160.634 130.002C160.634 138.747 153.498 145.883 144.753 145.883ZM170.189 98.8705C167.032 98.8705 164.482 101.42 164.482 104.577C164.482 107.735 167.032 110.284 170.189 110.284C173.347 110.284 175.896 107.747 175.896 104.577C175.897 103.828 175.75 103.085 175.464 102.392C175.177 101.7 174.757 101.07 174.227 100.54C173.697 100.01 173.067 99.5895 172.374 99.303C171.682 99.0166 170.939 98.8696 170.189 98.8705ZM192.385 130.002C192.385 123.425 192.445 116.908 192.075 110.344C191.706 102.719 189.967 95.9516 184.391 90.3758C178.803 84.7881 172.048 83.0606 164.423 82.6912C157.846 82.3219 151.329 82.3815 144.765 82.3815C138.188 82.3815 131.671 82.3219 125.106 82.6912C117.481 83.0606 110.714 84.8 105.139 90.3758C99.5508 95.9635 97.8233 102.719 97.4539 110.344C97.0846 116.92 97.1442 123.437 97.1442 130.002C97.1442 136.567 97.0846 143.096 97.4539 149.66C97.8233 157.285 99.5627 164.052 105.139 169.628C110.726 175.216 117.481 176.943 125.106 177.313C131.683 177.682 138.2 177.623 144.765 177.623C151.341 177.623 157.858 177.682 164.423 177.313C172.048 176.943 178.815 175.204 184.391 169.628C189.979 164.04 191.706 157.285 192.075 149.66C192.457 143.096 192.385 136.579 192.385 130.002ZM181.901 158.095C181.031 160.264 179.983 161.884 178.303 163.552C176.623 165.232 175.014 166.28 172.846 167.15C166.579 169.64 151.699 169.08 144.753 169.08C137.807 169.08 122.914 169.64 116.647 167.162C114.479 166.292 112.859 165.244 111.191 163.564C109.511 161.884 108.463 160.276 107.593 158.107C105.115 151.829 105.675 136.948 105.675 130.002C105.675 123.056 105.115 108.164 107.593 101.897C108.463 99.7283 109.511 98.108 111.191 96.4401C112.871 94.7721 114.479 93.7117 116.647 92.842C122.914 90.3639 137.807 90.9239 144.753 90.9239C151.699 90.9239 166.591 90.3639 172.858 92.842C175.026 93.7117 176.647 94.7602 178.315 96.4401C179.995 98.12 181.043 99.7283 181.913 101.897C184.391 108.164 183.831 123.056 183.831 130.002C183.831 136.948 184.391 151.829 181.901 158.095Z" fill="white"/>
<path d="M53.111 214C52.951 214 52.815 213.944 52.703 213.832C52.591 213.72 52.535 213.584 52.535 213.424V197.8C52.535 197.624 52.583 197.48 52.679 197.368C52.791 197.256 52.935 197.2 53.111 197.2H55.319C55.495 197.2 55.639 197.256 55.751 197.368C55.863 197.48 55.919 197.624 55.919 197.8V203.968H62.927V197.8C62.927 197.624 62.983 197.48 63.095 197.368C63.207 197.256 63.343 197.2 63.503 197.2H65.735C65.911 197.2 66.047 197.256 66.143 197.368C66.255 197.48 66.311 197.624 66.311 197.8V213.424C66.311 213.584 66.255 213.72 66.143 213.832C66.047 213.944 65.911 214 65.735 214H63.503C63.343 214 63.207 213.944 63.095 213.832C62.983 213.72 62.927 213.584 62.927 213.424V207.016H55.919V213.424C55.919 213.584 55.863 213.72 55.751 213.832C55.639 213.944 55.495 214 55.319 214H53.111ZM73.8822 214.24C73.0662 214.24 72.3142 214.08 71.6262 213.76C70.9542 213.424 70.4182 212.976 70.0182 212.416C69.6342 211.856 69.4422 211.24 69.4422 210.568C69.4422 209.48 69.8822 208.6 70.7622 207.928C71.6422 207.256 72.8502 206.8 74.3862 206.56L77.6742 206.08V205.576C77.6742 204.888 77.4982 204.368 77.1462 204.016C76.7942 203.664 76.2342 203.488 75.4662 203.488C74.9382 203.488 74.5142 203.584 74.1942 203.776C73.8742 203.968 73.6102 204.168 73.4022 204.376C73.2102 204.568 73.0822 204.696 73.0182 204.76C72.9542 204.952 72.8342 205.048 72.6582 205.048H70.7862C70.6422 205.048 70.5142 205 70.4022 204.904C70.3062 204.808 70.2582 204.68 70.2582 204.52C70.2742 204.12 70.4662 203.672 70.8342 203.176C71.2182 202.664 71.8022 202.224 72.5862 201.856C73.3702 201.472 74.3382 201.28 75.4902 201.28C77.3782 201.28 78.7542 201.704 79.6182 202.552C80.4822 203.4 80.9142 204.512 80.9142 205.888V213.424C80.9142 213.584 80.8582 213.72 80.7462 213.832C80.6502 213.944 80.5142 214 80.3382 214H78.3462C78.1862 214 78.0502 213.944 77.9382 213.832C77.8262 213.72 77.7702 213.584 77.7702 213.424V212.488C77.4182 213 76.9222 213.424 76.2822 213.76C75.6422 214.08 74.8422 214.24 73.8822 214.24ZM74.6982 211.936C75.5782 211.936 76.2982 211.648 76.8582 211.072C77.4182 210.496 77.6982 209.664 77.6982 208.576V208.096L75.2982 208.48C73.4582 208.768 72.5382 209.384 72.5382 210.328C72.5382 210.84 72.7462 211.24 73.1622 211.528C73.5942 211.8 74.1062 211.936 74.6982 211.936ZM85.0486 214C84.8886 214 84.7526 213.944 84.6406 213.832C84.5286 213.72 84.4726 213.584 84.4726 213.424V202.096C84.4726 201.92 84.5286 201.784 84.6406 201.688C84.7526 201.576 84.8886 201.52 85.0486 201.52H86.9686C87.1446 201.52 87.2886 201.576 87.4006 201.688C87.5126 201.8 87.5686 201.936 87.5686 202.096V211.432H91.0966V202.096C91.0966 201.936 91.1526 201.8 91.2646 201.688C91.3766 201.576 91.5126 201.52 91.6726 201.52H93.4726C93.6326 201.52 93.7686 201.576 93.8806 201.688C93.9926 201.8 94.0486 201.936 94.0486 202.096V211.432H97.5766V202.096C97.5766 201.936 97.6326 201.8 97.7446 201.688C97.8566 201.576 98.0006 201.52 98.1766 201.52H100.097C100.273 201.52 100.409 201.576 100.505 201.688C100.617 201.784 100.673 201.92 100.673 202.096V213.424C100.673 213.584 100.617 213.72 100.505 213.832C100.409 213.944 100.273 214 100.097 214H85.0486ZM121.723 201.52C121.867 201.52 121.995 201.576 122.107 201.688C122.219 201.784 122.275 201.904 122.275 202.048V213.424C122.275 213.584 122.219 213.72 122.107 213.832C122.011 213.944 121.875 214 121.699 214H119.659C119.499 214 119.363 213.944 119.251 213.832C119.139 213.72 119.083 213.584 119.083 213.424V205.768L113.395 213.616C113.219 213.872 112.995 214 112.723 214H110.875C110.715 214 110.579 213.952 110.467 213.856C110.371 213.744 110.323 213.608 110.323 213.448V202.096C110.323 201.92 110.379 201.784 110.491 201.688C110.603 201.576 110.739 201.52 110.899 201.52H112.939C113.099 201.52 113.235 201.576 113.347 201.688C113.459 201.8 113.515 201.936 113.515 202.096V209.752L119.203 201.904C119.395 201.648 119.619 201.52 119.875 201.52H121.723ZM126.356 214C126.196 214 126.06 213.944 125.948 213.832C125.836 213.72 125.78 213.584 125.78 213.424V202.096C125.78 201.92 125.836 201.784 125.948 201.688C126.06 201.576 126.196 201.52 126.356 201.52H128.396C128.556 201.52 128.692 201.576 128.804 201.688C128.916 201.8 128.972 201.936 128.972 202.096V206.368H134.324V202.096C134.324 201.936 134.38 201.8 134.492 201.688C134.604 201.576 134.74 201.52 134.9 201.52H136.94C137.116 201.52 137.252 201.576 137.348 201.688C137.46 201.784 137.516 201.92 137.516 202.096V213.424C137.516 213.584 137.46 213.72 137.348 213.832C137.252 213.944 137.116 214 136.94 214H134.9C134.74 214 134.604 213.944 134.492 213.832C134.38 213.72 134.324 213.584 134.324 213.424V208.936H128.972V213.424C128.972 213.584 128.916 213.72 128.804 213.832C128.692 213.944 128.556 214 128.396 214H126.356ZM146.636 214.24C144.876 214.24 143.468 213.752 142.412 212.776C141.372 211.8 140.82 210.448 140.756 208.72L140.732 207.76L140.756 206.8C140.82 205.072 141.372 203.72 142.412 202.744C143.468 201.768 144.876 201.28 146.636 201.28C147.9 201.28 148.964 201.504 149.828 201.952C150.708 202.4 151.356 202.952 151.772 203.608C152.204 204.248 152.436 204.864 152.468 205.456C152.484 205.616 152.428 205.752 152.3 205.864C152.188 205.976 152.052 206.032 151.892 206.032H149.756C149.58 206.032 149.452 206 149.372 205.936C149.292 205.856 149.212 205.72 149.132 205.528C148.892 204.92 148.572 204.48 148.172 204.208C147.788 203.936 147.292 203.8 146.684 203.8C145.868 203.8 145.228 204.056 144.764 204.568C144.316 205.08 144.076 205.864 144.044 206.92L144.02 207.808L144.044 208.6C144.14 210.68 145.02 211.72 146.684 211.72C147.308 211.72 147.812 211.592 148.196 211.336C148.58 211.064 148.892 210.616 149.132 209.992C149.196 209.816 149.268 209.688 149.348 209.608C149.444 209.528 149.58 209.488 149.756 209.488H151.892C152.052 209.488 152.188 209.544 152.3 209.656C152.428 209.768 152.484 209.904 152.468 210.064C152.436 210.624 152.212 211.232 151.796 211.888C151.38 212.528 150.74 213.08 149.876 213.544C149.012 214.008 147.932 214.24 146.636 214.24ZM159.243 214C159.083 214 158.947 213.944 158.835 213.832C158.723 213.72 158.667 213.584 158.667 213.424V204.088H154.779C154.619 204.088 154.483 204.032 154.371 203.92C154.259 203.808 154.203 203.672 154.203 203.512V202.096C154.203 201.92 154.259 201.784 154.371 201.688C154.483 201.576 154.619 201.52 154.779 201.52H165.699C165.875 201.52 166.011 201.576 166.107 201.688C166.219 201.784 166.275 201.92 166.275 202.096V203.512C166.275 203.672 166.219 203.808 166.107 203.92C166.011 204.032 165.875 204.088 165.699 204.088H161.811V213.424C161.811 213.584 161.755 213.72 161.643 213.832C161.547 213.944 161.411 214 161.235 214H159.243ZM172.305 214.24C171.489 214.24 170.737 214.08 170.049 213.76C169.377 213.424 168.841 212.976 168.441 212.416C168.057 211.856 167.865 211.24 167.865 210.568C167.865 209.48 168.305 208.6 169.185 207.928C170.065 207.256 171.273 206.8 172.809 206.56L176.097 206.08V205.576C176.097 204.888 175.921 204.368 175.569 204.016C175.217 203.664 174.657 203.488 173.889 203.488C173.361 203.488 172.937 203.584 172.617 203.776C172.297 203.968 172.033 204.168 171.825 204.376C171.633 204.568 171.505 204.696 171.441 204.76C171.377 204.952 171.257 205.048 171.081 205.048H169.209C169.065 205.048 168.937 205 168.825 204.904C168.729 204.808 168.681 204.68 168.681 204.52C168.697 204.12 168.889 203.672 169.257 203.176C169.641 202.664 170.225 202.224 171.009 201.856C171.793 201.472 172.761 201.28 173.913 201.28C175.801 201.28 177.177 201.704 178.041 202.552C178.905 203.4 179.337 204.512 179.337 205.888V213.424C179.337 213.584 179.281 213.72 179.169 213.832C179.073 213.944 178.937 214 178.761 214H176.769C176.609 214 176.473 213.944 176.361 213.832C176.249 213.72 176.193 213.584 176.193 213.424V212.488C175.841 213 175.345 213.424 174.705 213.76C174.065 214.08 173.265 214.24 172.305 214.24ZM173.121 211.936C174.001 211.936 174.721 211.648 175.281 211.072C175.841 210.496 176.121 209.664 176.121 208.576V208.096L173.721 208.48C171.881 208.768 170.961 209.384 170.961 210.328C170.961 210.84 171.169 211.24 171.585 211.528C172.017 211.8 172.529 211.936 173.121 211.936ZM183.471 214C183.311 214 183.175 213.944 183.063 213.832C182.951 213.72 182.895 213.584 182.895 213.424V202.096C182.895 201.92 182.951 201.784 183.063 201.688C183.175 201.576 183.311 201.52 183.471 201.52H191.079C191.255 201.52 191.391 201.576 191.487 201.688C191.599 201.784 191.655 201.92 191.655 202.096V203.512C191.655 203.672 191.599 203.808 191.487 203.92C191.391 204.032 191.255 204.088 191.079 204.088H186.087V213.424C186.087 213.584 186.031 213.72 185.919 213.832C185.807 213.944 185.671 214 185.511 214H183.471ZM194.686 218.56C194.526 218.56 194.39 218.504 194.278 218.392C194.166 218.296 194.11 218.16 194.11 217.984V202.096C194.11 201.92 194.166 201.784 194.278 201.688C194.39 201.576 194.526 201.52 194.686 201.52H196.606C196.782 201.52 196.926 201.576 197.038 201.688C197.15 201.8 197.206 201.936 197.206 202.096V203.056C198.054 201.872 199.326 201.28 201.022 201.28C202.638 201.28 203.878 201.792 204.742 202.816C205.606 203.824 206.07 205.184 206.134 206.896C206.15 207.088 206.158 207.376 206.158 207.76C206.158 208.144 206.15 208.432 206.134 208.624C206.086 210.304 205.622 211.664 204.742 212.704C203.878 213.728 202.638 214.24 201.022 214.24C199.422 214.24 198.198 213.672 197.35 212.536V217.984C197.35 218.16 197.294 218.296 197.182 218.392C197.086 218.504 196.95 218.56 196.774 218.56H194.686ZM200.11 211.648C201.822 211.648 202.734 210.592 202.846 208.48C202.862 208.32 202.87 208.08 202.87 207.76C202.87 207.44 202.862 207.2 202.846 207.04C202.734 204.928 201.822 203.872 200.11 203.872C199.198 203.872 198.518 204.168 198.07 204.76C197.622 205.352 197.382 206.072 197.35 206.92C197.334 207.112 197.326 207.416 197.326 207.832C197.326 208.248 197.334 208.56 197.35 208.768C197.382 209.568 197.63 210.248 198.094 210.808C198.558 211.368 199.23 211.648 200.11 211.648ZM212.932 214.24C212.116 214.24 211.364 214.08 210.676 213.76C210.004 213.424 209.468 212.976 209.068 212.416C208.684 211.856 208.492 211.24 208.492 210.568C208.492 209.48 208.932 208.6 209.812 207.928C210.692 207.256 211.9 206.8 213.436 206.56L216.724 206.08V205.576C216.724 204.888 216.548 204.368 216.196 204.016C215.844 203.664 215.284 203.488 214.516 203.488C213.988 203.488 213.564 203.584 213.244 203.776C212.924 203.968 212.66 204.168 212.452 204.376C212.26 204.568 212.132 204.696 212.068 204.76C212.004 204.952 211.884 205.048 211.708 205.048H209.836C209.692 205.048 209.564 205 209.452 204.904C209.356 204.808 209.308 204.68 209.308 204.52C209.324 204.12 209.516 203.672 209.884 203.176C210.268 202.664 210.852 202.224 211.636 201.856C212.42 201.472 213.388 201.28 214.54 201.28C216.428 201.28 217.804 201.704 218.668 202.552C219.532 203.4 219.964 204.512 219.964 205.888V213.424C219.964 213.584 219.908 213.72 219.796 213.832C219.7 213.944 219.564 214 219.388 214H217.396C217.236 214 217.1 213.944 216.988 213.832C216.876 213.72 216.82 213.584 216.82 213.424V212.488C216.468 213 215.972 213.424 215.332 213.76C214.692 214.08 213.892 214.24 212.932 214.24ZM213.748 211.936C214.628 211.936 215.348 211.648 215.908 211.072C216.468 210.496 216.748 209.664 216.748 208.576V208.096L214.348 208.48C212.508 208.768 211.588 209.384 211.588 210.328C211.588 210.84 211.796 211.24 212.212 211.528C212.644 211.8 213.156 211.936 213.748 211.936ZM236.699 201.52C236.827 201.52 236.939 201.568 237.035 201.664C237.131 201.744 237.179 201.848 237.179 201.976V213.496C237.179 213.64 237.131 213.76 237.035 213.856C236.939 213.952 236.819 214 236.675 214H234.539C234.395 214 234.275 213.952 234.179 213.856C234.083 213.76 234.035 213.64 234.035 213.496V206.848L231.491 211.504C231.379 211.696 231.267 211.84 231.155 211.936C231.059 212.032 230.923 212.08 230.747 212.08H229.955C229.779 212.08 229.635 212.032 229.523 211.936C229.427 211.84 229.315 211.696 229.187 211.504L226.667 206.944V213.496C226.667 213.64 226.619 213.76 226.523 213.856C226.427 213.952 226.299 214 226.139 214H224.027C223.883 214 223.763 213.952 223.667 213.856C223.571 213.76 223.523 213.64 223.523 213.496V201.976C223.523 201.864 223.571 201.76 223.667 201.664C223.763 201.568 223.875 201.52 224.003 201.52H226.043C226.315 201.52 226.523 201.656 226.667 201.928L230.339 208.6L234.011 201.928C234.155 201.656 234.371 201.52 234.659 201.52H236.699Z" fill="white"/>
</svg>
