<svg width="192" height="192" viewBox="0 0 192 192" fill="none" xmlns="http://www.w3.org/2000/svg">
<g clip-path="url(#clip0)">
<path d="M41.5963 112.505H41.0862C39.5557 112.505 38.3896 111.261 38.3896 109.797C38.3896 108.333 39.6286 107.089 41.0862 107.089C42.6166 107.089 44.0013 108.333 44.0013 109.797C44.0013 111.261 43.0539 112.505 41.5963 112.505Z" fill="#782F40"/>
<path d="M113.09 112.505H112.799C111.268 112.505 110.102 111.261 110.102 109.797C110.102 108.333 111.341 107.089 112.799 107.089C114.329 107.089 115.641 108.333 115.641 109.797C115.641 111.261 114.621 112.505 113.09 112.505Z" fill="#782F40"/>
<path d="M127.374 112.505H127.083C125.552 112.505 124.386 111.261 124.386 109.797C124.386 108.333 125.625 107.089 127.083 107.089C128.613 107.089 129.925 108.333 129.925 109.797C129.925 111.261 128.905 112.505 127.374 112.505Z" fill="#782F40"/>
<path d="M141.731 112.505H141.44C139.909 112.505 138.743 111.261 138.743 109.797C138.743 108.333 139.982 107.089 141.44 107.089C142.97 107.089 144.282 108.333 144.282 109.797C144.282 111.261 143.189 112.505 141.731 112.505Z" fill="#782F40"/>
<path d="M156.016 112.505H155.724C154.194 112.505 153.028 111.261 153.028 109.797C153.028 108.333 154.267 107.089 155.724 107.089C157.255 107.089 158.567 108.333 158.567 109.797C158.567 111.261 157.473 112.505 156.016 112.505Z" fill="#782F40"/>
<path d="M34.4537 125.312H33.9436C32.4131 125.312 31.2471 124.068 31.2471 122.604C31.2471 121.068 32.486 119.897 33.9436 119.897C35.474 119.897 36.8587 121.141 36.8587 122.604C36.8587 124.068 35.9113 125.312 34.4537 125.312Z" fill="#782F40"/>
<path d="M46.3331 125.312H45.823C44.2925 125.312 43.1265 124.068 43.1265 122.604C43.1265 121.068 44.3654 119.897 45.823 119.897C47.2806 119.897 48.7381 121.141 48.7381 122.604C48.811 124.068 47.8636 125.312 46.3331 125.312Z" fill="#782F40"/>
<path d="M77.3068 127.215H76.7966C75.2662 127.215 74.1001 125.971 74.1001 124.507C74.1001 123.043 75.339 121.799 76.7966 121.799C78.3271 121.799 79.7118 123.043 79.7118 124.507C79.7118 125.971 78.8372 127.215 77.3068 127.215Z" fill="#782F40"/>
<path d="M107.406 125.312H107.114C105.584 125.312 104.417 124.068 104.417 122.604C104.417 121.068 105.656 119.897 107.114 119.897C108.644 119.897 109.956 121.141 109.956 122.604C109.883 124.068 108.863 125.312 107.406 125.312Z" fill="#782F40"/>
<path d="M120.232 125.312H119.941C118.41 125.312 117.244 124.068 117.244 122.604C117.244 121.068 118.483 119.897 119.941 119.897C121.471 119.897 122.783 121.141 122.783 122.604C122.783 124.068 121.763 125.312 120.232 125.312Z" fill="#782F40"/>
<path d="M134.589 125.312H134.298C132.767 125.312 131.601 124.068 131.601 122.604C131.601 121.068 132.84 119.897 134.298 119.897C135.828 119.897 137.14 121.141 137.14 122.604C137.067 124.068 136.047 125.312 134.589 125.312Z" fill="#782F40"/>
<path d="M148.873 125.312H148.582C147.051 125.312 145.885 124.068 145.885 122.604C145.885 121.068 147.124 119.897 148.582 119.897C150.112 119.897 151.424 121.141 151.424 122.604C151.424 124.068 150.331 125.312 148.873 125.312Z" fill="#782F40"/>
<path d="M163.158 125.312H162.866C161.336 125.312 160.17 124.068 160.17 122.604C160.17 121.068 161.409 119.897 162.866 119.897C164.397 119.897 165.709 121.141 165.709 122.604C165.709 124.068 164.688 125.312 163.158 125.312Z" fill="#782F40"/>
<path d="M41.5963 138.266H41.0862C39.5557 138.266 38.3896 137.022 38.3896 135.558C38.3896 134.021 39.6286 132.85 41.0862 132.85C42.6166 132.85 44.0013 134.094 44.0013 135.558C44.0742 137.022 43.0539 138.266 41.5963 138.266Z" fill="#782F40"/>
<path d="M71.3303 138.266H71.0388C69.5083 138.266 68.3423 137.022 68.3423 135.558C68.3423 134.021 69.5812 132.85 71.0388 132.85C72.5693 132.85 73.8811 134.094 73.8811 135.558C73.8082 137.022 72.7879 138.266 71.3303 138.266Z" fill="#782F40"/>
<path d="M83.0641 138.266H82.5539C81.0235 138.266 79.8574 137.022 79.8574 135.558C79.8574 134.021 81.0964 132.85 82.5539 132.85C84.0844 132.85 85.4691 134.094 85.4691 135.558C85.542 137.022 84.5217 138.266 83.0641 138.266Z" fill="#782F40"/>
<path d="M113.09 138.266H112.799C111.268 138.266 110.102 137.022 110.102 135.558C110.102 134.021 111.341 132.85 112.799 132.85C114.329 132.85 115.641 134.094 115.641 135.558C115.641 137.022 114.621 138.266 113.09 138.266Z" fill="#782F40"/>
<path d="M127.374 138.266H127.083C125.552 138.266 124.386 137.022 124.386 135.558C124.386 134.021 125.625 132.85 127.083 132.85C128.613 132.85 129.925 134.094 129.925 135.558C129.925 137.022 128.905 138.266 127.374 138.266Z" fill="#782F40"/>
<path d="M141.731 138.266H141.44C139.909 138.266 138.743 137.022 138.743 135.558C138.743 134.021 139.982 132.85 141.44 132.85C142.97 132.85 144.282 134.094 144.282 135.558C144.282 137.022 143.189 138.266 141.731 138.266Z" fill="#782F40"/>
<path d="M156.016 138.266H155.724C154.194 138.266 153.028 137.022 153.028 135.558C153.028 134.021 154.267 132.85 155.724 132.85C157.255 132.85 158.567 134.094 158.567 135.558C158.567 137.022 157.473 138.266 156.016 138.266Z" fill="#782F40"/>
<path d="M34.4537 151H33.9436C32.4131 151 31.2471 149.756 31.2471 148.292C31.2471 146.755 32.486 145.584 33.9436 145.584C35.474 145.584 36.8587 146.828 36.8587 148.292C36.8587 149.829 35.9113 151 34.4537 151Z" fill="#782F40"/>
<path d="M48.7384 151H48.2283C46.6978 151 45.5317 149.756 45.5317 148.292C45.5317 146.755 46.7707 145.584 48.2283 145.584C49.7587 145.584 51.1434 146.828 51.1434 148.292C51.2163 149.829 50.196 151 48.7384 151Z" fill="#782F40"/>
<path d="M63.0226 151H62.5124C60.982 151 59.8159 149.756 59.8159 148.292C59.8159 146.755 61.0549 145.584 62.5124 145.584C64.0429 145.584 65.4276 146.828 65.4276 148.292C65.5005 149.829 64.553 151 63.0226 151Z" fill="#782F40"/>
<path d="M77.3068 151H76.7966C75.2662 151 74.1001 149.756 74.1001 148.292C74.1001 146.755 75.339 145.584 76.7966 145.584C78.3271 145.584 79.7118 146.828 79.7118 148.292C79.7846 149.829 78.8372 151 77.3068 151Z" fill="#782F40"/>
<path d="M91.6638 151H91.3723C89.8418 151 88.6758 149.756 88.6758 148.292C88.6758 146.755 89.9147 145.584 91.3723 145.584C92.9027 145.584 94.2146 146.828 94.2146 148.292C94.2146 149.829 93.1214 151 91.6638 151Z" fill="#782F40"/>
<path d="M105.948 151H105.656C104.126 151 102.96 149.756 102.96 148.292C102.96 146.755 104.199 145.584 105.656 145.584C107.187 145.584 108.499 146.828 108.499 148.292C108.499 149.829 107.478 151 105.948 151Z" fill="#782F40"/>
<path d="M120.232 151H119.941C118.41 151 117.244 149.756 117.244 148.292C117.244 146.755 118.483 145.584 119.941 145.584C121.471 145.584 122.783 146.828 122.783 148.292C122.783 149.829 121.763 151 120.232 151Z" fill="#782F40"/>
<path d="M134.589 151H134.298C132.767 151 131.601 149.756 131.601 148.292C131.601 146.755 132.84 145.584 134.298 145.584C135.828 145.584 137.14 146.828 137.14 148.292C137.067 149.829 136.047 151 134.589 151Z" fill="#782F40"/>
<path d="M148.873 151H148.582C147.051 151 145.885 149.756 145.885 148.292C145.885 146.755 147.124 145.584 148.582 145.584C150.112 145.584 151.424 146.828 151.424 148.292C151.424 149.829 150.331 151 148.873 151Z" fill="#782F40"/>
<path d="M163.158 151H162.866C161.336 151 160.17 149.756 160.17 148.292C160.17 146.755 161.409 145.584 162.866 145.584C164.397 145.584 165.709 146.828 165.709 148.292C165.709 149.829 164.688 151 163.158 151Z" fill="#782F40"/>
<path d="M58.5037 137.168C56.9733 137.168 55.8801 136.583 55.2242 135.997C52.2362 133.582 52.0904 128.24 52.0175 122.019C51.9447 118.36 51.8718 114.554 51.0701 112.212C50.1956 109.578 48.5922 106.211 46.8431 102.698C41.7416 92.1596 35.3283 78.9864 40.5756 67.9355C41.2315 66.6181 42.8348 66.0327 44.1466 66.6181C45.4584 67.2768 46.0415 68.8869 45.4585 70.2042C41.3772 78.84 47.1347 90.6959 51.726 100.21C53.548 103.942 55.2242 107.455 56.2445 110.456C57.2648 113.603 57.3377 117.774 57.4106 121.873C57.4834 125.02 57.6292 130.801 58.6495 131.753C62.4392 131.021 64.8442 125.093 66.9577 119.897C69.4355 113.822 71.8405 108.041 77.0149 108.041C82.2622 108.041 84.6672 113.822 87.2179 119.97C89.3314 125.166 91.8093 131.021 95.4532 131.679C96.6193 130.874 96.7651 125.02 96.7651 121.946C96.8379 117.921 96.9108 113.676 97.9311 110.602C98.8785 107.528 100.628 103.942 102.45 100.064C103.543 97.7948 104.709 95.3797 105.802 92.8914C106.385 91.5009 107.988 90.9155 109.373 91.5009C110.758 92.0864 111.341 93.6965 110.758 95.087C109.665 97.5753 108.499 100.064 107.332 102.405C105.583 106.065 103.907 109.504 103.106 112.212C102.377 114.627 102.231 118.433 102.158 122.092C102.012 128.313 101.939 133.582 98.9514 136.07C98.0769 136.802 96.6193 137.534 94.4329 137.095C87.9467 135.924 84.8858 128.606 82.1893 122.092C80.6589 118.433 78.6183 113.456 76.942 113.456C75.4116 113.456 73.2981 118.579 71.9134 121.946C69.2169 128.459 66.2289 135.851 59.6698 137.022C59.3054 137.168 58.8681 137.168 58.5037 137.168ZM111.195 88.9395C110.904 88.9395 110.685 88.8663 110.393 88.7931C108.936 88.354 108.207 86.8171 108.644 85.3534C111.559 75.9858 110.175 69.3992 104.126 64.6422C99.17 60.617 90.2789 60.6902 82.9181 62.3002C84.4486 63.0321 86.0519 63.9103 87.5823 64.7885C88.8942 65.5204 89.3314 67.2036 88.5298 68.5209C87.801 69.8383 86.1248 70.2774 84.8129 69.4723C81.3148 67.4232 77.7437 65.7399 74.3184 64.4958C74.0998 64.4226 73.8811 64.3494 73.6625 64.2762C63.8968 60.8366 54.9327 60.6902 50.1227 64.3494C48.9566 65.2276 47.2075 65.0081 46.333 63.7639C45.4585 62.593 45.6771 60.8366 46.916 59.9583C53.2565 55.2013 63.5324 54.9818 74.9743 58.8606C83.7926 55.5673 98.8785 53.3717 107.478 60.3243C115.349 66.545 117.39 75.2539 113.746 86.8903C113.381 88.2076 112.361 88.9395 111.195 88.9395Z" fill="#782F40"/>
<path d="M49.5398 104.528H28.6965C27.1661 104.528 26 103.284 26 101.82C26 100.283 27.2389 99.1121 28.6965 99.1121H49.5398C51.0703 99.1121 52.2363 100.356 52.2363 101.82C52.2363 103.357 50.9974 104.528 49.5398 104.528Z" fill="#782F40"/>
<path d="M163.303 104.528H129.488C127.957 104.528 126.791 103.284 126.791 101.82C126.791 100.283 128.03 99.1121 129.488 99.1121H163.303C164.834 99.1121 166 100.356 166 101.82C166 103.357 164.834 104.528 163.303 104.528ZM117.681 104.528H104.636C103.106 104.528 101.939 103.284 101.939 101.82C101.939 100.283 103.178 99.1121 104.636 99.1121H117.681C119.212 99.1121 120.378 100.356 120.378 101.82C120.378 103.357 119.212 104.528 117.681 104.528Z" fill="#782F40"/>
<path d="M139.326 83.6702C138.889 83.6702 138.452 83.5238 138.014 83.3042L122.564 74.8148C121.908 74.4489 121.471 73.8634 121.252 73.2048C121.034 72.5461 121.107 71.7411 121.471 71.1556L140.201 37.3443C140.565 36.6856 141.148 36.2465 141.804 36.0269C142.46 35.8074 143.262 35.8806 143.845 36.2465L159.076 44.8823C160.388 45.6141 160.826 47.2242 160.097 48.5415L141.513 82.2065C141.221 83.1579 140.274 83.6702 139.326 83.6702ZM127.593 71.3751L138.233 77.2299L154.266 48.322L143.699 42.394L127.593 71.3751Z" fill="#782F40"/>
<path d="M130.435 90.5495C129.998 90.5495 129.56 90.4031 129.123 90.1836L121.69 86.012C121.034 85.6461 120.596 85.0606 120.378 84.402C120.159 83.6701 120.305 82.9383 120.596 82.3528L125.698 73.4243C126.427 72.1069 128.103 71.6678 129.415 72.3997C130.726 73.1315 131.164 74.8148 130.435 76.1321L126.718 82.6455L129.415 84.1824L129.706 83.6701C130.435 82.3528 132.111 81.9137 133.35 82.6455C134.662 83.3774 135.099 84.9874 134.37 86.3048L132.767 89.159C132.257 90.0372 131.382 90.5495 130.435 90.5495Z" fill="#782F40"/>
<path d="M117.681 104.528C117.244 104.528 116.807 104.381 116.37 104.162C115.058 103.43 114.621 101.747 115.276 100.503L124.168 84.402C124.896 83.0846 126.573 82.6455 127.812 83.3042C129.123 84.036 129.561 85.7193 128.905 86.9634L120.014 103.064C119.576 104.089 118.629 104.528 117.681 104.528Z" fill="#782F40"/>
<path d="M150.477 45.6872C150.04 45.6872 149.602 45.5409 149.165 45.3213C147.853 44.5895 147.416 42.9794 148.072 41.6621L156.016 27.0983C156.744 25.781 158.348 25.2687 159.66 26.0005C160.971 26.7324 161.409 28.3425 160.753 29.6598L152.809 44.2967C152.299 45.1749 151.424 45.6872 150.477 45.6872Z" fill="#782F40"/>
<path d="M163.303 33.8314C162.866 33.8314 162.429 33.685 161.992 33.4655L152.299 28.0498C150.987 27.318 150.55 25.6347 151.278 24.3906C152.007 23.0732 153.683 22.6341 154.922 23.366L164.615 28.7816C165.927 29.5135 166.364 31.1967 165.635 32.4409C165.198 33.3191 164.251 33.8314 163.303 33.8314Z" fill="#782F40"/>
<path d="M153.173 58.7874C152.736 58.7874 152.299 58.641 151.862 58.4214L146.614 55.5672C145.302 54.8354 144.792 53.2253 145.521 51.908C146.25 50.5907 147.853 50.0784 149.165 50.8102L154.412 53.6644C155.724 54.3963 156.234 56.0064 155.506 57.3237C155.068 58.2751 154.121 58.7874 153.173 58.7874Z" fill="#782F40"/>
<path d="M148.509 66.9109C148.072 66.9109 147.562 66.7645 147.124 66.5449L142.023 63.5444C140.711 62.8125 140.347 61.1293 141.076 59.8119C141.877 58.4946 143.481 58.1287 144.792 58.8605L149.894 61.8611C151.206 62.593 151.57 64.2762 150.841 65.5935C150.331 66.3986 149.457 66.9109 148.509 66.9109Z" fill="#782F40"/>
<path d="M144.064 74.888C143.626 74.888 143.189 74.7416 142.752 74.5221L137.65 71.6678C136.338 70.936 135.901 69.2528 136.63 68.0086C137.359 66.6913 139.035 66.2522 140.274 66.984L145.375 69.8382C146.687 70.5701 147.124 72.2533 146.396 73.4975C145.958 74.3757 145.011 74.888 144.064 74.888Z" fill="#782F40"/>
</g>
<defs>
<clipPath id="clip0">
<rect width="140" height="128" fill="white" transform="translate(26 23)"/>
</clipPath>
</defs>
</svg>
