<svg width="72" height="72" viewBox="0 0 72 72" fill="none" xmlns="http://www.w3.org/2000/svg">
<path d="M42.1593 50.5954C42.0383 50.5954 41.9172 50.5954 41.7962 50.5712C39.6177 50.1839 38.6252 47.7633 37.7296 45.609C37.2213 44.3987 36.5435 42.7526 35.9867 42.7526C35.4784 42.7526 34.7764 44.4471 34.3165 45.5606C33.4209 47.7149 32.4284 50.1597 30.2499 50.547C29.5237 50.668 29.0396 50.426 28.7491 50.1839C27.7567 49.3609 27.7324 47.6181 27.684 45.5848C27.6598 44.3744 27.6356 43.1157 27.3694 42.3411C27.0789 41.4455 26.5221 40.2836 25.9412 39.0975C24.9729 37.0884 23.8837 34.8372 23.4238 32.5861C23.3269 32.1019 23.6416 31.6178 24.1257 31.521C24.6099 31.4242 25.094 31.7388 25.1908 32.223C25.5781 34.2321 26.6432 36.3864 27.563 38.2987C28.1682 39.5574 28.7491 40.7677 29.088 41.7844C29.4269 42.8253 29.4511 44.205 29.4753 45.5363C29.4995 46.5772 29.5479 48.5137 29.8868 48.8042C31.1213 48.5621 31.9443 46.6014 32.6463 44.8828C33.4693 42.8737 34.2681 40.9614 35.9867 40.9614C37.7296 40.9614 38.5284 42.8737 39.3756 44.907C40.0776 46.6256 40.9006 48.5621 42.1109 48.78C42.474 48.5137 42.5224 46.6014 42.5466 45.5848C42.5708 44.9796 42.595 44.3502 42.6192 43.7693C42.6676 43.2852 43.1518 42.9221 43.5875 42.9463C44.0716 42.9947 44.4589 43.4062 44.4105 43.9145C44.3621 44.4713 44.3379 45.0522 44.3379 45.6332C44.2652 47.6423 44.2168 49.3851 43.2486 50.1839C43.0065 50.4018 42.6676 50.5954 42.1593 50.5954ZM47.3878 34.6436C47.3152 34.6436 47.2184 34.6436 47.1216 34.5952C46.6374 34.4499 46.3712 33.9658 46.5164 33.4817C47.4605 30.3107 46.9763 28.2047 44.9672 26.6313C43.3212 25.3 40.3923 25.3242 37.9474 25.8567C38.4558 26.123 38.9883 26.3893 39.4966 26.6798C39.9323 26.9218 40.0776 27.4786 39.8113 27.9143C39.5693 28.35 39.0125 28.4952 38.5768 28.2289C37.4633 27.5754 36.3014 27.0186 35.1637 26.6071C35.0427 26.5829 34.9217 26.5587 34.8248 26.4861C33.4935 26.0262 32.1864 25.7357 30.9519 25.6631C30.4677 25.6389 30.0804 25.2032 30.1046 24.7191C30.1289 24.2349 30.5404 23.8718 31.0487 23.8718C32.38 23.9687 33.8324 24.2591 35.2848 24.7433C38.2137 23.654 43.2244 22.9278 46.0807 25.2274C48.6708 27.2607 49.3727 30.117 48.2351 33.99C48.1382 34.3773 47.7751 34.6436 47.3878 34.6436Z" fill="#782F40"/>
<path d="M45.7437 42.0748C44.025 42.0748 42.6211 40.6467 42.6211 38.9038C42.6211 37.1852 44.025 35.7813 45.7437 35.7813C46.0099 35.7813 46.4215 35.7812 46.833 35.9749C47.2687 36.1928 47.4623 36.7253 47.2445 37.1852C47.0266 37.6209 46.4941 37.8146 46.0584 37.5967C46.0099 37.5725 45.8647 37.5725 45.7679 37.5725C45.0417 37.5725 44.4366 38.1777 44.4366 38.9038C44.4366 39.6542 45.0175 40.2836 45.7679 40.2836C46.4941 40.2836 47.0992 39.6784 47.0992 38.9038C47.0992 38.4197 47.5107 38.0082 47.9949 38.0082C48.5032 38.0082 48.8905 38.4197 48.8905 38.9038C48.8663 40.6467 47.4623 42.0748 45.7437 42.0748Z" fill="#782F40"/>
<path d="M26.2569 30.4557C24.5141 30.4557 23.0859 29.0517 23.0859 27.3331C23.0859 25.5661 24.4657 24.1621 26.2569 24.1621C26.499 24.1621 26.8137 24.2105 27.1526 24.2831C27.6367 24.4042 27.9272 24.8883 27.8061 25.3724C27.6851 25.8565 27.201 26.147 26.7169 26.026C26.4264 25.9534 26.2811 25.9534 26.2569 25.9534C25.4823 25.9534 24.8772 26.5585 24.8772 27.3331C24.8772 28.0593 25.4823 28.6644 26.2569 28.6644C26.9831 28.6644 27.5883 28.0593 27.5883 27.3331C27.5883 26.849 27.9998 26.4375 28.4839 26.4375C28.968 26.4375 29.3795 26.849 29.3795 27.3331C29.3795 29.076 27.9756 30.4557 26.2569 30.4557Z" fill="#782F40"/>
<path d="M58.3551 45.2456H51.1175C50.8754 45.2456 50.6576 45.1488 50.4881 44.9793L46.6878 41.1306C46.3489 40.7675 46.3489 40.2107 46.6878 39.8718C47.0509 39.533 47.6076 39.533 47.9465 39.8718L51.4806 43.4543H58.3309C58.8392 43.4543 59.2265 43.8658 59.2265 44.35C59.2265 44.8341 58.8635 45.2456 58.3551 45.2456Z" fill="#782F40"/>
<path d="M24.6836 26.6557C24.4416 26.6557 24.2237 26.5588 24.0543 26.3894L20.4476 22.8069H13.6456C13.1615 22.8069 12.75 22.3954 12.75 21.9113C12.75 21.4271 13.1615 21.0156 13.6456 21.0156H20.8349C21.0769 21.0156 21.2948 21.1124 21.4642 21.2819L25.313 25.1307C25.6519 25.4938 25.6519 26.0505 25.313 26.3894C25.1435 26.583 24.9015 26.6557 24.6836 26.6557Z" fill="#782F40"/>
<path d="M58.3538 41.7117H55.9816C55.4732 41.7117 55.0859 41.3002 55.0859 40.816C55.0859 40.3319 55.4974 39.9204 55.9816 39.9204H58.3538C58.8621 39.9204 59.2494 40.3319 59.2494 40.816C59.2494 41.3002 58.8621 41.7117 58.3538 41.7117Z" fill="#782F40"/>
<path d="M58.3549 38.1292H53.6105C53.1021 38.1292 52.7148 37.7176 52.7148 37.2335C52.7148 36.7494 53.1263 36.3379 53.6105 36.3379H58.3549C58.8632 36.3379 59.2505 36.7494 59.2505 37.2335C59.2505 37.7176 58.8632 38.1292 58.3549 38.1292Z" fill="#782F40"/>
<path d="M16.0178 26.3406H13.6456C13.1615 26.3406 12.75 25.9291 12.75 25.4449C12.75 24.9608 13.1615 24.5493 13.6456 24.5493H16.0178C16.502 24.5493 16.9135 24.9608 16.9135 25.4449C16.9135 25.9533 16.5262 26.3406 16.0178 26.3406Z" fill="#782F40"/>
<path d="M18.39 29.8748H13.6456C13.1615 29.8748 12.75 29.4632 12.75 28.9791C12.75 28.495 13.1615 28.0835 13.6456 28.0835H18.39C18.8742 28.0835 19.2857 28.495 19.2857 28.9791C19.2857 29.4875 18.8984 29.8748 18.39 29.8748Z" fill="#782F40"/>
<path d="M35.989 57.01C24.3216 57.01 14.8086 47.4969 14.8086 35.7812C14.8086 34.7403 14.9054 33.6268 15.0749 32.3197C15.1475 31.8356 15.6074 31.4725 16.0915 31.5693C16.5756 31.6419 16.9145 32.1018 16.8419 32.586C16.6725 33.7963 16.5756 34.8129 16.5756 35.7812C16.5756 46.5045 25.2656 55.2187 35.9406 55.2187C42.1615 55.2187 48.0678 52.1929 51.7472 47.1339C52.0376 46.7223 52.5944 46.6497 53.0059 46.9402C53.4174 47.2307 53.49 47.7874 53.1995 48.1989C49.2297 53.7179 42.7909 57.01 35.989 57.01ZM56.2011 34.7887C55.7412 34.7887 55.3539 34.4498 55.3055 33.9657C54.3856 23.9686 46.0829 16.4163 35.989 16.4163C31.9223 16.4163 28.0009 17.6992 24.6363 20.0956C24.2248 20.3861 23.668 20.2892 23.3776 19.9019C23.0871 19.4904 23.1839 18.9337 23.5712 18.6432C27.2506 16.0048 31.535 14.625 35.989 14.625C47.027 14.625 56.1043 22.8793 57.0967 33.8205C57.1451 34.3046 56.782 34.7403 56.2737 34.7887C56.2495 34.7887 56.2253 34.7887 56.2011 34.7887Z" fill="#782F40"/>
</svg>
