<svg width="192" height="192" viewBox="0 0 192 192" fill="none" xmlns="http://www.w3.org/2000/svg">
<g clip-path="url(#clip0)">
<path d="M109.592 126.912C108.645 126.912 107.77 126.405 107.26 125.536C105.584 122.641 104.272 119.455 102.96 116.342C100.919 111.492 98.3687 105.411 95.9637 105.411C93.5587 105.411 91.1537 111.347 89.1131 116.198C87.8013 119.383 86.4166 122.641 84.7404 125.609C84.0116 126.912 82.3354 127.346 81.0236 126.622C79.7118 125.898 79.2745 124.233 80.0033 122.93C81.5337 120.324 82.7727 117.211 84.0116 114.171C86.9996 106.931 89.8419 100.126 95.818 100.126C101.867 100.126 104.709 107.004 107.77 114.315C109.009 117.284 110.321 120.396 111.778 122.93C112.507 124.233 112.07 125.826 110.758 126.622C110.539 126.767 110.029 126.912 109.592 126.912ZM69.0715 126.912C67.7596 126.912 66.5936 125.898 66.375 124.523C66.0834 121.917 66.0106 118.949 65.9377 116.053C65.8648 111.637 65.719 107.076 64.7716 104.18C63.7513 100.923 61.7107 96.7964 59.5972 92.4528C53.3297 79.6393 45.6045 63.6406 52.3822 50.5375C53.0381 49.2344 54.7144 48.7277 56.0262 49.3792C57.338 50.0308 57.8481 51.6958 57.1922 52.9989C51.6535 63.713 58.7227 78.3363 64.4801 90.1363C66.6665 94.697 68.7799 98.9682 69.946 102.588C71.1121 106.207 71.2578 111.203 71.4036 115.98C71.4765 118.876 71.5493 121.627 71.8409 123.944C72.0595 125.391 70.9663 126.767 69.5087 126.912C69.2901 126.912 69.2172 126.912 69.0715 126.912ZM123.002 126.912C122.929 126.912 122.856 126.912 122.71 126.912C121.253 126.767 120.159 125.464 120.305 123.944C120.524 121.699 120.597 119.093 120.67 116.415C120.815 111.492 120.888 106.352 121.981 102.66C123.147 99.113 125.042 95.2038 127.083 91.0774C128.905 87.3854 130.727 83.5485 132.403 79.567C132.986 78.1915 134.517 77.54 135.901 78.0467C137.286 78.6259 137.942 80.1461 137.432 81.5216C135.755 85.7203 133.861 89.6295 131.966 93.3939C129.998 97.3755 128.176 101.14 127.156 104.253C126.281 107.221 126.135 111.999 126.063 116.56C125.99 119.383 125.917 122.134 125.698 124.523C125.48 125.898 124.314 126.912 123.002 126.912ZM137.723 75.7301C137.505 75.7301 137.213 75.7301 136.994 75.6578C135.537 75.2234 134.735 73.7755 135.172 72.3277C138.598 60.4553 136.849 52.4921 129.415 46.5559C122.856 41.3436 110.904 41.7056 101.43 43.9498C103.835 45.0357 106.24 46.2663 108.572 47.6418C109.884 48.3657 110.321 50.0308 109.592 51.3338C108.863 52.6369 107.187 53.0712 105.875 52.2749C101.575 49.8136 97.2755 47.7866 93.0486 46.2663C92.6842 46.1939 92.3198 46.1216 92.0283 45.9044C80.0033 41.778 68.9986 41.7056 62.8768 46.1939C61.7107 47.0627 59.9616 46.8455 59.0871 45.6148C58.2125 44.4565 58.4312 42.7191 59.6701 41.8504C67.1766 36.3485 79.7118 36.059 93.4129 40.6197C103.98 36.6381 122.419 33.9596 132.767 42.2123C141.877 49.4516 144.355 59.7314 140.347 73.6308C139.982 75.0062 138.889 75.7301 137.723 75.7301Z" fill="#782F40"/>
<path d="M29.2067 116.777H28.6965C27.2389 116.777 26 115.546 26 114.098C26 112.65 27.2389 111.42 28.6965 111.42C30.1541 111.42 31.6117 112.65 31.6117 114.098C31.6117 115.546 30.6642 116.777 29.2067 116.777Z" fill="#782F40"/>
<path d="M43.928 116.777H43.6365C42.1789 116.777 40.9399 115.546 40.9399 114.098C40.9399 112.65 42.1789 111.42 43.6365 111.42C45.094 111.42 46.4787 112.65 46.4787 114.098C46.4787 115.546 45.4584 116.777 43.928 116.777Z" fill="#782F40"/>
<path d="M58.8684 116.777H58.5769C57.1193 116.777 55.8804 115.546 55.8804 114.098C55.8804 112.65 57.1193 111.42 58.5769 111.42C60.0345 111.42 61.4192 112.65 61.4192 114.098C61.4192 115.546 60.3989 116.777 58.8684 116.777Z" fill="#782F40"/>
<path d="M133.423 116.777H133.132C131.601 116.777 130.435 115.546 130.435 114.098C130.435 112.65 131.674 111.42 133.132 111.42C134.662 111.42 135.974 112.65 135.974 114.098C135.974 115.546 134.954 116.777 133.423 116.777Z" fill="#782F40"/>
<path d="M148.363 116.777H147.853C146.323 116.777 145.157 115.546 145.157 114.098C145.157 112.65 146.396 111.42 147.853 111.42C149.384 111.42 150.768 112.65 150.768 114.098C150.768 115.546 149.894 116.777 148.363 116.777Z" fill="#782F40"/>
<path d="M163.303 116.777H162.793C161.263 116.777 160.097 115.546 160.097 114.098C160.097 112.65 161.336 111.42 162.793 111.42C164.324 111.42 165.708 112.65 165.708 114.098C165.708 115.546 164.834 116.777 163.303 116.777Z" fill="#782F40"/>
<path d="M36.6401 129.59H36.2029C34.7453 129.59 33.5063 128.36 33.5063 126.912C33.5063 125.391 34.7453 124.233 36.2029 124.233C37.6604 124.233 39.118 125.464 39.118 126.912C39.118 128.36 38.1706 129.59 36.6401 129.59Z" fill="#782F40"/>
<path d="M51.4348 129.59H51.1433C49.6857 129.59 48.4468 128.36 48.4468 126.912C48.4468 125.391 49.6857 124.233 51.1433 124.233C52.6009 124.233 53.9856 125.464 53.9856 126.912C53.9856 128.36 52.8924 129.59 51.4348 129.59Z" fill="#782F40"/>
<path d="M96.255 129.59H95.7448C94.2873 129.59 93.0483 128.36 93.0483 126.912C93.0483 125.391 94.2873 124.233 95.7448 124.233C97.2024 124.233 98.66 125.464 98.66 126.912C98.7329 128.36 97.7126 129.59 96.255 129.59Z" fill="#782F40"/>
<path d="M140.93 129.59H140.42C138.889 129.59 137.723 128.36 137.723 126.912C137.723 125.391 138.962 124.233 140.42 124.233C141.95 124.233 143.335 125.464 143.335 126.912C143.408 128.36 142.387 129.59 140.93 129.59Z" fill="#782F40"/>
<path d="M155.87 129.59H155.36C153.829 129.59 152.663 128.36 152.663 126.912C152.663 125.391 153.902 124.233 155.36 124.233C156.89 124.233 158.275 125.464 158.275 126.912C158.348 128.36 157.327 129.59 155.87 129.59Z" fill="#782F40"/>
<path d="M29.2067 142.187H28.6965C27.2389 142.187 26 140.956 26 139.508C26 137.988 27.2389 136.829 28.6965 136.829C30.1541 136.829 31.6117 138.06 31.6117 139.508C31.6117 141.028 30.6642 142.187 29.2067 142.187Z" fill="#782F40"/>
<path d="M43.928 142.187H43.6365C42.1789 142.187 40.9399 140.956 40.9399 139.508C40.9399 137.988 42.1789 136.829 43.6365 136.829C45.094 136.829 46.4787 138.06 46.4787 139.508C46.4787 141.028 45.4584 142.187 43.928 142.187Z" fill="#782F40"/>
<path d="M58.8684 142.187H58.5769C57.1193 142.187 55.8804 140.956 55.8804 139.508C55.8804 137.988 57.1193 136.829 58.5769 136.829C60.0345 136.829 61.4192 138.06 61.4192 139.508C61.4192 141.028 60.3989 142.187 58.8684 142.187Z" fill="#782F40"/>
<path d="M73.8815 142.187H73.3713C71.9137 142.187 70.6748 140.956 70.6748 139.508C70.6748 137.988 71.9137 136.829 73.3713 136.829C74.8289 136.829 76.2865 138.06 76.2865 139.508C76.2865 141.028 75.339 142.187 73.8815 142.187Z" fill="#782F40"/>
<path d="M88.8214 142.187H88.3113C86.8537 142.187 85.6147 140.956 85.6147 139.508C85.6147 137.988 86.8537 136.829 88.3113 136.829C89.7688 136.829 91.2264 138.06 91.2264 139.508C91.2264 141.028 90.279 142.187 88.8214 142.187Z" fill="#782F40"/>
<path d="M103.689 142.187H103.252C101.721 142.187 100.555 140.956 100.555 139.508C100.555 137.988 101.794 136.829 103.252 136.829C104.782 136.829 106.167 138.06 106.167 139.508C106.167 141.028 105.219 142.187 103.689 142.187Z" fill="#782F40"/>
<path d="M118.483 142.187H118.192C116.661 142.187 115.495 140.956 115.495 139.508C115.495 137.988 116.734 136.829 118.192 136.829C119.722 136.829 121.034 138.06 121.034 139.508C121.034 141.028 120.014 142.187 118.483 142.187Z" fill="#782F40"/>
<path d="M133.423 142.187H133.132C131.601 142.187 130.435 140.956 130.435 139.508C130.435 137.988 131.674 136.829 133.132 136.829C134.662 136.829 135.974 138.06 135.974 139.508C135.974 141.028 134.954 142.187 133.423 142.187Z" fill="#782F40"/>
<path d="M148.363 142.187H147.853C146.323 142.187 145.157 140.956 145.157 139.508C145.157 137.988 146.396 136.829 147.853 136.829C149.384 136.829 150.768 138.06 150.768 139.508C150.841 141.028 149.894 142.187 148.363 142.187Z" fill="#782F40"/>
<path d="M163.303 142.187H162.793C161.263 142.187 160.097 140.956 160.097 139.508C160.097 137.988 161.336 136.829 162.793 136.829C164.324 136.829 165.708 138.06 165.708 139.508C165.781 141.028 164.834 142.187 163.303 142.187Z" fill="#782F40"/>
<path d="M36.6401 155H36.2029C34.7453 155 33.5063 153.77 33.5063 152.322C33.5063 150.801 34.7453 149.643 36.2029 149.643C37.6604 149.643 39.118 150.874 39.118 152.322C39.118 153.77 38.1706 155 36.6401 155Z" fill="#782F40"/>
<path d="M51.4348 155H51.1433C49.6857 155 48.4468 153.77 48.4468 152.322C48.4468 150.801 49.6857 149.643 51.1433 149.643C52.6009 149.643 53.9856 150.874 53.9856 152.322C53.9856 153.77 52.8924 155 51.4348 155Z" fill="#782F40"/>
<path d="M66.3747 155H66.0832C64.6257 155 63.3867 153.77 63.3867 152.322C63.3867 150.801 64.6257 149.643 66.0832 149.643C67.5408 149.643 68.9255 150.874 68.9255 152.322C68.9255 153.77 67.8323 155 66.3747 155Z" fill="#782F40"/>
<path d="M81.3151 155H80.8049C79.3473 155 78.1084 153.77 78.1084 152.322C78.1084 150.801 79.3473 149.643 80.8049 149.643C82.2625 149.643 83.7201 150.874 83.7201 152.322C83.7929 153.77 82.7726 155 81.3151 155Z" fill="#782F40"/>
<path d="M96.255 155H95.7448C94.2873 155 93.0483 153.77 93.0483 152.322C93.0483 150.801 94.2873 149.643 95.7448 149.643C97.2024 149.643 98.66 150.874 98.66 152.322C98.7329 153.77 97.7126 155 96.255 155Z" fill="#782F40"/>
<path d="M111.05 155H110.758C109.228 155 108.062 153.77 108.062 152.322C108.062 150.801 109.3 149.643 110.758 149.643C112.288 149.643 113.6 150.874 113.6 152.322C113.6 153.77 112.507 155 111.05 155Z" fill="#782F40"/>
<path d="M125.989 155H125.698C124.168 155 123.001 153.77 123.001 152.322C123.001 150.801 124.24 149.643 125.698 149.643C127.228 149.643 128.54 150.874 128.54 152.322C128.54 153.77 127.447 155 125.989 155Z" fill="#782F40"/>
<path d="M140.93 155H140.42C138.889 155 137.723 153.77 137.723 152.322C137.723 150.801 138.962 149.643 140.42 149.643C141.95 149.643 143.335 150.874 143.335 152.322C143.408 153.77 142.387 155 140.93 155Z" fill="#782F40"/>
<path d="M155.87 155H155.36C153.829 155 152.663 153.77 152.663 152.322C152.663 150.801 153.902 149.643 155.36 149.643C156.89 149.643 158.275 150.874 158.275 152.322C158.348 153.77 157.327 155 155.87 155Z" fill="#782F40"/>
<path d="M163.304 104.18H125.334C123.803 104.18 122.637 102.95 122.637 101.502C122.637 100.054 123.876 98.8234 125.334 98.8234H163.304C164.834 98.8234 166 100.054 166 101.502C166 102.95 164.834 104.18 163.304 104.18Z" fill="#782F40"/>
<path d="M66.6663 104.18H28.6965C27.2389 104.18 26 102.95 26 101.502C26 100.054 27.2389 98.8234 28.6965 98.8234H66.6663C68.1239 98.8234 69.3628 100.054 69.3628 101.502C69.3628 102.95 68.1968 104.18 66.6663 104.18Z" fill="#782F40"/>
<path d="M74.1728 133.861C73.8813 133.861 73.5898 133.789 73.3712 133.717C71.9865 133.282 71.1848 131.762 71.6221 130.314C76.2863 116.053 75.4846 104.542 74.9016 95.2762C74.3915 87.0958 73.9542 80.5805 78.0354 76.2369C81.2421 72.8345 86.7808 71.3142 95.9636 71.3142C97.4211 71.3142 98.6601 72.5449 98.6601 73.9927C98.6601 75.4406 97.4211 76.6713 95.9636 76.6713C88.6028 76.6713 84.0115 77.7572 81.9709 79.9289C79.493 82.6075 79.7845 87.7473 80.2946 94.9142C80.8777 104.108 81.7522 116.704 76.7236 131.979C76.3592 133.138 75.266 133.861 74.1728 133.861Z" fill="#782F40"/>
<path d="M117.682 133.861C116.516 133.861 115.495 133.138 115.131 131.979C110.175 116.704 110.977 104.108 111.633 94.9142C112.143 87.7473 112.507 82.6075 109.956 79.9289C107.916 77.7572 103.324 76.6713 95.8909 76.6713C94.4333 76.6713 93.1943 75.4406 93.1943 73.9927C93.1943 72.5449 94.4333 71.3142 95.8909 71.3142C105.146 71.3142 110.685 72.8345 113.892 76.3093C117.973 80.6529 117.536 87.1682 116.953 95.3486C116.297 104.615 115.495 116.125 120.159 130.387C120.597 131.762 119.868 133.282 118.41 133.789C118.265 133.789 117.973 133.861 117.682 133.861Z" fill="#782F40"/>
<path d="M77.5253 95.4934C76.8694 95.4934 76.2864 95.2762 75.7762 94.8418C74.6102 93.9007 74.5373 92.1633 75.4847 91.0774C80.5862 85.1412 88.0927 81.7388 96.1094 81.7388C104.126 81.7388 111.414 84.9964 116.734 91.005C117.754 92.0909 117.609 93.8283 116.515 94.7694C115.422 95.7105 113.673 95.6382 112.726 94.5523C108.426 89.7744 102.596 87.0958 96.1823 87.0958C89.6961 87.0958 83.72 89.7744 79.6388 94.5523C79.0558 95.1314 78.2541 95.4934 77.5253 95.4934Z" fill="#782F40"/>
</g>
<defs>
<clipPath id="clip0">
<rect width="140" height="118" fill="white" transform="translate(26 37)"/>
</clipPath>
</defs>
</svg>
