<svg width="72" height="72" viewBox="0 0 72 72" fill="none" xmlns="http://www.w3.org/2000/svg">
<path d="M47.8543 35.5445C41.5628 35.5445 36.457 30.4387 36.457 24.1473C36.457 17.8558 41.5628 12.75 47.8543 12.75C50.2015 12.75 52.4761 13.4759 54.4362 14.8552C54.8475 15.1456 54.9443 15.7022 54.6539 16.1135C54.3636 16.5249 53.807 16.6217 53.3956 16.3313C51.7502 15.1698 49.8143 14.5407 47.8543 14.5407C42.5549 14.5407 38.2477 18.8479 38.2477 24.1473C38.2477 29.4466 42.5549 33.7539 47.8543 33.7539C53.1537 33.7539 57.4609 29.4466 57.4609 24.1473C57.4609 22.163 56.8318 20.1788 55.6703 18.6059C55.3799 18.1946 55.4767 17.638 55.8638 17.3476C56.251 17.0572 56.8318 17.154 57.1221 17.5412C58.5014 19.4287 59.2516 21.7759 59.2516 24.1473C59.2516 30.4387 54.1458 35.5445 47.8543 35.5445Z" fill="#782F40"/>
<path d="M46.9101 27.9948C46.6197 27.9948 46.3535 27.8496 46.1841 27.6318L43.9579 24.5587C43.6675 24.1473 43.7643 23.5907 44.1515 23.3004C44.5629 23.01 45.1194 23.1068 45.4098 23.494L46.8859 25.5266L50.2736 20.6386C50.564 20.2272 51.1205 20.1304 51.5319 20.4208C51.9432 20.7112 52.04 21.2677 51.7497 21.6791L47.636 27.5834C47.4666 27.8496 47.2246 28.019 46.9101 27.9948Z" fill="#782F40"/>
<path d="M21.4527 59.2102C20.8477 59.2102 20.4121 58.9682 20.146 58.7505C18.9361 57.7583 18.8635 55.4353 18.8151 52.7493C18.7667 51.0555 18.7425 49.3132 18.3553 48.1759C17.9681 46.9418 17.218 45.4173 16.4195 43.7961C15.7419 42.4168 15.0402 40.9891 14.411 39.4888C14.2175 39.0291 14.4352 38.4967 14.895 38.3273C15.3548 38.1337 15.8871 38.3515 16.0565 38.8113C16.6615 40.2632 17.339 41.6667 18.0165 43.0217C18.8393 44.6914 19.6136 46.2885 20.0492 47.6436C20.4847 49.0228 20.5331 50.9103 20.5815 52.7251C20.6299 54.4916 20.6783 56.9114 21.2591 57.3712C21.2833 57.3954 21.3559 57.4438 21.5737 57.4196C23.4127 57.105 24.5258 54.3706 25.5179 51.9508C26.6068 49.289 27.6474 46.7966 29.801 46.7966C31.9546 46.7966 32.9951 49.3132 34.1082 51.9508C35.1245 54.3706 36.2618 57.105 38.0767 57.4196C38.2945 57.468 38.3671 57.3954 38.3913 57.3712C38.972 56.8872 39.0446 54.4674 39.0688 52.7251C39.1172 50.9103 39.1656 49.0229 39.6012 47.6194C40.0367 46.2643 40.8111 44.6914 41.6338 42.9975C42.5533 41.1101 43.618 38.9565 44.2956 36.8512C44.4408 36.3673 44.9489 36.1253 45.4329 36.2705C45.8927 36.4157 46.1588 36.9238 46.0136 37.4078C45.2877 39.634 44.1988 41.836 43.2551 43.7961C42.4565 45.4173 41.7064 46.9418 41.3192 48.1759C40.9563 49.3132 40.9079 51.0797 40.8595 52.7735C40.7869 55.4595 40.7385 57.7825 39.5286 58.7747C39.1898 59.0408 38.6332 59.3312 37.7863 59.186C35.0035 58.7263 33.6485 55.4837 32.4628 52.6525C31.6642 50.7409 30.7689 48.5873 29.8252 48.5873C28.8815 48.5873 27.9861 50.7409 27.2118 52.6284C26.0261 55.4837 24.6952 58.7021 21.9124 59.1618C21.7188 59.2102 21.5737 59.2102 21.4527 59.2102ZM14.3384 37.5046C13.9513 37.5046 13.5883 37.2626 13.4673 36.8512C11.9428 31.6971 12.8382 27.898 16.2501 25.1878C20.0492 22.1631 26.994 23.2278 30.7447 24.6554C31.9788 24.2441 33.2129 23.9053 34.4228 23.6875C34.9068 23.5907 35.3665 23.9295 35.4633 24.4135C35.5601 24.8974 35.2213 25.3814 34.7374 25.454C33.5759 25.6718 32.366 25.9863 31.1561 26.4219C31.0835 26.4703 30.9867 26.4945 30.8899 26.5187C29.2444 27.1236 27.599 27.8738 26.0745 28.7933C25.6389 29.0353 25.1066 28.9143 24.8404 28.4787C24.5984 28.0432 24.7194 27.5108 25.155 27.2446C26.0987 26.6881 27.0908 26.1799 28.1071 25.7202C24.55 24.8006 19.904 24.5829 17.3632 26.6155C14.5562 28.8417 13.8787 31.9391 15.1854 36.3673C15.3306 36.8512 15.0644 37.3352 14.5804 37.4804C14.5078 37.4804 14.4352 37.5046 14.3384 37.5046Z" fill="#782F40"/>
</svg>
