<svg width="192" height="192" viewBox="0 0 192 192" fill="none" xmlns="http://www.w3.org/2000/svg">
<g clip-path="url(#clip0)">
<path d="M124.906 91.8793H67.1509C66.3503 91.8793 65.6069 91.4214 65.2638 90.6774L64.5776 89.1894C58.9736 77.743 52.0544 63.4922 58.7449 51.8741C59.3167 50.8439 60.6319 50.5005 61.6612 51.0728C62.6905 51.6452 63.0337 52.9615 62.4618 53.9917C56.8578 63.6067 63.2624 76.77 68.3517 87.358L68.4661 87.6441H123.534C125.135 84.2674 126.736 80.948 128.166 77.5713C128.623 76.4839 129.881 75.9688 130.968 76.4266C132.054 76.8845 132.569 78.1436 132.112 79.231C130.51 83.0656 128.681 86.8429 126.908 90.5057C126.565 91.1925 125.707 91.8793 124.906 91.8793ZM132.283 74.4808C132.054 74.4808 131.883 74.4235 131.654 74.3663C130.51 74.0229 129.881 72.821 130.225 71.7336C133.312 61.4318 131.711 54.2206 125.192 48.898C119.245 44.205 108.38 44.6629 100.032 46.7804C102.319 47.8106 104.606 48.9553 106.894 50.2716C107.923 50.8439 108.266 52.1603 107.694 53.1904C107.122 54.2206 105.807 54.564 104.778 53.9917C101.004 51.8169 97.1723 50.0999 93.4554 48.7836C93.1695 48.7263 92.8835 48.6691 92.5976 48.4974C82.0186 44.8918 72.3546 44.8345 67.0365 48.7836C66.1216 49.4703 64.7492 49.2986 64.063 48.3257C63.3768 47.41 63.5483 46.0364 64.5204 45.3496C70.9822 40.5421 81.9043 40.3704 93.7413 44.3767C102.891 40.8855 118.845 38.4818 127.823 45.6358C135.771 52.0458 137.887 61.0312 134.285 72.9927C134.056 73.9084 133.198 74.4808 132.283 74.4808Z" fill="#782F40"/>
<path d="M117.301 100.35H74.6419C73.6698 100.35 72.8692 99.72 72.5833 98.747L72.0686 96.8584C71.7827 95.7137 72.4117 94.5691 73.5554 94.2829C74.6991 93.9968 75.8427 94.6263 76.1287 95.771L76.1858 96.0571H115.643L117.93 89.0176C118.273 87.8729 119.474 87.2434 120.618 87.644C121.704 87.9874 122.333 89.1893 121.99 90.3339L119.245 98.8043C119.016 99.72 118.216 100.35 117.301 100.35Z" fill="#782F40"/>
<path d="M95.9714 151C95.5139 151 95.1136 150.885 94.7133 150.599L79.8455 139.725C79.2737 139.325 78.9878 138.695 78.9878 138.008V131.541C78.9878 130.339 79.9599 129.423 81.1036 129.423C82.2473 129.423 83.2194 130.396 83.2194 131.541V136.978L95.9142 146.307L102.547 141.499C103.52 140.813 104.835 141.042 105.521 141.957C106.207 142.93 105.979 144.247 105.064 144.933L97.2294 150.657C96.8863 150.885 96.4288 151 95.9714 151ZM110.839 139.553C109.695 139.553 108.723 138.581 108.723 137.436V130.969C108.723 129.767 109.695 128.851 110.839 128.851C111.983 128.851 112.955 129.824 112.955 130.969V137.436C112.955 138.581 111.983 139.553 110.839 139.553ZM110.839 126.447C109.695 126.447 108.723 125.474 108.723 124.33V117.119C108.723 115.917 109.695 115.001 110.839 115.001C111.983 115.001 112.955 115.974 112.955 117.119V124.33C112.955 125.474 111.983 126.447 110.839 126.447ZM110.839 112.597C109.695 112.597 108.723 111.624 108.723 110.48V105.214C108.723 104.012 109.695 103.097 110.839 103.097C111.983 103.097 112.955 104.07 112.955 105.214V110.48C112.955 111.624 111.983 112.597 110.839 112.597Z" fill="#782F40"/>
<path d="M114.842 113.456C114.671 113.456 114.556 113.456 114.385 113.398L76.8722 105.043C76.1288 104.871 75.557 104.356 75.3282 103.669C75.0995 102.982 75.2139 102.181 75.6713 101.609L79.5598 96.8584C80.3032 95.9427 81.6184 95.8282 82.5334 96.5722C83.4483 97.3163 83.5627 98.6326 82.8193 99.5483L81.1038 101.609L115.3 109.221C116.443 109.507 117.187 110.594 116.901 111.739C116.672 112.769 115.814 113.456 114.842 113.456Z" fill="#782F40"/>
<path d="M114.842 127.306C114.671 127.306 114.556 127.306 114.385 127.249L76.8721 118.893C76.1287 118.721 75.5569 118.206 75.3282 117.519C75.0994 116.832 75.2138 116.031 75.7284 115.459L79.6169 110.823C80.3603 109.907 81.6755 109.793 82.5905 110.537C83.5054 111.281 83.6198 112.655 82.8764 113.513L81.2753 115.459L115.414 123.071C116.558 123.357 117.301 124.444 117.015 125.589C116.672 126.619 115.814 127.306 114.842 127.306Z" fill="#782F40"/>
<path d="M114.842 141.156C114.671 141.156 114.556 141.156 114.385 141.099L76.8721 132.743C76.1287 132.571 75.5569 132.056 75.3282 131.369C75.0994 130.683 75.2138 129.881 75.7284 129.309L79.6169 124.673C80.3603 123.758 81.6755 123.643 82.5905 124.387C83.5054 125.131 83.6198 126.505 82.8764 127.363L81.2753 129.309L115.414 136.921C116.558 137.207 117.301 138.294 117.015 139.439C116.672 140.469 115.814 141.156 114.842 141.156Z" fill="#782F40"/>
<path d="M81.1607 128.164C80.017 128.164 79.0449 127.191 79.0449 126.047V124.273C79.0449 123.071 80.017 122.155 81.1607 122.155C82.3044 122.155 83.2765 123.128 83.2765 124.273V126.047C83.2765 127.249 82.3044 128.164 81.1607 128.164Z" fill="#782F40"/>
<path d="M81.1607 114.314C80.017 114.314 79.0449 113.341 79.0449 112.197V110.423C79.0449 109.221 80.017 108.305 81.1607 108.305C82.3044 108.305 83.2765 109.278 83.2765 110.423V112.197C83.2765 113.341 82.3044 114.314 81.1607 114.314Z" fill="#782F40"/>
</g>
<defs>
<clipPath id="clip0">
<rect width="80" height="110" fill="white" transform="translate(56 41)"/>
</clipPath>
</defs>
</svg>
