<svg width="81" height="80" viewBox="0 0 81 80" fill="none" xmlns="http://www.w3.org/2000/svg">
<path d="M51.1394 20.796H24.167C23.5446 20.796 23.0703 20.2921 23.0703 19.6993V14.127C23.0703 13.5342 23.5742 13.0303 24.167 13.0303H51.1098C51.7322 13.0303 52.2065 13.5342 52.2065 14.127V19.6696C52.2361 20.2921 51.7322 20.796 51.1394 20.796ZM25.2637 18.573H50.0131V15.2236H25.2637V18.573Z" fill="#782F40"/>
<path d="M37.6201 15.2238C36.9977 15.2238 36.5234 14.7199 36.5234 14.1271V12.7637C36.5234 12.1709 37.0273 11.667 37.6201 11.667C38.2426 11.667 38.7168 12.1709 38.7168 12.7637V14.1271C38.7168 14.7199 38.2129 15.2238 37.6201 15.2238Z" fill="#782F40"/>
<path d="M27.6045 22.9896C26.9821 22.9896 26.5078 22.4857 26.5078 21.8929V19.6699C26.5078 19.0771 27.0117 18.5732 27.6045 18.5732C28.2269 18.5732 28.7012 19.0771 28.7012 19.6699V21.8633C28.7012 22.4857 28.1973 22.9896 27.6045 22.9896Z" fill="#782F40"/>
<path d="M34.2412 22.9896C33.6188 22.9896 33.1445 22.4857 33.1445 21.8929V19.6699C33.1445 19.0771 33.6484 18.5732 34.2412 18.5732C34.8637 18.5732 35.3379 19.0771 35.3379 19.6699V21.8633C35.3675 22.4857 34.8637 22.9896 34.2412 22.9896Z" fill="#782F40"/>
<path d="M40.9717 22.9896C40.3492 22.9896 39.875 22.4857 39.875 21.8929V19.6699C39.875 19.0771 40.3789 18.5732 40.9717 18.5732C41.5941 18.5732 42.0684 19.0771 42.0684 19.6699V21.8633C42.0684 22.4857 41.5941 22.9896 40.9717 22.9896Z" fill="#782F40"/>
<path d="M47.6982 22.9896C47.0758 22.9896 46.6016 22.4857 46.6016 21.8929V19.6699C46.6016 19.0771 47.1054 18.5732 47.6982 18.5732C48.3207 18.5732 48.7949 19.0771 48.7949 19.6699V21.8633C48.7949 22.4857 48.3207 22.9896 47.6982 22.9896Z" fill="#782F40"/>
<path d="M27.2758 35.083H25.9717C25.3492 35.083 24.875 34.5791 24.875 33.9863C24.875 33.3935 25.3789 32.8896 25.9717 32.8896H27.2758C27.8983 32.8896 28.3725 33.3935 28.3725 33.9863C28.3725 34.5791 27.8686 35.083 27.2758 35.083Z" fill="#782F40"/>
<path d="M49.241 35.083H32.0498C31.4274 35.083 30.9531 34.5791 30.9531 33.9863C30.9531 33.3935 31.457 32.8896 32.0498 32.8896H49.241C49.8635 32.8896 50.3377 33.3935 50.3377 33.9863C50.3674 34.5791 49.8635 35.083 49.241 35.083Z" fill="#782F40"/>
<path d="M27.2758 29.3027H25.9717C25.3492 29.3027 24.875 28.7989 24.875 28.2061C24.875 27.6133 25.3789 27.1094 25.9717 27.1094H27.2758C27.8983 27.1094 28.3725 27.6133 28.3725 28.2061C28.3725 28.7989 27.8686 29.3027 27.2758 29.3027Z" fill="#782F40"/>
<path d="M49.241 29.3027H32.0498C31.4274 29.3027 30.9531 28.7989 30.9531 28.2061C30.9531 27.6133 31.457 27.1094 32.0498 27.1094H49.241C49.8635 27.1094 50.3377 27.6133 50.3377 28.2061C50.3377 28.7989 49.8635 29.3027 49.241 29.3027Z" fill="#782F40"/>
<path d="M27.2758 46.5234H25.9717C25.3492 46.5234 24.875 46.0196 24.875 45.4268C24.875 44.834 25.3789 44.3301 25.9717 44.3301H27.2758C27.8983 44.3301 28.3725 44.834 28.3725 45.4268C28.3725 46.0196 27.8686 46.5234 27.2758 46.5234Z" fill="#782F40"/>
<path d="M39.2227 46.5234H32.0498C31.4274 46.5234 30.9531 46.0196 30.9531 45.4268C30.9531 44.834 31.457 44.3301 32.0498 44.3301H39.2227C39.8451 44.3301 40.3194 44.834 40.3194 45.4268C40.3194 46.0196 39.8451 46.5234 39.2227 46.5234Z" fill="#782F40"/>
<path d="M27.2758 40.833H25.9717C25.3492 40.833 24.875 40.3291 24.875 39.7363C24.875 39.1435 25.3789 38.6396 25.9717 38.6396H27.2758C27.8983 38.6396 28.3725 39.1435 28.3725 39.7363C28.3725 40.3291 27.8686 40.833 27.2758 40.833Z" fill="#782F40"/>
<path d="M49.241 40.833H32.0498C31.4274 40.833 30.9531 40.3291 30.9531 39.7363C30.9531 39.1435 31.457 38.6396 32.0498 38.6396H49.241C49.8635 38.6396 50.3377 39.1435 50.3377 39.7363C50.3674 40.3291 49.8635 40.833 49.241 40.833Z" fill="#782F40"/>
<path d="M27.2758 57.9648H25.9717C25.3492 57.9648 24.875 57.461 24.875 56.8682C24.875 56.2457 25.3789 55.7715 25.9717 55.7715H27.2758C27.8983 55.7715 28.3725 56.2754 28.3725 56.8682C28.3725 57.461 27.8686 57.9648 27.2758 57.9648Z" fill="#782F40"/>
<path d="M27.2758 52.2734H25.9717C25.3492 52.2734 24.875 51.7696 24.875 51.1768C24.875 50.5543 25.3789 50.0801 25.9717 50.0801H27.2758C27.8983 50.0801 28.3725 50.584 28.3725 51.1768C28.3725 51.7696 27.8686 52.2734 27.2758 52.2734Z" fill="#782F40"/>
<path d="M43.6387 68.6053H16.2217C15.5992 68.6053 15.125 68.1014 15.125 67.5086V16.9131C15.125 16.3203 15.6289 15.8164 16.2217 15.8164H19.7192C20.3416 15.8164 20.8159 16.3203 20.8159 16.9131C20.8159 17.5059 20.312 18.0098 19.7192 18.0098H17.3184V66.4416H43.6387C44.2612 66.4416 44.7354 66.9455 44.7354 67.5383C44.7354 68.1311 44.2315 68.6053 43.6387 68.6053ZM59.0219 40.6251C58.3995 40.6251 57.9252 40.1212 57.9252 39.5284V18.0098H51.1377C50.5152 18.0098 50.041 17.5059 50.041 16.9131C50.041 16.3203 50.5449 15.8164 51.1377 15.8164H59.0219C59.6444 15.8164 60.1186 16.3203 60.1186 16.9131V39.5284C60.1186 40.1509 59.6147 40.6251 59.0219 40.6251Z" fill="#782F40"/>
<path d="M42.9287 64.0407H20.9951C20.3727 64.0407 19.8984 63.5368 19.8984 62.944V21.8926C19.8984 21.2998 20.4023 20.7959 20.9951 20.7959C21.5879 20.7959 22.0918 21.2998 22.0918 21.8926V61.8473H42.8991C43.5215 61.8473 43.9958 62.3512 43.9958 62.944C43.9958 63.5368 43.5215 64.0407 42.9287 64.0407ZM54.3105 41.5439C53.6881 41.5439 53.2138 41.04 53.2138 40.4472V21.8926C53.2138 21.2998 53.7177 20.7959 54.3105 20.7959C54.933 20.7959 55.4072 21.2998 55.4072 21.8926V40.4472C55.4072 41.04 54.9033 41.5439 54.3105 41.5439Z" fill="#782F40"/>
<path d="M40.7936 57.9648H32.0498C31.4274 57.9648 30.9531 57.461 30.9531 56.8682C30.9531 56.2457 31.457 55.7715 32.0498 55.7715H40.764C41.3864 55.7715 41.8607 56.2754 41.8607 56.8682C41.8903 57.461 41.3864 57.9648 40.7936 57.9648Z" fill="#782F40"/>
<path d="M38.9856 52.2734H32.0498C31.4274 52.2734 30.9531 51.7696 30.9531 51.1768C30.9531 50.5543 31.457 50.0801 32.0498 50.0801H38.9559C39.5784 50.0801 40.0526 50.584 40.0526 51.1768C40.0823 51.7696 39.5784 52.2734 38.9856 52.2734Z" fill="#782F40"/>
<path d="M48.4422 68.5757C47.879 68.5757 47.4937 68.3682 47.2269 68.1607C46.1895 67.3308 46.1303 65.5821 46.1006 63.5665C46.071 62.4106 46.0413 61.225 45.8042 60.5136C45.5375 59.6837 45.0039 58.587 44.4704 57.4607C42.9291 54.3188 41.0322 50.4064 42.1881 46.9681C42.3956 46.4049 43.0181 46.0789 43.5812 46.2864C44.1444 46.4939 44.4704 47.1163 44.2629 47.6795C43.3737 50.2582 45.0632 53.726 46.4267 56.5122C47.0195 57.7274 47.5826 58.8538 47.879 59.8615C48.2051 60.8693 48.2347 62.2327 48.294 63.5369C48.3236 64.515 48.3533 66.1749 48.6497 66.5009C49.5092 66.2341 50.2502 64.4261 50.9023 62.8255C51.7026 60.8989 52.5029 58.8834 54.3406 58.8834C56.1782 58.8834 57.0082 60.8989 57.7788 62.8255C58.4309 64.4261 59.1719 66.2341 60.2093 66.3823C60.3278 66.1452 60.3575 64.4854 60.3871 63.5073C60.4168 62.2031 60.4464 60.8396 60.8021 59.8319C61.1281 58.913 61.632 57.846 62.1655 56.7197C62.4619 56.0972 62.788 55.4155 63.0844 54.7634C63.3215 54.2003 63.9736 53.9632 64.5367 54.2003C65.0999 54.4374 65.337 55.0895 65.0999 55.6526C64.7739 56.364 64.4478 57.0457 64.1514 57.6978C63.6475 58.7648 63.1437 59.743 62.8769 60.5432C62.6398 61.2546 62.6101 62.4402 62.5805 63.5962C62.5212 65.6117 62.4916 67.3605 61.4542 68.1904C61.1281 68.4275 60.5946 68.7239 59.824 68.5757C57.601 68.1904 56.6228 65.7895 55.7336 63.6851C55.4372 62.9737 54.6666 61.1064 54.3109 61.1064C53.9552 61.1064 53.1846 62.9737 52.8882 63.6851C52.0286 65.8192 51.0209 68.22 48.7979 68.5757C48.7089 68.5757 48.5904 68.5757 48.4422 68.5757ZM65.2777 53.3111C65.1592 53.3111 65.0703 53.2814 64.9517 53.2518C64.3589 53.074 64.0329 52.4515 64.2107 51.8884C65.0999 48.954 64.6849 46.9681 62.8176 45.5157C61.4542 44.3894 59.0533 44.3301 56.9192 44.6858C57.2453 44.834 57.5417 45.0119 57.8381 45.1897C58.3716 45.4861 58.5494 46.1678 58.253 46.7013C57.9566 47.2349 57.2749 47.4127 56.7414 47.1163C55.6447 46.4642 54.5184 45.9603 53.4514 45.5454C53.3624 45.5157 53.2735 45.4861 53.1846 45.4565C50.1317 44.3894 47.3751 44.3598 45.8635 45.4861C45.3893 45.8418 44.6779 45.7529 44.3222 45.2786C43.9665 44.8044 44.0555 44.093 44.5297 43.7373C46.7823 42.0479 50.2502 42.2257 53.5996 43.3224C56.4746 42.2257 61.3652 41.5143 64.1514 43.8263C66.7005 45.8714 67.4118 48.7465 66.2559 52.5701C66.1966 52.985 65.752 53.3111 65.2777 53.3111Z" fill="#782F40"/>
</svg>
