<svg width="192" height="192" viewBox="0 0 192 192" fill="none" xmlns="http://www.w3.org/2000/svg">
<g clip-path="url(#clip0)">
<path d="M75.3144 133C74.9854 133 74.5741 133 74.1629 132.917C67.912 131.757 65.1155 124.962 62.648 118.996C61.8256 117.007 59.6871 111.786 58.7001 111.786C57.7131 111.786 55.5746 116.924 54.6699 119.078C52.2024 125.045 49.4882 131.757 43.3196 132.917C41.1811 133.331 39.7006 132.586 38.7959 131.84C35.9172 129.437 35.7527 124.548 35.6704 118.83C35.5882 115.598 35.5059 112.2 34.8479 110.212C34.0255 107.726 32.6272 104.66 30.9 101.262C30.0775 99.7704 30.6532 97.8645 32.216 97.1187C33.6965 96.3729 35.5059 96.8701 36.3284 98.4446C38.2201 102.091 39.7006 105.488 40.6054 108.306C41.5101 111.206 41.6746 115.018 41.7568 118.664C41.8391 121.482 41.9213 126.122 42.7438 127.116C45.129 126.288 47.1853 121.233 49.077 116.758C51.2977 111.289 53.6829 105.654 58.7823 105.654C63.8818 105.654 66.1847 111.206 68.3232 116.675C70.1327 120.984 72.1067 125.956 74.9031 126.785C75.4789 125.376 75.5611 121.316 75.5611 118.83C75.6434 115.101 75.7256 111.206 76.6303 108.306C77.4528 105.82 78.7688 103.085 80.167 100.102L80.9073 98.5274C81.6475 96.953 83.457 96.3729 84.9375 97.0358C86.418 97.7816 87.0759 99.6047 86.418 101.096L85.6777 102.671C84.3617 105.405 83.128 108.057 82.47 110.129C81.812 112.118 81.7298 115.515 81.7298 118.83C81.6475 124.548 81.5653 129.437 78.6866 131.757C78.0286 132.337 76.8771 133 75.3144 133ZM29.1728 92.3953C27.939 92.3953 26.7876 91.6495 26.2941 90.4065C23.4154 82.5342 23.0864 76.0706 25.3071 70.85C25.9651 69.2755 27.7745 68.5297 29.255 69.1926C30.8177 69.8556 31.558 71.5958 30.9 73.1702C29.3373 76.9821 29.7485 81.8712 32.0515 88.3348C32.6272 89.9093 31.8047 91.7324 30.242 92.3124C29.913 92.3953 29.5018 92.3953 29.1728 92.3953ZM88.2274 92.3953C87.8162 92.3953 87.4872 92.3124 87.0759 92.1467C85.5132 91.4838 84.773 89.7436 85.3487 88.1691C87.8162 81.9541 89.2967 73.4188 82.47 67.8667C78.6043 64.8007 72.0244 64.7178 66.1025 65.6293C66.925 66.0437 67.7475 66.458 68.57 66.9552C70.0504 67.7839 70.5439 69.6898 69.7214 71.1814C68.8989 72.673 67.0072 73.1702 65.5267 72.3416C62.4835 70.6014 59.3581 69.1098 56.3149 68.0325C55.9859 67.9496 55.6569 67.8667 55.4101 67.701C48.3367 65.2979 41.9213 64.8007 37.4799 66.5409C35.9172 67.2038 34.1899 66.3751 33.532 64.8007C32.874 63.2262 33.6965 61.4031 35.2592 60.8231C40.8521 58.5857 48.5835 59 56.8084 61.6517C64.0463 59.1657 78.0286 56.5969 86.2535 63.0605C93.9026 69.2755 95.6298 79.0538 91.0239 90.4894C90.5304 91.7324 89.4612 92.3953 88.2274 92.3953Z" fill="#782F40"/>
<path d="M65.0335 98.776H62.3193C60.5921 98.776 59.2761 97.3673 59.2761 95.71C59.2761 94.0526 60.6743 92.6439 62.3193 92.6439H65.0335C65.9382 92.6439 66.6785 91.981 66.6785 91.2352V87.4233C66.6785 86.6775 65.9382 86.0145 65.0335 86.0145H52.3672C51.5447 86.0145 50.969 86.5946 50.969 87.4233V91.2352C50.969 92.0638 51.5447 92.6439 52.3672 92.6439C54.0944 92.6439 55.4104 94.0526 55.4104 95.71C55.4104 97.3673 54.0122 98.776 52.3672 98.776C48.1725 98.776 44.8003 95.4614 44.8003 91.1523V87.3404C44.8003 83.1142 48.0902 79.7167 52.3672 79.7167H65.1158C69.3927 79.7167 72.8471 83.1142 72.8471 87.3404V91.1523C72.7649 95.3785 69.3104 98.776 65.0335 98.776Z" fill="#782F40"/>
<path d="M122.278 92.3953H69.7214C67.9942 92.3953 66.6782 90.9866 66.6782 89.3293C66.6782 87.6719 68.0765 86.2632 69.7214 86.2632H122.278C124.006 86.2632 125.322 87.6719 125.322 89.3293C125.322 90.9866 124.006 92.3953 122.278 92.3953Z" fill="#782F40"/>
<path d="M47.8433 92.3953H20.0432C18.316 92.3953 17 90.9866 17 89.3293C17 87.6719 18.3982 86.2632 20.0432 86.2632H47.8433C49.5705 86.2632 50.8865 87.6719 50.8865 89.3293C50.8865 90.9866 49.5705 92.3953 47.8433 92.3953Z" fill="#782F40"/>
<path d="M149.832 133C149.503 133 149.092 133 148.68 132.917C142.512 131.757 139.715 125.045 137.33 119.078C136.425 116.924 134.287 111.786 133.3 111.786C132.313 111.786 130.174 116.924 129.27 119.078C126.802 125.045 124.006 131.757 117.919 132.917C115.781 133.331 114.3 132.586 113.396 131.84C110.517 129.437 110.352 124.548 110.27 118.83C110.188 115.598 110.106 112.2 109.448 110.212C108.708 107.56 107.063 104.245 105.5 101.262C104.677 99.7704 105.253 97.8645 106.816 97.1187C108.296 96.3729 110.106 96.8701 110.928 98.4446C112.655 101.842 114.465 105.323 115.287 108.471C116.192 111.206 116.274 115.018 116.357 118.664C116.439 121.482 116.521 126.122 117.344 127.116C119.729 126.288 121.785 121.233 123.677 116.758C125.898 111.289 128.283 105.654 133.382 105.654C138.482 105.654 140.785 111.289 143.088 116.758C144.979 121.233 147.035 126.371 149.914 126.868C150.161 126.122 150.325 121.482 150.325 118.664C150.408 115.018 150.49 111.206 151.477 108.306C152.135 105.82 153.533 102.837 155.014 99.6876L155.589 98.5274C156.33 96.953 158.139 96.3729 159.62 97.0358C161.1 97.7816 161.758 99.6047 161.1 101.096L160.524 102.256C159.208 105.074 157.892 107.809 157.317 109.963C156.659 112.118 156.494 115.515 156.412 118.747C156.247 124.465 156.165 129.354 153.286 131.757C152.464 132.337 151.312 133 149.832 133ZM103.608 92.3953C102.374 92.3953 101.223 91.6495 100.729 90.4065C97.8507 82.5342 97.5217 76.0706 99.7424 70.85C100.4 69.2755 102.21 68.5297 103.69 69.1926C105.253 69.8556 105.993 71.5958 105.335 73.1702C103.773 76.9821 104.184 81.8712 106.487 88.3348C107.063 89.9093 106.24 91.7324 104.677 92.3124C104.348 92.3953 104.019 92.3953 103.608 92.3953ZM162.663 92.3953C162.252 92.3953 161.84 92.3124 161.511 92.1467C159.949 91.4838 159.208 89.6607 159.866 88.0862C162.416 81.9541 163.979 73.5017 156.988 67.7839C153.204 64.8007 146.542 64.5521 140.62 65.5465C141.443 65.9608 142.265 66.3751 143.005 66.8723C144.486 67.701 144.979 69.607 144.157 71.0986C143.334 72.5902 141.443 73.0874 139.962 72.2587C129.434 66.1265 118.495 63.8891 112.162 66.458C110.599 67.1209 108.79 66.3751 108.214 64.8007C107.556 63.2262 108.296 61.4031 109.859 60.8231C115.452 58.5857 123.101 58.9171 131.408 61.6517C139.386 58.7514 153.04 56.9283 160.771 63.0605C168.42 69.3584 170.147 79.3024 165.459 90.5722C164.966 91.7324 163.814 92.3953 162.663 92.3953Z" fill="#782F40"/>
<path d="M139.715 98.776H137.001C135.274 98.776 133.958 97.3673 133.958 95.71C133.958 94.0526 135.356 92.6439 137.001 92.6439H139.715C140.538 92.6439 141.114 92.0638 141.114 91.2352V87.4233C141.114 86.5946 140.538 86.0145 139.715 86.0145H126.802C126.144 86.0145 125.322 86.6775 125.322 87.4233V91.2352C125.322 92.0638 126.062 92.6439 126.802 92.6439C128.529 92.6439 129.845 94.0526 129.845 95.71C129.845 97.3673 128.447 98.776 126.802 98.776C122.69 98.776 119.235 95.2956 119.235 91.1523V87.3404C119.235 83.1971 122.69 79.7167 126.802 79.7167H139.715C143.91 79.7167 147.282 83.0313 147.282 87.3404V91.1523C147.2 95.3785 143.91 98.776 139.715 98.776Z" fill="#782F40"/>
<path d="M171.957 92.3953H144.157C142.43 92.3953 141.114 90.9866 141.114 89.3293C141.114 87.6719 142.512 86.2632 144.157 86.2632H171.957C173.684 86.2632 175 87.6719 175 89.3293C175 90.9866 173.684 92.3953 171.957 92.3953Z" fill="#782F40"/>
</g>
<defs>
<clipPath id="clip0">
<rect width="158" height="74" fill="white" transform="translate(17 59)"/>
</clipPath>
</defs>
</svg>
