<svg width="192" height="192" viewBox="0 0 192 192" fill="none" xmlns="http://www.w3.org/2000/svg">
<g clip-path="url(#clip0)">
<path d="M114.547 122.54C114.183 122.54 113.892 122.54 113.454 122.467C106.895 121.308 103.834 114.058 101.138 107.606C99.6074 103.982 97.5668 99.0521 95.8905 99.0521C94.3601 99.0521 92.2466 104.127 90.8619 107.461C88.1654 113.913 85.1774 121.235 78.6183 122.395C76.4319 122.757 74.9744 121.96 74.0998 121.308C71.1118 118.843 71.0389 113.551 70.8932 107.461C70.8203 103.837 70.7474 100.067 69.9457 97.6023C69.0712 95.065 67.4679 91.8028 65.7916 88.3956C60.6173 77.8841 54.2039 64.9078 59.4512 53.8889C60.1071 52.584 61.7104 52.004 63.0223 52.584C64.3341 53.2364 64.9171 54.8313 64.3341 56.1361C60.18 64.7628 66.0103 76.5067 70.6745 85.9309C72.4236 89.5555 74.0998 92.9627 75.1201 95.8624C76.1404 99.0521 76.2133 103.184 76.2862 107.244C76.3591 110.361 76.5048 116.161 77.5251 117.03C81.2419 116.306 83.7198 110.434 85.8333 105.287C88.3112 99.2696 90.7162 93.5426 95.8905 93.5426C101.138 93.5426 103.543 99.2696 106.094 105.359C108.207 110.506 110.685 116.306 114.329 116.958C115.495 116.161 115.568 110.289 115.641 107.171C115.714 103.112 115.786 98.9796 116.807 95.8624C117.754 92.8902 119.43 89.4105 121.252 85.7134C122.418 83.3936 123.584 81.0013 124.678 78.5365C125.261 77.1592 126.864 76.5792 128.249 77.1592C129.633 77.7391 130.216 79.334 129.633 80.7113C128.467 83.2486 127.301 85.7859 126.135 88.1057C124.386 91.5853 122.783 94.92 121.981 97.4573C121.252 99.8496 121.107 103.619 121.034 107.316C120.888 113.406 120.815 118.698 117.827 121.163C117.244 121.887 116.078 122.54 114.547 122.54ZM130.289 74.6944C130.071 74.6944 129.779 74.6944 129.488 74.5494C128.03 74.1145 127.228 72.6646 127.666 71.2147C130.508 61.7181 129.05 55.3387 123.001 50.4817C117.9 46.567 109.082 46.7845 101.867 48.2344C103.47 48.9593 105 49.7567 106.458 50.6267C107.77 51.3516 108.207 53.0189 107.478 54.3238C106.749 55.6287 105.073 56.0636 103.761 55.3387C90.0602 47.5094 75.776 45.4796 69.0712 50.4817C67.9051 51.3516 66.156 51.1341 65.2815 49.9017C64.4069 48.7418 64.6256 47.002 65.8645 46.1321C72.7151 41.0575 83.4283 41.6375 93.7042 44.9722C102.523 41.855 117.827 39.7527 126.354 46.3496C134.152 52.584 136.265 61.2107 132.84 72.8096C132.549 73.9695 131.455 74.6944 130.289 74.6944Z" fill="#782F40"/>
<path d="M109.956 136.241H82.1166C67.8324 136.241 56.2447 124.715 56.2447 110.651V98.3271C56.2447 93.9051 52.6007 90.2804 48.1551 90.2804H28.6965C27.2389 90.2804 26 89.048 26 87.5981C26 86.1483 27.2389 84.9159 28.6965 84.9159H48.0822C55.5159 84.9159 61.5648 90.9328 61.5648 98.3271V110.651C61.5648 121.815 70.7475 130.877 82.0437 130.877H109.883C121.18 130.877 130.362 121.815 130.362 110.651V98.3271C130.362 90.9328 136.338 84.9159 143.699 84.9159H163.231C164.688 84.9159 165.927 86.1483 165.927 87.5981C165.927 89.048 164.688 90.2804 163.231 90.2804H143.699C139.326 90.2804 135.755 93.9051 135.755 98.3271V110.651C135.828 124.715 124.241 136.241 109.956 136.241Z" fill="#782F40"/>
<path d="M39.0455 97.9648H38.5354C37.0778 97.9648 35.8389 96.7325 35.8389 95.2826C35.8389 93.8327 37.0778 92.6003 38.5354 92.6003C39.993 92.6003 41.4505 93.8327 41.4505 95.2826C41.4505 96.7325 40.5031 97.9648 39.0455 97.9648Z" fill="#782F40"/>
<path d="M153.319 97.9648H153.028C151.57 97.9648 150.331 96.7325 150.331 95.2826C150.331 93.8327 151.57 92.6003 153.028 92.6003C154.485 92.6003 155.87 93.8327 155.87 95.2826C155.87 96.7325 154.777 97.9648 153.319 97.9648Z" fill="#782F40"/>
<path d="M31.903 110.724H31.3928C29.9352 110.724 28.6963 109.491 28.6963 108.041C28.6963 106.591 29.9352 105.359 31.3928 105.359C32.8504 105.359 34.3079 106.591 34.3079 108.041C34.3079 109.491 33.3605 110.724 31.903 110.724Z" fill="#782F40"/>
<path d="M46.1876 110.724H45.6775C44.2199 110.724 42.981 109.491 42.981 108.041C42.981 106.591 44.2199 105.359 45.6775 105.359C47.135 105.359 48.5926 106.591 48.5926 108.041C48.5926 109.491 47.6452 110.724 46.1876 110.724Z" fill="#782F40"/>
<path d="M146.177 110.724H145.885C144.428 110.724 143.189 109.491 143.189 108.041C143.189 106.591 144.428 105.359 145.885 105.359C147.343 105.359 148.728 106.591 148.728 108.041C148.728 109.491 147.635 110.724 146.177 110.724Z" fill="#782F40"/>
<path d="M160.461 110.724H160.17C158.712 110.724 157.473 109.491 157.473 108.041C157.473 106.591 158.712 105.359 160.17 105.359C161.627 105.359 163.012 106.591 163.012 108.041C163.012 109.491 161.992 110.724 160.461 110.724Z" fill="#782F40"/>
<path d="M39.0455 123.555H38.5354C37.0778 123.555 35.8389 122.322 35.8389 120.873C35.8389 119.423 37.0778 118.19 38.5354 118.19C39.993 118.19 41.4505 119.423 41.4505 120.873C41.4505 122.322 40.5031 123.555 39.0455 123.555Z" fill="#782F40"/>
<path d="M153.319 123.555H153.028C151.57 123.555 150.331 122.322 150.331 120.873C150.331 119.423 151.57 118.19 153.028 118.19C154.485 118.19 155.87 119.423 155.87 120.873C155.87 122.322 154.777 123.555 153.319 123.555Z" fill="#782F40"/>
<path d="M31.903 136.241H31.3928C29.9352 136.241 28.6963 135.009 28.6963 133.559C28.6963 132.109 29.9352 130.877 31.3928 130.877C32.8504 130.877 34.3079 132.109 34.3079 133.559C34.3808 135.009 33.3605 136.241 31.903 136.241Z" fill="#782F40"/>
<path d="M46.1876 136.241H45.6775C44.2199 136.241 42.981 135.009 42.981 133.559C42.981 132.109 44.2199 130.877 45.6775 130.877C47.135 130.877 48.5926 132.109 48.5926 133.559C48.6655 135.009 47.6452 136.241 46.1876 136.241Z" fill="#782F40"/>
<path d="M60.4718 136.241H59.9616C58.5041 136.241 57.2651 135.009 57.2651 133.559C57.2651 132.109 58.5041 130.877 59.9616 130.877C61.4192 130.877 62.8768 132.109 62.8768 133.559C62.9497 135.009 62.0023 136.241 60.4718 136.241Z" fill="#782F40"/>
<path d="M131.893 136.241H131.601C130.144 136.241 128.905 135.009 128.905 133.559C128.905 132.109 130.144 130.877 131.601 130.877C133.059 130.877 134.444 132.109 134.444 133.559C134.371 135.009 133.35 136.241 131.893 136.241Z" fill="#782F40"/>
<path d="M146.177 136.241H145.885C144.428 136.241 143.189 135.009 143.189 133.559C143.189 132.109 144.428 130.877 145.885 130.877C147.343 130.877 148.728 132.109 148.728 133.559C148.728 135.009 147.635 136.241 146.177 136.241Z" fill="#782F40"/>
<path d="M160.461 136.241H160.17C158.712 136.241 157.473 135.009 157.473 133.559C157.473 132.109 158.712 130.877 160.17 130.877C161.627 130.877 163.012 132.109 163.012 133.559C163.012 135.009 161.992 136.241 160.461 136.241Z" fill="#782F40"/>
<path d="M39.0455 149H38.5354C37.0778 149 35.8389 147.767 35.8389 146.318C35.8389 144.868 37.0778 143.635 38.5354 143.635C39.993 143.635 41.4505 144.868 41.4505 146.318C41.5234 147.84 40.5031 149 39.0455 149Z" fill="#782F40"/>
<path d="M53.3297 149H52.8196C51.362 149 50.123 147.767 50.123 146.318C50.123 144.868 51.362 143.635 52.8196 143.635C54.2771 143.635 55.7347 144.868 55.7347 146.318C55.8076 147.84 54.8602 149 53.3297 149Z" fill="#782F40"/>
<path d="M67.6139 149H67.1037C65.6462 149 64.4072 147.767 64.4072 146.318C64.4072 144.868 65.6462 143.635 67.1037 143.635C68.5613 143.635 70.0189 144.868 70.0189 146.318C70.0918 147.84 69.1443 149 67.6139 149Z" fill="#782F40"/>
<path d="M81.9708 149H81.4607C80.0031 149 78.7642 147.767 78.7642 146.318C78.7642 144.868 80.0031 143.635 81.4607 143.635C82.9182 143.635 84.3758 144.868 84.3758 146.318C84.4487 147.84 83.4284 149 81.9708 149Z" fill="#782F40"/>
<path d="M96.255 149H95.7449C94.2873 149 93.0483 147.767 93.0483 146.318C93.0483 144.868 94.2873 143.635 95.7449 143.635C97.2024 143.635 98.66 144.868 98.66 146.318C98.7329 147.84 97.7126 149 96.255 149Z" fill="#782F40"/>
<path d="M110.539 149H110.029C108.571 149 107.333 147.767 107.333 146.318C107.333 144.868 108.571 143.635 110.029 143.635C111.487 143.635 112.944 144.868 112.944 146.318C113.017 147.84 112.07 149 110.539 149Z" fill="#782F40"/>
<path d="M124.678 149H124.386C122.929 149 121.69 147.767 121.69 146.318C121.69 144.868 122.929 143.635 124.386 143.635C125.844 143.635 127.229 144.868 127.229 146.318C127.229 147.84 126.208 149 124.678 149Z" fill="#782F40"/>
<path d="M139.035 149H138.743C137.286 149 136.047 147.767 136.047 146.318C136.047 144.868 137.286 143.635 138.743 143.635C140.201 143.635 141.586 144.868 141.586 146.318C141.586 147.84 140.492 149 139.035 149Z" fill="#782F40"/>
<path d="M153.319 149H153.028C151.57 149 150.331 147.767 150.331 146.318C150.331 144.868 151.57 143.635 153.028 143.635C154.485 143.635 155.87 144.868 155.87 146.318C155.87 147.84 154.777 149 153.319 149Z" fill="#782F40"/>
</g>
<defs>
<clipPath id="clip0">
<rect width="140" height="107" fill="white" transform="translate(26 42)"/>
</clipPath>
</defs>
</svg>
