<svg width="192" height="192" viewBox="0 0 192 192" fill="none" xmlns="http://www.w3.org/2000/svg">
<g clip-path="url(#clip0)">
<path d="M121.65 151.001C121.254 151.001 120.858 150.944 120.405 150.886C112.147 149.455 108.131 139.606 104.568 130.959C101.966 124.603 99.2511 118.018 95.9139 118.018C92.5767 118.018 89.9183 124.603 87.373 130.902C83.8661 139.549 79.8502 149.34 71.6487 150.829C69.2731 151.23 67.6893 150.428 66.7843 149.684C63.2775 146.764 63.1078 139.663 62.8815 131.475C62.7684 126.264 62.6553 120.824 61.524 117.274C60.3362 113.437 58.0172 108.684 55.6415 103.645C48.4016 88.6427 39.4082 69.9181 48.0056 54.9155C48.5712 53.8848 49.8722 53.5412 50.8903 54.1138C51.9084 54.6865 52.2478 56.0035 51.6822 57.0342C44.216 70.0899 52.6437 87.6693 59.4312 101.813C61.92 106.967 64.239 111.891 65.5399 116.014C66.8409 120.137 67.0106 125.863 67.1237 131.36C67.2368 137.315 67.4631 144.645 69.4993 146.363C69.7256 146.592 70.1215 146.764 70.9699 146.649C76.909 145.618 80.4724 136.914 83.5268 129.299C86.7508 121.339 89.8617 113.781 95.9705 113.781C102.079 113.781 105.19 121.339 108.471 129.299C111.582 136.914 115.145 145.618 121.141 146.649C121.989 146.821 122.385 146.592 122.611 146.363C124.648 144.645 124.817 137.258 124.987 131.36C125.1 125.806 125.27 120.137 126.571 115.957C127.815 111.834 130.191 106.967 132.623 101.756C134.659 97.5183 136.752 93.1092 138.562 88.5855C139.014 87.4975 140.202 86.9821 141.277 87.383C142.352 87.8411 142.861 89.0436 142.465 90.1315C140.598 94.827 138.449 99.2934 136.413 103.588C133.98 108.627 131.718 113.38 130.587 117.216C129.455 120.767 129.342 126.207 129.229 131.417C129.059 139.606 128.89 146.649 125.326 149.627C124.534 150.314 123.29 151.001 121.65 151.001ZM143.313 83.8327C143.087 83.8327 142.917 83.8327 142.691 83.7182C141.56 83.3746 140.938 82.1722 141.277 81.0842C145.406 67.1695 143.2 57.3778 134.433 50.2773C125.835 43.2914 110.111 44.7229 99.2511 47.815C102.758 49.3611 106.265 51.1362 109.828 53.1977C110.846 53.7703 111.186 55.0873 110.62 56.118C110.054 57.1487 108.754 57.4923 107.735 56.9197C87.7689 45.2383 67.7459 42.4897 57.8475 49.9337C56.9425 50.6209 55.585 50.4491 54.9062 49.4756C54.2275 48.5594 54.3972 47.1852 55.3587 46.498C63.7865 40.1992 77.6443 39.9702 93.0858 45.3528C104.851 40.8864 125.666 37.737 137.091 46.9561C147.216 55.1446 149.931 66.7115 145.293 82.3439C145.067 83.2601 144.218 83.8327 143.313 83.8327Z" fill="#782F40"/>
<path d="M114.354 91.9629C113.449 91.9629 112.601 91.333 112.318 90.4168L109.264 79.3653H82.7361L81.322 84.4616C80.9826 85.6068 79.8514 86.2367 78.7201 85.9504C77.5889 85.6068 76.9667 84.4616 77.2495 83.3164L79.1161 76.674C79.3989 75.7578 80.1908 75.1279 81.1523 75.1279H110.904C111.866 75.1279 112.658 75.7578 112.94 76.674L116.391 89.2716C116.673 90.4168 116.051 91.5621 114.92 91.9056C114.694 91.9629 114.524 91.9629 114.354 91.9629Z" fill="#782F40"/>
<path d="M77.5887 91.963H51.6831C50.4953 91.963 49.5903 90.9895 49.5903 89.8443C49.5903 88.699 50.5519 87.7256 51.6831 87.7256H77.5887C78.7765 87.7256 79.6815 88.699 79.6815 89.8443C79.6815 90.9895 78.7199 91.963 77.5887 91.963Z" fill="#782F40"/>
<path d="M140.373 91.963H114.355C113.167 91.963 112.262 90.9895 112.262 89.8443C112.262 88.699 113.223 87.7256 114.355 87.7256H140.373C141.561 87.7256 142.466 88.699 142.466 89.8443C142.466 90.9895 141.504 91.963 140.373 91.963Z" fill="#782F40"/>
</g>
<defs>
<clipPath id="clip0">
<rect width="103" height="110" fill="white" transform="translate(44.5 41)"/>
</clipPath>
</defs>
</svg>
