<svg width="72" height="72" viewBox="0 0 72 72" fill="none" xmlns="http://www.w3.org/2000/svg">
<path d="M38.1602 19.9492H33.5117C30.5586 19.9492 28.1523 17.543 28.1523 14.5898V10.7617C28.1523 10.2148 28.6172 9.75 29.1641 9.75H42.5352C43.082 9.75 43.5469 10.2148 43.5469 10.7617V11.7187C43.5469 12.2656 43.082 12.7305 42.5352 12.7305C41.9883 12.7305 41.5508 12.3203 41.5234 11.7734H30.1758V14.5898C30.1758 16.3945 31.707 17.9258 33.5117 17.9258H38.1602C39.9922 17.9258 41.4961 16.4219 41.4961 14.5898C41.4961 14.043 41.9609 13.5781 42.5078 13.5781C43.0547 13.5781 43.5195 14.043 43.5195 14.5898C43.5469 17.543 41.1406 19.9492 38.1602 19.9492Z" fill="#782F40"/>
<path d="M44.421 62.2501C44.2843 62.2501 44.1203 62.2228 43.9562 62.1954C41.0578 61.7032 39.6632 58.3673 38.4601 55.4415C37.6945 53.6095 36.7648 51.34 35.8624 51.34C34.9601 51.34 34.0304 53.6095 33.2921 55.4142C32.089 58.3399 30.7218 61.6759 27.8234 62.1681C26.921 62.3321 26.2921 62.004 25.9367 61.7032C24.6515 60.6368 24.5968 58.2306 24.5421 55.4415C24.5148 53.7735 24.4601 52.0235 24.132 50.9024C23.7218 49.6446 22.9562 48.0587 22.1632 46.3907C19.675 41.4415 16.6398 35.1798 19.5929 30.1212C19.8664 29.629 20.4953 29.465 20.9875 29.7657C21.4796 30.0392 21.6437 30.6681 21.3429 31.1603C18.9367 35.3165 21.6984 41.004 23.9406 45.5978C24.7882 47.3478 25.5812 48.9884 26.0187 50.3829C26.4562 51.7775 26.4835 53.6642 26.5382 55.4689C26.5656 57.1642 26.6203 59.7345 27.1945 60.1993C27.2218 60.2267 27.2765 60.254 27.4406 60.2267C29.2453 59.9259 30.3937 57.1368 31.3781 54.7032C32.4992 51.9689 33.5656 49.3712 35.8351 49.3712C38.0773 49.3712 39.171 51.9689 40.3195 54.7032C41.3312 57.1368 42.507 59.9259 44.3117 60.2267C44.4757 60.254 44.5304 60.2267 44.5304 60.1993C45.1046 59.7345 45.1593 57.1642 45.214 55.4689C45.2687 53.6368 45.296 51.7501 45.7335 50.3829C46.1984 48.9337 47.0187 47.2657 47.8937 45.461C48.5499 44.1212 49.2335 42.7267 49.8351 41.2775C50.0539 40.7579 50.6554 40.5118 51.1749 40.7306C51.6945 40.9493 51.9406 41.5509 51.7218 42.0704C51.0929 43.547 50.4093 44.9962 49.7531 46.336C48.9054 48.0587 48.1398 49.6993 47.7023 50.9845C47.3468 52.0782 47.3195 53.8282 47.2648 55.5235C47.2101 58.3126 47.1281 60.7189 45.8429 61.7853C45.5148 62.004 45.0773 62.2501 44.421 62.2501ZM51.6398 40.1017C51.5578 40.1017 51.4484 40.0743 51.339 40.047C50.7921 39.8829 50.4914 39.3087 50.6554 38.7892C51.9953 34.2775 51.339 31.2423 48.4953 28.9454C47.1007 27.8517 45.1046 27.6329 42.507 27.6329C41.9601 27.6329 41.4953 27.1681 41.4953 26.6212C41.4953 26.0743 41.9601 25.6095 42.507 25.6095C44.9406 25.6095 47.7023 25.7462 49.7531 27.3868C53.2531 30.2032 54.1828 34.1134 52.5968 39.3907C52.4874 39.8282 52.0773 40.1017 51.6398 40.1017ZM22.7375 29.0821C22.4367 29.0821 22.1085 28.9454 21.9171 28.672C21.589 28.2345 21.671 27.5782 22.1359 27.2501C23.8859 25.965 26.2648 25.4181 29.2453 25.6095C29.7921 25.6368 30.2296 26.129 30.175 26.7032C30.1476 27.2501 29.6554 27.6603 29.0812 27.6329C26.6203 27.4689 24.6242 27.879 23.3117 28.8634C23.1476 29.0001 22.9289 29.0821 22.7375 29.0821Z" fill="#782F40"/>
<path d="M38.1602 35.8086H33.5117C30.5586 35.8086 28.1523 33.4023 28.1523 30.4492V26.6211C28.1523 26.0742 28.6172 25.6094 29.1641 25.6094C29.7109 25.6094 30.1758 26.0742 30.1758 26.6211V30.4492C30.1758 32.2539 31.707 33.7852 33.5117 33.7852H38.1602C39.9922 33.7852 41.4961 32.2813 41.4961 30.4492V26.6211C41.4961 26.0742 41.9609 25.6094 42.5078 25.6094C43.0547 25.6094 43.5195 26.0742 43.5195 26.6211V30.4492C43.5469 33.4023 41.1406 35.8086 38.1602 35.8086Z" fill="#782F40"/>
<path d="M35.8359 30.0391C35.2891 30.0391 34.8242 29.5742 34.8242 29.0273V23.4766C34.8242 22.9297 35.2891 22.4648 35.8359 22.4648C36.3828 22.4648 36.8477 22.9297 36.8477 23.4766V29.0273C36.8477 29.5742 36.4102 30.0391 35.8359 30.0391Z" fill="#782F40"/>
<path d="M35.8346 30.0392C35.5611 30.0392 35.2877 29.9298 35.0963 29.7384L32.6627 27.1681C32.2799 26.7579 32.2799 26.129 32.69 25.7462C33.1002 25.3634 33.7291 25.3634 34.1119 25.7735L36.5455 28.3438C36.9283 28.754 36.9283 29.3829 36.5182 29.7657C36.3541 29.9298 36.0807 30.0392 35.8346 30.0392Z" fill="#782F40"/>
<path d="M35.8346 30.0392C35.5885 30.0392 35.315 29.9571 35.1236 29.7384C34.7135 29.3556 34.7135 28.6993 35.0963 28.3165L37.6119 25.7462C37.9947 25.336 38.651 25.336 39.0338 25.7188C39.4439 26.1017 39.4439 26.7579 39.0611 27.1407L36.5728 29.711C36.3814 29.9298 36.108 30.0392 35.8346 30.0392Z" fill="#782F40"/>
</svg>
