<svg width="192" height="192" viewBox="0 0 192 192" fill="none" xmlns="http://www.w3.org/2000/svg">
<g clip-path="url(#clip0)">
<path d="M114.547 116.968C114.183 116.968 113.891 116.968 113.454 116.895C106.895 115.729 103.834 108.441 101.137 101.955C99.607 98.3113 97.5664 93.3555 95.8902 93.3555C94.3597 93.3555 92.2462 98.457 90.8615 101.809C88.165 108.296 85.177 115.656 78.6179 116.822C76.4316 117.187 74.974 116.458 74.0994 115.729C71.1114 113.251 71.0385 108.004 70.8928 101.882C70.8199 98.2384 70.747 94.4487 69.9454 92.1166C69.0708 89.493 67.4675 86.1405 65.7184 82.6424C60.6169 72.1478 54.2036 59.0297 59.4508 48.025C60.1067 46.6403 61.7101 46.1301 63.0219 46.7132C64.4066 47.3691 64.9167 48.9724 64.3337 50.2842C60.2525 58.8839 66.0099 70.6902 70.6013 80.1645C72.4232 83.8813 74.0994 87.3795 75.1197 90.3675C76.14 93.5013 76.2129 97.6554 76.2858 101.664C76.3587 104.797 76.5044 110.628 77.5247 111.502C81.2416 110.774 83.7194 104.87 85.8329 99.696C88.3108 93.647 90.7158 87.8896 95.8902 87.8896C101.137 87.8896 103.542 93.647 106.093 99.7689C108.207 104.943 110.685 110.774 114.328 111.429C115.495 110.628 115.567 104.797 115.64 101.664C115.713 97.6554 115.786 93.5013 116.806 90.3675C117.754 87.2337 119.503 83.5898 121.398 79.8001C122.491 77.5408 123.657 75.2087 124.677 72.8037C125.26 71.419 126.864 70.836 128.248 71.419C129.633 72.0021 130.216 73.6054 129.633 74.9901C128.54 77.468 127.374 79.873 126.208 82.2051C124.459 85.849 122.782 89.2743 121.908 92.0437C121.106 94.4487 121.033 98.2384 120.96 101.809C120.815 107.931 120.742 113.251 117.754 115.656C117.244 116.312 116.078 116.968 114.547 116.968ZM130.289 68.8683C130.07 68.8683 129.779 68.8683 129.487 68.7225C128.03 68.2853 127.228 66.8277 127.665 65.3701C130.508 55.823 129.05 49.4825 123.001 44.7454C117.9 40.6642 108.935 40.8829 101.72 42.3404C103.324 43.1421 104.927 44.0166 106.458 44.8912C107.769 45.62 108.207 47.2962 107.405 48.608C106.676 49.9198 105 50.3571 103.688 49.5554C89.987 41.5388 75.7757 39.4253 68.9979 44.4539C67.8319 45.3285 66.0828 45.1098 65.2082 43.8709C64.3337 42.7048 64.5523 40.9557 65.7913 40.0812C72.6419 34.9797 83.2822 35.5627 93.5581 38.988C101.356 36.1457 117.171 33.1577 126.281 40.4456C134.079 46.5674 136.192 55.1671 132.767 66.8277C132.548 68.1395 131.455 68.8683 130.289 68.8683Z" fill="#782F40"/>
<path d="M52.0901 138.686C51.7257 138.686 51.3613 138.613 50.9969 138.467C49.6122 137.884 49.0291 136.281 49.6122 134.896C52.8917 127.317 55.8069 118.717 52.5273 111.867C51.8714 110.555 52.4544 108.879 53.7663 108.296C55.0781 107.64 56.7543 108.223 57.3373 109.535C61.5643 118.353 58.0661 128.92 54.495 137.01C54.1307 138.103 53.1104 138.686 52.0901 138.686ZM49.3935 106.765C48.8105 106.765 48.2275 106.619 47.7173 106.182C43.9276 103.267 37.2228 102.611 29.279 104.433C27.8214 104.797 26.3639 103.85 26.0724 102.392C25.708 100.935 26.6554 99.4773 28.113 99.1858C37.7329 96.9995 45.8225 97.9469 50.9969 101.882C52.1629 102.757 52.3816 104.506 51.507 105.672C50.9969 106.401 50.1952 106.765 49.3935 106.765Z" fill="#782F40"/>
<path d="M139.982 138.686C138.962 138.686 137.942 138.103 137.504 137.083C134.006 128.92 130.435 118.499 134.516 109.607C135.172 108.223 136.775 107.64 138.087 108.296C139.472 108.951 140.055 110.555 139.399 111.867C136.192 118.79 139.326 127.827 142.46 134.969C143.043 136.354 142.46 137.957 141.075 138.54C140.711 138.613 140.347 138.686 139.982 138.686ZM142.679 106.765C141.877 106.765 141.075 106.401 140.565 105.672C139.691 104.506 139.909 102.757 141.075 101.882C146.25 97.8739 154.412 96.9265 163.959 99.1857C165.417 99.5501 166.291 101.008 166 102.392C165.635 103.85 164.178 104.725 162.793 104.433C154.922 102.611 148.217 103.267 144.355 106.182C143.845 106.546 143.262 106.765 142.679 106.765Z" fill="#782F40"/>
<path d="M95.9631 152.606C80.0756 152.606 64.1151 147.796 50.5597 138.176C49.3207 137.301 49.0292 135.625 49.9038 134.386C50.7783 133.147 52.4545 132.856 53.6935 133.73C78.9824 151.658 113.017 151.658 138.306 133.73C139.545 132.856 141.221 133.147 142.095 134.386C142.97 135.625 142.678 137.301 141.439 138.176C127.811 147.796 111.851 152.606 95.9631 152.606Z" fill="#782F40"/>
<path d="M28.6962 149.837C27.5301 149.837 26.437 149.035 26.0726 147.869C25.6353 146.411 26.5098 144.954 27.8945 144.516C35.9841 142.184 43.5635 138.54 50.4869 133.803C51.7259 132.929 53.4021 133.22 54.2766 134.459C55.1512 135.698 54.8597 137.374 53.6207 138.249C46.26 143.423 38.0976 147.286 29.425 149.764C29.2064 149.764 28.9148 149.837 28.6962 149.837Z" fill="#782F40"/>
<path d="M163.158 149.837C162.939 149.837 162.648 149.764 162.429 149.691C153.538 147.14 145.375 143.277 138.233 138.176C136.994 137.301 136.703 135.625 137.577 134.386C138.452 133.147 140.128 132.856 141.367 133.73C147.999 138.467 155.578 142.038 163.887 144.443C165.344 144.881 166.146 146.338 165.709 147.796C165.417 149.035 164.324 149.837 163.158 149.837Z" fill="#782F40"/>
<path d="M46.0414 153.48H45.677C44.2194 153.48 42.9805 152.241 42.9805 150.784C42.9805 149.253 44.2194 148.087 45.677 148.087C47.1346 148.087 48.5193 149.326 48.5193 150.784C48.5921 152.241 47.4989 153.48 46.0414 153.48Z" fill="#782F40"/>
<path d="M60.3257 153.48H60.0342C58.5766 153.48 57.3376 152.241 57.3376 150.784C57.3376 149.253 58.5766 148.087 60.0342 148.087C61.4917 148.087 62.8764 149.326 62.8764 150.784C62.8764 152.241 61.8561 153.48 60.3257 153.48Z" fill="#782F40"/>
<path d="M132.038 153.48H131.528C130.07 153.48 128.831 152.241 128.831 150.784C128.831 149.253 130.07 148.087 131.528 148.087C132.985 148.087 134.443 149.326 134.443 150.784C134.516 152.241 133.496 153.48 132.038 153.48Z" fill="#782F40"/>
<path d="M146.322 153.48H145.812C144.355 153.48 143.116 152.241 143.116 150.784C143.116 149.253 144.355 148.087 145.812 148.087C147.27 148.087 148.727 149.326 148.727 150.784C148.8 152.241 147.853 153.48 146.322 153.48Z" fill="#782F40"/>
<path d="M38.8989 164.777H38.6074C37.1498 164.777 35.9109 163.538 35.9109 162.08C35.9109 160.55 37.1498 159.384 38.6074 159.384C40.065 159.384 41.4497 160.623 41.4497 162.08C41.4497 163.538 40.3565 164.777 38.8989 164.777Z" fill="#782F40"/>
<path d="M53.1833 164.777H52.8918C51.4343 164.777 50.1953 163.538 50.1953 162.08C50.1953 160.55 51.4343 159.384 52.8918 159.384C54.3494 159.384 55.7341 160.623 55.7341 162.08C55.7341 163.538 54.6409 164.777 53.1833 164.777Z" fill="#782F40"/>
<path d="M67.4678 164.777H67.1762C65.7187 164.777 64.4797 163.538 64.4797 162.08C64.4797 160.55 65.7187 159.384 67.1762 159.384C68.6338 159.384 70.0185 160.623 70.0185 162.08C70.0185 163.538 68.9982 164.777 67.4678 164.777Z" fill="#782F40"/>
<path d="M81.9706 164.777H81.4604C80.0029 164.777 78.7639 163.538 78.7639 162.08C78.7639 160.55 80.0029 159.384 81.4604 159.384C82.918 159.384 84.3756 160.623 84.3756 162.08C84.4485 163.538 83.4282 164.777 81.9706 164.777Z" fill="#782F40"/>
<path d="M96.255 164.777H95.7448C94.2873 164.777 93.0483 163.538 93.0483 162.08C93.0483 160.55 94.2873 159.384 95.7448 159.384C97.2024 159.384 98.66 160.623 98.66 162.08C98.7329 163.538 97.7126 164.777 96.255 164.777Z" fill="#782F40"/>
<path d="M110.539 164.777H110.029C108.571 164.777 107.332 163.538 107.332 162.08C107.332 160.55 108.571 159.384 110.029 159.384C111.486 159.384 112.944 160.623 112.944 162.08C113.017 163.538 112.069 164.777 110.539 164.777Z" fill="#782F40"/>
<path d="M124.896 164.777H124.386C122.928 164.777 121.689 163.538 121.689 162.08C121.689 160.55 122.928 159.384 124.386 159.384C125.844 159.384 127.301 160.623 127.301 162.08C127.301 163.538 126.354 164.777 124.896 164.777Z" fill="#782F40"/>
<path d="M139.181 164.777H138.67C137.213 164.777 135.974 163.538 135.974 162.08C135.974 160.55 137.213 159.384 138.67 159.384C140.128 159.384 141.586 160.623 141.586 162.08C141.658 163.538 140.638 164.777 139.181 164.777Z" fill="#782F40"/>
<path d="M153.465 164.777H152.955C151.497 164.777 150.258 163.538 150.258 162.08C150.258 160.55 151.497 159.384 152.955 159.384C154.412 159.384 155.87 160.623 155.87 162.08C155.943 163.538 154.995 164.777 153.465 164.777Z" fill="#782F40"/>
<path d="M31.757 176H31.3926C29.935 176 28.696 174.761 28.696 173.304C28.696 171.773 29.935 170.607 31.3926 170.607C32.8501 170.607 34.2348 171.846 34.2348 173.304C34.2348 174.834 33.2145 176 31.757 176Z" fill="#782F40"/>
<path d="M46.0414 176H45.677C44.2194 176 42.9805 174.761 42.9805 173.304C42.9805 171.773 44.2194 170.607 45.677 170.607C47.1346 170.607 48.5193 171.846 48.5193 173.304C48.5921 174.834 47.4989 176 46.0414 176Z" fill="#782F40"/>
<path d="M60.3257 176H60.0342C58.5766 176 57.3376 174.761 57.3376 173.304C57.3376 171.773 58.5766 170.607 60.0342 170.607C61.4917 170.607 62.8764 171.846 62.8764 173.304C62.8764 174.834 61.8561 176 60.3257 176Z" fill="#782F40"/>
<path d="M74.6096 176H74.3181C72.8605 176 71.6216 174.761 71.6216 173.304C71.6216 171.773 72.8605 170.607 74.3181 170.607C75.7757 170.607 77.1604 171.846 77.1604 173.304C77.1604 174.834 76.1401 176 74.6096 176Z" fill="#782F40"/>
<path d="M89.1127 176H88.6025C87.1449 176 85.906 174.761 85.906 173.304C85.906 171.773 87.1449 170.607 88.6025 170.607C90.0601 170.607 91.5177 171.846 91.5177 173.304C91.5905 174.834 90.5702 176 89.1127 176Z" fill="#782F40"/>
<path d="M103.397 176H102.887C101.429 176 100.19 174.761 100.19 173.304C100.19 171.773 101.429 170.607 102.887 170.607C104.344 170.607 105.802 171.846 105.802 173.304C105.875 174.834 104.927 176 103.397 176Z" fill="#782F40"/>
<path d="M117.681 176H117.171C115.714 176 114.475 174.761 114.475 173.304C114.475 171.773 115.714 170.607 117.171 170.607C118.629 170.607 120.086 171.846 120.086 173.304C120.159 174.834 119.212 176 117.681 176Z" fill="#782F40"/>
<path d="M132.038 176H131.528C130.07 176 128.831 174.761 128.831 173.304C128.831 171.773 130.07 170.607 131.528 170.607C132.985 170.607 134.443 171.846 134.443 173.304C134.516 174.834 133.496 176 132.038 176Z" fill="#782F40"/>
<path d="M146.322 176H145.812C144.355 176 143.116 174.761 143.116 173.304C143.116 171.773 144.355 170.607 145.812 170.607C147.27 170.607 148.727 171.846 148.727 173.304C148.8 174.834 147.853 176 146.322 176Z" fill="#782F40"/>
<path d="M160.606 176H160.315C158.857 176 157.618 174.761 157.618 173.304C157.618 171.773 158.857 170.607 160.315 170.607C161.772 170.607 163.157 171.846 163.157 173.304C163.157 174.834 162.137 176 160.606 176Z" fill="#782F40"/>
<path d="M95.9634 138.832C94.5058 138.832 93.2668 137.593 93.2668 136.135V121.341C93.2668 119.81 94.5058 118.644 95.9634 118.644C97.4209 118.644 98.6599 119.883 98.6599 121.341V136.135C98.6599 137.666 97.4209 138.832 95.9634 138.832Z" fill="#782F40"/>
<path d="M89.404 130.888C88.7481 130.888 88.0922 130.669 87.5092 130.159C86.416 129.139 86.416 127.39 87.4363 126.37L93.9225 119.519C94.9428 118.426 96.6919 118.426 97.7122 119.446C98.8054 120.466 98.8054 122.216 97.7851 123.236L91.2989 130.086C90.8616 130.597 90.1328 130.888 89.404 130.888Z" fill="#782F40"/>
<path d="M102.595 130.888C101.867 130.888 101.211 130.597 100.628 130.086L93.9229 123.236C92.9026 122.143 92.9026 120.466 93.9957 119.446C95.0889 118.426 96.7651 118.426 97.7854 119.519L104.49 126.37C105.511 127.463 105.511 129.139 104.417 130.159C103.98 130.669 103.324 130.888 102.595 130.888Z" fill="#782F40"/>
</g>
<defs>
<clipPath id="clip0">
<rect width="140" height="140" fill="white" transform="translate(26 36)"/>
</clipPath>
</defs>
</svg>
