<svg width="192" height="192" viewBox="0 0 192 192" fill="none" xmlns="http://www.w3.org/2000/svg">
<g clip-path="url(#clip0)">
<path d="M75.8208 166C74.1384 166 72.9681 165.344 72.2367 164.76C68.9452 162.062 68.7989 156.01 68.6526 149.01C68.5795 144.708 68.4332 140.187 67.5555 137.344C66.5315 134.208 64.6297 130.271 62.5817 126.115C56.2913 113.427 48.6111 97.6042 56.0718 84.7708C56.8033 83.4583 58.4856 83.0208 59.8022 83.75C61.1188 84.4792 61.5577 86.1563 60.8262 87.4688C54.8284 97.8229 61.8502 112.188 67.4823 123.781C69.6035 128.156 71.6515 132.24 72.7487 135.74C73.919 139.312 74.0653 144.198 74.1384 148.937C74.2116 153.167 74.3579 159.51 75.7476 160.604C80.7214 159.875 83.6472 152.875 86.2072 146.75C89.133 139.75 91.8393 133.187 97.6177 133.187C103.396 133.187 106.176 139.75 109.028 146.75C111.588 152.875 114.441 159.802 118.976 160.604C120.951 159.437 121.097 152.948 121.17 148.646C121.316 144.052 121.39 139.24 122.487 135.74C123.584 132.24 125.559 128.156 127.68 123.854C129.435 120.354 131.191 116.708 132.727 112.917C133.312 111.531 134.848 110.875 136.238 111.458C137.628 112.042 138.286 113.573 137.701 114.958C136.092 118.896 134.263 122.615 132.507 126.26C130.459 130.344 128.558 134.208 127.607 137.344C126.729 140.115 126.656 144.49 126.51 148.792C126.363 155.937 126.217 162.062 122.852 164.76C121.902 165.49 120.292 166.292 117.952 165.927C110.564 164.687 107.053 156.229 103.981 148.792C102.079 144.271 99.7389 138.583 97.5446 138.583C95.3502 138.583 93.0096 144.271 91.1079 148.792C88.0358 156.229 84.5249 164.615 77.0642 165.927C76.6253 166 76.1865 166 75.8208 166ZM137.554 110.146C137.262 110.146 137.042 110.146 136.75 110C135.287 109.562 134.482 108.031 134.921 106.646C138.359 95.3437 136.677 87.7604 129.435 82C123.291 77.1875 112.027 77.4792 103.03 79.5208C105.225 80.5417 107.419 81.7083 109.686 82.9479C111.003 83.6771 111.442 85.3542 110.71 86.6667C109.979 87.9792 108.297 88.4167 106.98 87.6875C90.669 78.3542 73.7727 75.9479 65.9463 81.7812C64.776 82.6562 63.0205 82.4375 62.1428 81.1979C61.2651 80.0312 61.4845 78.2812 62.728 77.4062C69.9692 72.0104 81.8186 71.7917 94.9845 76.2396C105.152 72.5208 122.999 69.9688 132.873 77.7708C141.797 84.8437 144.21 94.8333 140.188 108.177C139.749 109.344 138.652 110.146 137.554 110.146Z" fill="#782F40"/>
<path d="M87.8163 65.6667C82.8425 65.6667 78.2344 62.3854 76.8447 57.4271L76.0401 53.7813C75.6744 52.3229 76.6253 50.8646 78.0881 50.5729C79.551 50.2084 81.0139 51.1563 81.3065 52.6146L82.1111 56.1146C82.9156 59.0313 86.134 60.9271 89.206 60.125L95.2039 58.5209C98.2759 57.7917 100.105 54.5834 99.2999 51.4479L96.4473 40.3646L79.3316 44.6667C79.6242 46.125 78.6001 47.7292 77.1373 48.0209C75.6744 48.3125 74.2115 47.5104 73.9189 46.0521C73.3338 42.9896 75.1624 40 78.0881 39.4167L94.9113 35.1146C96.301 34.6771 97.9102 34.8959 99.2268 35.625C100.543 36.3542 101.421 37.5938 101.714 38.9792L104.566 50.0625C106.029 56.1146 102.445 62.2396 96.5204 63.6979L90.5226 65.375C89.6449 65.5938 88.694 65.6667 87.8163 65.6667Z" fill="#782F40"/>
<path d="M94.7653 71.7917C93.595 71.7917 92.4978 70.9896 92.1321 69.7501L90.2304 62.6042C89.8646 61.1459 90.6692 59.6876 92.1321 59.323C93.595 58.9584 95.0579 59.7605 95.4236 61.2188L97.3253 68.3646C97.6911 69.823 96.8865 71.2813 95.4236 71.6459C95.2042 71.7917 94.9847 71.7917 94.7653 71.7917Z" fill="#782F40"/>
<path d="M108.004 45.5417C106.688 45.5417 105.518 44.5208 105.298 43.1354C105.152 41.6771 106.176 40.2917 107.639 40.1458L141.139 35.9896C142.602 35.7708 143.991 36.8646 144.138 38.3229C144.284 39.7813 143.26 41.1667 141.797 41.3125L108.297 45.4688C108.224 45.5417 108.151 45.5417 108.004 45.5417Z" fill="#782F40"/>
<path d="M145.162 55.75C145.088 55.75 145.088 55.75 145.015 55.75L101.787 53.4896C100.251 53.4167 99.1539 52.1042 99.2271 50.6458C99.3002 49.1875 100.617 48.0938 102.08 48.0938L145.308 50.3542C146.844 50.4271 147.941 51.7396 147.868 53.1979C147.795 54.6562 146.624 55.75 145.162 55.75Z" fill="#782F40"/>
<path d="M145.161 55.75C143.918 55.75 142.821 54.9479 142.528 53.7083L138.871 39.4166C138.505 37.9583 139.383 36.5 140.846 36.1354C142.309 35.7708 143.772 36.6458 144.137 38.1041L147.795 52.3958C148.16 53.8541 147.283 55.3125 145.82 55.677C145.6 55.75 145.381 55.75 145.161 55.75Z" fill="#782F40"/>
<path d="M141.504 41.4584C140.261 41.4584 139.164 40.6563 138.871 39.4167C138.505 37.9584 139.383 36.5 140.846 36.1355L179.905 26.1459C181.368 25.7813 182.831 26.6563 183.196 28.1146C183.562 29.573 182.684 31.0313 181.221 31.3959L142.162 41.3125C141.943 41.3855 141.724 41.4584 141.504 41.4584Z" fill="#782F40"/>
<path d="M145.161 55.7501C143.991 55.7501 142.894 54.948 142.528 53.7085C142.162 52.2501 143.04 50.7918 144.43 50.4272L183.489 40.2189C184.952 39.8543 186.414 40.7293 186.78 42.1876C187.146 43.646 186.268 45.1043 184.878 45.4689L145.819 55.6772C145.6 55.7501 145.381 55.7501 145.161 55.7501Z" fill="#782F40"/>
<path d="M163.374 50.9375C162.131 50.9375 161.034 50.1354 160.741 48.8959L159.79 44.9584C159.424 43.5 160.375 42.0417 161.765 41.6771C163.228 41.3125 164.691 42.2604 165.057 43.6459L166.007 47.6563C166.373 49.1146 165.422 50.5729 164.033 50.9375C163.813 50.9375 163.594 50.9375 163.374 50.9375Z" fill="#782F40"/>
<path d="M73.2608 88.6355H72.7488C71.2128 88.6355 70.0425 87.3959 70.0425 85.9375C70.0425 84.4792 71.2859 83.2396 72.7488 83.2396C74.2848 83.2396 75.6746 84.4792 75.6746 85.9375C75.6746 87.4688 74.7237 88.6355 73.2608 88.6355Z" fill="#782F40"/>
<path d="M89.4989 88.6355H89.2063C87.6703 88.6355 86.5 87.3959 86.5 85.9375C86.5 84.4792 87.7435 83.2396 89.2063 83.2396C90.7424 83.2396 92.059 84.4792 92.059 85.9375C92.059 87.4688 91.0349 88.6355 89.4989 88.6355Z" fill="#782F40"/>
<path d="M122.194 88.6355H121.755C120.219 88.6355 119.049 87.3959 119.049 85.9375C119.049 84.4792 120.292 83.2396 121.755 83.2396C123.291 83.2396 124.681 84.4792 124.681 85.9375C124.681 87.4688 123.73 88.6355 122.194 88.6355Z" fill="#782F40"/>
<path d="M65.0684 98.5521H64.5564C63.0204 98.5521 61.8501 97.3125 61.8501 95.8542C61.8501 94.3958 63.0935 93.1562 64.5564 93.1562C66.0925 93.1562 67.4822 94.3958 67.4822 95.8542C67.4822 97.3125 66.6045 98.5521 65.0684 98.5521Z" fill="#782F40"/>
<path d="M81.38 98.5521H80.868C79.3319 98.5521 78.1616 97.3125 78.1616 95.8542C78.1616 94.3958 79.4051 93.1562 80.868 93.1562C82.404 93.1562 83.7937 94.3958 83.7937 95.8542C83.7937 97.3125 82.8428 98.5521 81.38 98.5521Z" fill="#782F40"/>
<path d="M97.7638 98.5521H97.2517C95.7157 98.5521 94.5454 97.3125 94.5454 95.8542C94.5454 94.3958 95.7889 93.1562 97.2517 93.1562C98.7878 93.1562 100.178 94.3958 100.178 95.8542C100.178 97.3125 99.2998 98.5521 97.7638 98.5521Z" fill="#782F40"/>
<path d="M114.075 98.5521H113.563C112.027 98.5521 110.857 97.3125 110.857 95.8542C110.857 94.3958 112.1 93.1562 113.563 93.1562C115.026 93.1562 116.489 94.3958 116.489 95.8542C116.489 97.3125 115.538 98.5521 114.075 98.5521Z" fill="#782F40"/>
<path d="M130.313 98.5521H129.801C128.265 98.5521 127.095 97.3125 127.095 95.8542C127.095 94.3958 128.338 93.1562 129.801 93.1562C131.337 93.1562 132.727 94.3958 132.727 95.8542C132.727 97.3125 131.849 98.5521 130.313 98.5521Z" fill="#782F40"/>
<path d="M73.2608 108.25H72.7488C71.2128 108.25 70.0425 107.01 70.0425 105.552C70.0425 104.094 71.2859 102.854 72.7488 102.854C74.2848 102.854 75.6746 104.094 75.6746 105.552C75.6746 107.01 74.7237 108.25 73.2608 108.25Z" fill="#782F40"/>
<path d="M89.4989 108.25H89.2063C87.6703 108.25 86.5 107.01 86.5 105.552C86.5 104.094 87.7435 102.854 89.2063 102.854C90.7424 102.854 92.059 104.094 92.059 105.552C92.059 107.01 91.0349 108.25 89.4989 108.25Z" fill="#782F40"/>
<path d="M105.956 108.25H105.444C103.908 108.25 102.738 107.01 102.738 105.552C102.738 104.094 103.981 102.854 105.444 102.854C106.98 102.854 108.37 104.094 108.37 105.552C108.443 107.01 107.419 108.25 105.956 108.25Z" fill="#782F40"/>
<path d="M122.194 108.25H121.755C120.219 108.25 119.049 107.01 119.049 105.552C119.049 104.094 120.292 102.854 121.755 102.854C123.291 102.854 124.681 104.094 124.681 105.552C124.681 107.01 123.73 108.25 122.194 108.25Z" fill="#782F40"/>
</g>
<defs>
<clipPath id="clip0">
<rect width="134" height="140" fill="white" transform="translate(53 26)"/>
</clipPath>
</defs>
</svg>
