<svg width="192" height="192" viewBox="0 0 192 192" fill="none" xmlns="http://www.w3.org/2000/svg">
<g clip-path="url(#clip0)">
<path fill-rule="evenodd" clip-rule="evenodd" d="M154.833 32.5747L147.425 49.472L154.586 66.196L137.883 59.0126L120.988 66.4201L128.417 49.5454L121.234 32.844L137.957 40.0047L154.833 32.5747ZM147.047 40.3734L137.979 44.3655L128.865 40.4629L132.779 49.5641L128.786 58.6334L137.868 54.6518L146.967 58.5651L143.066 49.4532L147.047 40.3734Z" fill="#782F40"/>
<path fill-rule="evenodd" clip-rule="evenodd" d="M142.157 81.0821C144.917 71.9578 144.901 64.6062 142.042 58.6238L147.487 60.9654C149.15 67.0346 148.736 74.1269 146.251 82.3418C146.02 83.258 145.156 83.8307 144.233 83.8307C144.06 83.8307 143.829 83.8307 143.599 83.7161C142.446 83.3726 141.811 82.1701 142.157 81.0821ZM93.0304 45.3507C101.959 41.983 116.001 39.4087 127.4 42.1167L129.584 47.1961C120.597 43.8824 108.317 45.2988 99.3154 47.813C102.89 49.359 106.465 51.1341 110.098 53.1956C111.136 53.7682 111.482 55.0852 110.905 56.1159C110.329 57.1466 109.002 57.4902 107.964 56.9176C87.6103 45.2362 67.1984 42.4876 57.1078 49.9316C56.1852 50.6188 54.8014 50.447 54.1094 49.4736C53.4175 48.5574 53.5905 47.1831 54.5707 46.4959C63.1045 40.1971 77.289 39.9681 93.0304 45.3507ZM122.149 150.999C121.791 150.999 121.433 150.954 121.034 150.904L120.88 150.884C112.509 149.461 108.414 139.713 104.796 131.101L104.735 130.957C102.083 124.601 99.3154 118.016 95.9134 118.016C92.514 118.016 89.8055 124.591 87.2126 130.885L87.2066 130.9C83.6317 139.546 79.5378 149.338 71.177 150.827C68.8129 151.228 67.1407 150.426 66.2182 149.682C62.6705 146.784 62.4731 139.769 62.2448 131.66L62.2396 131.473L62.238 131.399C62.1232 126.211 62.0035 120.805 60.8557 117.272C59.7678 113.825 57.749 109.638 55.5938 105.169C55.3503 104.664 55.1049 104.155 54.859 103.643C54.0616 102.022 53.2432 100.358 52.4289 98.6592L53.0658 98.38L57.9959 100.5C58.2202 100.96 58.4432 101.416 58.6646 101.868C61.2017 107.022 63.5658 111.946 64.892 116.069C66.2182 120.192 66.3911 125.918 66.5065 131.415C66.6218 137.37 66.7948 144.7 68.9282 146.418C69.1589 146.647 69.5625 146.819 70.4274 146.704C76.4818 145.673 80.1144 136.97 83.2857 129.354C86.5724 121.394 89.7437 113.836 95.971 113.836C102.194 113.836 105.365 121.383 108.707 129.336L108.714 129.354C111.885 136.97 115.518 145.673 121.63 146.704C122.495 146.876 122.899 146.647 123.129 146.418C125.162 144.735 125.37 137.615 125.54 131.781L125.551 131.415C125.666 125.861 125.839 120.192 127.165 116.012C128.284 112.375 130.3 108.16 132.462 103.64L132.462 103.64C132.751 103.036 133.043 102.426 133.335 101.811C135.411 97.5735 137.544 93.1643 139.39 88.6406C139.851 87.5527 141.062 87.0373 142.157 87.4382C143.253 87.8962 143.772 89.0987 143.368 90.1867C141.607 94.5317 139.6 98.6806 137.665 102.679C137.549 102.918 137.434 103.157 137.318 103.395C137.278 103.478 137.238 103.561 137.198 103.643C136.969 104.12 136.741 104.594 136.514 105.065L136.513 105.065C134.34 109.574 132.303 113.798 131.259 117.272C130.112 120.805 129.992 126.211 129.877 131.399V131.399L129.875 131.473C129.703 139.661 129.53 146.704 125.897 149.682C125.09 150.312 123.821 150.999 122.149 150.999ZM52.2415 87.865C47.961 77.1931 45.5291 66.0708 50.7651 57.0894C51.3994 56.0587 51.0534 54.7416 50.0155 54.169C48.9776 53.5391 47.6514 53.8827 47.0748 54.9134C41.6043 64.2778 43.1202 75.0922 46.8271 85.5465L52.2415 87.865Z" fill="#782F40"/>
<path fill-rule="evenodd" clip-rule="evenodd" d="M41.3294 81.5606L53.121 86.6099L65.0251 81.369L59.7996 93.2877L64.8495 105.081L53.0713 100.015L41.1539 105.24L46.3942 93.3374L41.3294 81.5606ZM47.0526 87.2747L49.6659 93.3514L47.0029 99.4002L53.0598 96.7447L59.1353 99.3575L56.5301 93.2737L59.1851 87.218L53.1376 89.8804L47.0526 87.2747Z" fill="#782F40"/>
</g>
<defs>
<clipPath id="clip0">
<rect width="125.432" height="118.424" fill="white" transform="translate(29.4019 32.5747)"/>
</clipPath>
</defs>
</svg>
