<svg width="201" height="88" viewBox="0 0 201 88" fill="none" xmlns="http://www.w3.org/2000/svg">
<path d="M41.0177 26.6619H26.8843C21.1564 26.6619 16.5 31.3205 16.5 37.0447V51.1788C16.5 56.9024 21.1564 61.5617 26.8843 61.5617H41.017C46.7398 61.5617 51.3984 56.9024 51.3984 51.1788V37.0447C51.3991 31.3205 46.7405 26.6619 41.0177 26.6619Z" fill="#E31836"/>
<path d="M44.967 48.4009L44.9541 48.5565C44.9044 49.162 44.5249 49.7747 43.8949 49.7747C43.4132 49.7747 43.0258 49.5962 42.7097 49.2304C42.3303 48.7933 41.989 48.2684 41.6434 47.3173C42.6219 43.9958 45.641 33.3559 45.641 33.3559H39.9117C39.9117 33.3559 39.3825 35.8508 38.9051 38.1204C38.8813 38.0649 38.8569 38.0102 38.8317 37.9576C38.3543 36.9373 37.5918 35.8033 36.745 35.0062C35.269 33.6187 33.533 32.9426 31.437 32.9426C28.5439 32.9426 26.0965 34.0126 24.1625 36.1237C22.2379 38.2219 21.2212 40.9141 21.2212 43.9079C21.2212 47.2424 22.1867 49.9814 24.0905 52.045C26.0763 54.2015 28.451 55.2059 31.5615 55.2059C33.3738 55.2059 35.1033 54.6673 36.7069 53.6067C37.743 52.9227 38.6884 51.9751 39.5819 50.7446C39.9571 51.9593 40.3351 52.7895 40.7873 53.4109C41.5188 54.4139 42.6147 54.9885 43.7934 54.9885C45.0203 54.9885 46.1378 54.3599 46.7116 53.3497C47.22 52.4532 47.4274 51.3408 47.4274 49.5112V48.4009H44.967ZM35.3633 50.5279C34.4949 51.7995 33.3609 52.4705 32.0835 52.4705C30.5952 52.4705 29.4698 51.8038 28.6411 50.4256C27.772 48.9827 27.3321 46.8205 27.3321 43.9972C27.3321 41.4087 27.7987 39.3516 28.7181 37.8827C29.5822 36.5039 30.6651 35.8602 32.1253 35.8602C33.425 35.8602 34.4395 36.4002 35.3215 37.5638C36.2669 38.8123 37.0661 40.8752 37.6386 43.5271C36.92 47.1121 36.2172 49.2794 35.3633 50.5279Z" fill="white"/>
<path d="M68.8705 33.8614C68.4745 32.0779 67.3498 30.8323 64.8816 30.8323C62.5595 30.8323 61.2872 32.0779 60.8912 33.8614L59.099 41.9344H61.015C61.4521 41.9344 61.887 41.5859 61.9806 41.1589L62.3427 39.5165H67.4197L67.7825 41.1589C67.8762 41.5852 68.3103 41.9344 68.7474 41.9344H70.6641L68.8705 33.8614ZM62.8446 37.2413L63.4761 34.382C63.5776 33.9198 63.9376 33.2134 64.8823 33.2134C65.8262 33.2134 66.1855 33.919 66.2885 34.382L66.9192 37.2413H62.8446Z" fill="#E31836"/>
<path d="M75.3868 33.5287H79.6609V41.9343H82.3063V31.0942H74.3277C73.4557 31.0942 72.74 31.8085 72.74 32.6819V38.1599C72.74 38.8929 72.4023 39.3595 71.8155 39.4768L71.2733 39.6064L71.7644 41.935H72.2677C74.0778 41.935 75.3868 40.5878 75.3868 38.2967V33.5287Z" fill="#E31836"/>
<path d="M105.302 31.0943H104.338V29.8342H102.486C102.049 29.8342 101.691 30.1892 101.691 30.627V31.0943H100.727C97.457 31.0943 95.4128 33.3235 95.4128 36.5139C95.4128 39.7051 97.457 41.9343 100.727 41.9343H101.691V43.2484H103.543C103.98 43.2484 104.338 42.8912 104.338 42.4563V41.9343H105.302C108.572 41.9343 110.616 39.7051 110.616 36.5139C110.616 33.3235 108.572 31.0943 105.302 31.0943ZM100.727 39.5402C98.9158 39.5402 98.059 38.3939 98.059 36.5139C98.059 34.6354 98.9158 33.4891 100.727 33.4891H101.691V39.5402H100.727ZM105.302 39.5402H104.338V33.4891H105.302C107.114 33.4891 107.968 34.6354 107.968 36.5139C107.968 38.3939 107.113 39.5402 105.302 39.5402Z" fill="#E31836"/>
<path d="M90.5175 33.8433H86.7201V31.0957H84.074V41.1415C84.074 41.5779 84.4318 41.935 84.8682 41.935H90.5175C92.8245 41.935 94.5612 40.1969 94.5612 37.8892C94.5612 35.5822 93.1039 33.8433 90.5175 33.8433ZM90.5175 39.5013H86.7201V36.277H90.5175C91.1627 36.277 91.9158 36.8545 91.9158 37.8885C91.9158 38.9217 91.1627 39.5013 90.5175 39.5013Z" fill="#E31836"/>
<path d="M120.484 33.8614C120.087 32.0779 118.963 30.8323 116.494 30.8323C114.174 30.8323 112.901 32.0779 112.504 33.8614L110.711 41.9344H112.629C113.064 41.9344 113.5 41.5859 113.592 41.1589L113.955 39.5165H119.033L119.394 41.1589C119.488 41.5852 119.923 41.9344 120.359 41.9344H122.275L120.484 33.8614ZM114.458 37.2413L115.087 34.382C115.191 33.9198 115.551 33.2134 116.494 33.2134C117.439 33.2134 117.797 33.919 117.901 34.382L118.531 37.2413H114.458Z" fill="#E31836"/>
<path d="M135.824 51.521C136.29 51.0617 136.591 50.436 136.591 49.5683C136.591 47.6473 135.102 46.3037 133.18 46.3037H126.71C126.274 46.3037 125.917 46.6601 125.917 47.0972V56.3503C125.917 56.7866 126.274 57.1437 126.71 57.1437L133.588 57.1452C135.615 57.1452 136.961 55.695 136.961 53.774C136.961 52.807 136.501 52.0495 135.824 51.521ZM133.177 48.5538C133.529 48.5538 134.01 48.9484 134.01 49.6223C134.01 50.3013 133.529 50.6476 133.177 50.6901H128.51V48.5531H133.177V48.5538ZM133.389 54.8958H128.509V52.7573H133.389C133.742 52.8005 134.222 53.1461 134.222 53.8259C134.222 54.4991 133.742 54.8958 133.389 54.8958Z" fill="#E31836"/>
<path d="M118.345 46.0547C115.074 46.0547 112.787 48.384 112.787 51.7242C112.787 55.063 115.073 57.3944 118.345 57.3944H119.25C122.522 57.3944 124.808 55.063 124.808 51.7242C124.808 48.384 122.523 46.0547 119.25 46.0547H118.345ZM115.645 51.7242C115.645 49.7801 116.681 48.294 118.505 48.294H119.092C120.914 48.294 121.949 49.7801 121.949 51.7242C121.949 53.6683 120.914 55.1559 119.092 55.1559H118.505C116.68 55.1551 115.645 53.6683 115.645 51.7242Z" fill="#E31836"/>
<path d="M68.9614 46.3037L69.3099 47.9432C69.4028 48.3803 69.8363 48.7367 70.2726 48.7367H72.7394V57.143H75.3862V48.7374H77.776C78.2116 48.7374 78.6444 48.381 78.7365 47.9439L79.085 46.3044H68.9614" fill="#E31836"/>
<path d="M158.098 46.3037V50.608H152.95V46.3037H150.303V57.1437H152.95V52.933H158.098V57.1437H160.745V46.3037H158.098Z" fill="#E31836"/>
<path d="M99.7592 49.0721C99.3625 47.2879 98.2399 46.0437 95.7695 46.0437C93.451 46.0437 92.1773 47.2886 91.782 49.0721L89.9884 57.1437H91.9051C92.3422 57.1437 92.7764 56.7966 92.8707 56.3696L93.2321 54.7265H98.3076L98.6698 56.3696C98.7627 56.7966 99.1983 57.1437 99.6353 57.1437H101.551L99.7592 49.0721ZM93.7347 52.4505L94.3647 49.5913C94.467 49.1297 94.8263 48.4227 95.771 48.4227C96.7156 48.4227 97.0749 49.1297 97.1779 49.5927L97.8079 52.4498H93.7347V52.4505Z" fill="#E31836"/>
<path d="M147.342 49.0721C146.944 47.2879 145.822 46.0437 143.351 46.0437C141.031 46.0437 139.759 47.2886 139.362 49.0721L137.57 57.1437H139.488C139.923 57.1437 140.358 56.7966 140.451 56.3696L140.815 54.7265H145.891L146.254 56.3696C146.349 56.7966 146.782 57.1437 147.218 57.1437H149.137L147.342 49.0721ZM141.314 52.4505L141.946 49.5913C142.05 49.1297 142.408 48.4227 143.351 48.4227C144.294 48.4227 144.655 49.1297 144.758 49.5927L145.388 52.4498H141.314V52.4505Z" fill="#E31836"/>
<path d="M69.7851 57.114V57.145H64.6153C61.4853 57.145 59.2993 54.9165 59.2993 51.7239C59.2993 48.5327 61.486 46.3042 64.6153 46.3042H68.5373L68.1535 47.9653C68.0556 48.3916 67.6178 48.7379 67.1808 48.7379H64.6153C62.9427 48.7379 61.9454 49.9864 61.9454 51.7246C61.9454 53.462 62.9419 54.7113 64.6153 54.7113H68.4365C68.8721 54.7113 69.3106 55.0583 69.4085 55.4846L69.7851 57.114Z" fill="#E31836"/>
<path d="M86.1788 46.3037L80.5302 46.3044C80.0924 46.3044 79.736 46.6616 79.736 47.0979V57.1445H82.3828V54.3947H86.1788C88.768 54.3947 90.2246 52.6558 90.2246 50.3503C90.2246 48.044 88.4858 46.3037 86.1788 46.3037ZM86.1788 51.9617H82.3828V48.7403H86.1788C86.8246 48.7403 87.5785 49.317 87.5785 50.351C87.5785 51.3835 86.8246 51.9617 86.1788 51.9617Z" fill="#E31836"/>
<path d="M183.177 54.8555H177.477V52.7739H183.673V50.6829H177.477V48.5912H183.177C183.647 48.5912 184.018 48.3853 184.147 47.8179L184.5 46.303H175.625C175.189 46.303 174.831 46.6594 174.831 47.0964V56.3495C174.831 56.7859 175.189 57.1445 175.625 57.1445H184.5L184.147 55.6295C184.018 55.0628 183.648 54.8555 183.177 54.8555Z" fill="#E31836"/>
<path d="M162.559 57.1437V46.3037H165.206V53.4558L169.791 46.9431C170.049 46.5917 170.616 46.3037 171.056 46.3037H173.018V57.1437H170.37V49.9924L165.784 56.5044C165.527 56.8557 164.959 57.1437 164.521 57.1437H162.559Z" fill="#E31836"/>
<path d="M109.534 51.6663L113.228 46.3042H110.797C110.272 46.3042 109.903 46.464 109.578 46.9731L107.61 50.0635H107.258L105.289 46.9731C104.966 46.4633 104.597 46.3042 104.069 46.3042H101.56L105.333 51.7807L101.639 57.1435H104.069C104.596 57.1435 104.966 56.9851 105.289 56.4746L107.258 53.3835H107.61L109.578 56.4746C109.903 56.9851 110.272 57.1435 110.797 57.1435H113.307L109.534 51.6663Z" fill="#E31836"/>
</svg>
