<svg width="201" height="88" viewBox="0 0 201 88" fill="none" xmlns="http://www.w3.org/2000/svg">
<path fill-rule="evenodd" clip-rule="evenodd" d="M25.1504 45.6954H18.4059L21.989 34.0402L25.1504 45.6954ZM15.2445 57.4774L17.3522 50.3745H25.9933L28.101 57.4774H35.2673L27.6795 30.5205C27.2581 28.75 26.4151 28.1809 24.5182 28.1809H13.9798V30.6047H14.823C16.0875 30.6047 16.7197 31.005 16.7197 31.9748C16.7197 32.5859 16.7197 32.9865 16.0875 34.4405L8.5 57.4774" fill="#003781"/>
<path d="M44.3302 57.4774V30.3309C44.3302 28.9185 43.487 28.1809 42.0118 28.1809H35.478V30.6047H35.8995C37.1639 30.6047 37.7964 31.1315 37.7964 32.2698V57.4774" fill="#003781"/>
<path d="M56.1331 57.4774V30.3309C56.1331 28.9185 55.2898 28.1809 53.8147 28.1809H47.2809V30.6047H47.7024C48.9671 30.6047 49.5993 31.1315 49.5993 32.2698V57.4774" fill="#003781"/>
<path fill-rule="evenodd" clip-rule="evenodd" d="M68.1466 30.7735C68.1466 28.8343 66.6712 27.696 64.3527 27.696C61.8236 27.696 60.5592 28.8343 60.5592 30.7735C60.5592 32.7547 61.8236 33.9137 64.3527 33.9137C66.6712 33.9137 68.1466 32.7547 68.1466 30.7735ZM67.9359 57.4774V37.7076C67.9359 36.3375 67.0929 35.5365 65.8282 35.5365H59.2944V37.9183H59.7159C60.9806 37.9183 61.4021 38.4452 61.4021 39.6465V57.4774" fill="#003781"/>
<path fill-rule="evenodd" clip-rule="evenodd" d="M83.5325 46.8338V51.2179C82.2678 52.4823 80.7927 53.1991 79.5279 53.1991C78.2632 53.1991 77.631 52.5877 77.631 50.9438C77.631 49.1311 78.0525 48.4357 79.5279 47.8666C80.5816 47.424 81.6356 47.1499 83.5325 46.8338ZM74.2589 41.5859L74.8911 41.3329C76.5773 40.6584 77.631 40.4054 78.8957 40.1735C79.5279 40.0893 80.3709 40.005 80.7927 40.005C82.9 40.005 83.5325 40.7007 83.5325 42.6396V43.1875C80.5816 43.6724 79.7387 43.8409 78.0525 44.1993C77.2095 44.41 76.3666 44.6841 75.5233 45.0422C72.7834 46.1382 71.5187 48.2458 71.5187 51.5548C71.5187 55.7071 73.2049 57.6883 76.9988 57.6883C78.4742 57.6883 79.9494 57.351 81.0034 56.6765C82.0571 56.192 82.4785 55.939 83.7433 54.7796V55.4541C83.7433 56.8242 84.3755 57.4775 85.6402 57.4775H91.9629V55.2222H91.7522C90.4878 55.2222 89.8556 54.6531 89.8556 53.5152V42.7449C89.8556 37.1386 87.9586 35.2417 82.4785 35.2417C80.5816 35.2417 78.8957 35.4524 77.2095 35.8531C75.5233 36.2534 74.6804 36.5484 72.7834 37.539" fill="#003781"/>
<path fill-rule="evenodd" clip-rule="evenodd" d="M101.869 57.4775V42.5976C103.344 41.2275 104.398 40.7006 105.874 40.7006C107.349 40.7006 107.77 41.3328 107.77 43.567V57.4775H114.304V42.513C114.304 39.4359 113.883 38.1081 113.04 36.949C111.986 35.8108 110.721 35.2839 108.824 35.2839C106.295 35.2839 104.398 36.2111 101.448 38.7614V37.5812C101.448 36.2111 100.815 35.5366 99.5507 35.5366H93.2277V37.9185H93.4384C94.7031 37.9185 95.3353 38.4453 95.3353 39.6466V57.4775" fill="#003781"/>
<path d="M134.54 53.2801H124.845L134.118 40.044V35.5336H120.208C118.522 35.5336 117.889 36.2081 117.889 37.831V41.8145H120.208V41.3718C120.208 40.1705 120.84 39.6857 122.105 39.6857H127.163L117.679 52.9218V57.4744H134.54" fill="#003781"/>
<path fill-rule="evenodd" clip-rule="evenodd" d="M171.845 56.2728V31.4445C171.845 29.4422 171.002 28.7888 169.105 28.7888H163.414V31.5289H164.047C165.101 31.5289 165.522 31.9292 165.522 33.1517V56.2728H171.845ZM175.217 56.2728H181.329V37.5357C181.329 35.6388 180.486 34.88 178.59 34.88H175.217V56.2728ZM162.15 56.2728V34.88H158.778C156.881 34.88 156.037 35.6388 156.037 37.5357V56.2728H162.15ZM188.495 43.7955C188.495 55.4087 180.065 63.8814 168.683 63.8814C157.302 63.8814 148.871 55.4087 148.871 43.7955C148.871 32.1823 157.302 23.7094 168.683 23.7094C180.065 23.7094 188.495 32.1823 188.495 43.7955ZM192.5 43.7955C192.5 30.2011 182.383 19.9999 168.683 19.9999C155.194 19.9999 144.867 30.2011 144.867 43.7955C144.867 57.432 155.194 67.6331 168.683 67.6331C182.383 67.6331 192.5 57.432 192.5 43.7955Z" fill="#003781"/>
</svg>
