<svg width="201" height="88" viewBox="0 0 201 88" fill="none" xmlns="http://www.w3.org/2000/svg">
<path d="M139.604 29.4683C131.991 29.4683 124.488 34.8391 124.488 45.2763C124.488 54.966 130.814 61.0428 139.313 61.0428C148.311 61.0428 154.429 54.4538 154.429 45.2763C154.471 34.5623 146.885 29.4683 139.604 29.4683ZM139.438 54.7445C135.05 54.7445 131.811 51.0901 131.811 45.2763C131.811 40.0992 134.441 35.8081 139.438 35.8081C144.975 35.8081 147.065 40.9021 147.065 45.2763C147.065 49.6505 144.947 54.7445 139.438 54.7445Z" fill="#BF1528"/>
<path d="M109.954 42.6741V48.7094H115.145V54.0526C113.989 54.5539 112.735 54.7858 111.476 54.7309C106.369 54.7309 103.434 51.0072 103.434 45.2626C103.434 39.9471 105.621 36.0989 112.058 36.0989C114.368 36.067 116.66 36.5001 118.799 37.3725L121.36 31.4341C118.302 29.9906 114.938 29.3158 111.559 29.4684C102.686 29.4684 95.876 35.8221 95.876 45.4564C95.876 54.011 100.887 61.0153 111.103 61.0153C114.884 61.1031 118.613 60.1193 121.858 58.1776V42.6741H109.954Z" fill="#BF1528"/>
<path d="M88.401 48.6676V48.5292C89.9019 47.5765 91.1887 46.3227 92.18 44.8471C93.1222 43.3076 93.6027 41.5299 93.5643 39.7254C93.5745 38.3832 93.3205 37.0521 92.8168 35.808C92.3399 34.5231 91.5388 33.3834 90.4912 32.4996C89.315 31.5172 87.9552 30.7784 86.4908 30.3264C84.5118 29.7584 82.4585 29.4924 80.4001 29.5373C78.6006 29.5373 76.9534 29.6204 75.5691 29.7588C74.1849 29.8973 72.9252 30.0357 71.4164 30.2848V60.5167H78.476V50.4117C79.3481 50.4117 79.9987 50.4117 80.9538 50.4117C81.7983 50.8276 82.519 51.4576 83.044 52.2389C84.9512 54.7135 86.3614 57.5339 87.1967 60.5444H95.5991C93.675 55.1735 91.7647 50.2318 88.401 48.6676ZM85.0096 43.5459C83.7507 44.4013 82.2537 44.8373 80.7323 44.7917C79.9295 44.7917 78.9605 44.7917 78.476 44.6948V35.9741C79.059 35.8935 79.6458 35.8427 80.234 35.8218H81.466C82.7858 35.7776 84.0838 36.1665 85.1619 36.9292C85.6184 37.2774 85.9831 37.7317 86.2243 38.2528C86.4655 38.7738 86.576 39.3458 86.5462 39.9192C86.5798 40.6004 86.4591 41.2804 86.1931 41.9084C85.927 42.5364 85.5224 43.0962 85.0096 43.5459Z" fill="#BF1528"/>
<path d="M56.3696 54.0526C55.9851 54.0828 55.5986 54.0266 55.2386 53.8882C54.8785 53.7498 54.5539 53.5327 54.2886 53.2528C54.0232 52.9728 53.8238 52.6371 53.7048 52.2701C53.5859 51.9032 53.5505 51.5143 53.6012 51.1319V47.8651H65.2288V41.7052H53.5873V36.4727H67.2636V29.9668H46.5V53.2774C46.5 58.0669 48.3687 60.517 53.6842 60.517H67.8865V54.0526H56.3696Z" fill="#BF1528"/>
</svg>
