<svg width="201" height="88" viewBox="0 0 201 88" fill="none" xmlns="http://www.w3.org/2000/svg">
<path d="M76.7563 41.1189H84.6404V43.6762H80.8899V61.645H76.7563V41.1189Z" fill="#0079C2"/>
<path d="M89.3146 53.9393L90.023 43.6762H90.2603L90.9687 53.9393H89.3146ZM84.7371 61.645H88.7842L89.1672 56.1938H91.1162L91.5009 61.645H95.5463L93.3906 41.1189H86.8928L84.7371 61.645Z" fill="#0079C2"/>
<path d="M101.466 54.4608V58.3305C101.466 58.8521 101.873 59.0035 102.11 59.0035C102.5 59.0035 102.771 58.6838 102.771 58.3305V53.5523C102.771 52.913 102.652 52.2063 101.11 52.2063H99.4323V49.9518H101.178C102.347 49.9518 102.771 49.6826 102.771 48.4208V44.3492C102.771 43.9959 102.5 43.6762 102.11 43.6762C101.873 43.6762 101.466 43.8109 101.466 44.3492V47.6973H97.3308V44.7867C97.3308 43.3566 97.5003 41.1189 100.398 41.1189H103.822C106.72 41.1189 106.906 43.3566 106.906 44.7867V48.0675C106.906 50.3051 105.33 50.9108 104.093 50.8604V51.0623C106.872 50.995 106.906 53.1149 106.906 53.8383V57.9772C106.906 59.4241 106.72 61.645 103.822 61.645H100.398C97.5003 61.645 97.3308 59.4241 97.3308 57.9772V54.4608H101.466Z" fill="#0079C2"/>
<path d="M109.618 41.1189H119.193V61.645H115.058V43.6762H113.753V61.645H109.618V41.1189Z" fill="#0079C2"/>
<path d="M126.04 52.4082V43.6762H126.583C127.023 43.6762 127.345 44.0464 127.345 44.7025V51.3819C127.345 52.0381 127.023 52.4082 126.583 52.4082H126.04ZM121.905 61.645H126.04V54.6627H128.413C131.294 54.6627 131.481 52.4419 131.481 50.995V44.7867C131.481 43.3566 131.294 41.1189 128.413 41.1189H121.905V61.645Z" fill="#0079C2"/>
<path d="M139.632 58.3305C139.632 58.6838 139.361 59.0035 138.971 59.0035C138.734 59.0035 138.327 58.8521 138.327 58.3305V44.3492C138.327 43.8109 138.734 43.6762 138.971 43.6762C139.361 43.6762 139.632 43.9959 139.632 44.3492V58.3305ZM134.192 57.9772C134.192 59.4241 134.379 61.645 137.26 61.645H140.7C143.581 61.645 143.768 59.4241 143.768 57.9772V44.7867C143.768 43.3566 143.581 41.1189 140.7 41.1189H137.26C134.379 41.1189 134.192 43.3566 134.192 44.7867V57.9772Z" fill="#0079C2"/>
<path d="M157.224 41.1189H162.614V61.645H158.478V48.7741H158.326L156.19 61.645H152.885L150.767 48.7741H150.614V61.645H146.479V41.1189H151.852L154.546 55.5544L157.224 41.1189Z" fill="#0079C2"/>
<path d="M71.3975 13.0554C70.1315 7.55379 66.9589 3.07844 66.5216 2.35498C65.8302 3.38128 63.2999 7.33507 62.0135 11.7095C60.6086 16.6055 60.4018 20.9462 60.8865 25.2028C61.3678 29.4763 63.1863 33.8675 63.1863 33.8675C64.1524 36.1557 65.5997 38.6289 66.542 39.8403C67.9232 38.0569 71.0975 32.7403 72.0873 25.8085C72.6381 21.9389 72.6618 18.5571 71.3975 13.0554ZM66.5216 38.4607C65.8997 37.2998 64.9336 35.0958 64.8421 31.6635C64.8184 28.3659 66.1522 25.5225 66.542 24.9337C66.8894 25.5225 68.0385 27.9957 68.1757 31.3775C68.269 34.6751 67.164 37.2829 66.5216 38.4607ZM71.0297 22.3931C70.9823 24.4962 70.7298 26.7171 70.4077 28.0462C70.523 25.7581 70.2468 22.5446 69.718 20.0209C69.1892 17.514 67.6927 13.3078 66.4979 11.373C65.3946 13.2237 64.0354 16.8578 63.3236 20.004C62.6084 23.1502 62.5881 26.9694 62.5881 28.1135C62.3983 27.1545 61.9237 23.7055 62.0576 20.2564C62.1695 17.413 62.8406 14.4687 63.2084 13.1228C64.6116 8.63058 66.1996 5.75356 66.4979 5.29929C66.7962 5.75356 68.796 9.30355 69.8332 13.0218C70.8653 16.7401 71.0738 20.3069 71.0297 22.3931Z" fill="#0079C2"/>
<path d="M68.6689 41.1191H59.0443V47.5293C59.0528 47.5293 59.0595 47.5125 59.068 47.5125C61.3356 45.258 65.0133 45.258 67.2826 47.5125C69.5502 49.7502 69.5502 53.4011 67.2826 55.6556C67.2724 55.6725 67.2623 55.6725 67.2521 55.6893C67.2402 55.6893 67.2284 55.7061 67.2182 55.7229C64.9557 57.9438 62 59.0542 59.0443 59.0542C56.0751 59.0542 53.1058 57.9438 50.8416 55.6893C46.8487 51.7355 46.3759 45.5945 49.4197 41.1191C49.8298 40.5134 50.3027 39.9414 50.8416 39.403C53.1058 37.1485 56.0751 36.0381 59.0443 36.0381V20.6267C47.6351 20.6267 38.3867 29.7961 38.3867 41.1191C38.3867 52.4421 47.6351 61.6284 59.0443 61.6284C64.993 61.6284 70.3518 59.1215 74.121 55.1341V41.1191H68.6689Z" fill="#0079C2"/>
</svg>
