<svg width="201" height="88" viewBox="0 0 201 88" fill="none" xmlns="http://www.w3.org/2000/svg">
<path d="M25.6619 53.3726H21.535V40.858L12.4759 53.3726H8.5V34.3004H12.6772V46.815L21.7867 34.3004H25.6619V53.3726ZM28.6816 34.3504H32.9092V41.8592H41.3643V34.3504H45.5919V53.3726H41.3643V45.7137H32.9092V53.3726H28.6816V34.3504ZM52.7888 53.3726H48.6116V34.3004H61.5963V38.1048H52.7888V53.3726ZM81.8786 43.8615C81.8786 38.0547 77.651 34.1001 71.8129 34H71.7122C65.8742 34.0501 61.6466 38.0547 61.6466 43.8114C61.6466 49.6182 65.8742 53.5728 71.7122 53.6229H71.8129C77.651 53.6229 81.8786 49.6182 81.8786 43.8615ZM71.7626 49.8185C68.3906 49.8185 66.0252 47.5158 66.0252 43.8615C66.0252 40.1572 68.3906 37.9046 71.7626 37.9046C75.1346 37.9046 77.5 40.2072 77.5 43.8615C77.5 47.5158 75.1346 49.8185 71.7626 49.8185ZM125.916 38.2049H119.725V34.3504H136.283V38.2049H130.143V53.3726H125.916V38.2049ZM138.85 34.3504H147.456C152.036 34.3504 154.804 37.0536 154.804 40.9581C154.804 45.3633 151.382 47.6659 147.054 47.6659H143.078V53.3726H138.85V34.3504ZM147.154 43.9116C149.268 43.9116 150.476 42.6601 150.476 40.9581C150.476 39.106 149.167 38.0547 147.054 38.0547H143.027V43.8615H147.154V43.9116ZM192.5 53.3726L185.706 43.6112L192.198 34.3004H187.367L183.29 40.1572L179.213 34.3004H174.231L180.774 43.7113L173.979 53.3726H178.811L183.189 47.1153L187.518 53.3726H192.5ZM169.248 53.3726H173.526L165.323 34.2002H161.447L153.244 53.3726H157.522L159.334 48.9675H167.437L169.248 53.3726ZM160.844 45.2631L163.41 39.3062L165.977 45.2631H160.844ZM93.8063 49.8185C90.4343 49.8185 88.0689 47.5158 88.0689 43.8615C88.0689 40.1572 90.4343 37.9046 93.8063 37.9046C95.5678 37.9046 97.0273 38.4051 98.2856 39.4564L100.903 36.8533C99.1411 35.1513 96.7757 34.0501 93.8567 34.0501H93.756C87.9179 34.1001 83.6904 38.1048 83.6904 43.8615C83.6904 49.6683 87.9179 53.6229 93.756 53.673H93.8567C96.7254 53.6229 99.0908 52.5216 100.903 50.8697L98.2856 48.2666C97.0273 49.3179 95.5678 49.8185 93.8063 49.8185ZM111.371 49.8185C107.999 49.8185 105.633 47.5158 105.633 43.8615C105.633 40.1572 107.999 37.9046 111.371 37.9046C113.132 37.9046 114.592 38.4051 115.85 39.4564L118.467 36.8533C116.706 35.1513 114.34 34.0501 111.421 34.0501H111.321C105.482 34.1001 101.255 38.1048 101.255 43.8615C101.255 49.6683 105.482 53.6229 111.321 53.673H111.421C114.29 53.6229 116.655 52.5216 118.467 50.8697L115.85 48.2666C114.592 49.3179 113.132 49.8185 111.371 49.8185Z" fill="#0047BB"/>
</svg>
