<svg width="201" height="88" viewBox="0 0 201 88" fill="none" xmlns="http://www.w3.org/2000/svg">
<path d="M61.7385 22.126H18.4036V65.4866H61.7385V22.126Z" fill="#ED1A3A"/>
<path d="M54.7399 26.4454C53.744 26.4454 52.9899 27.1065 52.6141 27.901L47.1577 36.8894C46.7793 37.7207 46.5032 38.6546 46.5032 39.2728C46.5032 39.8252 46.5789 40.3133 46.7812 40.7631L52.6836 54.872H29.7632C28.9382 54.872 28.2572 54.0428 28.2572 53.2773V28.9738C28.0838 25.6513 23.3114 25.6531 23.2063 29.0782L23.3106 54.872C23.3106 57.6762 25.4772 59.9229 28.2572 59.9229H59.507L51.8901 40.421C51.6799 39.6949 51.5862 39.0364 52.0986 38.171L57.1379 29.9712C57.2089 29.8002 57.3117 29.0772 57.3117 28.8694C57.2119 27.3805 56.0458 26.3797 54.7399 26.4454ZM42.3674 26.457C41.1416 26.4653 39.9173 27.3125 39.9173 28.9738V46.3649C39.9173 48.8903 36.5229 48.6825 36.5229 46.3649V28.9738C36.5229 25.6513 31.611 25.6513 31.611 28.9738V46.5041C31.611 50.5131 34.6028 53.1787 38.1738 53.1787C41.8419 53.1787 44.8234 50.5131 44.8234 46.5041V28.9738C44.8234 27.2797 43.5932 26.4488 42.3674 26.457Z" fill="white"/>
<path d="M70.2285 27.2214V38.6936C70.2285 41.561 69.9368 43.1552 67.6035 43.1552C67.1673 43.1552 66.8756 43.1552 66.4395 42.9973V47.935C67.3118 48.256 67.8952 48.256 68.6256 48.256C75.1842 48.256 75.4759 43.3156 75.4759 40.4456V32.1618H79.2649V47.935H84.5097V27.2214H70.2285Z" fill="black"/>
<path d="M86.2595 27.2214L93.4014 42.2002L90.7791 47.935H96.4626L104.916 27.2214H99.2321L96.171 35.9841L92.5264 27.2214H86.2595Z" fill="black"/>
<path d="M106.519 47.935H111.766V39.0119L117.158 47.935H123.861L116.43 37.2599L123.716 27.2214H117.45L111.766 35.9841V27.2214H106.519V47.935Z" fill="black"/>
<path d="M132.461 48.5743C139.456 48.5743 142.662 43.1552 142.662 37.5782C142.662 32.1618 139.456 26.7427 132.461 26.7427C125.611 26.7427 122.405 32.1618 122.405 37.5782C122.405 43.1552 125.611 48.5743 132.461 48.5743ZM132.461 43.6339C130.128 43.6339 127.797 41.561 127.797 37.5782C127.797 33.5955 130.128 31.683 132.461 31.683C134.939 31.683 137.27 33.5955 137.27 37.5782C137.27 41.561 134.939 43.6339 132.461 43.6339Z" fill="black"/>
<path d="M145.287 27.2215V47.935H150.387L157.673 35.508V47.935H162.776V27.2215H157.673L150.387 39.6512V27.2215H145.287ZM154.176 26.1061C156.362 26.1061 158.548 25.309 159.57 22.9178L156.509 21.6445C156.07 23.2387 154.759 23.3965 154.176 23.3965C153.74 23.3965 152.281 23.2387 151.99 21.6445L148.931 22.9178C149.804 25.309 152.137 26.1061 154.176 26.1061Z" fill="black"/>
<path d="M168.315 27.2214V38.6936C168.315 41.561 168.021 43.1552 165.69 43.1552C165.254 43.1552 164.962 43.1552 164.524 42.9973V47.935C165.399 48.256 165.982 48.256 166.71 48.256C173.268 48.256 173.56 43.3156 173.56 40.4456V32.1618H177.349V47.935H182.597V27.2214H168.315Z" fill="black"/>
<path d="M66.4814 59.5598H67.2198V55.7164H71.5317V59.5598H72.2701V52.0256H71.5317V55.1114H67.2198V52.0256H66.4814V59.5598Z" fill="black"/>
<path d="M74.1489 59.5598H78.1929V58.9547H74.8873V55.6428H78.0615V55.0377H74.8873V52.6333H78.1929V52.0256H74.1489V59.5598Z" fill="black"/>
<path d="M83.059 59.5597H83.7895V58.5232H84.0969C86.5301 58.5232 87.5365 57.0816 87.5365 55.5716C87.5365 53.8038 86.2306 52.6332 84.0969 52.6332H83.7895V51.7283H83.059V52.6332H82.7621C80.6153 52.6332 79.312 53.8038 79.312 55.5716C79.312 57.0816 80.3184 58.5232 82.7621 58.5232H83.059V59.5597ZM83.7895 53.2383C86.2306 53.2698 86.7666 54.4115 86.7666 55.5716C86.7666 57.3815 85.5658 57.8524 83.7895 57.9155V53.2383ZM83.059 57.9155C81.2827 57.8524 80.0819 57.3815 80.0819 55.5716C80.0819 54.4115 80.6153 53.2698 83.059 53.2383V57.9155Z" fill="black"/>
<path d="M90.2037 59.5598H90.9132V52.6333H92.9154V52.0256H88.2041V52.6333H90.2037V59.5598Z" fill="black"/>
<path d="M93.7878 59.5598H94.6181L96.6204 56.2504H97.2563V59.5598H97.9973V52.0256H96.2604C93.9823 52.0256 93.6538 53.5382 93.6538 54.2064C93.6538 55.4797 94.6497 56.2504 95.8216 56.2083L93.7878 59.5598ZM97.2563 55.6428H96.1895C95.5851 55.6428 94.3843 55.5717 94.3843 54.1328C94.3843 52.7359 95.6561 52.6333 96.2604 52.6333H97.2563V55.6428Z" fill="black"/>
<path d="M99.8865 59.5598H100.625V55.7164H104.937V59.5598H105.675V52.0256H104.937V55.1114H100.625V52.0256H99.8865V59.5598Z" fill="black"/>
<path d="M106.752 59.5596H107.493L108.529 57.1131H111.7L112.738 59.5596H113.477L110.1 51.8308L106.752 59.5596ZM108.797 56.5186L110.1 53.4355L111.435 56.5186H108.797Z" fill="black"/>
<path d="M114.331 59.5598H115.161L117.163 56.2504H117.799V59.5598H118.537V52.0256H116.803C114.525 52.0256 114.197 53.5382 114.197 54.2064C114.197 55.4797 115.192 56.2504 116.362 56.2083L114.331 59.5598ZM117.799 55.6428H116.732C116.125 55.6428 114.924 55.5717 114.924 54.1328C114.924 52.7359 116.199 52.6333 116.803 52.6333H117.799V55.6428Z" fill="black"/>
<path d="M122.923 59.5598H123.661V55.9111L127.038 59.5598H128.002L124.358 55.6743L127.942 52.0256H127.038L123.661 55.5402V52.0256H122.923V59.5598Z" fill="black"/>
<path d="M132.766 59.7964C135.005 59.7964 136.842 58.1838 136.842 55.8083C136.842 53.4355 135.005 51.8308 132.766 51.8308C130.559 51.8308 128.722 53.4355 128.722 55.8083C128.722 58.1838 130.559 59.7964 132.766 59.7964ZM132.766 59.1597C130.929 59.1597 129.492 57.7813 129.492 55.8083C129.492 53.8353 130.929 52.428 132.766 52.428C134.605 52.428 136.072 53.8353 136.072 55.8083C136.072 57.7813 134.605 59.1597 132.766 59.1597Z" fill="black"/>
<path d="M137.858 59.5597H138.568L139.264 53.9985L142.036 59.899L144.777 53.9985L145.518 59.5597H146.183L145.147 51.7283L142.036 58.4601L138.894 51.7283L137.858 59.5597Z" fill="black"/>
<path d="M147.57 52.0256V59.5598H148.308V52.6333H152.62V59.5598H153.359V52.0256H147.57Z" fill="black"/>
<path d="M154.439 59.5596H155.177L156.212 57.1131H159.387L160.422 59.5596H161.16L157.784 51.8308L154.439 59.5596ZM156.48 56.5186L157.784 53.4355L159.119 56.5186H156.48Z" fill="black"/>
<path d="M162.209 59.5598H162.947V55.7164H167.259V59.5598H168V52.0256H167.259V55.1114H162.947V52.0256H162.209V59.5598Z" fill="black"/>
<path d="M169.876 52.0255V59.899L175.031 53.5987V59.5597H175.759V51.7283L170.617 57.9865V52.0255H169.876Z" fill="black"/>
<path d="M177.423 59.5598H178.253L180.255 56.2504H180.891V59.5598H181.632V52.0256H179.898C177.617 52.0256 177.289 53.5382 177.289 54.2064C177.289 55.4797 178.284 56.2504 179.456 56.2083L177.423 59.5598ZM180.891 55.6428H179.824C179.22 55.6428 178.019 55.5717 178.019 54.1328C178.019 52.7359 179.291 52.6333 179.898 52.6333H180.891V55.6428Z" fill="black"/>
</svg>
