<svg width="201" height="88" viewBox="0 0 201 88" fill="none" xmlns="http://www.w3.org/2000/svg">
<path fill-rule="evenodd" clip-rule="evenodd" d="M12.368 61.5656H56.3843L59.8175 55.5352H15.8013L12.368 61.5656Z" fill="#283277"/>
<path fill-rule="evenodd" clip-rule="evenodd" d="M18.3143 51.6649H50.8824L54.3156 45.6335H21.7466L18.3143 51.6649Z" fill="#283277"/>
<path fill-rule="evenodd" clip-rule="evenodd" d="M24.2598 41.7621H45.2036L48.6358 35.7317H27.693L24.2598 41.7621Z" fill="#283277"/>
<path fill-rule="evenodd" clip-rule="evenodd" d="M30.2061 31.8605H39.4352L42.8675 25.8301H33.6393L30.2061 31.8605Z" fill="#283277"/>
<path fill-rule="evenodd" clip-rule="evenodd" d="M72.9386 25.7944L76.4451 54.0623L80.3455 25.7944H87.5545V61.7068H82.6654V34.0542L79.0619 61.7068H74.2242L70.6206 34.0542V61.7068H65.7334V25.7944H72.9386Z" fill="#283277"/>
<path fill-rule="evenodd" clip-rule="evenodd" d="M98.7249 29.2302V57.6269H95.4697C95.9131 57.3173 96.5059 56.6002 96.5059 54.7525V29.2302H98.7249ZM104.852 61.6914V57.6259H103.616V25.7944H91.6187V54.7525C91.6187 56.0349 91.3703 57.6269 89.2493 57.6269H88.903V61.6923H104.852V61.6914Z" fill="#283277"/>
<path fill-rule="evenodd" clip-rule="evenodd" d="M113.707 25.7944L117.212 54.0623L121.111 25.7944H128.319V61.7068H123.43V34.0542L119.829 61.7068H114.991L111.385 34.0542V61.7817H106.5V25.7944H113.707Z" fill="#283277"/>
<path d="M140.016 58.2614V44.2846H140.971C141.626 44.2846 142.327 44.747 142.327 46.3342V56.5723C142.327 57.9547 141.526 58.2604 140.971 58.2604H140.016V58.2614ZM135.043 61.6914H142.479C143.936 61.6914 147.307 61.6405 147.307 56.6781V45.7709C147.307 40.8037 143.739 40.8546 142.531 40.8546H140.015V29.2841H146.194V25.8579H135.041V61.6914H135.043ZM150.03 36.7603C150.03 33.2303 152.745 33.0217 154.001 33.0217H156.866C158.776 33.0217 160.485 34.3512 160.485 36.7603V61.6914H156.264V60.261C155.459 61.2809 154.153 62 152.643 62C150.333 62 150.03 60.0024 150.03 58.0066V50.0209C150.03 48.8433 150.283 47.2061 152.844 45.7718C154.501 44.8489 156.264 44.2366 156.264 42.0851V37.018C156.264 36.2489 155.559 36.097 155.258 36.097C154.907 36.097 154.252 36.4027 154.252 37.018V41.6247H150.029V36.7603H150.03ZM154.252 49.5104V57.2866C154.252 57.8519 154.702 58.4152 155.207 58.4152C155.61 58.4152 156.263 58.1576 156.263 57.2866V46.438C154.153 47.6628 154.252 48.228 154.252 49.5104ZM163.471 33.0217H167.694V45.2075H169.704V33.0217H173.927V61.6914H169.704V48.2799H167.694V61.6914H163.471V33.0217ZM176.969 25.9521H181.193V45.9737L183.406 33.0227H187.725L184.859 46.8956L188.632 61.6924H184.209L181.193 48.3818V61.6924H176.969V25.9521Z" fill="#283277"/>
<path d="M12.368 61.5656H56.3843L59.8175 55.5352H15.8013L12.368 61.5656Z" fill="#283277"/>
<path d="M59.8175 55.5352H12.368V61.5656H59.8175V55.5352Z" fill="#283277"/>
<path d="M18.3143 51.6649H50.8824L54.3156 45.6335H21.7466L18.3143 51.6649Z" fill="#283277"/>
<path d="M54.3156 45.6335H18.3143V51.6649H54.3156V45.6335Z" fill="#283277"/>
<path d="M24.2598 41.7621H45.2036L48.6358 35.7317H27.693L24.2598 41.7621Z" fill="#283277"/>
<path d="M48.6358 35.7317H24.2598V41.7621H48.6358V35.7317Z" fill="#283277"/>
<path d="M30.2061 31.8605H39.4352L42.8675 25.8301H33.6393L30.2061 31.8605Z" fill="#283277"/>
<path d="M42.8684 25.8301H30.2061V31.8605H42.8684V25.8301Z" fill="#283277"/>
</svg>
