<svg width="201" height="88" viewBox="0 0 201 88" fill="none" xmlns="http://www.w3.org/2000/svg">
<path d="M56.9187 67.6778H54.119V59.4434H58.9774V60.2668H55.1072V62.9018H56.9187C58.5656 62.9018 59.6361 63.5606 59.6361 65.2075V65.2898C59.6361 66.8544 58.5656 67.6778 56.9187 67.6778ZM56.9187 66.9367C58.1539 66.9367 58.648 66.3603 58.648 65.3722V65.2898C58.648 64.3017 58.0716 63.7253 56.8364 63.7253H55.1072V66.9367H56.9187ZM60.5419 66.0309C60.5419 64.6311 62.0241 64.137 63.5887 64.137H64.4945V63.7253C64.4945 62.7371 64.1651 62.3254 63.1769 62.3254C62.3535 62.3254 61.8594 62.6548 61.7771 63.3959H60.7889C60.9536 61.996 62.0241 61.502 63.1769 61.502C64.3298 61.502 65.4002 61.996 65.4002 63.6429V67.5955H64.4121V66.8544C64.0004 67.4308 63.424 67.7602 62.5182 67.7602C61.4477 67.7602 60.5419 67.2661 60.5419 66.0309ZM64.4945 65.6192V64.8781H63.671C62.4358 64.8781 61.6124 65.2075 61.6124 66.0309C61.6124 66.6897 61.9418 67.0191 62.7652 67.0191C63.671 67.0191 64.4945 66.525 64.4945 65.6192ZM70.9173 65.0428H67.9529V67.7602H66.9648V61.749H67.9529V64.3017H70.9173V61.749H71.9055V67.7602H70.9173V65.0428ZM74.5405 64.6311V67.6778H73.5524V61.6667H74.5405V64.4664L77.0109 61.6667H78.1637L75.611 64.4664L78.4107 67.6778H77.2579L74.5405 64.6311Z" fill="black"/>
<path d="M26.3688 20C16.4874 20 8.5 27.9874 8.5 37.8688C8.5 47.7502 16.4874 55.7376 26.3688 55.7376C36.2502 55.7376 44.2376 47.7502 44.2376 37.8688C44.1553 27.9874 36.1678 20 26.3688 20ZM23.8161 45.4445L22.4986 49.3147C17.5579 47.6678 14.2641 42.9742 14.2641 37.7041C14.2641 32.4341 17.5579 27.8228 22.581 26.0935L23.8985 29.9637C20.6047 31.0342 18.4637 34.1633 18.4637 37.6218C18.3814 41.3273 20.5223 44.374 23.8161 45.4445ZM29.9096 49.4794L28.6745 45.5269C32.0506 44.4564 34.2739 41.3273 34.2739 37.7865C34.2739 34.2456 32.0506 31.1989 28.7568 30.1284L30.0743 26.1759C35.0974 27.8228 38.4735 32.5164 38.4735 37.7865C38.4735 43.1389 35.015 47.8325 29.9096 49.4794Z" fill="#00BEF0"/>
<path d="M189.906 41.0802L191.882 43.4682C189.823 45.6092 187.271 46.1856 185.212 46.1856C183.236 46.1856 181.836 45.8562 180.601 45.2798C177.966 43.9623 176.648 41.3272 176.648 38.1158C176.648 33.2574 179.942 29.6343 184.8 29.6343C190.235 29.6343 192.87 33.6692 192.458 38.9392H180.107C180.189 40.2568 180.93 41.4919 182 42.1507C182.906 42.7271 183.977 42.9741 185.377 42.9741C186.941 42.9741 188.506 42.4801 189.906 41.0802ZM180.271 36.0572H189C188.753 34.1632 187.188 32.5163 184.718 32.5163C182.083 32.5987 180.518 34.3279 180.271 36.0572ZM97.2677 45.7738H101.714L94.715 37.6217L101.632 29.9637H97.2677L91.9977 36.0572H90.4331V29.9637H87.057V45.6915H90.4331V39.4333H91.9977L97.2677 45.7738ZM111.843 32.8457C108.961 32.8457 107.067 35.069 107.067 37.8688C107.067 40.6685 108.961 42.8918 111.843 42.8918C114.725 42.8918 116.536 40.7508 116.536 37.8688C116.536 35.069 114.807 32.8457 111.843 32.8457ZM112.419 29.6343C116.866 29.6343 120.16 33.0928 120.16 37.8688C120.16 42.5624 116.948 46.1856 112.419 46.1856C110.278 46.1856 108.549 45.4445 107.314 44.127V52.3614H103.855V29.9637H107.231V31.8576C108.549 30.293 110.196 29.6343 112.419 29.6343ZM157.215 29.9637H143.134V33.0928H148.486V45.6915H151.945V33.1751H157.297V29.9637H157.215ZM84.669 29.9637H70.588V33.0928H75.9404V45.6915H79.3989V33.1751H84.7513V29.9637H84.669ZM66.3884 37.8688C66.3884 34.9043 64.3298 32.7634 61.4478 32.7634C58.648 32.7634 56.5071 34.9043 56.5071 37.8688C56.5071 40.8332 58.5657 42.9741 61.4478 42.9741C64.2475 42.9741 66.3884 40.8332 66.3884 37.8688ZM53.0486 37.8688C53.0486 33.1751 56.6718 29.6343 61.5301 29.6343C66.3061 29.6343 70.0116 33.1751 70.0116 37.8688C70.0116 42.5624 66.3884 46.1856 61.5301 46.1856C56.6718 46.1856 53.0486 42.5624 53.0486 37.8688ZM173.931 29.9637V45.6915H170.555V35.5631L162.32 45.6915H159.603V29.9637H162.979V40.1744L171.213 30.046H173.931V29.9637ZM140.828 45.7738H137.452V29.9637H140.828V45.7738ZM132.017 40.3391C132.017 38.9392 131.029 37.9511 129.712 37.9511H126.253V42.8094H129.712C131.029 42.8094 132.017 41.8213 132.017 40.3391ZM135.476 40.3391C135.476 43.4682 133.17 45.6915 129.876 45.6915H122.877V29.9637H126.253V35.069H130.123C133.417 35.069 135.476 37.21 135.476 40.3391Z" fill="black"/>
</svg>
