<svg width="201" height="88" viewBox="0 0 201 88" fill="none" xmlns="http://www.w3.org/2000/svg">
<path d="M145.991 65.7295C151.832 65.7295 157.324 63.4548 161.452 59.325C165.582 55.1965 167.856 49.7062 167.856 43.866C167.856 31.8091 158.046 21.9999 145.991 21.9999H55.0104C49.1702 21.9999 43.6799 24.2759 39.5488 28.4058C35.4203 32.5356 33.1443 38.0245 33.1443 43.866C33.1443 49.7062 35.4203 55.1965 39.5488 59.325C43.6772 63.4548 49.1702 65.7295 55.0104 65.7295H145.991Z" fill="white"/>
<path d="M145.978 63.0603C156.603 63.0603 165.218 54.4468 165.218 43.82C165.218 33.1919 156.603 24.5771 145.978 24.5771H54.9948C44.3693 24.5771 35.7518 33.1919 35.7518 43.82C35.7518 54.4468 44.3693 63.0603 54.9948 63.0603H145.978Z" fill="#1574C4"/>
<path d="M72.782 41.1937C72.7136 47.5432 68.8197 57.9073 56.8606 57.8671C47.9428 57.8671 44.2245 52.2414 44.1615 46.0272C44.1065 36.9915 50.125 29.2413 60.0869 29.2627C68.805 29.2828 72.8517 34.7115 72.782 41.1937ZM52.8554 46.4789C52.8594 49.2884 54.3098 51.1369 57.2131 51.1369C62.4286 51.1382 63.9714 43.7887 63.9808 40.7674C63.9862 38.3038 62.5198 36.1444 59.5709 36.1417C55.9652 36.1403 52.8514 39.8265 52.8554 46.4789Z" fill="white"/>
<path d="M95.9947 43.9432H85.3585C83.7808 43.9432 81.7474 44.718 80.9003 48.7365L79.068 57.2843H71.2922L75.5092 37.6661H82.2447V39.6847C83.2192 38.6379 85.2741 36.1702 89.3811 37.402L88.5339 41.3482C91.0137 37.8577 94.6636 37.1285 98.8497 37.1138C104.19 37.1031 109.485 39.2156 108.419 44.1805L106.186 54.5405C105.878 55.9546 106.168 56.5444 106.493 57.2749H98.0669V56.0176C93.1731 59.5349 85.5046 57.921 85.5153 51.8851C85.5301 46.8867 90.4775 45.793 91.629 45.5865C96.9893 44.6147 100.663 44.7113 101.012 43.2127C101.443 41.3629 96.366 41.1833 95.9947 43.9432ZM93.287 51.2324C93.287 53.6076 98.4101 53.7242 99.6888 48.2875C96.6153 49.2204 93.2857 49.404 93.287 51.2324Z" fill="white"/>
<path d="M121.97 30.0365L116.08 57.2844H108.13L114.014 30.0365H121.97Z" fill="white"/>
<path d="M150.681 43.3121C153.928 41.5521 155.056 39.3364 155.059 36.3406C155.019 29.4563 147.11 30.0447 143.66 30.0447H132.974L130.731 40.4838H124.193L123.035 45.8146H129.585L127.117 57.2832H142.826C151.754 57.2832 153.623 51.1374 153.627 48.7689C153.633 45.5868 152.307 44.5855 150.681 43.3121ZM143.04 50.3251H136.933L137.906 45.8146H143.856C146.545 45.8187 146.216 50.3251 143.04 50.3251ZM144.385 40.4852H139.053L139.927 36.4304H145.123C148.377 36.4304 147.747 40.4852 144.385 40.4852Z" fill="white"/>
<path d="M157.813 47.2686C155.887 47.2686 154.319 45.7003 154.319 43.7728C154.319 41.8452 155.887 40.277 157.813 40.277C159.742 40.277 161.31 41.8452 161.31 43.7728C161.31 45.7003 159.742 47.2686 157.813 47.2686ZM157.813 40.8413C156.198 40.8413 154.883 42.1562 154.883 43.7728C154.883 45.3893 156.198 46.7042 157.813 46.7042C159.431 46.7042 160.747 45.3893 160.747 43.7728C160.747 42.1562 159.431 40.8413 157.813 40.8413Z" fill="white"/>
<path d="M158.948 45.2791H158.18L157.732 43.8596H157.07L156.769 45.2791H156.108L156.822 41.9173H158.349C158.636 41.9173 159.01 41.9253 159.228 42.0741C159.491 42.2698 159.569 42.5902 159.471 42.9333C159.281 43.6196 158.862 43.8314 158.432 43.8596L158.948 45.2791ZM158.094 43.3542C158.47 43.3623 158.751 43.2725 158.841 42.8489C158.935 42.3998 158.455 42.3998 158.128 42.3998H157.381L157.179 43.3542H158.094Z" fill="white"/>
</svg>
