<svg width="201" height="88" viewBox="0 0 201 88" fill="none" xmlns="http://www.w3.org/2000/svg">
<path d="M26.1106 57.9997V59.3013H22.9087V67.4445H21.6758V59.3013H18.4412V57.9997H26.1106ZM36.4657 65.2403L35.5661 67.4423H34.2331L38.1168 57.9997H39.4847L43.3684 67.4423H42.0353L41.151 65.2403H36.4657ZM40.5999 63.9387L38.8007 59.5847L37.0016 63.9387H40.5999ZM44.2353 67.4423L47.5854 62.5542L44.4183 57.9997H45.9691L48.3521 61.3878L50.7524 57.9997H52.2859L49.1188 62.5542L52.5037 67.4423H50.9877L48.3717 63.7206L45.8036 67.4423H44.2353ZM75.379 65.2403L74.4794 67.4423H73.1464L77.0301 57.9997H78.398L82.2817 67.4423H80.9486L80.0643 65.2403H75.379ZM79.5132 63.9387L77.714 59.5847L75.9126 63.9387H79.5132ZM85.366 57.9997V61.9197H90.9835V57.9997H92.2164V67.4423H90.9835V63.2214H85.366V67.4423H84.1331V57.9997H85.366ZM102.138 67.4423V59.951L96.5705 67.4423H95.1874V57.9997H96.4203V65.5084L102.02 57.9997H103.371V67.4423H102.138ZM111.659 57.9997V59.3013H107.575V61.9197H111.243V63.2214H107.575V66.1407H111.659V67.4423H106.342V57.9997H111.659ZM13.4336 67.6429C10.6673 67.6429 8.5 65.5804 8.5 62.7373C8.5 59.9205 10.6608 57.8318 13.451 57.8318C15.0934 57.8318 16.6333 58.5687 17.2345 59.6174L16.8512 60.7686C16.3611 60.0905 15.1544 59.1508 13.5512 59.1508C11.2968 59.1508 9.7677 60.496 9.7677 62.7221C9.7677 64.8304 11.2075 66.2933 13.5839 66.2933C15.59 66.2933 16.6834 65.1422 16.984 64.7083L17.326 65.7679C16.9535 66.5506 15.6989 67.6429 13.4336 67.6429ZM30.9288 57.9997C32.7192 57.9997 33.9129 59.201 33.9129 60.8362C33.9129 62.491 32.7454 63.6727 30.9614 63.6727H29.2276V67.4445H27.9948V58.0018H30.9288V57.9997ZM32.6299 60.8514C32.6299 59.9968 31.9482 59.2991 31.1292 59.2991H29.1949V62.419H31.1292C31.9569 62.4212 32.6299 61.6952 32.6299 60.8514ZM70.5434 62.4038C71.1315 62.7025 71.8612 63.398 71.8612 64.656C71.8612 66.422 70.587 67.4423 68.8771 67.4423H65.71V57.9997H68.4611C70.6785 57.9997 71.3951 59.4626 71.3951 60.5353C71.3929 61.7039 70.7678 62.2054 70.5434 62.4038ZM69.0775 66.1255C70.1383 66.1255 70.6109 65.2839 70.6109 64.6581C70.6109 63.9496 70.0359 63.241 69.1276 63.241H66.9276V66.1102L69.0775 66.1255ZM68.6941 61.9372C69.4108 61.9372 70.1274 61.4793 70.1274 60.6356C70.1274 59.8529 69.5262 59.3013 68.7116 59.3013H66.9451V61.9372H68.6941ZM58.4349 57.8165C55.5314 57.8165 53.4229 60.012 53.4229 62.7221C53.4229 65.4321 55.5248 67.6276 58.4349 67.6276C61.2644 67.6276 63.4469 65.4321 63.4469 62.7221C63.4469 60.012 61.2622 57.8165 58.4349 57.8165ZM58.4066 66.2911C56.2001 66.2911 54.6056 64.6996 54.6056 62.7373C54.6056 60.7751 56.2044 59.1835 58.4066 59.1835C60.5521 59.1835 62.2075 60.7751 62.2075 62.7373C62.2075 64.6996 60.5499 66.2911 58.4066 66.2911ZM46.1717 38.663H53.7278V32.8352H57.104V48.5526H53.7278V42.2582H46.1717V48.5526H42.7955V32.8352H46.1717V38.663ZM125.235 48.4894V46.8455C125.235 46.8455 123.523 48.9233 120.496 48.9233C116.566 48.9233 112.443 46.0366 112.443 40.6776C112.443 34.6535 116.793 32.3686 120.254 32.3686C123.31 32.3686 125.179 34.3657 125.179 34.3657V32.772H128.455V48.4894H125.235ZM115.789 40.6776C115.789 42.7335 117.37 45.2648 120.744 45.2648C123.743 45.2648 125.111 43.3963 125.111 43.3963V37.8476C124.055 36.6528 122.502 35.9966 120.744 35.9966C117.81 35.9966 115.789 37.9937 115.789 40.6776ZM136.789 38.663H144.345V32.8352H147.721V48.5526H144.345V42.2582H136.789V48.5526H133.412V32.8352H136.789V38.663ZM168.623 48.5526H172.949V44.2226H168.623V48.5526ZM22.6168 33.2385C22.6168 36.8621 20.0879 40.0278 15.5246 40.0278H12.7061V48.5526H9.20573V26.2944C9.20573 26.2944 10.6542 26.2944 15.4942 26.2944C19.5194 26.2944 22.6168 29.1288 22.6168 33.2385ZM12.6407 36.3694H15.9581C16.825 36.3694 17.57 36.0903 18.1581 35.5322C18.7462 34.974 19.0555 34.2305 19.0555 33.2996C19.0555 32.4318 18.7767 31.6884 18.2191 31.0975C17.6614 30.5067 16.9187 30.1993 16.0191 30.1993H12.6407V36.3694ZM87.0824 49.017C83.2706 49.017 78.9686 46.1195 78.9686 40.7408C78.9686 35.9966 82.5126 32.4951 87.1151 32.4951C90.354 32.4951 92.4734 34.4486 92.8764 35.1615L91.9484 37.9522C91.9484 37.9522 89.9663 36.0925 87.6117 36.0925C83.9763 36.0925 82.3775 38.6456 82.3775 40.7124C82.3775 43.6078 84.608 45.3934 87.6422 45.3934C89.8465 45.3934 91.735 44.0657 92.1684 43.5686L93.1595 46.3593C93.1573 46.3549 90.9922 49.017 87.0824 49.017ZM103.933 49.017C100.121 49.017 95.8191 46.1195 95.8191 40.7408C95.8191 35.9966 99.363 32.4951 103.965 32.4951C107.204 32.4951 109.324 34.4486 109.727 35.1615L108.799 37.9522C108.799 37.9522 106.817 36.0925 104.462 36.0925C100.827 36.0925 99.2279 38.6456 99.2279 40.7124C99.2279 43.6078 101.458 45.3934 104.493 45.3934C106.697 45.3934 108.585 44.0657 109.019 43.5686L110.01 46.3593C110.008 46.3549 107.845 49.017 103.933 49.017ZM159.191 49.017C155.379 49.017 151.077 46.1195 151.077 40.7408C151.077 35.9966 154.621 32.4951 159.224 32.4951C162.463 32.4951 164.582 34.4486 164.985 35.1615L164.057 37.9522C164.057 37.9522 162.075 36.0925 159.72 36.0925C156.085 36.0925 154.486 38.6456 154.486 40.7124C154.486 43.6078 156.717 45.3934 159.751 45.3934C161.955 45.3934 163.844 44.0657 164.277 43.5686L165.268 46.3593C165.266 46.3549 163.103 49.017 159.191 49.017ZM69.2757 45.6071C72.0616 45.6071 73.704 44.0875 74.1374 43.5293L75.1285 46.1652C74.9129 46.5381 72.6802 49.0475 69.2126 49.0475C64.3922 49.0475 60.942 45.8905 60.942 40.8018C60.942 36.9493 63.5035 32.5256 68.8096 32.5256C73.4273 32.5256 76.3047 36.2931 76.3047 40.6797C76.3047 41.1441 76.2742 41.5475 76.2111 41.9203H64.3792C64.536 43.126 65.8908 45.6071 69.2757 45.6071ZM68.6571 36.0576C65.6556 36.0576 64.5469 38.2291 64.3944 39.1318H72.9089C72.5474 37.5947 71.1054 36.0576 68.6571 36.0576ZM32.1355 45.6071C34.9214 45.6071 36.5637 44.0875 36.9972 43.5293L37.9883 46.1652C37.7705 46.5381 35.54 49.0475 32.0723 49.0475C27.252 49.0475 23.8017 45.8905 23.8017 40.8018C23.8017 36.9493 26.3633 32.5256 31.6694 32.5256C36.2871 32.5256 39.1645 36.2931 39.1645 40.6797C39.1645 41.1441 39.134 41.5475 39.0708 41.9203H27.2433C27.3979 43.126 28.7528 45.6071 32.1355 45.6071ZM31.5169 36.0576C28.5153 36.0576 27.4066 38.2291 27.2542 39.1318H35.7687C35.4071 37.5947 33.9652 36.0576 31.5169 36.0576Z" fill="#50287D"/>
<path d="M180.561 42.2582L168.623 20H192.5L180.561 42.2582Z" fill="#CEDC00"/>
</svg>
