<svg width="201" height="88" viewBox="0 0 201 88" fill="none" xmlns="http://www.w3.org/2000/svg">
<path d="M96.5547 27.2924C95.4962 25.7527 94.0528 24.5018 92.1283 23.6357C90.2037 22.7697 87.9905 22.3848 85.4886 22.3848H75.1923V51.8303H81.0621V43.4585H85.4886C87.9905 43.4585 90.2999 43.0736 92.1283 42.2076C94.0528 41.3415 95.4962 40.0906 96.5547 38.5509C97.6132 36.9151 98.0943 35.0868 98.0943 32.9698C98.0943 30.7565 97.6132 28.9282 96.5547 27.2924ZM92.2245 32.9698C92.2245 34.7018 91.6471 36.1453 90.4924 37.1075C89.3377 38.0698 87.6056 38.5509 85.2961 38.5509H81.0621V27.3886H85.2961C87.6056 27.3886 89.3377 27.8697 90.4924 28.832C91.6471 29.7943 92.2245 31.1414 92.2245 32.9698Z" fill="#009639"/>
<path d="M106.659 46.9227V39.3208H118.783V34.5094H106.659V27.3886H120.611V22.3848H100.789V51.9265H121.189V46.9227H106.659Z" fill="#009639"/>
<path d="M143.802 45.3832C142.166 46.5379 140.242 47.1153 138.029 47.1153C136.104 47.1153 134.276 46.7304 132.832 45.8643C131.293 44.9983 130.042 43.8436 129.272 42.3039C128.406 40.7643 128.021 39.0322 128.021 37.1077C128.021 35.1831 128.502 33.451 129.272 31.9114C130.138 30.3718 131.389 29.217 132.832 28.351C134.372 27.485 136.104 27.1 138.029 27.1C140.049 27.1 141.878 27.5812 143.417 28.6397L146.881 24.5981C146.112 24.117 145.246 23.6359 144.38 23.251C142.359 22.3849 140.146 22 137.74 22C134.757 22 132.062 22.6736 129.657 23.9245C127.251 25.2717 125.327 27.0038 123.979 29.3133C122.632 31.6227 121.959 34.2209 121.959 37.1077C121.959 39.9945 122.632 42.5926 123.979 44.9021C125.327 47.2115 127.251 49.0398 129.657 50.2908C132.062 51.5418 134.757 52.2153 137.74 52.2153C140.146 52.2153 142.359 51.8304 144.38 50.9644C145.342 50.5795 146.208 50.0983 147.074 49.521L143.802 45.3832Z" fill="#009639"/>
<path d="M176.423 29.3133C175.076 27.0038 173.151 25.1755 170.746 23.9245C168.34 22.6736 165.646 22 162.663 22C159.68 22 156.985 22.6736 154.58 23.9245C152.174 25.2717 150.249 27.1 148.902 29.3133C147.555 31.6227 146.881 34.2209 146.881 37.1077C146.881 39.9945 147.555 42.5926 148.902 44.9021C150.249 47.2115 152.174 49.0398 154.58 50.2908C156.985 51.5418 159.68 52.2153 162.663 52.2153C165.646 52.2153 168.34 51.5418 170.746 50.2908C173.151 48.9436 175.076 47.2115 176.423 44.9021C177.77 42.5926 178.444 39.9945 178.444 37.1077C178.444 34.2209 177.77 31.6227 176.423 29.3133ZM172.574 37.1077C172.574 39.0322 172.093 40.7643 171.323 42.2077C170.457 43.7473 169.302 44.9021 167.763 45.7681C166.223 46.6342 164.491 47.0191 162.663 47.0191C160.738 47.0191 159.102 46.6342 157.563 45.7681C156.023 44.9021 154.868 43.7473 154.002 42.2077C153.136 40.6681 152.751 38.936 152.751 37.1077C152.751 35.1831 153.232 33.451 154.002 32.0076C154.868 30.468 156.023 29.3133 157.563 28.4472C159.102 27.5812 160.834 27.1963 162.663 27.1963C164.587 27.1963 166.319 27.5812 167.763 28.4472C169.302 29.3133 170.457 30.468 171.323 32.0076C172.093 33.5473 172.574 35.2794 172.574 37.1077Z" fill="#009639"/>
<path d="M80.0998 61.0682H77.1168V66.2644H75.1923V59.6248H80.1961L80.0998 61.0682Z" fill="#009639"/>
<path d="M91.8395 65.0135H88.9527L88.3753 66.3607H86.4508L89.4339 59.6248H91.2622L94.2452 66.3607H92.2244L91.8395 65.0135ZM91.2622 63.5701L90.3961 61.4531L89.5301 63.5701H91.2622Z" fill="#009639"/>
<path d="M105.985 59.9134C106.466 60.1059 106.755 60.3946 107.043 60.7795C107.332 61.1644 107.428 61.5493 107.428 62.1267C107.428 62.6078 107.332 63.0889 107.043 63.4738C106.755 63.8588 106.466 64.1474 105.985 64.3399C105.504 64.5323 105.023 64.6286 104.445 64.6286H103.291V66.3607H101.366V59.6248H104.445C105.023 59.6248 105.504 59.721 105.985 59.9134ZM105.215 62.8003C105.408 62.6078 105.504 62.4153 105.504 62.0304C105.504 61.7418 105.408 61.4531 105.215 61.2606C105.023 61.0682 104.734 60.9719 104.349 60.9719H103.291V62.8965H104.349C104.734 63.0889 105.023 62.9927 105.215 62.8003Z" fill="#009639"/>
<path d="M119.457 65.0138H116.57L116.089 66.2647H114.164L117.147 59.5288H118.976L121.959 66.2647H119.938L119.457 65.0138ZM118.879 63.5703L118.013 61.4534L117.147 63.5703H118.879Z" fill="#009639"/>
<path d="M136.104 59.6248V66.2644H134.18V63.6663H131.581V66.2644H129.753V59.6248H131.581V62.1267H134.18V59.6248H136.104Z" fill="#009639"/>
<path d="M149.865 61.0682H147.844V66.2644H145.919V61.0682H143.899V59.6248H149.865V61.0682Z" fill="#009639"/>
<path d="M157.274 59.6248H159.198V63.5701L161.989 59.6248H163.721V66.2644H161.893V62.4153L159.102 66.2644H157.274V59.6248Z" fill="#009639"/>
<path d="M176.231 59.6248V66.3607H174.402V64.6286H173.344L172.285 66.3607H170.265L171.612 64.4361C171.131 64.2437 170.842 63.955 170.553 63.5701C170.361 63.1852 170.168 62.704 170.168 62.2229C170.168 61.7418 170.265 61.2606 170.553 60.8757C170.842 60.4908 171.131 60.2021 171.612 60.0097C172.093 59.8172 172.574 59.721 173.248 59.721H176.231V59.6248ZM172.189 62.1267C172.189 62.5116 172.285 62.704 172.478 62.8965C172.67 63.0889 172.959 63.1852 173.344 63.1852H174.499V61.0682H173.344C172.478 61.0682 172.189 61.4531 172.189 62.1267Z" fill="#009639"/>
<path d="M66.4356 52.0227L66.1469 49.3284C65.5696 44.2283 63.9337 39.9943 61.3356 36.8188C59.0261 33.8358 55.9469 31.7188 52.194 30.1792V22.3848L49.4996 22.6734C44.3996 23.2508 40.1656 24.8867 36.9901 27.4848C34.0071 29.7943 31.8901 32.8735 30.3504 36.6264H22.556L22.8447 39.3208C23.4221 44.4208 25.0579 48.6548 27.6561 51.9265C29.9655 54.9096 33.0448 57.0266 36.7977 58.5662V66.3606L39.492 66.0719C44.5921 65.4946 48.8261 63.8587 52.0016 61.2606C54.9846 58.9511 57.1016 55.8718 58.6412 52.119H66.4356V52.0227ZM49.0185 57.3152C46.9977 58.8549 44.5921 60.0096 41.609 60.6832V44.7095H36.7977V53.2737C34.6807 52.2152 32.8523 50.7718 31.5052 48.9435C29.9655 46.9227 28.8108 44.517 28.1372 41.534H44.2071V36.7226H35.6429C36.7014 34.6056 38.1448 32.7773 39.9732 31.4301C41.9939 29.8905 44.3996 28.7358 47.3826 28.0622V44.3246H52.194V35.5679C54.311 36.6264 56.1393 38.0698 57.4865 39.8981C59.0261 41.9189 60.1809 44.3246 60.8545 47.3076H44.977V52.119H53.3487C52.2902 54.1397 50.8468 55.9681 49.0185 57.3152Z" fill="#009639"/>
</svg>
