<svg width="201" height="88" viewBox="0 0 201 88" fill="none" xmlns="http://www.w3.org/2000/svg">
<path d="M64.1525 27.2997C64.8844 27.2267 65.6235 27.3035 66.3248 27.5254C67.0261 27.7473 67.6749 28.1096 68.2316 28.5903C68.7883 29.071 69.2414 29.66 69.5631 30.3214C69.8849 30.9828 70.0686 31.7029 70.1031 32.4376V33.1133C70.1031 36.6289 67.8043 38.6568 64.1525 38.6568H56.8512V44.3357H53.7389V27.2997H64.1525ZM64.288 35.6823C64.9493 35.7266 65.6019 35.5113 66.1069 35.082C66.612 34.6527 66.9296 34.0433 66.9924 33.3834V32.9778C67.0617 32.2611 66.8448 31.546 66.3889 30.9886C65.933 30.4312 65.2751 30.0767 64.5589 30.0025H56.7142V35.6815L64.288 35.6823Z" fill="black"/>
<path d="M81.4423 44.6105C76.0342 44.6105 71.572 40.9602 71.572 35.6845C71.572 30.4088 76.035 26.7585 81.4423 26.7585C86.8495 26.7585 91.3125 30.4088 91.3125 35.6845C91.3125 40.9602 86.8495 44.6105 81.4423 44.6105ZM81.4423 29.6023C79.812 29.4828 78.2006 30.0127 76.9596 31.0766C75.7185 32.1404 74.9485 33.6519 74.8175 35.2813V35.6892C74.8175 39.2048 77.3864 41.7737 81.4423 41.7737C85.4981 41.7737 88.067 39.2048 88.067 35.6892C88.067 32.1736 85.4981 29.6047 81.4423 29.6047" fill="black"/>
<path d="M103.994 44.6097C98.3147 44.6097 94.1234 40.9594 94.1234 35.6837C94.1234 30.408 98.4501 26.7578 103.994 26.7578C106.83 26.652 109.611 27.5631 111.835 29.3267L110.213 31.7688C108.475 30.4028 106.338 29.643 104.128 29.6055C99.937 29.6055 97.3681 32.1744 97.3681 35.5561C97.3681 38.9378 99.937 41.6406 104.128 41.6406C106.369 41.6742 108.557 40.9607 110.348 39.6127L111.97 42.0462C109.645 43.7155 106.855 44.6122 103.994 44.6097Z" fill="black"/>
<path d="M137.877 40.0098L135.984 44.0656H132.604L140.852 27.1689H144.096L152.343 44.0695H148.963L147.07 40.0137L137.877 40.0098ZM139.229 37.3054H145.719L142.475 30.4097L139.229 37.3054Z" fill="black"/>
<path d="M168.839 44.2011V36.8999H157.752V44.2011H154.643V27.3005H157.753V34.1962H168.84V27.3005H171.947V44.2011H168.839Z" fill="black"/>
<path d="M176.681 44.2011V27.3005H179.791V35.1421L188.309 27.3005H192.094L183.441 35.413L192.497 44.2011H188.306L179.791 35.954V44.2011H176.681Z" fill="black"/>
<path d="M125.616 33.3881H118.314V29.8726H130.348V27.1689H115.07V44.0695H125.483C129.133 44.0695 131.702 42.0416 131.702 38.6615C131.702 35.2814 129.404 33.3881 125.618 33.3881H125.616ZM125.888 41.2297H118.317V36.228H125.888C127.781 36.228 128.998 37.3093 128.998 38.797C128.998 40.2846 128.051 41.3659 125.888 41.2305" fill="black"/>
<path d="M42.8719 19.0408H8.9353V36.347H42.8719V19.0408Z" fill="#E9041E"/>
<path d="M42.8719 35.4927H8.9353V52.3933H42.8719V35.4927Z" fill="black"/>
<path d="M36.8 34.5813H14.7615V36.6092H36.8V34.5813Z" fill="white"/>
<path d="M128.957 68.4787C127.313 68.4787 126.208 67.5258 126.208 66.1071V62.8804H127.221V65.999C127.221 66.9809 127.853 67.5439 128.957 67.5439C130.061 67.5439 130.703 66.9809 130.703 65.999V62.8804H131.71V66.1071C131.71 67.5478 130.631 68.4787 128.957 68.4787ZM121.874 68.4787C121.474 68.5067 121.072 68.4534 120.693 68.3222C120.314 68.191 119.966 67.9846 119.669 67.7153C119.372 67.4461 119.132 67.1195 118.964 66.7553C118.796 66.391 118.704 65.9966 118.693 65.5958C118.772 64.8087 119.141 64.0791 119.727 63.5485C120.314 63.0179 121.077 62.7241 121.868 62.7241C122.659 62.7241 123.422 63.0179 124.009 63.5485C124.595 64.0791 124.964 64.8087 125.043 65.5958C125.048 65.9898 124.967 66.3801 124.807 66.74C124.646 67.1 124.41 67.4212 124.115 67.6817C123.489 68.2094 122.693 68.4916 121.875 68.4756L121.874 68.4787ZM121.874 63.647C121.606 63.6276 121.336 63.6637 121.083 63.753C120.829 63.8424 120.596 63.983 120.399 64.1662C120.202 64.3494 120.045 64.5712 119.938 64.8178C119.831 65.0643 119.775 65.3304 119.775 65.5993C119.775 65.8683 119.831 66.1343 119.938 66.3809C120.045 66.6275 120.202 66.8493 120.399 67.0325C120.596 67.2156 120.829 67.3563 121.083 67.4456C121.336 67.535 121.606 67.5711 121.874 67.5517C122.142 67.5711 122.411 67.535 122.665 67.4456C122.919 67.3563 123.151 67.2156 123.348 67.0325C123.545 66.8493 123.702 66.6275 123.809 66.3809C123.917 66.1343 123.972 65.8683 123.972 65.5993C123.972 65.3304 123.917 65.0643 123.809 64.8178C123.702 64.5712 123.545 64.3494 123.348 64.1662C123.151 63.983 122.919 63.8424 122.665 63.753C122.411 63.6637 122.142 63.6276 121.874 63.647ZM108.479 68.4662C107.645 68.4878 106.833 68.2056 106.192 67.6723C105.897 67.4121 105.661 67.0903 105.503 66.7296C105.345 66.3688 105.268 65.9778 105.277 65.5841C105.277 63.9218 106.624 62.7152 108.479 62.7152C109.393 62.6935 110.288 62.9767 111.024 63.5201L110.482 64.3164C109.917 63.8816 109.22 63.6536 108.508 63.6705H108.441C108.175 63.6462 107.906 63.6777 107.653 63.7628C107.4 63.848 107.167 63.985 106.969 64.165C106.772 64.3451 106.614 64.5644 106.506 64.8088C106.398 65.0533 106.341 65.3175 106.341 65.5848C106.343 65.8591 106.403 66.1297 106.517 66.3793C106.631 66.6288 106.796 66.8517 107.001 67.0335C107.207 67.2152 107.448 67.3518 107.709 67.4343C107.971 67.5168 108.247 67.5435 108.519 67.5125C109.057 67.5178 109.589 67.4075 110.081 67.1892V65.6076H111.061V67.7216C110.288 68.2099 109.393 68.4682 108.479 68.4662ZM18.4853 68.4545C17.6683 68.4696 16.8733 68.1897 16.246 67.666C15.9478 67.408 15.7093 67.0883 15.5471 66.7289C15.3848 66.3695 15.3027 65.9791 15.3064 65.5848C15.3184 65.1847 15.4111 64.7912 15.579 64.4278C15.7469 64.0644 15.9865 63.7388 16.2834 63.4703C16.5803 63.2018 16.9284 62.9961 17.3068 62.8656C17.6852 62.735 18.0861 62.6823 18.4853 62.7105C18.8834 62.6836 19.2827 62.7374 19.6594 62.8686C20.0361 62.9999 20.3824 63.206 20.6775 63.4744C20.9726 63.7429 21.2104 64.0682 21.3766 64.4309C21.5428 64.7935 21.634 65.1861 21.6447 65.5848C21.6383 65.9848 21.5501 66.3792 21.3853 66.7437C21.2205 67.1082 20.9827 67.435 20.6866 67.704C20.3905 67.9729 20.0424 68.1783 19.6637 68.3074C19.2851 68.4365 18.8841 68.4865 18.4853 68.4545ZM18.4853 63.6376C18.2153 63.6146 17.9434 63.648 17.6869 63.7355C17.4304 63.8231 17.1949 63.963 16.9952 64.1464C16.7956 64.3297 16.6363 64.5525 16.5272 64.8007C16.4182 65.0488 16.3619 65.3169 16.3619 65.588C16.3619 65.859 16.4182 66.1271 16.5272 66.3753C16.6363 66.6234 16.7956 66.8462 16.9952 67.0296C17.1949 67.2129 17.4304 67.3528 17.6869 67.4404C17.9434 67.528 18.2153 67.5614 18.4853 67.5384C18.7554 67.5614 19.0273 67.528 19.2838 67.4404C19.5403 67.3528 19.7758 67.2129 19.9754 67.0296C20.1751 66.8462 20.3344 66.6234 20.4434 66.3753C20.5524 66.1271 20.6087 65.859 20.6087 65.588C20.6087 65.3169 20.5524 65.0488 20.4434 64.8007C20.3344 64.5525 20.1751 64.3297 19.9754 64.1464C19.7758 63.963 19.5403 63.8231 19.2838 63.7355C19.0273 63.648 18.7554 63.6146 18.4853 63.6376ZM55.1561 68.4513C54.3252 68.4729 53.5146 68.1918 52.8753 67.6605C52.5805 67.4009 52.3459 67.08 52.1881 66.7202C52.0302 66.3605 51.9529 65.9706 51.9616 65.5778C51.9616 63.9163 53.3052 62.7105 55.1561 62.7105C56.0683 62.6869 56.962 62.9704 57.6938 63.5154L57.1567 64.3117C56.5955 63.8737 55.899 63.6455 55.1875 63.6665H55.1209C54.8555 63.643 54.5881 63.6749 54.3357 63.7603C54.0833 63.8456 53.8514 63.9826 53.6548 64.1624C53.4581 64.3422 53.3011 64.561 53.1936 64.8048C53.0861 65.0486 53.0305 65.3121 53.0304 65.5786C53.0322 65.8524 53.0917 66.1228 53.2049 66.3721C53.3182 66.6214 53.4827 66.8441 53.6878 67.0256C53.8928 67.2071 54.1338 67.3433 54.3951 67.4255C54.6563 67.5076 54.9319 67.5338 55.2039 67.5024C55.7389 67.5032 56.2682 67.3937 56.7589 67.1806V65.5997H57.7392V67.7052C56.9684 68.1984 56.0712 68.4576 55.1561 68.4513ZM25.7811 68.4513C24.9506 68.4728 24.1406 68.1918 23.5019 67.6605C23.207 67.4009 22.9725 67.08 22.8146 66.7202C22.6568 66.3605 22.5795 65.9706 22.5881 65.5778C22.5866 63.9163 23.9302 62.7105 25.7811 62.7105C26.694 62.6859 27.588 62.9725 28.3164 63.5233L27.7809 64.3188C27.2189 63.8789 26.5237 63.6441 25.8101 63.6532C25.5396 63.6261 25.2664 63.6554 25.0079 63.7394C24.7493 63.8235 24.511 63.9603 24.3081 64.1412C24.1053 64.3222 23.9422 64.5433 23.8293 64.7906C23.7164 65.0379 23.6561 65.306 23.6522 65.5778C23.6534 65.8519 23.7124 66.1227 23.8253 66.3726C23.9381 66.6224 24.1024 66.8456 24.3073 67.0277C24.5122 67.2098 24.7532 67.3467 25.0146 67.4294C25.276 67.5121 25.5518 67.5389 25.8242 67.5078C26.5447 67.5223 27.2487 67.2915 27.8208 66.8533L28.3618 67.6527C27.6145 68.1987 26.7063 68.4798 25.7811 68.4513ZM11.7776 68.4263C10.7828 68.4478 9.80111 68.1971 8.93848 67.7012L9.32997 66.847C10.079 67.2736 10.9249 67.5011 11.787 67.5078C12.8048 67.5078 13.4116 67.2252 13.4116 66.7523C13.4116 66.2527 12.6287 66.1259 11.7212 65.9756C10.477 65.7728 9.06689 65.5418 9.06689 64.3102C9.06689 63.3463 10.0198 62.7442 11.5528 62.7442C12.4341 62.7394 13.3039 62.945 14.0897 63.344L13.6896 64.1606C13.0234 63.8612 12.3055 63.6937 11.5755 63.6673C10.6203 63.6673 10.1161 63.8709 10.1161 64.2553C10.1161 64.6899 10.8388 64.8034 11.675 64.9428C12.9168 65.144 14.4624 65.3954 14.4624 66.7538C14.4608 67.7874 13.4328 68.4263 11.7776 68.4263ZM113.445 68.3198H112.433V62.8804H115.947C116.188 62.854 116.432 62.8795 116.663 62.9553C116.894 63.0311 117.105 63.1553 117.284 63.3198C117.463 63.4842 117.604 63.685 117.699 63.9086C117.794 64.1323 117.839 64.3736 117.833 64.6163C117.831 65.0419 117.668 65.4511 117.377 65.7615C117.086 66.0718 116.688 66.2602 116.263 66.2887L117.892 68.3206H116.623L115.076 66.3169H113.446V68.3221L113.445 68.3198ZM113.445 63.7785V65.4142H115.837C116.448 65.4142 116.827 65.108 116.827 64.6155C116.835 64.4999 116.817 64.3841 116.775 64.2763C116.732 64.1685 116.667 64.0713 116.583 63.9917C116.499 63.912 116.398 63.8518 116.288 63.8154C116.178 63.779 116.062 63.7672 115.947 63.7809L113.445 63.7785ZM134.137 68.3198H133.125V62.8804H136.512C136.764 62.8598 137.019 62.8928 137.258 62.9772C137.497 63.0616 137.715 63.1956 137.899 63.3703C138.083 63.545 138.228 63.7566 138.324 63.9912C138.42 64.2257 138.466 64.478 138.458 64.7314C138.468 64.9818 138.424 65.2314 138.327 65.4626C138.23 65.6938 138.084 65.9008 137.898 66.0691C137.712 66.2374 137.492 66.3629 137.252 66.4365C137.013 66.5102 136.76 66.5303 136.512 66.4954H134.137V68.3214V68.3198ZM134.137 63.7785V65.5935H136.571C136.684 65.599 136.798 65.5808 136.904 65.5401C137.01 65.4993 137.106 65.4369 137.186 65.3568C137.267 65.2766 137.33 65.1806 137.371 65.0748C137.412 64.969 137.43 64.8558 137.425 64.7424C137.436 64.6176 137.42 64.4919 137.378 64.3737C137.337 64.2555 137.271 64.1474 137.185 64.0565C137.099 63.9655 136.994 63.8938 136.879 63.8461C136.763 63.7983 136.638 63.7755 136.513 63.7793H134.137V63.7785ZM85.3823 68.3088H84.2861L86.9427 62.8789H88.0052L90.6674 68.3057H89.579L88.9526 66.984H86.0079L85.3815 68.3057L85.3823 68.3088ZM87.4822 63.9054L86.426 66.1071H88.5259L87.4822 63.9054ZM79.5177 68.308H78.5046V62.8789H82.0115C82.252 62.8525 82.4954 62.878 82.7252 62.9535C82.9551 63.029 83.1661 63.1528 83.3441 63.3167C83.5221 63.4805 83.663 63.6806 83.7573 63.9034C83.8516 64.1262 83.897 64.3666 83.8907 64.6085C83.8909 65.033 83.7297 65.4418 83.4398 65.752C83.15 66.0623 82.753 66.2508 82.3294 66.2793L83.9478 68.3049H82.681L81.1456 66.3068H79.5177V68.3073V68.308ZM79.5177 63.7769V65.4063H81.9027C82.5119 65.4063 82.89 65.101 82.89 64.6085C82.8981 64.493 82.8805 64.3772 82.8385 64.2694C82.7965 64.1615 82.731 64.0644 82.647 63.9849C82.5629 63.9053 82.4622 63.8454 82.3522 63.8095C82.2422 63.7735 82.1256 63.7624 82.0107 63.7769H79.5177ZM66.3152 68.308H65.3247V62.8789H66.3574L69.909 66.9699L69.9325 66.9605C69.8738 65.8816 69.8691 65.0814 69.8691 64.2984V62.8789H70.8525V68.3057H69.8347L66.2956 64.2162L66.2784 64.2225C66.3175 65.0274 66.3175 66.4289 66.3175 66.8893V68.3073L66.3152 68.308ZM101.97 68.308H96.8357V62.8789H101.796V63.7769H97.8457V65.0916H100.916V65.9912H97.8457V67.4084H101.97V68.3057V68.308ZM96.0402 68.308H91.3916V62.8789H92.404V67.4084H96.0433V68.3057L96.0402 68.308ZM77.4389 68.308H72.301V62.8789H77.2636V63.7769H73.3095V65.0916H76.3835V65.9912H73.3095V67.4084H77.4382V68.3057L77.4389 68.308ZM64.2442 68.308H59.1055V62.8789H64.0711V63.7769H60.1148V65.0916H63.1919V65.9912H60.1148V67.4084H64.2434V68.3057L64.2442 68.308ZM48.8821 68.308H43.7435V62.8789H48.7068V63.7769H44.7551V65.0916H47.8275V65.9912H44.7551V67.4084H48.8814V68.3057L48.8821 68.308ZM39.6978 68.308V63.7668H37.4741V62.8789H42.9198V63.7668H40.7055V68.308H39.697H39.6978ZM37.0216 68.308H31.8845V62.8789H36.8485V63.7769H32.8976V65.0916H35.9732V65.9912H32.8976V67.4084H37.0255V68.3057L37.0216 68.308ZM29.4376 68.308V62.8804H30.4477V68.3057H29.4376V68.308Z" fill="black"/>
</svg>
