<svg width="201" height="88" viewBox="0 0 201 88" fill="none" xmlns="http://www.w3.org/2000/svg">
<path d="M92.7355 54.3574H106.372V48.0284H102.001V49.9858H97.0418V38.3716H102.001V40.3291H106.372V34H92.7355V54.3574ZM75.4447 54.3574H89.0816V34H75.4447V54.3574ZM79.8163 38.3716H84.7752V49.9858H79.8163V38.3716ZM60.1113 54.3574H64.483V38.3716H72.1823V34H60.1113V54.3574ZM42.9511 54.3574H56.5879V48.0284H52.2163V49.9858H47.2574V38.3716H52.2163V40.3291H56.5879V34H42.9511V54.3574ZM109.83 54.3574H123.467V48.0284H119.096V49.9858H114.202V38.3716H119.161V40.3291H123.533V34H109.896V54.3574H109.83ZM143.303 54.3574H147.674V48.2241H157.005V34H143.368V54.3574H143.303ZM147.674 38.3716H152.633V43.9177H147.674V38.3716ZM192.174 34H187.541L185.127 41.895H183.952L181.604 34H176.971L180.429 44.1135L176.71 54.3574H181.343L184.018 46.2667H185.192L187.867 54.3574H192.5L188.781 44.1135L192.174 34ZM8.5 54.3574H12.8716V48.2241H22.2021V34H8.5V54.3574ZM12.8716 38.3716H17.8305V43.9177H12.8716V38.3716ZM161.768 34L159.811 54.3574H164.182L164.639 49.5291H169.402L169.859 54.3574H174.23L172.273 34H161.768V34ZM164.965 45.1574L165.618 38.3064H168.358L169.011 45.1574H164.965ZM25.7255 54.3574H39.3624V34H25.7255V54.3574ZM30.0319 38.3716H34.9908V49.9858H30.0319V38.3716ZM126.534 38.3716H131.167V54.3574H135.538V38.3716H140.171V34H126.534V38.3716Z" fill="#9E0918"/>
</svg>
