<svg width="201" height="88" viewBox="0 0 201 88" fill="none" xmlns="http://www.w3.org/2000/svg">
<path d="M55.1485 31.5935V32.661H64.2953C64.905 32.661 65.8197 32.661 66.4295 33.2714C67.0392 33.8817 67.0392 34.7971 67.0392 35.4072V44.56C67.0392 45.1705 67.0392 46.0857 66.4295 46.696C65.8197 47.3062 64.905 47.3062 64.2953 47.3062H59.8744C59.1121 47.3062 58.1211 47.3062 57.7401 46.4672C57.359 45.6281 57.8924 44.8653 58.3499 44.2552L64.2953 36.3228H55.1485L51.4898 41.2041C50.8769 42.0216 50.3464 42.7297 50.3464 43.645C50.3464 44.56 50.8403 45.2193 51.4898 46.0857L52.4045 47.3062C53.319 48.5265 54.2337 49.7469 55.4534 50.3572C56.6729 50.9674 58.1211 50.9674 60.103 50.9674H64.0666C66.3533 50.9674 69.7834 50.9674 72.0701 48.6791C74.3568 46.3909 74.3568 43.0348 74.3568 41.8143V38.1531C74.3568 36.9328 74.3568 33.5766 72.0701 31.2883C69.7834 29 66.3533 29.0028 64.0666 29.002L57.7401 29C57.1302 28.9998 56.368 29 55.7582 29.6105C55.1485 30.2207 55.1485 30.9835 55.1485 31.5935Z" fill="#C4151C"/>
<path d="M44.1725 36.3223H53.3193L42.343 50.9673H33.1964L44.1725 36.3223Z" fill="#C4151C"/>
<path d="M8.5 38.916C8.5 38.3059 8.5 37.5431 9.10975 36.9329C9.7195 36.3228 10.4817 36.3228 11.0917 36.3228H26.4125C28.3942 36.3228 29.8425 36.3228 31.062 36.9329C32.2815 37.5431 33.1962 38.7632 34.111 39.984L35.0257 41.2043C35.675 42.0708 36.169 42.7298 36.169 43.6452C36.169 44.5601 35.6384 45.2681 35.0257 46.0858L31.367 50.9674H22.2202L28.1656 43.0348C28.6228 42.4246 29.1564 41.6617 28.7753 40.8227C28.3942 39.984 27.4033 39.984 26.6411 39.984H19.4762V58.29H12.1587V39.9841H8.5V38.916Z" fill="#C4151C"/>
<path d="M83.0476 48.3316C82.4987 49.0786 81.939 49.8144 81.3903 50.5503V50.9677H82.9378C83.6953 49.9573 84.0904 49.43 84.0904 48.8258H85.6051V50.9677H87.054V48.8256H88.5686C88.5686 49.4298 88.9638 49.9571 89.721 50.9676H91.2688V50.5501L89.6003 48.3314C91.0054 47.2769 91.0054 47.2769 91.0054 45.8927V45.4316H89.4247V45.8929C89.4247 47.5734 89.4247 47.5734 87.7783 47.5734H87.054V45.4316H85.6051V47.5734H84.8807C83.2341 47.5734 83.2341 47.5734 83.2341 45.8929V45.4316H81.6536V45.8929C81.6536 47.2769 81.6536 47.2769 83.0476 48.3316Z" fill="#231F20"/>
<path fill-rule="evenodd" clip-rule="evenodd" d="M94.0128 47.7053C94.0128 46.4857 94.0128 46.4857 95.3628 46.4857C96.713 46.4857 96.713 46.4857 96.713 47.7053H94.0128ZM94.0128 48.6937H95.3628C96.7788 48.6826 97.196 48.7048 97.668 48.5948L98.2277 48.4631V47.9251C98.2277 47.0132 98.2277 45.2998 95.6264 45.2998H95.0994C92.4982 45.2998 92.4982 47.0134 92.4982 47.9358V48.4633C92.4982 49.4519 92.52 51.0993 95.3848 51.0993C95.8129 51.0993 96.7788 51.0993 97.8327 50.8357V49.6496H97.5362L96.4825 49.9132H95.3628C94.0128 49.9128 94.0128 49.9128 94.0128 48.6937Z" fill="#231F20"/>
<path d="M100.675 45.4318C100.675 46.2667 100.61 48.7816 99.2922 50.539V50.9674H100.906C101.861 49.6932 101.861 48.0347 101.861 46.6507H104.133V50.9674H105.582V45.4316H100.675" fill="#231F20"/>
<path fill-rule="evenodd" clip-rule="evenodd" d="M108.918 47.7053C108.918 46.4857 108.918 46.4857 110.268 46.4857C111.618 46.4857 111.618 46.4857 111.618 47.7053H108.918ZM108.918 48.6937H110.268C111.684 48.6826 112.101 48.7048 112.573 48.5948L113.133 48.4631V47.9251C113.133 47.0132 113.133 45.2998 110.532 45.2998H110.005C107.404 45.2998 107.404 47.0134 107.404 47.9358V48.4633C107.404 49.4519 107.425 51.0993 110.29 51.0993C110.718 51.0993 111.684 51.0993 112.738 50.8357V49.6496H112.441L111.388 49.9132H110.268C108.918 49.9128 108.918 49.9128 108.918 48.6937Z" fill="#231F20"/>
<path d="M118.456 48.2876V48.1228C119.576 47.8372 119.576 47.1453 119.576 46.8817C119.576 46.3542 119.576 45.2998 116.908 45.2998C116.513 45.2998 115.591 45.2998 114.538 45.5636V46.7499H114.834L115.888 46.4861H117.106C117.951 46.4861 117.995 46.4861 117.995 47.1011C117.995 47.7055 117.995 47.7055 117.106 47.7055H115.888V48.6939H117.106C117.951 48.6939 117.995 48.6939 117.995 49.2982C117.995 49.9133 117.995 49.9133 117.106 49.9133H115.888L114.834 49.6496H114.538V50.8359C115.591 51.0993 116.513 51.0993 116.908 51.0993C119.565 51.0993 119.576 50.045 119.576 49.5177C119.576 49.2543 119.576 48.5624 118.456 48.2876Z" fill="#231F20"/>
<path d="M125.601 45.4316V47.5732H122.704V45.4316H121.255V50.9672H122.704V48.8254H125.601V50.9672H127.05V45.4316H125.601Z" fill="#231F20"/>
<path fill-rule="evenodd" clip-rule="evenodd" d="M131.627 48.1997C132.78 48.1997 132.78 48.1997 132.78 49.0564C132.78 49.9133 132.78 49.9133 131.627 49.9133H130.475V48.1997H131.627ZM136.797 45.4318H135.348V50.9676H136.797V45.4318ZM131.825 50.9674C133.57 50.9674 134.294 50.5828 134.294 49.0891C134.294 48.2653 134.294 47.079 132.022 47.079C131.693 47.079 131.133 47.1123 130.475 47.2769V45.4316H129.026V50.9674H131.825Z" fill="#231F20"/>
<path fill-rule="evenodd" clip-rule="evenodd" d="M140.068 47.7053C140.068 46.4857 140.068 46.4857 141.418 46.4857C142.768 46.4857 142.768 46.4857 142.768 47.7053H140.068ZM140.068 48.6937H141.418C142.834 48.6826 143.251 48.7048 143.723 48.5948L144.283 48.4631V47.9251C144.283 47.0132 144.283 45.2998 141.681 45.2998H141.154C138.553 45.2998 138.553 47.0134 138.553 47.9358V48.4633C138.553 49.4519 138.575 51.0993 141.44 51.0993C141.868 51.0993 142.834 51.0993 143.888 50.8357V49.6496H143.591L142.538 49.9132H141.418C140.068 49.9128 140.068 49.9128 140.068 48.6937Z" fill="#231F20"/>
<path fill-rule="evenodd" clip-rule="evenodd" d="M150.319 48.002C150.319 46.5192 150.319 46.5523 152.284 46.5523C152.547 46.5523 152.91 46.585 153.349 46.684V49.0564L151.944 49.4076C150.319 49.4078 150.319 49.4078 150.319 48.002ZM149.463 51.8243V53.0764C150.517 53.3402 151.373 53.3402 151.702 53.3402C154.687 53.3402 154.787 52.0442 154.797 50.5721V45.432H154.325L153.623 45.9593C153.14 45.333 151.966 45.311 151.592 45.311C148.804 45.311 148.804 47.0685 148.804 47.8703V48.134C148.804 49.0566 148.804 50.5723 151.175 50.5723C151.889 50.5723 152.734 50.3748 153.348 49.9133V50.3746C153.348 52.0771 153.315 52.0882 151.57 52.0882H150.813L149.759 51.8244H149.463V51.8243Z" fill="#231F20"/>
<path fill-rule="evenodd" clip-rule="evenodd" d="M159.199 45.2998C156.4 45.2998 156.4 46.9474 156.4 47.936V48.4633C156.4 49.4519 156.4 51.0993 159.199 51.0993H159.726C162.525 51.0993 162.525 49.4519 162.525 48.4633V47.936C162.525 46.9474 162.525 45.2998 159.726 45.2998H159.199ZM159.462 46.5192C161.01 46.5192 161.01 46.5192 161.01 48.1997C161.01 49.8802 161.01 49.8802 159.462 49.8802C157.915 49.8802 157.915 49.8802 157.915 48.1997C157.915 46.5192 157.915 46.5192 159.462 46.5192Z" fill="#231F20"/>
<path fill-rule="evenodd" clip-rule="evenodd" d="M168.606 48.1997C168.606 49.8471 168.606 49.8471 166.992 49.8471C166.597 49.8471 166.092 49.8471 165.576 49.7153V46.9474L166.981 46.5962C168.606 46.5962 168.606 46.618 168.606 48.1997ZM164.127 45.4319V53.2083H165.576V50.8028C166.235 50.9676 166.762 51.0993 167.552 51.0993C170.12 51.0993 170.12 49.2212 170.12 48.4635V47.936C170.12 47.0134 170.12 45.2998 167.717 45.2998C166.487 45.2998 165.774 45.8382 165.379 46.1347L164.852 45.4319H164.127Z" fill="#231F20"/>
<path fill-rule="evenodd" clip-rule="evenodd" d="M174.477 45.2998C171.678 45.2998 171.678 46.9474 171.678 47.936V48.4633C171.678 49.4519 171.678 51.0993 174.477 51.0993H175.004C177.803 51.0993 177.803 49.4519 177.803 48.4633V47.936C177.803 46.9474 177.803 45.2998 175.004 45.2998H174.477ZM174.741 46.5192C176.289 46.5192 176.289 46.5192 176.289 48.1997C176.289 49.8802 176.289 49.8802 174.741 49.8802C173.193 49.8802 173.193 49.8802 173.193 48.1997C173.193 46.5192 173.193 46.5192 174.741 46.5192Z" fill="#231F20"/>
<path d="M181.985 45.2998C181.458 45.2998 180.767 45.2998 179.713 45.5636V46.7497H180.009L181.063 46.4861H182.413C183.138 46.4861 183.138 46.4861 183.138 46.9036C183.138 47.1893 183.138 47.2772 182.578 47.3759L181.261 47.7055C180.503 47.8921 179.45 48.1777 179.45 49.32C179.45 50.0778 179.45 51.0991 182.117 51.0991C182.644 51.0991 183.335 51.0991 184.389 50.8357V49.6494H184.092C183.653 49.7702 183.236 49.869 183.072 49.9132H181.689C180.964 49.9132 180.964 49.9132 180.964 49.4955C180.964 49.2431 180.964 49.1881 181.272 49.1003L182.007 48.9026L182.841 48.6937C183.599 48.5071 184.652 48.2327 184.652 47.0793C184.652 46.3213 184.652 45.2998 181.985 45.2998Z" fill="#231F20"/>
<path d="M191.424 51.1212L192.5 50.3193C192.105 49.792 192.105 49.792 192.105 48.8585V45.4316H190.656V49.4515L189.251 49.8029C187.758 49.8029 187.758 49.8029 187.758 48.2763V45.4316H186.309V48.4958C186.309 49.5832 186.309 51.0989 188.515 51.0989C189.668 51.0989 190.381 50.5608 190.776 50.2643L191.424 51.1212Z" fill="#231F20"/>
<path fill-rule="evenodd" clip-rule="evenodd" d="M81.6742 32.2075V39.9838H83.2547V37.842H84.506C86.6463 37.842 88.3256 37.842 88.3256 35.0301C88.3256 32.2075 86.6463 32.2075 84.506 32.2075H81.6742ZM83.2547 36.458V33.5912H85.1645C86.5805 33.5912 86.6463 33.5912 86.6463 35.0299C86.6463 36.4249 86.6463 36.458 85.1645 36.458H83.2547Z" fill="#231F20"/>
<path fill-rule="evenodd" clip-rule="evenodd" d="M92.332 34.3159C89.533 34.3159 89.533 35.9635 89.533 36.9521V37.4794C89.533 38.468 89.533 40.1154 92.332 40.1154H92.8588C95.6578 40.1154 95.6578 38.468 95.6578 37.4794V36.9521C95.6578 35.9635 95.6578 34.3159 92.8588 34.3159H92.332ZM92.5954 35.5351C94.1431 35.5351 94.1431 35.5351 94.1431 37.2157C94.1431 38.8962 94.1431 38.8962 92.5954 38.8962C91.0476 38.8962 91.0476 38.8962 91.0476 37.2157C91.0476 35.5351 91.0476 35.5351 92.5954 35.5351Z" fill="#231F20"/>
<path d="M99.9711 40.1159C100.366 40.1159 101.387 40.1159 102.441 39.8521V38.6662H102.144L101.08 38.9298H100.454C98.6209 38.9298 98.6209 38.9298 98.6209 37.2161C98.6209 35.5025 98.6209 35.5025 99.9711 35.5025C101.113 35.5025 101.113 35.5025 101.387 36.5901L102.704 36.2605C102.704 35.7334 102.704 34.3164 100.234 34.3164H99.7077C97.1062 34.3164 97.1062 35.964 97.1062 36.9524V37.4799C97.1062 38.4683 97.1062 40.1159 99.9711 40.1159Z" fill="#231F20"/>
<path d="M106.93 40.1159C107.325 40.1159 108.346 40.1159 109.4 39.8521V38.6662H109.103L108.039 38.9298H107.413C105.58 38.9298 105.58 38.9298 105.58 37.2161C105.58 35.5025 105.58 35.5025 106.93 35.5025C108.071 35.5025 108.071 35.5025 108.346 36.5901L109.663 36.2605C109.663 35.7334 109.663 34.3164 107.193 34.3164H106.667C104.065 34.3164 104.065 35.964 104.065 36.9524V37.4799C104.065 38.4683 104.065 40.1159 106.93 40.1159Z" fill="#231F20"/>
<path d="M116.259 40.1376L117.335 39.3354C116.94 38.8083 116.94 38.8083 116.94 37.8748V34.4478H115.491V38.4678L114.086 38.819C112.593 38.819 112.593 38.819 112.593 37.2924V34.4478H111.144V37.5121C111.144 38.5995 111.144 40.1152 113.351 40.1152C114.503 40.1152 115.217 39.5771 115.612 39.2805L116.259 40.1376Z" fill="#231F20"/>
<path fill-rule="evenodd" clip-rule="evenodd" d="M121.352 32.4708C120.639 32.4708 120.639 32.4708 120.288 32.0752L119.651 32.5698C120.343 33.4594 120.694 33.5254 121.703 33.5254H121.945C122.944 33.5254 123.306 33.4594 123.987 32.5698L123.35 32.0752C123.01 32.4708 123.01 32.4708 122.285 32.4708H121.352ZM124.03 40.1376L125.106 39.3355C124.711 38.8083 124.711 38.8083 124.711 37.8749V34.4478H123.262V38.4678L121.857 38.8191C120.397 38.8191 120.364 38.8191 120.364 37.2924V34.4478H118.915V37.5122C118.915 38.5995 118.915 40.1152 121.122 40.1152C122.274 40.1152 122.988 39.5772 123.383 39.2805L124.03 40.1376Z" fill="#231F20"/>
<path d="M129.431 40.1159C129.826 40.1159 130.847 40.1159 131.9 39.8521V38.6662H131.604L130.539 38.9298H129.913C128.08 38.9298 128.08 38.9298 128.08 37.2161C128.08 35.5025 128.08 35.5025 129.43 35.5025C130.572 35.5025 130.572 35.5025 130.846 36.5901L132.163 36.2605C132.163 35.7334 132.163 34.3164 129.694 34.3164H129.167C126.566 34.3164 126.566 35.964 126.566 36.9524V37.4799C126.566 38.4683 126.566 40.1159 129.431 40.1159Z" fill="#231F20"/>
<path d="M133.788 34.4478V39.9837H135.237V37.8419H137.015C137.015 38.4459 137.41 38.9731 138.167 39.9837H139.715V39.5662L138.047 37.3475C139.452 36.2932 139.452 36.2932 139.452 34.909V34.4478H137.871V34.909C137.871 36.5895 137.871 36.5895 136.225 36.5895H135.237V34.4478H133.788Z" fill="#231F20"/>
<path d="M146.29 40.1376L147.365 39.3354C146.97 38.8083 146.97 38.8083 146.97 37.8748V34.4478H145.521V38.4678L144.116 38.819C142.623 38.819 142.623 38.819 142.623 37.2924V34.4478H141.175V37.5121C141.175 38.5995 141.175 40.1152 143.381 40.1152C144.534 40.1152 145.247 39.5771 145.642 39.2805L146.29 40.1376Z" fill="#231F20"/>
<path fill-rule="evenodd" clip-rule="evenodd" d="M150.23 36.7218C150.23 35.5023 150.23 35.5023 151.58 35.5023C152.93 35.5023 152.93 35.5023 152.93 36.7218H150.23ZM150.23 37.7103H151.58C152.996 37.6993 153.413 37.7214 153.885 37.6114L154.445 37.4797V36.9417C154.445 36.0297 154.445 34.3164 151.844 34.3164H151.317C148.715 34.3164 148.715 36.0298 148.715 36.9524V37.4799C148.715 38.4685 148.737 40.1159 151.602 40.1159C152.03 40.1159 152.996 40.1159 154.05 39.8521V38.6662H153.753L152.7 38.9298H151.58C150.23 38.9296 150.23 38.9296 150.23 37.7103Z" fill="#231F20"/>
</svg>
