<svg width="201" height="88" viewBox="0 0 201 88" fill="none" xmlns="http://www.w3.org/2000/svg">
<path fill-rule="evenodd" clip-rule="evenodd" d="M173.818 37.6137C173.818 32.9369 169.889 29.1736 161.918 29.1736C153.435 29.1736 149.073 33.9729 149.073 39.9036H156.863C156.863 36.8236 158.559 35.2178 161.805 35.2178C164.879 35.2178 166.187 36.3352 166.187 38.103C166.187 39.8699 165.22 41.0736 162.829 41.0736L158.422 41.0769V46.1459L162.714 46.1426C165.448 46.1426 166.587 47.3406 166.587 49.2794C166.587 51.1039 165.391 52.838 161.918 52.838C158.161 52.838 156.453 50.9 156.453 47.7065H148.683C148.683 54.9486 153.721 58.8262 161.918 58.8262C170.002 58.8262 174.5 55.4042 174.5 49.9298C174.5 47.0792 173.02 45.0261 170.173 43.8289C172.621 42.5175 173.817 40.1223 173.817 37.6129L173.818 37.6137ZM136.233 58.0558H144.228V29.9449H136.233V33.02C134.173 30.43 131.458 29.3668 128.507 29.3668C120.993 29.3668 115.009 35.2194 115.009 43.9999C115.009 52.7804 120.993 58.633 128.507 58.633C131.458 58.633 134.173 57.5691 136.233 54.9799V58.055V58.0558ZM136.79 43.9999C136.79 48.4465 133.497 51.7017 129.554 51.7017C125.668 51.7017 122.319 48.4465 122.319 43.9999C122.319 39.5534 125.668 36.2982 129.555 36.2982C133.497 36.2982 136.79 39.5534 136.79 43.9999ZM101.524 36.6904H113.142V29.944H93.5341V58.0558H101.525V36.6904H101.524ZM89.5875 43.9999C89.5875 35.5993 82.8535 28.7888 74.5474 28.7888C66.2405 28.7888 59.5073 35.5993 59.5073 43.9999C59.5073 52.4006 66.2413 59.211 74.5474 59.211C82.8543 59.211 89.5875 52.4006 89.5875 43.9999ZM83.11 45.4553C78.4998 46.562 75.289 50.5284 74.5474 56.917C73.8057 50.5284 70.595 46.562 65.9848 45.4553C65.1921 40.4545 69.5573 36.0811 74.5474 36.0737C79.5374 36.0811 83.9026 40.4545 83.11 45.4553ZM33.8046 43.9999C33.8046 39.4366 36.851 35.7202 41.2293 35.7202C44.593 35.7202 47.3853 37.5817 48.0833 40.341H55.6988C55.3041 33.9392 49.5222 28.7888 41.4052 28.7888C32.9018 28.7888 26.5 35.0517 26.5 44.0024C26.5 52.9539 32.9018 59.211 41.4052 59.211C49.6645 59.211 55.5014 54.0845 55.6988 47.0808H48.0833C47.4897 50.2825 44.8471 52.2789 41.2301 52.2789C37.2316 52.2789 33.8046 48.6808 33.8046 43.9999Z" fill="#000078"/>
</svg>
