<svg width="201" height="88" viewBox="0 0 201 88" fill="none" xmlns="http://www.w3.org/2000/svg">
<path fill-rule="evenodd" clip-rule="evenodd" d="M66.6265 62.7473H59.9746L63.0053 57.4154L55.483 44.0391H62.2282L66.1447 51.9905L70.0613 44.0391H76.7132L66.6265 62.7473Z" fill="#1E398D"/>
<path fill-rule="evenodd" clip-rule="evenodd" d="M150.708 62.7472H142.393C137.793 62.7472 134.171 58.9653 134.171 53.6333C134.171 47.6194 137.793 44.0234 142.393 44.0234H150.708V48.6734H145.33C142.098 48.6734 140.248 49.6499 140.248 53.5248C140.248 57.3068 142.113 58.0818 145.33 58.0818H150.708V62.7472Z" fill="#1E398D"/>
<path fill-rule="evenodd" clip-rule="evenodd" d="M172.529 62.7473H166.359V49.557L159.318 62.7473H151.967V44.0391H158.044V56.8419L165.084 44.0391H172.529V62.7473Z" fill="#1E398D"/>
<path fill-rule="evenodd" clip-rule="evenodd" d="M93.1565 62.7473L101.083 44.0391H107.937L114.495 59.5544L121.054 44.0391H127.799L135.726 62.7473H129.26L124.473 49.278L119.578 62.7473H115.754H113.112H109.398L107.937 58.8724H101.083L99.6219 62.7473H93.1565Z" fill="#1E398D"/>
<path fill-rule="evenodd" clip-rule="evenodd" d="M104.502 49.2783L102.544 54.6103H106.46L104.502 49.2783Z" fill="white"/>
<path fill-rule="evenodd" clip-rule="evenodd" d="M83.2719 62.7473H77.2106V44.0391H89.8306C96.1872 44.0391 96.1872 49.278 96.1872 50.4405C96.1872 51.696 96.1872 57.3224 89.8306 57.3224H83.2719V62.7473Z" fill="#1E398D"/>
<path fill-rule="evenodd" clip-rule="evenodd" d="M83.2719 52.6725H87.6702C88.354 52.6725 90.1103 52.6725 90.1103 50.6421C90.1103 48.7046 88.354 48.7046 87.6702 48.7046H83.2719V52.6725Z" fill="white"/>
<path fill-rule="evenodd" clip-rule="evenodd" d="M191.614 44.0391V48.689H179.865V51.107H186.035C192.5 51.107 192.5 54.7959 192.5 56.8264C192.5 58.9654 192.5 62.7473 186.143 62.7473H173.71V44.0391H191.614Z" fill="#1E398D"/>
<path fill-rule="evenodd" clip-rule="evenodd" d="M179.865 55.478V58.392H185.055C186.423 58.392 186.423 57.3225 186.423 56.842C186.423 56.4545 186.423 55.478 185.055 55.478H179.865Z" fill="white"/>
<path fill-rule="evenodd" clip-rule="evenodd" d="M28.0672 34.7238C28.549 34.7238 29.0463 34.7238 29.4349 34.9253L29.3416 22.2154H30.9114C30.9114 22.2154 30.7093 25.7029 31.3931 35.2198C39.8168 37.0643 46.1735 44.4422 46.1735 53.3546C46.1735 60.0505 42.6455 65.7699 37.47 69.0714C37.3768 68.9784 37.1747 68.6839 36.9727 68.4824C31.3931 61.399 30.0255 50.8281 29.6369 41.6212C30.414 41.8227 31.2066 41.9157 31.9837 42.0087C33.5535 52.0991 38.2471 58.795 42.0704 62.9645C43.8266 60.6395 44.9146 58.02 44.9146 55.106C44.9146 51.7116 43.5469 48.7046 41.2933 46.2866C39.0397 43.8687 36.0091 41.9157 32.2946 40.9547C30.7248 40.5672 29.0619 40.3657 27.3056 40.3657C25.6427 40.3657 23.9797 40.5672 22.3167 40.9547C15.0742 42.7992 9.69672 48.4256 9.69672 55.1215C9.69672 58.0355 10.7691 60.655 12.4321 62.98C16.3331 58.7795 20.9335 52.0836 22.4877 41.9932C23.2648 41.9002 24.0574 41.7917 24.9277 41.6057C24.5392 50.8281 23.1715 61.2905 17.592 68.3739V68.2809C17.3899 68.5754 17.2034 68.8699 17.0014 69.0559C11.826 65.7544 8.5 60.035 8.5 53.3391C8.5 44.4112 14.7634 37.0488 23.2803 35.2043C23.7621 25.7029 23.6688 22.1999 23.6688 22.1999H25.2386L25.1453 34.9098C25.5339 34.7083 26.0312 34.7083 26.4198 34.7083V16H28.0827V34.7238H28.0672ZM28.176 41.5127C28.378 50.3321 28.9531 61.399 31.8905 68.8699C32.1858 69.6449 32.6676 70.5129 33.0717 71.2879C31.2066 71.7683 29.2484 72.1558 27.2901 72.1558C25.2386 72.1558 23.2803 71.7683 21.5241 71.2879C22.0059 70.3114 22.41 69.4434 22.7985 68.5754C25.5339 61.1975 26.3265 50.2391 26.4198 41.5127C26.6218 41.5127 27.0103 41.5127 27.3056 41.5127C27.5854 41.5127 27.8807 41.5127 28.176 41.5127Z" fill="#1E398D"/>
</svg>
