<svg width="201" height="88" viewBox="0 0 201 88" fill="none" xmlns="http://www.w3.org/2000/svg">
<path d="M75.6145 28.5951H47.4239L49.4548 23.0002H77.6453L75.6145 28.5951ZM74.5991 31.3925H46.3958L44.365 36.9874H72.5555L74.5991 31.3925ZM71.5528 39.7594H43.3496L41.3187 45.3543H69.4839L71.5528 39.7594Z" fill="#009FDF"/>
<path d="M142.784 59.3543H147.862C148.583 59.4406 149.315 59.3477 149.992 59.0838C150.67 58.8199 151.272 58.3932 151.745 57.8411C152.442 56.9281 152.793 55.7972 152.736 54.6495C152.783 53.9192 152.649 53.1884 152.346 52.5227C152.042 51.8569 151.579 51.277 150.997 50.8348C150.054 50.2171 148.933 49.9308 147.811 50.021H142.784V59.3543ZM136.121 64.9873V31.3927H157.94L156.023 37.0257H142.784V44.4643H148.179C152.532 44.4643 154.792 45.507 156.353 46.8421C157.469 47.8323 158.347 49.0628 158.921 50.4414C159.495 51.82 159.749 53.3108 159.666 54.8021C159.751 56.4079 159.435 58.0098 158.746 59.4621C158.057 60.9144 157.016 62.1712 155.718 63.1181C153.624 64.5677 151.428 64.9746 146.96 64.9746L136.121 64.9873ZM116.802 64.9873V37.013H107.105V31.3927H134.026L132.11 37.0257H123.53V65L116.802 64.9873ZM89.9319 44.8458H93.7397C94.5185 44.8991 95.3008 44.8391 96.0625 44.6678C96.8545 44.4143 97.5371 43.8987 97.9984 43.2056C98.4596 42.5125 98.6721 41.683 98.601 40.8531C98.7067 40.0284 98.5066 39.1935 98.0387 38.5068C97.5708 37.8201 96.8676 37.3293 96.0625 37.1274C95.2309 36.934 94.3766 36.857 93.5239 36.8985H89.9319V44.8458ZM89.9319 50.6568V59.4687H94.5774C95.8577 59.6153 97.1449 59.2599 98.1695 58.4769C98.6416 58.0386 99.0115 57.5015 99.2528 56.9037C99.4942 56.3059 99.601 55.6621 99.5657 55.0182C99.5859 53.9895 99.2743 52.9817 98.6772 52.1445C97.6871 50.873 96.4686 50.6314 94.387 50.6314L89.9319 50.6568ZM100.67 47.1091V47.2236C101.802 47.66 102.859 48.2691 103.805 49.0292C104.761 49.8241 105.517 50.8336 106.011 51.9758C106.505 53.118 106.723 54.3607 106.648 55.6032C106.648 60.1935 104.211 63.5123 100.213 64.5041C98.6193 64.8944 96.9778 65.0528 95.339 64.9746H83.2682V31.3927H94.0062C95.7118 31.3302 97.4182 31.4883 99.0833 31.8631C102.967 32.9058 105.519 35.5888 105.519 39.8231C105.55 40.8326 105.376 41.8381 105.008 42.7781C104.639 43.7181 104.083 44.5731 103.373 45.2908C102.62 46.0571 101.723 46.6664 100.733 47.0837L100.67 47.1091Z" fill="#0A2973"/>
</svg>
