<svg width="208" height="311" viewBox="0 0 208 311" fill="none" xmlns="http://www.w3.org/2000/svg">
<path d="M206.11 46.3616C203.938 -6.48499 156.34 0.935249 142.947 4.55488C129.736 8.13831 117.537 12.7714 104 12.88C90.4626 12.7714 78.2644 8.13831 65.0528 4.55488C51.6601 0.935249 4.06205 -6.48499 1.89027 46.3616C-0.281502 99.2081 21.0743 134.68 22.5221 156.76C23.97 178.84 25.0559 255.938 48.5835 293.22C72.111 330.502 77.1785 292.858 77.1785 288.515C77.1785 284.207 67.8761 164.796 104 161.502C140.124 164.796 130.821 284.171 130.821 288.515C130.821 292.858 135.889 330.502 159.416 293.22C182.944 255.938 184.03 178.84 185.478 156.76C186.926 134.68 208.281 99.2081 206.11 46.3616Z" stroke="#BB979F" stroke-width="2.5" stroke-miterlimit="10" stroke-dasharray="11 11"/>
<path d="M68.2278 101.306C67.7478 101.306 67.3638 101.162 67.0758 100.874C66.7878 100.586 66.6438 100.202 66.6438 99.7215V88.3455H42.8838C42.4038 88.3455 42.0198 88.2015 41.7318 87.9135C41.4438 87.6255 41.2998 87.2415 41.2998 86.7615V85.6095C41.2998 84.8895 41.5638 84.1695 42.0918 83.4495L63.9798 52.1295C64.2198 51.7455 64.5798 51.4575 65.0598 51.2655C65.5398 51.0255 66.0678 50.9055 66.6438 50.9055H69.5958C70.0758 50.9055 70.4598 51.0495 70.7478 51.3375C71.0358 51.6255 71.1798 52.0095 71.1798 52.4895V84.0255H77.7318C78.2118 84.0255 78.5958 84.1695 78.8838 84.4575C79.1718 84.7455 79.3158 85.1295 79.3158 85.6095V86.7615C79.3158 87.2415 79.1718 87.6255 78.8838 87.9135C78.5958 88.2015 78.2118 88.3455 77.7318 88.3455H71.1798V99.7215C71.1798 100.202 71.0358 100.586 70.7478 100.874C70.4598 101.162 70.0758 101.306 69.5958 101.306H68.2278ZM66.6438 84.0255V56.0175L46.9878 84.0255H66.6438ZM103.992 102.026C97.9441 102.026 93.5761 100.202 90.8881 96.5535C88.2481 92.9055 86.8561 88.1055 86.7121 82.1535L86.6401 76.1775L86.7121 70.0575C86.8561 64.1055 88.2481 59.3055 90.8881 55.6575C93.5761 52.0095 97.9441 50.1855 103.992 50.1855C110.04 50.1855 114.384 52.0095 117.024 55.6575C119.712 59.3055 121.128 64.1055 121.272 70.0575C121.32 71.4015 121.344 73.4415 121.344 76.1775C121.344 78.8655 121.32 80.8575 121.272 82.1535C121.128 88.1055 119.712 92.9055 117.024 96.5535C114.384 100.202 110.04 102.026 103.992 102.026ZM103.992 97.7055C108.12 97.7055 111.24 96.3375 113.352 93.6015C115.512 90.8175 116.64 86.8815 116.736 81.7935C116.784 80.4015 116.808 78.4815 116.808 76.0335C116.808 73.5855 116.784 71.7135 116.736 70.4175C116.64 65.4255 115.512 61.5375 113.352 58.7535C111.24 55.9215 108.12 54.5055 103.992 54.5055C99.8641 54.5055 96.7201 55.9215 94.5601 58.7535C92.4481 61.5375 91.3441 65.4255 91.2481 70.4175L91.1761 76.0335L91.2481 81.7935C91.3441 86.8815 92.4481 90.8175 94.5601 93.6015C96.7201 96.3375 99.8641 97.7055 103.992 97.7055ZM155.415 101.306C154.935 101.306 154.551 101.162 154.263 100.874C153.975 100.586 153.831 100.202 153.831 99.7215V88.3455H130.071C129.591 88.3455 129.207 88.2015 128.919 87.9135C128.631 87.6255 128.487 87.2415 128.487 86.7615V85.6095C128.487 84.8895 128.751 84.1695 129.279 83.4495L151.167 52.1295C151.407 51.7455 151.767 51.4575 152.247 51.2655C152.727 51.0255 153.255 50.9055 153.831 50.9055H156.783C157.263 50.9055 157.647 51.0495 157.935 51.3375C158.223 51.6255 158.367 52.0095 158.367 52.4895V84.0255H164.919C165.399 84.0255 165.783 84.1695 166.071 84.4575C166.359 84.7455 166.503 85.1295 166.503 85.6095V86.7615C166.503 87.2415 166.359 87.6255 166.071 87.9135C165.783 88.2015 165.399 88.3455 164.919 88.3455H158.367V99.7215C158.367 100.202 158.223 100.586 157.935 100.874C157.647 101.162 157.263 101.306 156.783 101.306H155.415ZM153.831 84.0255V56.0175L134.175 84.0255H153.831Z" fill="#782F40"/>
</svg>
