<svg width="37" height="24" viewBox="0 0 37 24" fill="none" xmlns="http://www.w3.org/2000/svg">
<path d="M1.98419 23.9997C1.31404 23.9997 0.769544 23.7484 0.3507 23.2458C0.015625 22.7432 -0.0681437 22.1149 0.0993937 21.361L2.86376 3.64394C3.19884 1.21465 4.3716 0 6.38205 0H14.4238C15.0102 0 15.471 0.251306 15.806 0.753918C16.2249 1.17276 16.4343 1.63349 16.4343 2.1361C16.4343 2.97379 16.3086 3.68582 16.0573 4.2722L9.52337 21.1097C9.10453 22.1149 8.6438 22.827 8.14119 23.2458C7.63858 23.7484 6.88466 23.9997 5.87943 23.9997H1.98419ZM21.7117 23.9997C21.0416 23.9997 20.4971 23.7484 20.0782 23.2458C19.7432 22.7432 19.6594 22.1149 19.8269 21.361L22.5913 3.64394C22.9264 1.21465 24.0991 0 26.1096 0H34.1514C34.7378 0 35.1985 0.251306 35.5336 0.753918C35.9524 1.17276 36.1618 1.63349 36.1618 2.1361C36.1618 2.97379 36.0362 3.68582 35.7849 4.2722L29.2509 21.1097C28.8321 22.1149 28.3713 22.827 27.8687 23.2458C27.3661 23.7484 26.6122 23.9997 25.607 23.9997H21.7117Z" fill="#782F40"/>
</svg>
