<svg width="48" height="48" viewBox="0 0 48 48" fill="none" xmlns="http://www.w3.org/2000/svg">
<path d="M24 18C25.0714 14.0525 29.1181 12.0369 37.9286 12C38.0694 11.9995 38.209 12.025 38.3392 12.0751C38.4694 12.1252 38.5878 12.1988 38.6874 12.2918C38.787 12.3848 38.8659 12.4952 38.9195 12.6167C38.9732 12.7383 39.0005 12.8685 39 13V31C39 31.2652 38.8871 31.5196 38.6862 31.7071C38.4852 31.8946 38.2127 32 37.9286 32C29.3571 32 26.0458 33.6131 24 36C21.9663 33.625 18.6429 32 10.0714 32C9.40983 32 9.00001 31.4969 9.00001 30.8794V13C8.99948 12.8685 9.02683 12.7383 9.08048 12.6167C9.13414 12.4952 9.21304 12.3848 9.31264 12.2918C9.41223 12.1988 9.53056 12.1252 9.66079 12.0751C9.79102 12.025 9.93058 11.9995 10.0714 12C18.8819 12.0369 22.9286 14.0525 24 18Z" stroke="#BD9B74" stroke-width="3" stroke-linecap="round" stroke-linejoin="round"/>
<path d="M24 18V36" stroke="#BD9B74" stroke-width="3" stroke-linecap="round" stroke-linejoin="round"/>
</svg>
