<svg width="97" height="17" viewBox="0 0 97 17" fill="none" xmlns="http://www.w3.org/2000/svg">
  <g clip-path="url(#clip0)">
    <path d="M7.72487 2.02753C7.99451 1.36078 8.93852 1.36078 9.20816 2.02753L10.7733 5.89774C10.8879 6.18111 11.154 6.37442 11.4589 6.39584L15.6234 6.68844C16.3408 6.73885 16.6325 7.63665 16.0817 8.09914L12.8846 10.7837C12.6505 10.9802 12.5489 11.293 12.6227 11.5896L13.6313 15.6406C13.8051 16.3386 13.0414 16.8934 12.4313 16.5125L8.89023 14.3014C8.63095 14.1395 8.30208 14.1395 8.04281 14.3014L4.50171 16.5125C3.89165 16.8934 3.12794 16.3386 3.3017 15.6406L4.31031 11.5896C4.38416 11.293 4.28253 10.9802 4.04844 10.7837L0.851317 8.09914C0.300519 7.63665 0.592233 6.73885 1.30968 6.68844L5.47413 6.39584C5.77905 6.37442 6.0451 6.18111 6.1597 5.89774L7.72487 2.02753Z" fill="#FFC839"/>
    <path d="M27.7249 2.02753C27.9945 1.36078 28.9385 1.36078 29.2082 2.02753L30.7733 5.89774C30.8879 6.18111 31.154 6.37442 31.4589 6.39584L35.6234 6.68844C36.3408 6.73885 36.6325 7.63665 36.0817 8.09914L32.8846 10.7837C32.6505 10.9802 32.5489 11.293 32.6227 11.5896L33.6313 15.6406C33.8051 16.3386 33.0414 16.8934 32.4313 16.5125L28.8902 14.3014C28.6309 14.1395 28.3021 14.1395 28.0428 14.3014L24.5017 16.5125C23.8917 16.8934 23.1279 16.3386 23.3017 15.6406L24.3103 11.5896C24.3842 11.293 24.2825 10.9802 24.0484 10.7837L20.8513 8.09914C20.3005 7.63665 20.5922 6.73885 21.3097 6.68844L25.4741 6.39584C25.779 6.37442 26.0451 6.18111 26.1597 5.89774L27.7249 2.02753Z" fill="#FFC839"/>
    <path d="M47.7249 2.02753C47.9945 1.36078 48.9385 1.36078 49.2082 2.02753L50.7733 5.89774C50.8879 6.18111 51.154 6.37442 51.4589 6.39584L55.6234 6.68844C56.3408 6.73885 56.6325 7.63665 56.0817 8.09914L52.8846 10.7837C52.6505 10.9802 52.5489 11.293 52.6227 11.5896L53.6313 15.6406C53.8051 16.3386 53.0414 16.8934 52.4313 16.5125L48.8902 14.3014C48.6309 14.1395 48.3021 14.1395 48.0428 14.3014L44.5017 16.5125C43.8917 16.8934 43.1279 16.3386 43.3017 15.6406L44.3103 11.5896C44.3842 11.293 44.2825 10.9802 44.0484 10.7837L40.8513 8.09914C40.3005 7.63665 40.5922 6.73885 41.3097 6.68844L45.4741 6.39584C45.779 6.37442 46.0451 6.18111 46.1597 5.89774L47.7249 2.02753Z" fill="#FFC839"/>
    <path d="M67.7249 2.02753C67.9945 1.36078 68.9385 1.36078 69.2082 2.02753L70.7733 5.89774C70.8879 6.18111 71.154 6.37442 71.4589 6.39584L75.6234 6.68844C76.3408 6.73885 76.6325 7.63665 76.0817 8.09914L72.8846 10.7837C72.6505 10.9802 72.5489 11.293 72.6227 11.5896L73.6313 15.6406C73.8051 16.3386 73.0414 16.8934 72.4313 16.5125L68.8902 14.3014C68.6309 14.1395 68.3021 14.1395 68.0428 14.3014L64.5017 16.5125C63.8917 16.8934 63.1279 16.3386 63.3017 15.6406L64.3103 11.5896C64.3842 11.293 64.2825 10.9802 64.0484 10.7837L60.8513 8.09914C60.3005 7.63665 60.5922 6.73885 61.3097 6.68844L65.4741 6.39584C65.779 6.37442 66.0451 6.18111 66.1597 5.89774L67.7249 2.02753Z" fill="#FFC839"/>
    <path d="M87.7249 2.02753C87.9945 1.36078 88.9385 1.36078 89.2082 2.02753L90.7733 5.89774C90.8879 6.18111 91.154 6.37442 91.4589 6.39584L95.6234 6.68844C96.3408 6.73885 96.6325 7.63665 96.0817 8.09914L92.8846 10.7837C92.6505 10.9802 92.5489 11.293 92.6227 11.5896L93.6313 15.6406C93.8051 16.3386 93.0414 16.8934 92.4313 16.5125L88.8902 14.3014C88.6309 14.1395 88.3021 14.1395 88.0428 14.3014L84.5017 16.5125C83.8917 16.8934 83.1279 16.3386 83.3017 15.6406L84.3103 11.5896C84.3842 11.293 84.2825 10.9802 84.0484 10.7837L80.8513 8.09914C80.3005 7.63665 80.5922 6.73885 81.3097 6.68844L85.4741 6.39584C85.779 6.37442 86.0451 6.18111 86.1597 5.89774L87.7249 2.02753Z" fill="#FFC839"/>
  </g>
  <defs>
    <clipPath id="clip0">
      <rect width="96" height="16" fill="white" transform="translate(0.466797 0.99353)"/>
    </clipPath>
  </defs>
</svg>
