<svg width="32" height="32" viewBox="0 0 32 32" fill="none" xmlns="http://www.w3.org/2000/svg">
<path fill-rule="evenodd" clip-rule="evenodd" d="M22.7692 24.0001C23.109 24.3399 23.6601 24.3399 23.9999 24.0001C24.3398 23.6602 24.3398 23.1092 23.9999 22.7693L17.2306 16L23.9999 9.23071C24.3398 8.89084 24.3398 8.3398 23.9999 7.99994C23.6601 7.66007 23.109 7.66007 22.7692 7.99994L15.9999 14.7692L9.2307 8.00006C8.89084 7.6602 8.3398 7.6602 7.99994 8.00006C7.66007 8.33993 7.66007 8.89097 7.99994 9.23083L14.7691 16L7.99994 22.7692C7.66007 23.109 7.66007 23.6601 7.99994 23.9999C8.33981 24.3398 8.89084 24.3398 9.23071 23.9999L15.9999 17.2308L22.7692 24.0001Z" fill="#782F40"/>
</svg>
