<svg width="32" height="33" viewBox="0 0 32 33" fill="none" xmlns="http://www.w3.org/2000/svg">
<path fill-rule="evenodd" clip-rule="evenodd" d="M22.7692 24.1569C23.109 24.4968 23.6601 24.4968 23.9999 24.1569C24.3398 23.8171 24.3398 23.266 23.9999 22.9262L17.2306 16.1569L23.9999 9.38757C24.3398 9.0477 24.3398 8.49666 23.9999 8.1568C23.6601 7.81693 23.109 7.81693 22.7692 8.1568L15.9999 14.9261L9.2307 8.15692C8.89084 7.81706 8.3398 7.81706 7.99994 8.15692C7.66007 8.49679 7.66007 9.04783 7.99994 9.38769L14.7691 16.1569L7.99994 22.926C7.66007 23.2659 7.66007 23.8169 7.99994 24.1568C8.33981 24.4967 8.89084 24.4967 9.23071 24.1568L15.9999 17.3876L22.7692 24.1569Z" fill="#BB979F"/>
</svg>
