<svg width="48" height="48" viewBox="0 0 48 48" fill="none" xmlns="http://www.w3.org/2000/svg">
<path d="M9.2925 17.1378C8.67027 17.4157 7.98788 17.5318 7.30875 17.4753C6.96134 17.4547 6.61699 17.3982 6.28125 17.3066C6.28125 17.3066 6.30375 17.1866 6.35625 16.9916C6.4228 16.7317 6.5184 16.4801 6.64125 16.2416C6.92846 15.5807 7.43608 15.0399 8.0775 14.7116C8.72395 14.4682 9.43378 14.451 10.0912 14.6628C10.428 14.7548 10.7547 14.8804 11.0662 15.0378C10.9558 15.3266 10.811 15.6011 10.635 15.8553C10.4846 16.1048 10.3032 16.3341 10.095 16.5378C9.86395 16.7824 9.59248 16.9854 9.2925 17.1378V17.1378Z" stroke="#782F40" stroke-linecap="round" stroke-linejoin="round"/>
<path d="M39.1136 17.1378C39.7346 17.4154 40.4157 17.5315 41.0936 17.4753C41.4423 17.4549 41.7879 17.3984 42.1248 17.3066C42.1248 17.3066 42.1023 17.1866 42.0498 16.9916C41.9833 16.7317 41.8877 16.4801 41.7648 16.2416C41.4776 15.5807 40.97 15.0399 40.3286 14.7116C39.6808 14.4682 38.9698 14.451 38.3111 14.6628C37.9754 14.7543 37.6499 14.88 37.3398 15.0378C37.4498 15.3261 37.5932 15.6005 37.7673 15.8553C37.9191 16.1048 38.1018 16.3341 38.3111 16.5378C38.5421 16.7824 38.8136 16.9854 39.1136 17.1378V17.1378Z" stroke="#782F40" stroke-linecap="round" stroke-linejoin="round"/>
<path d="M7.09188 11.8429C7.19253 12.2383 7.228 12.6474 7.19688 13.0542C7.18294 13.4232 7.1327 13.79 7.04688 14.1492C6.96898 14.5316 6.86243 14.9077 6.72813 15.2742C6.38467 15.1632 6.05601 15.0108 5.74938 14.8204C5.09388 14.4427 4.59709 13.8407 4.35063 13.1254C4.23292 12.6973 4.19353 12.2514 4.23438 11.8092C4.27982 11.3861 4.36905 10.9689 4.50063 10.5642C4.64865 10.13 4.83959 9.7117 5.07063 9.31543C5.38818 9.49528 5.68175 9.71452 5.94438 9.96793C6.49908 10.4697 6.89747 11.1207 7.09188 11.8429V11.8429Z" stroke="#782F40" stroke-linecap="round" stroke-linejoin="round"/>
<path d="M41.3143 11.8431C41.2152 12.2387 41.1798 12.6476 41.2093 13.0543C41.227 13.423 41.2772 13.7895 41.3593 14.1493C41.4373 14.5322 41.5452 14.9083 41.6818 15.2743C42.025 15.1626 42.3535 15.0103 42.6606 14.8206C43.3161 14.4429 43.8129 13.8409 44.0593 13.1256C44.177 12.6974 44.2164 12.2515 44.1756 11.8093C44.1299 11.3875 44.0406 10.9715 43.9093 10.5681C43.7613 10.1339 43.5703 9.7156 43.3393 9.31934C43.0218 9.49919 42.7282 9.71842 42.4656 9.97184C41.9116 10.4733 41.5122 11.1225 41.3143 11.8431V11.8431Z" stroke="#782F40" stroke-linecap="round" stroke-linejoin="round"/>
<path d="M8.5649 22.9427C8.05464 23.3999 7.43654 23.7199 6.76865 23.8727C6.43133 23.9598 6.08556 24.0101 5.7374 24.0227C5.70336 23.6475 5.71595 23.2697 5.7749 22.8977C5.86726 22.1726 6.19534 21.498 6.70865 20.9777C7.24656 20.5275 7.92353 20.2771 8.6249 20.2689C8.97163 20.2454 9.31988 20.2592 9.66365 20.3102C9.66365 20.3102 9.66365 20.4077 9.6374 20.5689C9.61115 20.7302 9.56615 20.9439 9.4949 21.2514C9.34829 21.8907 9.02621 22.4764 8.5649 22.9427Z" stroke="#782F40" stroke-linecap="round" stroke-linejoin="bevel"/>
<path d="M39.8408 22.9427C40.3463 23.3983 40.9592 23.7183 41.622 23.8727C41.9594 23.9598 42.3051 24.0101 42.6533 24.0227C42.6871 23.6474 42.6732 23.2694 42.612 22.8977C42.521 22.173 42.1942 21.4983 41.682 20.9777C41.1471 20.5299 40.4745 20.2797 39.777 20.2689C39.4303 20.2454 39.0821 20.2592 38.7383 20.3102C38.7407 20.3969 38.7495 20.4834 38.7645 20.5689C38.787 20.7339 38.8358 20.9439 38.907 21.2514C39.053 21.8918 39.3766 22.478 39.8408 22.9427V22.9427Z" stroke="#782F40" stroke-linecap="round" stroke-linejoin="round"/>
<path d="M4.90368 18.5703C5.28433 19.2455 5.5074 19.998 5.55618 20.7715C5.59475 21.1615 5.60353 21.5539 5.58244 21.9453C5.21714 21.9466 4.8531 21.9025 4.49869 21.814C3.77212 21.6576 3.12331 21.2516 2.66494 20.6665C2.41385 20.3083 2.2425 19.9004 2.16244 19.4703C2.06068 19.0533 2.01776 18.6241 2.03494 18.1953C2.04121 17.8638 2.06876 17.5332 2.11744 17.2053C2.13609 17.0723 2.16366 16.9408 2.19994 16.8115C2.55448 16.8788 2.89867 16.9922 3.22369 17.149C3.90738 17.4535 4.49014 17.9465 4.90368 18.5703V18.5703Z" stroke="#782F40" stroke-linecap="round" stroke-linejoin="round"/>
<path d="M43.4985 18.5703C43.1163 19.2448 42.8931 19.9977 42.846 20.7715C42.8075 21.1615 42.7987 21.5539 42.8198 21.9453C43.18 21.9454 43.539 21.9013 43.8885 21.814C44.614 21.6574 45.2615 21.2513 45.7185 20.6665C45.9707 20.3085 46.1434 19.9006 46.2248 19.4703C46.3265 19.0533 46.3694 18.6241 46.3523 18.1953C46.3422 17.8641 46.3147 17.5336 46.2698 17.2053C46.2511 17.0723 46.2236 16.9408 46.1873 16.8115C45.8326 16.8783 45.4884 16.9918 45.1635 17.149C44.4853 17.4559 43.908 17.9487 43.4985 18.5703V18.5703Z" stroke="#782F40" stroke-linecap="round" stroke-linejoin="round"/>
<path d="M9.52496 28.4027C9.18543 29.005 8.70881 29.5189 8.13371 29.9027C7.84761 30.1057 7.54091 30.2779 7.21871 30.4165C7.05639 30.0782 6.94397 29.7182 6.88496 29.3477C6.81821 29.0044 6.80304 28.653 6.83996 28.3052C6.86992 27.9321 6.98402 27.5705 7.17371 27.2477C7.55561 26.6646 8.12411 26.2283 8.78621 26.0102C9.111 25.8858 9.44779 25.7953 9.79121 25.7402C9.79121 25.7402 9.81371 25.834 9.83621 25.9915C9.85871 26.149 9.88871 26.3665 9.89621 26.6252C9.90032 26.91 9.88151 27.1947 9.83996 27.4765C9.77857 27.7984 9.67255 28.1101 9.52496 28.4027V28.4027Z" stroke="#782F40" stroke-linecap="round" stroke-linejoin="round"/>
<path d="M38.88 28.4031C39.2207 29.0046 39.6971 29.5182 40.2713 29.9031C40.5574 30.106 40.8641 30.2782 41.1863 30.4168C41.3486 30.0786 41.461 29.7186 41.52 29.3481C41.5886 29.005 41.6038 28.6533 41.565 28.3056C41.5369 27.932 41.4227 27.5701 41.2313 27.2481C40.8517 26.6644 40.2841 26.2278 39.6225 26.0106C39.3007 25.8816 38.9664 25.786 38.625 25.7256C38.6038 25.8083 38.5876 25.8922 38.5763 25.9768C38.5763 26.1381 38.5238 26.3518 38.5163 26.6106C38.5117 26.8955 38.5317 27.1804 38.5763 27.4618C38.6325 27.7884 38.7348 28.1053 38.88 28.4031V28.4031Z" stroke="#782F40" stroke-linecap="round" stroke-linejoin="round"/>
<path d="M4.75812 25.5004C5.3047 26.0339 5.7283 26.6801 5.99937 27.3942C6.14527 27.7619 6.27047 28.1375 6.37437 28.5192C6.03545 28.6402 5.6827 28.7183 5.32437 28.7517C4.57917 28.8496 3.82502 28.6547 3.22062 28.2079C2.56014 27.6235 2.09866 26.8473 1.90063 25.9879C1.77557 25.5374 1.69888 25.0747 1.67188 24.6079C2.03007 24.5684 2.3919 24.5759 2.74812 24.6304C3.48936 24.7155 4.18878 25.0182 4.75812 25.5004V25.5004Z" stroke="#782F40" stroke-linecap="round" stroke-linejoin="round"/>
<path d="M43.6508 25.5008C43.0965 26.0381 42.6676 26.6911 42.3945 27.4133C42.2486 27.781 42.1234 28.1565 42.0195 28.5383C42.3583 28.6598 42.7111 28.738 43.0695 28.7708C43.8136 28.8689 44.5666 28.6739 45.1695 28.227C45.8419 27.6351 46.3082 26.8443 46.5008 25.9695C46.6236 25.5186 46.6991 25.0561 46.7258 24.5895C46.3688 24.5498 46.0082 24.5573 45.6533 24.612C44.9122 24.7023 44.2149 25.0118 43.6508 25.5008Z" stroke="#782F40" stroke-linecap="round" stroke-linejoin="round"/>
<path d="M12.3755 33.0874C12.2908 33.7736 12.0482 34.4308 11.6667 35.0074C11.4786 35.3092 11.2613 35.5918 11.018 35.8512C11.018 35.8512 10.928 35.7687 10.7892 35.6262C10.605 35.4357 10.4404 35.2271 10.298 35.0037C9.86596 34.4274 9.67807 33.7044 9.7749 32.9907C9.87174 32.2771 10.2455 31.6302 10.8155 31.1899C11.0637 30.9489 11.335 30.7329 11.6255 30.5449C11.6255 30.5449 11.678 30.6199 11.753 30.7549C11.8571 30.9299 11.9522 31.1102 12.038 31.2949C12.3035 31.8532 12.4197 32.4708 12.3755 33.0874V33.0874Z" stroke="#782F40" stroke-linecap="round" stroke-linejoin="round"/>
<path d="M36.0454 33.0874C36.1289 33.7733 36.3702 34.4304 36.7504 35.0074C36.9371 35.3102 37.1544 35.5929 37.3991 35.8512C37.3991 35.8512 37.4891 35.7687 37.6241 35.6262C37.8105 35.4376 37.9753 35.2288 38.1154 35.0037C38.5487 34.4283 38.7378 33.7052 38.6417 32.9913C38.5455 32.2774 38.1718 31.6301 37.6016 31.1899C37.3454 30.9488 37.0666 30.7328 36.7691 30.5449C36.7217 30.6118 36.6791 30.682 36.6416 30.7549C36.5424 30.9296 36.4535 31.1099 36.3754 31.2949C36.1124 31.8539 35.9988 32.4715 36.0454 33.0874V33.0874Z" stroke="#782F40" stroke-linecap="round" stroke-linejoin="round"/>
<path d="M6.89094 32.2765C7.26299 32.4218 7.61466 32.6147 7.93719 32.8503C8.24469 33.0828 8.51469 33.3378 8.75844 33.5628C8.95267 33.7581 9.13667 33.9634 9.30969 34.1778C9.44844 34.3315 9.52719 34.429 9.52719 34.429C9.25961 34.6772 8.96235 34.8913 8.64219 35.0665C8.32516 35.2612 7.97263 35.3909 7.60505 35.4482C7.23747 35.5055 6.86217 35.4892 6.50094 35.4003C5.64219 35.1828 4.91844 34.4665 4.43094 33.8178C4.23241 33.5395 4.04963 33.2502 3.88344 32.9515C3.81818 32.8302 3.76056 32.705 3.71094 32.5765C4.02937 32.408 4.3685 32.2819 4.71969 32.2015C5.43573 32.0185 6.18923 32.0445 6.89094 32.2765V32.2765Z" stroke="#782F40" stroke-linecap="round" stroke-linejoin="round"/>
<path d="M41.5152 32.2764C41.1431 32.4217 40.7914 32.6146 40.4689 32.8502C40.1614 33.0827 39.8914 33.3377 39.6477 33.5627C39.4524 33.7571 39.2683 33.9624 39.0964 34.1777C38.9577 34.3314 38.8789 34.4289 38.8789 34.4289C39.1456 34.6766 39.4415 34.8907 39.7602 35.0664C40.0778 35.2614 40.4309 35.3913 40.7992 35.4486C41.1674 35.5059 41.5433 35.4894 41.9052 35.4002C42.7602 35.1827 43.4877 34.4664 43.9752 33.8177C44.174 33.5403 44.3556 33.2511 44.5189 32.9514C44.5861 32.8306 44.645 32.7053 44.6952 32.5764C44.3757 32.4074 44.0352 32.2813 43.6827 32.2014C42.9679 32.0185 42.2156 32.0445 41.5152 32.2764V32.2764Z" stroke="#782F40" stroke-linecap="round" stroke-linejoin="round"/>
<path d="M16.7818 36.2784C16.9649 36.9542 16.9829 37.6641 16.8343 38.3484C16.7699 38.6999 16.6707 39.0441 16.538 39.3759C16.1962 39.2401 15.8695 39.0691 15.563 38.8659C14.9621 38.4643 14.5215 37.8643 14.318 37.1709C14.1866 36.4756 14.2867 35.7563 14.603 35.1234C14.7486 34.7984 14.923 34.4871 15.1243 34.1934C15.3596 34.3587 15.5849 34.5378 15.7993 34.7296C16.2532 35.1539 16.5913 35.6869 16.7818 36.2784Z" stroke="#782F40" stroke-linecap="round" stroke-linejoin="round"/>
<path d="M31.6228 36.2784C31.4407 36.9545 31.424 37.6644 31.574 38.3484C31.6395 38.7 31.74 39.0442 31.874 39.3759C32.2148 39.2404 32.5403 39.0695 32.8453 38.8659C33.4473 38.4655 33.8883 37.8651 34.0903 37.1709C34.2248 36.476 34.1259 35.7562 33.809 35.1234C33.6631 34.7978 33.4874 34.4865 33.284 34.1934C33.0542 34.361 32.8338 34.5413 32.624 34.7334C32.1639 35.1545 31.8193 35.6864 31.6228 36.2784V36.2784Z" stroke="#782F40" stroke-linecap="round" stroke-linejoin="round"/>
<path d="M11.4144 37.7073C11.811 37.6928 12.2078 37.728 12.5956 37.8123C12.9427 37.9032 13.2845 38.0134 13.6194 38.1423C13.8774 38.2388 14.1281 38.3542 14.3694 38.4873L14.6581 38.6373C14.5041 38.9723 14.3116 39.2882 14.0844 39.5785C13.6415 40.188 12.9806 40.603 12.2394 40.7373C12.021 40.7703 11.7997 40.7791 11.5794 40.7635C11.3597 40.737 11.1427 40.6918 10.9306 40.6285C10.5151 40.5178 10.1174 40.3486 9.74938 40.126C9.46225 39.9496 9.18554 39.7568 8.92063 39.5485C8.81226 39.464 8.70837 39.3739 8.60938 39.2785C8.83863 38.9958 9.10331 38.7437 9.39688 38.5285C9.9773 38.068 10.6773 37.783 11.4144 37.7073Z" stroke="#782F40" stroke-linecap="round" stroke-linejoin="round"/>
<path d="M36.9937 37.7073C36.5972 37.6928 36.2003 37.728 35.8125 37.8123C35.4652 37.9027 35.1234 38.0128 34.7887 38.1423C34.5307 38.2388 34.28 38.3542 34.0387 38.4873L33.75 38.626C33.9045 38.9615 34.0984 39.2775 34.3275 39.5673C34.7695 40.1776 35.4308 40.5929 36.1725 40.726C36.3908 40.7592 36.6122 40.768 36.8325 40.7523C37.0522 40.7257 37.2692 40.6805 37.4812 40.6173C37.897 40.5053 38.2947 40.3349 38.6625 40.111C38.949 39.9337 39.2257 39.7409 39.4912 39.5335C39.5996 39.449 39.7035 39.3589 39.8025 39.2635C39.572 38.9819 39.3075 38.73 39.015 38.5135C38.4315 38.0583 37.7304 37.7786 36.9937 37.7073V37.7073Z" stroke="#782F40" stroke-linecap="round" stroke-linejoin="round"/>
<path d="M30.6883 42.4055C30.4033 42.488 30.1183 42.563 29.8333 42.6342C27.9133 43.1102 25.9426 43.3507 23.9645 43.3505H23.9008C20.9375 43.3556 17.9994 42.8062 15.2383 41.7305" stroke="#782F40" stroke-miterlimit="10" stroke-linecap="round"/>
<path d="M39.859 11.3896C39.9523 11.5477 40.0374 11.7104 40.114 11.8771C40.8335 13.2303 41.4116 14.6541 41.839 16.1259C42.1216 17.1102 42.337 18.1125 42.484 19.1259C42.6305 20.2602 42.7081 21.4023 42.7165 22.5459C42.7456 25.0328 42.3028 27.5027 41.4115 29.8246C40.5043 32.1092 39.1078 34.1674 37.3203 35.8547C34.0653 39.0347 29.2503 40.6847 24.3753 40.7259H24.0265C19.1515 40.6847 14.3403 39.0347 11.0815 35.8509C9.29353 34.156 7.89836 32.0901 6.99402 29.7984C6.10097 27.477 5.65808 25.0067 5.68902 22.5196C5.69554 21.3759 5.77319 20.2337 5.92152 19.0996C6.06486 18.0856 6.28041 17.083 6.56652 16.0996C7.07759 14.4705 7.7418 12.8935 8.55027 11.3896" stroke="#782F40" stroke-miterlimit="10" stroke-linecap="round"/>
<path d="M11.1407 10.0654C10.6941 10.6253 10.1137 11.0637 9.45317 11.3404H9.42692C9.30174 11.3968 9.16441 11.421 9.0275 11.4106C8.89058 11.4003 8.75845 11.3557 8.64318 11.2811C8.52791 11.2065 8.43319 11.1042 8.36767 10.9835C8.30216 10.8629 8.26795 10.7277 8.26817 10.5904V10.5641C8.2387 9.76412 8.46604 8.97567 8.91692 8.31414C9.40221 7.69234 10.0801 7.24918 10.8444 7.05414C11.2042 6.95181 11.5766 6.90006 11.9507 6.90039C11.9522 7.27682 11.9259 7.65285 11.8719 8.02539C11.8001 8.75528 11.5489 9.45609 11.1407 10.0654V10.0654Z" stroke="#782F40" stroke-linecap="round" stroke-linejoin="round"/>
<path d="M37.2702 10.0655C37.7184 10.6237 38.2982 11.0618 38.9577 11.3405H38.984C39.1091 11.3969 39.2465 11.421 39.3834 11.4107C39.5203 11.4003 39.6524 11.3558 39.7677 11.2812C39.883 11.2066 39.9777 11.1043 40.0432 10.9836C40.1087 10.8629 40.1429 10.7278 40.1427 10.5905V10.5642C40.1722 9.76418 39.9448 8.97573 39.494 8.3142C39.0087 7.6924 38.3307 7.24924 37.5665 7.0542C37.2006 6.95013 36.8218 6.89837 36.4415 6.90045C36.4401 7.27701 36.4677 7.65311 36.524 8.02545C36.6001 8.75671 36.8565 9.45766 37.2702 10.0655V10.0655Z" stroke="#782F40" stroke-linecap="round" stroke-linejoin="round"/>
<path d="M24.0195 7.72559V6.22559" stroke="#782F40" stroke-linecap="round" stroke-linejoin="round"/>
<path d="M18.7455 9.52582L17.8867 7.96582" stroke="#782F40" stroke-linecap="round" stroke-linejoin="round"/>
<path d="M14.9847 13.4898L13.4922 12.6836" stroke="#782F40" stroke-linecap="round" stroke-linejoin="round"/>
<path d="M33.7773 12.6008L35.0561 11.9258" stroke="#782F40" stroke-linecap="round" stroke-linejoin="round"/>
<path d="M29.6133 8.83984L30.3408 7.52734" stroke="#782F40" stroke-linecap="round" stroke-linejoin="round"/>
<path d="M19.6651 30.0698L19.6646 30.0693C19.3704 29.8282 19.2213 29.441 19.1413 28.9734C19.0612 28.5051 19.0487 27.9457 19.0363 27.3511L19.0363 27.3509C19.0238 26.6166 18.9986 25.8554 18.8519 25.3796C18.6789 24.8501 18.3571 24.1835 18.0083 23.4755C17.4733 22.3966 16.8763 21.1787 16.5729 19.9564C16.2694 18.7335 16.258 17.4995 16.9017 16.3921C17.0404 16.1437 17.3574 16.0626 17.6042 16.1993C17.8536 16.3374 17.9353 16.6539 17.798 16.9003L17.7975 16.901L17.7975 16.901C17.2969 17.7652 17.3371 18.801 17.6267 19.8739C17.9142 20.939 18.4447 22.0311 18.9218 23.0132L18.9321 23.0343L18.9321 23.0344C18.9659 23.104 18.9996 23.1733 19.033 23.2421C19.3565 23.9073 19.6605 24.5324 19.831 25.0762C20.0329 25.6928 20.0575 26.5322 20.07 27.3368C20.0762 27.697 20.0855 28.1449 20.1226 28.5257C20.1412 28.7163 20.1666 28.8882 20.2014 29.0232C20.2188 29.0907 20.2383 29.1476 20.2598 29.1925C20.2764 29.2272 20.2933 29.2526 20.3097 29.2701C20.7002 29.2029 21.0187 28.8936 21.2959 28.4617C21.5778 28.0224 21.8096 27.4683 22.0279 26.9461L22.0386 26.9204C22.2831 26.3353 22.5223 25.763 22.822 25.3358C23.1271 24.9009 23.5013 24.6071 24.016 24.6071C24.5306 24.6071 24.9079 24.9007 25.2146 25.3357C25.5204 25.7693 25.7621 26.352 26.0043 26.9464C26.0043 26.9464 26.0043 26.9465 26.0043 26.9465L26.0164 26.9753C26.231 27.4889 26.4563 28.0279 26.7211 28.4578C26.9873 28.8901 27.2857 29.1988 27.6407 29.2704C27.7026 29.2261 27.757 29.1379 27.8023 29.008C27.8504 28.8699 27.8849 28.6942 27.9096 28.4995C27.959 28.1102 27.9683 27.6537 27.9745 27.2872L27.9746 27.2864C27.9763 27.2312 27.978 27.1758 27.9797 27.1202C28.002 26.3918 28.025 25.6375 28.2009 25.0765C28.389 24.4764 28.727 23.7779 29.0876 23.0465L29.0878 23.0462C29.3864 22.4509 29.6844 21.8318 29.9451 21.1883L29.9454 21.1876C30.0553 20.9273 30.3455 20.8025 30.6083 20.9128C30.8692 21.0223 30.9947 21.3115 30.8841 21.5738C30.8841 21.5738 30.8841 21.5739 30.884 21.574L30.838 21.5546C30.5927 22.1546 30.3176 22.7248 30.0482 23.283C30.0167 23.3482 29.9853 23.4132 29.9541 23.4781L19.6651 30.0698ZM19.6651 30.0698C19.7959 30.1741 20.0058 30.2916 20.3063 30.2916H20.3077C20.3692 30.2916 20.4473 30.2916 20.5261 30.2786L20.5266 30.2785M19.6651 30.0698L20.5266 30.2785M25.0529 27.3321C25.3139 27.9639 25.5959 28.6453 25.9712 29.1948C26.347 29.745 26.821 30.1699 27.4685 30.2785L27.4691 30.2786C27.8839 30.3432 28.1713 30.2007 28.3413 30.0703L28.3413 30.0704L28.3421 30.0697C28.6429 29.8285 28.7952 29.438 28.8768 28.9641C28.9584 28.4897 28.9709 27.9211 28.9833 27.3142L25.0529 27.3319C25.0529 27.332 25.0529 27.332 25.0529 27.3321ZM25.0529 27.3321C25.0458 27.3152 25.0386 27.2982 25.0315 27.2811M25.0529 27.3321L25.0315 27.2811M20.5266 30.2785C21.1798 30.1635 21.6568 29.7391 22.0343 29.1903C22.4113 28.6422 22.6933 27.9638 22.9543 27.3319L22.9081 27.3129L22.9542 27.3322C22.9613 27.3153 22.9685 27.2982 22.9757 27.2811C23.1322 26.9088 23.3039 26.5003 23.4809 26.1798C23.5736 26.012 23.6662 25.8711 23.7571 25.7726C23.8494 25.6727 23.9318 25.6254 24.0036 25.6254C24.0754 25.6254 24.1578 25.6727 24.2501 25.7726M20.5266 30.2785L24.2501 25.7726M24.2501 25.7726C24.341 25.8711 24.4336 26.012 24.5262 26.1798M24.2501 25.7726L24.5262 26.1798M24.5262 26.1798C24.7032 26.5003 24.875 26.9088 25.0315 27.2811M24.5262 26.1798L25.0315 27.2811M26.0943 16.0628L26.0941 16.0627C25.7535 15.8765 25.4219 15.6996 25.0911 15.5407C25.8165 15.3874 26.6171 15.3034 27.3634 15.3467C28.16 15.393 28.8889 15.584 29.4003 15.9845C30.0089 16.4687 30.3812 17.0269 30.5308 17.6997C30.6808 18.3738 30.6082 19.168 30.3171 20.125C30.2344 20.3868 30.3854 20.6735 30.6578 20.7574C30.7162 20.7855 30.7626 20.7855 30.8111 20.7855H30.8131C31.0233 20.7855 31.227 20.6335 31.308 20.418L31.3081 20.4181L31.3091 20.4149C31.6531 19.2737 31.7233 18.2715 31.5137 17.401C31.3038 16.5296 30.8146 15.7943 30.0474 15.1862L30.0473 15.1862C29.194 14.5119 28.0007 14.288 26.8099 14.3098C25.6255 14.3315 24.4356 14.5963 23.5672 14.9118C21.3278 14.1588 19.2978 14.1925 18.0486 15.1229C17.8136 15.2887 17.7729 15.6182 17.938 15.8382C18.1044 16.0726 18.4351 16.1129 18.6556 15.9481C19.306 15.4633 20.3418 15.316 21.569 15.4921C22.7941 15.6679 24.2011 16.1649 25.5846 16.9566L25.5852 16.9569C25.8322 17.0937 26.1494 17.0125 26.288 16.7638C26.4254 16.5174 26.3437 16.2009 26.0943 16.0628Z" fill="#782F40" stroke="#782F40" stroke-width="0.1"/>
</svg>
