<?xml version="1.0" encoding="utf-8"?>
<!-- Generator: Adobe Illustrator 24.3.0, SVG Export Plug-In . SVG Version: 6.00 Build 0)  -->
<svg version="1.1" id="Layer_1" xmlns="http://www.w3.org/2000/svg" xmlns:xlink="http://www.w3.org/1999/xlink" x="0px" y="0px"
	 viewBox="0 0 266 271" style="enable-background:new 0 0 266 271;" xml:space="preserve">
<style type="text/css">
	.st0{fill:#7A303F;}
</style>
<path class="st0" d="M3.6,111.9c1.1-0.8,2.7-0.6,3.4,0.6c0.8,1.1,0.5,2.7-0.6,3.5s-2.7,0.6-3.4-0.6C2.3,114.3,2.5,112.7,3.6,111.9z"
	/>
<path class="st0" d="M1.6,133.7c1-1,2.5-1,3.5,0s1,2.6,0,3.6s-2.5,1-3.5,0C0.7,136.2,0.7,134.6,1.6,133.7z"/>
<path class="st0" d="M3.1,155.4c0.8-1.1,2.3-1.4,3.4-0.6s1.4,2.4,0.6,3.5c-0.8,1.1-2.3,1.4-3.4,0.6C2.5,158.1,2.3,156.6,3.1,155.4z"
	/>
<path class="st0" d="M104.6,46.1c0,0-38,8.3-40.4,8.8L64.1,56l39.9-4.5L104.6,46.1z M93.2,71.7l0.6-5.4c0,0-17.2,5.8-18.8,6.4
	l-0.1,1.1L93.2,71.7z M99.2,56.2c0,0-27.6,7.1-29.6,7.6l-0.1,1.1l29.1-3.3L99.2,56.2z M146.5,231.5c-2.3-3-5.8-5.3-10.6-5.3h-29.7
	V103.6c0-8.5-6.8-15.1-16.1-15.1H48c-4.8,0-8.4,2.3-10.6,5.2c-1.3,2-2.9,4.9-2.9,9.5c0,4.6,1.6,7.5,2.9,9.5c2.2,3,5.8,5.2,10.6,5.2
	h29.3v108.3H48c-2.9,0-5.2,0.8-7.2,2.1c11,11.4,24.1,20.7,38.5,27.5h56.5c4.8,0,8.4-2.3,10.6-5.3c1.3-2,2.9-4.9,2.9-9.5
	C149.4,236.4,147.8,233.5,146.5,231.5z M106.2,32.6v-3.9c0-8.2-6.8-15.1-13.2-15.1H82.3c-6.7,2.9-13,6.4-19.1,10.3
	c-0.5,1.5-0.8,3.1-0.8,4.8v18l43.8-4.9V32.6z"/>
<path d="M68.7,152.6c-1.4,0-2.5,1.1-2.5,2.5s1.1,2.5,2.5,2.5c1.3,0,2.5-1.1,2.5-2.5C71.2,153.8,70.1,152.6,68.7,152.6z M66.3,124.5
	c1.7,0,3.1,0,4.4-0.1v2.6l-2.6,0.2v0.1c1.3,0.8,3,2.5,3,5.4c0,2.6-1.4,5.7-7.1,5.7h-9.4v-3h8.9c3.1,0,5.2-0.9,5.2-3.7
	c0-2-1.4-3.4-2.7-3.9c-0.4-0.2-1-0.3-1.5-0.3h-9.9v-3H66.3z M59.6,149.4c-1.9,0-3.5,0-5,0.1v-2.6l3.2-0.1v-0.1
	c-2.2-0.7-3.5-2.5-3.5-4.5c0-0.3,0-0.6,0.1-0.8h2.8c-0.1,0.3-0.1,0.6-0.1,1c0,2.1,1.6,3.6,3.8,4c0.4,0.1,0.9,0.1,1.4,0.1h8.6v3
	L59.6,149.4L59.6,149.4z M47,164.1v-3h23.6v3H47z M64.1,180.4c0.5,0,0.8-0.1,1.2-0.1c2-0.6,3.5-2.3,3.5-4.5c0-3.2-2.5-5-6.2-5
	c-3.2,0-6,1.7-6,4.9c0,2,1.4,3.9,3.6,4.5c0.4,0.1,0.8,0.2,1.2,0.2H64.1z M59.8,183.4c-2.1,0-3.7,0.1-5.3,0.1v-2.7l2.8-0.1v-0.1
	c-2-1.2-3.1-3.2-3.1-5.8c0-4,3.3-7,8.2-7c5.8,0,8.6,3.6,8.6,7.5c0,2.2-0.9,4.1-2.5,5.1v0.1h8.7v3L59.8,183.4L59.8,183.4z
	 M58.9,211.7c-1.7,0-3,0-4.4,0.1v-2.6l2.6-0.1V209c-1.5-0.9-3-2.5-3-5.2c0-2.2,1.3-4,3.2-4.7V199c-0.9-0.5-1.6-1.2-2.1-1.8
	c-0.8-1-1.1-2.1-1.1-3.7c0-2.2,1.4-5.4,7-5.4h9.5v2.9h-9.1c-3.1,0-5,1.1-5,3.6c0,1.7,1.2,3,2.7,3.5c0.4,0.1,0.9,0.2,1.5,0.2h9.9v2.9
	H61c-2.6,0-4.4,1.2-4.4,3.4c0,1.9,1.5,3.2,2.9,3.7c0.5,0.2,0.9,0.2,1.4,0.2h9.7v2.9H58.9V211.7z M70.7,219.7H54.6v-3h16.1V219.7z
	 M49.5,215.7c1.4,0,2.4,1,2.4,2.6c0,1.4-1.1,2.4-2.4,2.4c-1.4,0-2.5-1.1-2.5-2.5C47,216.7,48.1,215.7,49.5,215.7z"/>
<path class="st0" d="M131.4,4.9c-1-1-1-2.6,0-3.6c1-1,2.5-1,3.5,0c1,1,1,2.6,0,3.6C134,5.9,132.4,5.9,131.4,4.9z"/>
<path class="st0" d="M113.6,2.8c1.1,0.8,1.4,2.4,0.6,3.5c-0.8,1.1-2.3,1.4-3.4,0.6s-1.4-2.4-0.6-3.5C110.9,2.3,112.5,2,113.6,2.8z"
	/>
<path class="st0" d="M93.3,7.6c1.2,0.6,1.7,2.1,1.1,3.4c-0.6,1.2-2.1,1.7-3.3,1.1c-1.2-0.6-1.7-2.1-1.1-3.4C90.6,7.5,92,7,93.3,7.6z
	"/>
<path class="st0" d="M74.3,15.5c1.3,0.4,2,1.8,1.6,3.1c-0.4,1.3-1.8,2.1-3.1,1.6c-1.3-0.4-2-1.8-1.6-3.2
	C71.6,15.8,73,15.1,74.3,15.5z"/>
<path class="st0" d="M56.9,26.2c1.4,0.2,2.3,1.5,2.1,2.9c-0.2,1.4-1.5,2.3-2.8,2.1c-1.3-0.2-2.3-1.5-2.1-2.9
	C54.3,26.9,55.6,25.9,56.9,26.2z"/>
<path class="st0" d="M41.4,39.3c1.4,0,2.5,1.1,2.5,2.5c0,1.4-1.1,2.5-2.5,2.5c-1.4,0-2.5-1.1-2.5-2.5C38.9,40.5,40.1,39.3,41.4,39.3
	z"/>
<path class="st0" d="M28,54.8c1.3-0.2,2.6,0.7,2.8,2.1c0.2,1.4-0.7,2.6-2.1,2.9c-1.3,0.2-2.6-0.7-2.8-2.1C25.8,56.3,26.7,55,28,54.8
	z"/>
<path class="st0" d="M17.1,72.2c1.3-0.4,2.7,0.3,3.1,1.6c0.4,1.3-0.3,2.7-1.6,3.1c-1.3,0.4-2.7-0.3-3.1-1.6
	C15.1,74.1,15.8,72.6,17.1,72.2z"/>
<path class="st0" d="M8.9,91.4c1.2-0.6,2.7-0.1,3.3,1.1c0.6,1.2,0.1,2.7-1.1,3.4c-1.2,0.6-2.7,0.1-3.3-1.1C7.2,93.5,7.7,92,8.9,91.4
	z"/>
<path class="st0" d="M7.8,176.1c0.6-1.2,2.1-1.8,3.3-1.1c1.2,0.6,1.7,2.1,1.1,3.4c-0.6,1.2-2.1,1.7-3.3,1.1S7.2,177.4,7.8,176.1z"/>
<path class="st0" d="M15.5,195.5c0.4-1.3,1.8-2.1,3.1-1.6c1.3,0.4,2,1.8,1.6,3.2c-0.4,1.3-1.8,2.1-3.1,1.6
	C15.8,198.2,15.1,196.8,15.5,195.5z"/>
<path class="st0" d="M26,213.2c0.2-1.4,1.5-2.3,2.8-2.1c1.3,0.2,2.3,1.5,2.1,2.9c-0.2,1.4-1.5,2.3-2.8,2.1
	C26.7,215.8,25.8,214.6,26,213.2z"/>
<path class="st0" d="M38.9,229c0-1.4,1.1-2.5,2.5-2.5c1.4,0,2.5,1.1,2.5,2.5s-1.1,2.5-2.4,2.5C40.1,231.5,38.9,230.4,38.9,229z"/>
<path class="st0" d="M54.1,242.6c-0.2-1.4,0.7-2.7,2.1-2.9c1.3-0.2,2.6,0.7,2.8,2.1c0.2,1.4-0.7,2.7-2.1,2.9
	C55.6,244.9,54.3,244,54.1,242.6z"/>
<path class="st0" d="M71.2,253.7c-0.4-1.3,0.3-2.7,1.6-3.2c1.3-0.4,2.7,0.3,3.1,1.6s-0.3,2.7-1.6,3.2
	C73,255.8,71.6,255.1,71.2,253.7z"/>
<path class="st0" d="M90,262.1c-0.6-1.2-0.1-2.7,1.1-3.4c1.2-0.6,2.7-0.1,3.3,1.1c0.6,1.2,0.1,2.8-1.1,3.4
	C92,263.9,90.6,263.4,90,262.1z"/>
<path class="st0" d="M110.1,267.5c-0.8-1.1-0.5-2.7,0.6-3.5c1.1-0.8,2.7-0.6,3.4,0.6c0.8,1.1,0.5,2.7-0.6,3.5
	C112.5,268.9,110.9,268.6,110.1,267.5z"/>
<path class="st0" d="M131.4,269.5c-1-1-1-2.6,0-3.5c1-1,2.5-1,3.5,0s1,2.6,0,3.5C134,270.5,132.4,270.5,131.4,269.5z"/>
<path class="st0" d="M152.8,268.1c-1.1-0.8-1.4-2.4-0.6-3.5c0.8-1.1,2.3-1.4,3.4-0.6c1.1,0.8,1.4,2.4,0.6,3.5
	C155.4,268.6,153.9,268.9,152.8,268.1z"/>
<path class="st0" d="M173.1,263.2c-1.2-0.6-1.7-2.1-1.1-3.4c0.6-1.2,2.1-1.7,3.3-1.1c1.2,0.6,1.7,2.1,1.1,3.4
	C175.8,263.4,174.3,263.9,173.1,263.2z"/>
<path class="st0" d="M192.1,255.4c-1.3-0.4-2-1.8-1.6-3.1c0.4-1.3,1.8-2.1,3.1-1.6c1.3,0.4,2,1.8,1.6,3.2
	C194.8,255.1,193.4,255.8,192.1,255.4z"/>
<path class="st0" d="M209.5,244.7c-1.3-0.2-2.3-1.5-2.1-2.9c0.2-1.4,1.5-2.3,2.8-2.1c1.4,0.2,2.3,1.5,2.1,2.9
	C212.1,244,210.8,244.9,209.5,244.7z"/>
<path class="st0" d="M225,231.5c-1.4,0-2.5-1.1-2.5-2.5s1.1-2.5,2.5-2.5c1.4,0,2.5,1.1,2.5,2.5C227.4,230.4,226.3,231.5,225,231.5z"
	/>
<path class="st0" d="M238.3,216.1c-1.4,0.2-2.6-0.7-2.8-2.1c-0.2-1.4,0.7-2.7,2-2.9c1.4-0.2,2.6,0.7,2.8,2.1
	C240.6,214.6,239.7,215.8,238.3,216.1z"/>
<path class="st0" d="M249.3,198.6c-1.3,0.4-2.7-0.3-3.1-1.6c-0.4-1.3,0.3-2.7,1.6-3.2c1.3-0.4,2.7,0.3,3.1,1.6
	C251.3,196.8,250.5,198.2,249.3,198.6z"/>
<path class="st0" d="M257.5,179.5c-1.2,0.6-2.7,0.1-3.3-1.1c-0.6-1.2-0.1-2.8,1.1-3.4c1.2-0.6,2.7-0.1,3.3,1.1
	C259.2,177.4,258.7,178.9,257.5,179.5z"/>
<path class="st0" d="M262.7,158.9c-1.1,0.8-2.7,0.6-3.5-0.6c-0.8-1.1-0.5-2.7,0.6-3.5s2.7-0.6,3.4,0.6
	C264.1,156.6,263.8,158.1,262.7,158.9z"/>
<path class="st0" d="M264.7,137.2c-1,1-2.5,1-3.5,0s-1-2.6,0-3.6s2.5-1,3.5,0S265.7,136.2,264.7,137.2z"/>
<path class="st0" d="M263.3,115.4c-0.8,1.1-2.3,1.4-3.4,0.6s-1.4-2.4-0.6-3.5c0.8-1.1,2.3-1.4,3.5-0.6
	C263.8,112.7,264.1,114.3,263.3,115.4z"/>
<path class="st0" d="M258.6,94.7c-0.6,1.2-2.1,1.7-3.3,1.1c-1.2-0.6-1.7-2.1-1.1-3.4c0.6-1.2,2.1-1.7,3.3-1.1
	C258.7,92,259.2,93.5,258.6,94.7z"/>
<path class="st0" d="M250.9,75.4c-0.4,1.3-1.8,2-3.1,1.6s-2-1.8-1.6-3.2c0.4-1.3,1.8-2.1,3.1-1.6C250.5,72.6,251.3,74.1,250.9,75.4z
	"/>
<path class="st0" d="M240.4,57.7c-0.2,1.4-1.5,2.3-2.8,2.1c-1.3-0.2-2.3-1.5-2-2.9c0.2-1.4,1.5-2.3,2.8-2.1
	C239.7,55,240.6,56.3,240.4,57.7z"/>
<path class="st0" d="M227.4,41.9c0,1.4-1.1,2.5-2.5,2.5s-2.5-1.1-2.5-2.5c0-1.4,1.1-2.5,2.5-2.5C226.3,39.3,227.4,40.5,227.4,41.9z"
	/>
<path class="st0" d="M212.3,28.2c0.2,1.4-0.7,2.7-2.1,2.9c-1.4,0.2-2.6-0.7-2.8-2.1s0.7-2.6,2-2.9C210.8,25.9,212.1,26.9,212.3,28.2
	z"/>
<path class="st0" d="M195.2,17.1c0.4,1.3-0.3,2.7-1.6,3.2c-1.3,0.4-2.7-0.3-3.1-1.6c-0.4-1.3,0.3-2.7,1.6-3.2
	C193.4,15.1,194.8,15.8,195.2,17.1z"/>
<path class="st0" d="M176.4,8.7c0.6,1.2,0.1,2.8-1.1,3.4c-1.2,0.6-2.7,0.1-3.3-1.1c-0.6-1.2-0.1-2.8,1.1-3.4S175.8,7.5,176.4,8.7z"
	/>
<path class="st0" d="M156.2,3.4c0.8,1.1,0.6,2.7-0.5,3.5c-1.1,0.8-2.6,0.6-3.4-0.6c-0.8-1.1-0.6-2.7,0.6-3.5
	C153.9,2,155.4,2.2,156.2,3.4z"/>
<path class="st0" d="M252.5,75.9c-0.7,2.3-3.1,3.5-5.3,2.8c-2.2-0.7-3.4-3.1-2.7-5.4s3.1-3.5,5.3-2.8
	C252,71.2,253.2,73.7,252.5,75.9z"/>
<path class="st0" d="M242.1,57.9c-0.3,2.3-2.5,4-4.8,3.6c-2.3-0.4-3.9-2.5-3.5-4.9c0.4-2.3,2.5-3.9,4.8-3.6
	C240.9,53.4,242.5,55.6,242.1,57.9z"/>
<path class="st0" d="M229.2,41.9c0,2.4-1.9,4.3-4.2,4.3c-2.3,0-4.2-1.9-4.2-4.3c0-2.4,1.9-4.3,4.2-4.3
	C227.3,37.6,229.2,39.5,229.2,41.9z"/>
<path class="st0" d="M214,28c0.4,2.3-1.2,4.5-3.5,4.9c-2.3,0.4-4.4-1.3-4.8-3.6c-0.3-2.4,1.2-4.5,3.5-4.9
	C211.5,24,213.7,25.6,214,28z"/>
<path class="st0" d="M196.9,16.6c0.7,2.3-0.5,4.7-2.7,5.4c-2.2,0.7-4.6-0.5-5.3-2.8s0.5-4.7,2.7-5.4S196.2,14.3,196.9,16.6z"/>
<path class="st0" d="M178,7.9c1,2.1,0.2,4.7-1.9,5.7c-2.1,1.1-4.6,0.2-5.6-1.9c-1-2.1-0.2-4.7,1.9-5.8C174.4,5,176.9,5.8,178,7.9z"
	/>
<path class="st0" d="M157.7,2.3c1.4,1.9,0.9,4.6-1,6c-1.9,1.4-4.5,0.9-5.9-1c-1.4-1.9-0.9-4.6,0.9-6C153.7,0,156.3,0.4,157.7,2.3z"
	/>
<path d="M161.7,116.9V127h7.2l0.1,2.6h1.7l0.1-4.3l-1-0.1v-8.3h-2.3v8.2h-3.5v-8.2H161.7z"/>
<path d="M178.4,124.1c0-0.2,0.1-0.5,0.1-0.9c0-1.8-0.9-3.7-3.3-3.7c-2.5,0-3.7,2.1-3.7,3.9c0,2.3,1.4,3.7,3.9,3.7
	c1,0,1.9-0.2,2.7-0.5l-0.3-1.5c-0.6,0.2-1.2,0.3-2,0.3c-1.1,0-2-0.5-2.1-1.4H178.4z M173.7,122.5c0.1-0.6,0.4-1.5,1.4-1.5
	c1.1,0,1.3,0.9,1.3,1.5H173.7z"/>
<path d="M179.8,119.7v7.3h2.3v-2.9h2.3v2.9h2.3v-7.3h-2.3v2.7h-2.3v-2.7H179.8z"/>
<path d="M187.7,119.7v1.8h2.1v5.6h2.3v-5.6h2.1v-1.8H187.7z"/>
<path d="M195.3,130h2.3v-3.6h0c0.3,0.5,1,0.8,1.9,0.8c1.6,0,3.3-1.3,3.3-3.9c0-2.3-1.4-3.7-3-3.7c-1.1,0-1.9,0.4-2.4,1.2h0l-0.1-1
	h-2c0,0.7,0.1,1.5,0.1,2.5V130z M197.6,122.8c0-0.1,0-0.3,0-0.4c0.1-0.7,0.7-1.2,1.4-1.2c1,0,1.5,0.9,1.5,2.1c0,1.2-0.6,2.1-1.6,2.1
	c-0.7,0-1.2-0.5-1.3-1.1c0-0.2,0-0.3,0-0.5V122.8z"/>
<path d="M121,141.9c-0.5,0.2-1.2,0.3-1.9,0.3c-2,0-3.2-1.3-3.2-3.3c0-2.2,1.4-3.3,3.2-3.3c0.8,0,1.5,0.2,1.9,0.4l0.5-1.8
	c-0.4-0.2-1.3-0.4-2.5-0.4c-3.1,0-5.5,1.9-5.5,5.4c0,2.9,1.8,5.1,5.3,5.1c1.2,0,2.2-0.2,2.6-0.4L121,141.9z"/>
<path d="M121.7,136.7v1.8h2.1v5.6h2.3v-5.6h2.1v-1.8H121.7z"/>
<path d="M132.7,136.5c-2.4,0-3.9,1.5-3.9,3.9c0,2.4,1.7,3.8,3.8,3.8c2,0,3.9-1.2,3.9-3.9C136.4,138,134.9,136.5,132.7,136.5z
	 M132.6,138.1c1,0,1.5,1.1,1.5,2.2c0,1.3-0.6,2.2-1.5,2.2c-1,0-1.5-0.9-1.5-2.2C131.1,139.2,131.5,138.1,132.6,138.1z"/>
<path d="M137.5,144h2l0.1-2.9c0-0.6,0-1.6,0.1-2.6h0.1c0.2,0.7,0.4,1.7,0.6,2.4l0.9,2.9h1.7l1-3c0.4-1.2,0.4-1.4,0.7-2.4h0
	c0,0.9,0.1,1.9,0.1,2.6l0.1,2.9h2.1l-0.4-7.3h-2.9l-0.8,2.6c-0.2,0.7-0.4,1.5-0.6,2h0c-0.2-0.7-0.4-1.4-0.5-1.8l-0.8-2.8H138
	L137.5,144z"/>
<path d="M154.6,139.7c0-1.7-0.8-3.2-3.2-3.2c-1.3,0-2.3,0.4-2.9,0.7l0.4,1.5c0.5-0.3,1.3-0.6,2-0.6c1.1,0,1.3,0.6,1.3,1v0.1
	c-2.6,0-4.3,0.9-4.3,2.8c0,1.2,0.9,2.2,2.4,2.2c0.9,0,1.6-0.3,2.1-0.9h0l0.1,0.7h2.1c-0.1-0.4-0.1-1.1-0.1-1.8V139.7z M152.4,141.3
	c0,0.1,0,0.3,0,0.4c-0.1,0.5-0.6,0.8-1.2,0.8c-0.5,0-0.9-0.3-0.9-0.9c0-0.9,0.9-1.2,2.1-1.2V141.3z"/>
<path d="M155.5,136.7v1.8h2.1v5.6h2.3v-5.6h2.1v-1.8H155.5z"/>
<path d="M166.5,136.5c-2.4,0-3.9,1.5-3.9,3.9c0,2.4,1.7,3.8,3.8,3.8c2,0,3.9-1.2,3.9-3.9C170.2,138,168.7,136.5,166.5,136.5z
	 M166.4,138.1c1,0,1.5,1.1,1.5,2.2c0,1.3-0.6,2.2-1.5,2.2c-1,0-1.5-0.9-1.5-2.2C164.9,139.2,165.3,138.1,166.4,138.1z"/>
<path d="M172,136.7v3c0,1.2-0.1,1.9-0.5,2.4c-0.2,0.2-0.5,0.3-0.8,0.4l0.3,1.8c1,0,1.7-0.2,2.1-0.7c0.8-0.7,1-1.9,1-3.7v-1.4h1.6
	v5.6h2.3v-7.3H172z"/>
<path d="M183.3,136.5c-2.4,0-3.9,1.5-3.9,3.9c0,2.4,1.6,3.8,3.8,3.8c2,0,3.9-1.2,3.9-3.9C187,138,185.5,136.5,183.3,136.5z
	 M183.2,138.1c1,0,1.5,1.1,1.5,2.2c0,1.3-0.6,2.2-1.5,2.2c-1,0-1.5-0.9-1.5-2.2C181.7,139.2,182.2,138.1,183.2,138.1z"/>
<path d="M188.4,136.7v7.3h2.3v-5.6h2.8v-1.8H188.4z"/>
<path d="M194.6,136.7v7.3h2.8c0.5-1.1,1.1-2.4,1.5-3.4c0.3-0.7,0.5-1.2,0.8-2h0.1c-0.1,1.5-0.1,2-0.1,3.2v2.2h2.2v-7.3H199l-1.4,3.2
	c-0.3,0.7-0.5,1.3-0.8,2.1l-0.1,0c0.1-1,0.1-1.8,0.1-3v-2.2H194.6z"/>
<path d="M203.4,136.7v2.5c0,1.7,0.9,2.6,2.5,2.6c0.7,0,1.4-0.2,1.8-0.5h0v2.8h2.3v-7.4h-2.3v3.2c-0.2,0.2-0.6,0.3-1,0.3
	c-0.8,0-1.1-0.4-1.1-1.2v-2.3H203.4z"/>
<path d="M218.3,141.1c0-0.2,0.1-0.5,0.1-0.9c0-1.8-0.9-3.7-3.3-3.7c-2.6,0-3.7,2.1-3.7,3.9c0,2.3,1.4,3.7,3.9,3.7
	c1,0,1.9-0.1,2.7-0.5l-0.3-1.5c-0.6,0.2-1.2,0.3-2,0.3c-1.1,0-2-0.4-2.1-1.4H218.3z M213.6,139.5c0.1-0.6,0.4-1.5,1.4-1.5
	c1,0,1.3,0.9,1.3,1.5H213.6z"/>
<path d="M225,142.1c-0.3,0.1-0.8,0.2-1.3,0.2c-1.1,0-2-0.7-2-2.1c0-1.2,0.8-2.1,2-2.1c0.6,0,1,0.1,1.3,0.2l0.4-1.7
	c-0.5-0.2-1.1-0.3-1.7-0.3c-2.7,0-4.2,1.8-4.2,3.9c0,2.3,1.5,3.8,3.9,3.8c0.9,0,1.6-0.1,2-0.3L225,142.1z"/>
<path d="M226.5,136.7v7.3h2.3v-2.9h0.2c0.7,0,1.2,0.4,1.5,1.3c0.3,0.8,0.5,1.3,0.7,1.6h2.4c-0.4-0.7-0.6-1.6-0.9-2.2
	c-0.4-1.1-1-1.9-1.8-2l2.7-3.2h-2.7l-1.9,2.9h-0.2v-2.9H226.5z"/>
<path d="M237.9,136.5c-2.4,0-3.9,1.5-3.9,3.9c0,2.4,1.6,3.8,3.8,3.8c2,0,3.9-1.2,3.9-3.9C241.6,138,240.1,136.5,237.9,136.5z
	 M237.8,138.1c1,0,1.5,1.1,1.5,2.2c0,1.3-0.6,2.2-1.5,2.2c-1,0-1.5-0.9-1.5-2.2C236.3,139.2,236.7,138.1,237.8,138.1z"/>
<path d="M243,136.7v7.3h2.8c0.5-1.1,1.1-2.4,1.5-3.4c0.3-0.7,0.5-1.2,0.8-2h0.1c-0.1,1.5-0.1,2-0.1,3.2v2.2h2.2v-7.3h-2.8l-1.4,3.2
	c-0.3,0.7-0.5,1.3-0.8,2.1l-0.1,0c0.1-1,0.1-1.8,0.1-3v-2.2H243z M244.4,133.6c0.1,1.3,0.7,2.1,2.1,2.1c1.3,0,2.1-0.7,2.2-2.1h-1.4
	c0,0.6-0.3,1.1-0.7,1.1c-0.4,0-0.7-0.4-0.7-1.1H244.4z"/>
<path d="M127.6,150.9V161h2.6l2.1-3.6c0.6-1.1,1.3-2.4,1.7-3.6h0c-0.1,1.3-0.2,2.7-0.2,4.3v3h2.1v-10.1h-2.3l-2.2,4
	c-0.6,1.1-1.3,2.4-1.8,3.6h0c0.1-1.3,0.1-3,0.1-4.6v-3H127.6z"/>
<path d="M137.6,161h2l0.1-2.9c0-0.6,0-1.6,0.1-2.6h0.1c0.2,0.7,0.4,1.7,0.6,2.4l0.9,2.9h1.7l1-3c0.4-1.2,0.4-1.4,0.7-2.4h0
	c0,0.9,0.1,1.9,0.1,2.6l0.1,2.9h2.1l-0.5-7.3h-2.9l-0.8,2.6c-0.2,0.7-0.5,1.5-0.6,2h0c-0.1-0.7-0.4-1.4-0.5-1.8l-0.8-2.8h-2.9
	L137.6,161z"/>
<path d="M148.6,153.7v7.3h2.3v-5.6h2.2v5.6h2.3v-7.3H148.6z"/>
<path d="M157.7,153.7v3c0,1.2-0.1,1.9-0.5,2.4c-0.2,0.2-0.5,0.3-0.8,0.4l0.3,1.8c1,0,1.7-0.2,2.1-0.7c0.8-0.7,1-1.9,1-3.7v-1.4h1.6
	v5.6h2.3v-7.3H157.7z"/>
<path d="M171.6,156.7c0-1.7-0.8-3.2-3.2-3.2c-1.3,0-2.3,0.4-2.8,0.7l0.4,1.5c0.5-0.3,1.3-0.6,2-0.6c1.1,0,1.3,0.6,1.3,1v0.1
	c-2.6,0-4.3,0.9-4.3,2.8c0,1.2,0.9,2.2,2.4,2.2c0.9,0,1.6-0.3,2.1-0.9h0l0.1,0.7h2.1c-0.1-0.4-0.1-1.1-0.1-1.8V156.7z M169.4,158.3
	c0,0.1,0,0.3,0,0.4c-0.1,0.5-0.6,0.8-1.2,0.8c-0.5,0-0.9-0.3-0.9-0.9c0-0.9,0.9-1.2,2.1-1.2V158.3z"/>
<path d="M173.4,153.7v7.3h2.3v-2.9h2.3v2.9h2.3v-7.3H178v2.7h-2.3v-2.7H173.4z"/>
<path d="M181.3,153.7v1.8h2.1v5.6h2.3v-5.6h2.1v-1.8H181.3z"/>
<path d="M192.3,153.5c-2.4,0-3.9,1.5-3.9,3.9c0,2.4,1.6,3.8,3.8,3.8c2,0,3.9-1.2,3.9-3.9C196,155,194.5,153.5,192.3,153.5z
	 M192.2,155.1c1,0,1.5,1.1,1.5,2.2c0,1.3-0.6,2.2-1.5,2.2c-1,0-1.5-0.9-1.5-2.2C190.7,156.2,191.1,155.1,192.2,155.1z"/>
<path d="M197.8,153.7v3c0,1.2-0.1,1.9-0.5,2.4c-0.2,0.2-0.5,0.3-0.8,0.4l0.3,1.8c1,0,1.7-0.2,2.1-0.7c0.8-0.7,1-1.9,1-3.7v-1.4h1.6
	v5.6h2.3v-7.3H197.8z"/>
<path d="M209.1,153.5c-2.4,0-3.9,1.5-3.9,3.9c0,2.4,1.7,3.8,3.8,3.8c2,0,3.9-1.2,3.9-3.9C212.8,155,211.3,153.5,209.1,153.5z
	 M209,155.1c1,0,1.5,1.1,1.5,2.2c0,1.3-0.6,2.2-1.5,2.2c-1,0-1.5-0.9-1.5-2.2C207.5,156.2,208,155.1,209,155.1z"/>
<path d="M214.2,153.7v7.3h2.3v-5.6h2.8v-1.8H214.2z"/>
<path d="M220.4,153.7v7.3h2.8c0.5-1.1,1.1-2.4,1.5-3.4c0.3-0.7,0.5-1.2,0.8-2h0.1c-0.1,1.5-0.1,2-0.1,3.2v2.2h2.2v-7.3h-2.8
	l-1.4,3.2c-0.3,0.7-0.5,1.3-0.8,2.1l-0.1,0c0.1-1,0.1-1.8,0.1-3v-2.2H220.4z"/>
<path d="M229.4,153.7v7.3h2.8c0.5-1.1,1.1-2.4,1.5-3.4c0.3-0.7,0.5-1.2,0.8-2h0.1c-0.1,1.5-0.1,2-0.1,3.2v2.2h2.2v-7.3h-2.8
	l-1.4,3.2c-0.3,0.7-0.5,1.3-0.8,2.1l-0.1,0c0.1-1,0.1-1.8,0.1-3v-2.2H229.4z"/>
</svg>
