<svg width="40" height="40" viewBox="0 0 40 40" fill="none" xmlns="http://www.w3.org/2000/svg">
<path d="M23.8317 16.0107V17.4938H24.4656V16.0107H24.8785V17.5087L25.0554 17.5235L25.0406 18.2947H24.731L24.7163 17.8349H23.4336V16.0107H23.8317Z" fill="#727581"/>
<path d="M25.5708 17.3012C25.5856 17.4644 25.7477 17.5534 25.9394 17.5534C26.0721 17.5534 26.19 17.5385 26.308 17.494L26.367 17.7758C26.2343 17.8351 26.0721 17.85 25.8952 17.85C25.4529 17.85 25.1875 17.5979 25.1875 17.1826C25.1875 16.8415 25.3939 16.4707 25.851 16.4707C26.2785 16.4707 26.4407 16.797 26.4407 17.1233C26.4407 17.1974 26.4259 17.2567 26.4259 17.2864H25.5708V17.3012ZM26.0426 17.0194C26.0426 16.9156 25.9984 16.7525 25.8067 16.7525C25.6298 16.7525 25.5708 16.9156 25.5561 17.0194H26.0426Z" fill="#727581"/>
<path d="M27.073 16.5V16.9746H27.4858V16.5H27.8986V17.8199H27.4858V17.3009H27.073V17.8199H26.6602V16.5H27.073Z" fill="#727581"/>
<path d="M29.2576 16.5V16.8114H28.8743V17.8199H28.4615V16.8114H28.0781V16.5H29.2576Z" fill="#727581"/>
<path d="M29.4327 16.9453C29.4327 16.7673 29.4327 16.619 29.418 16.5004H29.7718L29.7866 16.6783C29.8898 16.5449 30.0372 16.4707 30.2289 16.4707C30.509 16.4707 30.7744 16.7228 30.7744 17.1381C30.7744 17.6127 30.4648 17.85 30.1846 17.85C30.0224 17.85 29.9045 17.7907 29.8455 17.7017V18.3542H29.4327V16.9453ZM29.8455 17.2567C29.8455 17.2864 29.8455 17.3161 29.8603 17.3457C29.8898 17.4495 29.9782 17.5385 30.0962 17.5385C30.2731 17.5385 30.3763 17.3902 30.3763 17.1678C30.3763 16.9601 30.2878 16.797 30.0962 16.797C29.9782 16.797 29.875 16.886 29.8455 17.0046C29.8455 17.0194 29.8308 17.0491 29.8308 17.0788V17.2567H29.8455Z" fill="#727581"/>
<path d="M18.877 19.9851H19.6584C19.6289 19.7478 19.4668 19.555 19.1571 19.555C19.0097 19.555 18.877 19.5995 18.7886 19.6291L18.7148 19.3177C18.818 19.2732 18.995 19.2139 19.2014 19.2139C19.8353 19.2139 20.1155 19.644 20.1155 20.163C20.1155 20.7711 19.7027 21.0974 19.1719 21.0974C18.9802 21.0974 18.8033 21.0529 18.7148 21.0084L18.7886 20.697C18.877 20.7414 19.0245 20.7563 19.1571 20.7563C19.4668 20.7563 19.6584 20.5635 19.6879 20.2965H18.9213V19.9851H18.877Z" fill="#727581"/>
<path d="M21.3272 21.0387C21.2534 21.0684 21.1207 21.098 20.9586 21.098C20.531 21.098 20.2656 20.8459 20.2656 20.4158C20.2656 20.0302 20.531 19.7188 21.0175 19.7188C21.1207 19.7188 21.2387 19.7336 21.3272 19.7632L21.2682 20.0747C21.224 20.0599 21.1502 20.0302 21.047 20.0302C20.8259 20.0302 20.6932 20.1785 20.6932 20.401C20.6932 20.6383 20.8554 20.7717 21.047 20.7717C21.1502 20.7717 21.224 20.7569 21.2829 20.7273L21.3272 21.0387Z" fill="#727581"/>
<path d="M22.6365 19.748V20.0595H22.2532V21.068H21.8404V20.0595H21.457V19.748H22.6365Z" fill="#727581"/>
<path d="M23.1099 20.5346C23.1246 20.6978 23.2868 20.7868 23.4785 20.7868C23.6112 20.7868 23.7291 20.7719 23.8471 20.7274L23.906 21.0092C23.7733 21.0685 23.6112 21.0834 23.4342 21.0834C22.9919 21.0834 22.7266 20.8312 22.7266 20.416C22.7266 20.0749 22.933 19.7041 23.39 19.7041C23.8176 19.7041 23.9798 20.0304 23.9798 20.3567C23.9798 20.4308 23.965 20.4901 23.965 20.5198H23.1099V20.5346ZM23.5817 20.2528C23.5817 20.149 23.5375 19.9859 23.3458 19.9859C23.1689 19.9859 23.1099 20.149 23.0951 20.2528H23.5817Z" fill="#727581"/>
<path d="M25.2303 19.748V20.0595H24.8469V21.068H24.4341V20.0595H24.0508V19.748H25.2303Z" fill="#727581"/>
<path d="M25.7935 19.748V20.1485C25.7935 20.3561 25.7787 20.5044 25.7787 20.6824H25.7935C25.8525 20.5341 25.8967 20.4303 25.9409 20.3116L26.1916 19.748H26.6928V21.068H26.2948V20.6676C26.2948 20.4599 26.3095 20.3709 26.3242 20.0892H26.3095C26.2653 20.2375 26.221 20.3265 26.1768 20.4451C26.0884 20.6231 25.9999 20.8604 25.8967 21.068H25.4102V19.748H25.7935Z" fill="#727581"/>
<path d="M27.3824 19.748V20.1485C27.3824 20.2968 27.4414 20.3709 27.5741 20.3709C27.6478 20.3709 27.7068 20.3413 27.751 20.3116V19.748H28.1638V21.068H27.751V20.5786C27.6773 20.6231 27.5446 20.6676 27.4267 20.6676C27.1466 20.6676 26.9844 20.5044 26.9844 20.193V19.7629H27.3824V19.748Z" fill="#727581"/>
<path d="M28.8013 20.5346C28.816 20.6978 28.9782 20.7868 29.1699 20.7868C29.3026 20.7868 29.4205 20.7719 29.5385 20.7274L29.5974 21.0092C29.4648 21.0685 29.3026 21.0834 29.1257 21.0834C28.6833 21.0834 28.418 20.8312 28.418 20.416C28.418 20.0749 28.6244 19.7041 29.0814 19.7041C29.509 19.7041 29.6712 20.0304 29.6712 20.3567C29.6712 20.4308 29.6564 20.4901 29.6564 20.5198H28.8013V20.5346ZM29.2878 20.2528C29.2878 20.149 29.2436 19.9859 29.0519 19.9859C28.875 19.9859 28.816 20.149 28.8013 20.2528H29.2878Z" fill="#727581"/>
<path d="M30.8936 21.0387C30.8198 21.0684 30.6872 21.098 30.525 21.098C30.0974 21.098 29.832 20.8459 29.832 20.4158C29.832 20.0302 30.0974 19.7188 30.5839 19.7188C30.6871 19.7188 30.8051 19.7336 30.8936 19.7632L30.8346 20.0747C30.7904 20.0599 30.7166 20.0302 30.6134 20.0302C30.3923 20.0302 30.2596 20.1785 30.2596 20.401C30.2596 20.6383 30.4218 20.7717 30.6134 20.7717C30.7166 20.7717 30.7904 20.7569 30.8493 20.7273L30.8936 21.0387Z" fill="#727581"/>
<path d="M31.5291 19.7482V20.2821H31.5734L31.8977 19.7482H32.3695L31.883 20.3118C32.0451 20.3415 32.1336 20.4898 32.2073 20.6826C32.2515 20.7864 32.2958 20.9495 32.3695 21.0682H31.9419C31.9125 21.0089 31.8682 20.9199 31.824 20.7716C31.765 20.6233 31.6913 20.5343 31.5439 20.5343H31.4996V21.0533H31.1016V19.7334H31.5291V19.7482Z" fill="#727581"/>
<path d="M33.8126 20.3861C33.8126 20.8756 33.4735 21.098 33.1196 21.098C32.7363 21.098 32.4414 20.8459 32.4414 20.4158C32.4414 19.9857 32.7215 19.7188 33.1491 19.7188C33.5472 19.7187 33.8126 20.0005 33.8126 20.3861ZM32.869 20.401C32.869 20.6234 32.9574 20.8014 33.1344 20.8014C33.2965 20.8014 33.3997 20.6383 33.3997 20.401C33.3997 20.2082 33.326 20.0005 33.1344 20.0005C32.9427 20.0154 32.869 20.2082 32.869 20.401Z" fill="#727581"/>
<path d="M34.4458 19.748V20.1484C34.4458 20.356 34.4311 20.5043 34.4311 20.6823H34.4458C34.5048 20.534 34.549 20.4302 34.5933 20.3115L34.8439 19.748H35.3452V21.0679H34.9618V20.6675C34.9618 20.4599 34.9766 20.3709 34.9913 20.0891H34.9766C34.9324 20.2374 34.8881 20.3264 34.8439 20.445C34.7554 20.623 34.667 20.8603 34.5638 21.0679H34.0625V19.748H34.4458ZM34.5785 19.1992C34.5785 19.3179 34.6227 19.392 34.6965 19.392C34.7702 19.392 34.8144 19.3179 34.8292 19.1992H35.0798C35.065 19.4513 34.9176 19.5848 34.6817 19.5848C34.4311 19.5848 34.3131 19.4365 34.2984 19.1992H34.5785Z" fill="#727581"/>
<path d="M19.7327 24.2565C19.6589 24.3009 19.482 24.3306 19.2756 24.3306C18.6564 24.3306 18.332 23.945 18.332 23.4259C18.332 22.803 18.7743 22.4619 19.3198 22.4619C19.5262 22.4619 19.6884 22.5064 19.7621 22.5361L19.6737 22.8623C19.5852 22.8327 19.482 22.7882 19.3346 22.7882C19.0102 22.7882 18.7596 22.981 18.7596 23.3963C18.7596 23.767 18.9807 23.9895 19.3346 23.9895C19.4525 23.9895 19.6 23.9598 19.6737 23.9302L19.7327 24.2565Z" fill="#727581"/>
<path d="M20.9694 22.9814V23.2929H20.5861V24.3014H20.1733V23.2929H19.8047V22.9814H20.9694Z" fill="#727581"/>
<path d="M22.4297 23.6338C22.4297 24.1232 22.0906 24.3457 21.7368 24.3457C21.3535 24.3457 21.0586 24.0935 21.0586 23.6634C21.0586 23.2333 21.3387 22.9664 21.7663 22.9664C22.1643 22.9515 22.4297 23.2333 22.4297 23.6338ZM21.4714 23.6486C21.4714 23.8711 21.5599 24.049 21.7368 24.049C21.899 24.049 22.0022 23.8859 22.0022 23.6486C22.0022 23.4558 21.9285 23.2482 21.7368 23.2482C21.5451 23.2482 21.4714 23.4558 21.4714 23.6486Z" fill="#727581"/>
<path d="M22.7126 22.9814H23.2286L23.376 23.4857C23.3908 23.5599 23.435 23.6933 23.4645 23.812H23.4792C23.5087 23.723 23.5529 23.5747 23.5824 23.456L23.7299 22.9814H24.2459L24.3196 24.3014H23.9363L23.9215 23.7675C23.9215 23.6488 23.9068 23.456 23.9068 23.3077H23.8921C23.8478 23.4857 23.8331 23.5302 23.7594 23.7378L23.5824 24.2717H23.2876L23.1254 23.7527C23.0959 23.6192 23.0517 23.4412 23.0222 23.3226H23.0074C23.0074 23.4857 22.9927 23.6785 22.9927 23.7823L22.978 24.3014H22.6094L22.7126 22.9814Z" fill="#727581"/>
<path d="M25.3482 24.3016L25.3187 24.1681H25.304C25.2155 24.2719 25.0828 24.3312 24.9354 24.3312C24.67 24.3312 24.5078 24.1384 24.5078 23.9308C24.5078 23.5897 24.8174 23.4266 25.2745 23.4266V23.4117C25.2745 23.3376 25.2302 23.2486 25.0386 23.2486C24.9059 23.2486 24.7584 23.2931 24.67 23.3524L24.5963 23.0854C24.6847 23.0409 24.8617 22.9668 25.1123 22.9668C25.5546 22.9668 25.6873 23.2189 25.6873 23.5304V23.9901C25.6873 24.1236 25.6873 24.2423 25.702 24.3164H25.3482V24.3016ZM25.2892 23.6787C25.0681 23.6787 24.9059 23.7232 24.9059 23.8863C24.9059 23.9901 24.9796 24.0494 25.0681 24.0494C25.1713 24.0494 25.2597 23.9753 25.2745 23.9011C25.2745 23.8863 25.2892 23.8566 25.2892 23.827V23.6787Z" fill="#727581"/>
<path d="M27.0163 22.9814V23.2929H26.633V24.3014H26.2201V23.2929H25.8516V22.9814H27.0163Z" fill="#727581"/>
<path d="M28.4766 23.6338C28.4766 24.1232 28.1375 24.3457 27.7837 24.3457C27.4003 24.3457 27.1055 24.0935 27.1055 23.6634C27.1055 23.2333 27.3856 22.9664 27.8132 22.9664C28.2112 22.9515 28.4766 23.2333 28.4766 23.6338ZM27.533 23.6486C27.533 23.8711 27.6215 24.049 27.7984 24.049C27.9606 24.049 28.0638 23.8859 28.0638 23.6486C28.0638 23.4558 27.9901 23.2482 27.7984 23.2482C27.592 23.2482 27.533 23.4558 27.533 23.6486Z" fill="#727581"/>
<path d="M29.8629 22.9814V24.3014H29.4501V23.2929H29.17V23.5302C29.17 23.8565 29.1258 24.0789 28.9783 24.1976C28.8899 24.2866 28.7867 24.3311 28.595 24.3311L28.5508 24.0196C28.6098 24.0048 28.6687 23.9899 28.6982 23.9455C28.7719 23.8713 28.7867 23.7527 28.7867 23.5154V22.9814H29.8629Z" fill="#727581"/>
<path d="M31.4844 23.6338C31.4844 24.1232 31.1453 24.3457 30.7915 24.3457C30.4081 24.3457 30.1133 24.0935 30.1133 23.6634C30.1133 23.2333 30.3934 22.9664 30.821 22.9664C31.219 22.9515 31.4844 23.2333 31.4844 23.6338ZM30.5408 23.6486C30.5408 23.8711 30.6293 24.049 30.8062 24.049C30.9684 24.049 31.0716 23.8859 31.0716 23.6486C31.0716 23.4558 30.9979 23.2482 30.8062 23.2482C30.6146 23.2482 30.5408 23.4558 30.5408 23.6486Z" fill="#727581"/>
<path d="M32.6632 22.9814V23.2929H32.1472V24.3014H31.7344V22.9814H32.6632Z" fill="#727581"/>
<path d="M33.2232 22.9814V23.3819C33.2232 23.5895 33.2084 23.7378 33.2084 23.9158H33.2232C33.2821 23.7675 33.3264 23.6637 33.3706 23.545L33.6212 22.9814H34.1225V24.3014H33.7392V23.901C33.7392 23.6933 33.7539 23.6043 33.7687 23.3226H33.7539C33.7097 23.4709 33.6655 23.5599 33.6212 23.6785C33.5328 23.8565 33.4443 24.0938 33.3411 24.3014H32.8398V22.9814H33.2232Z" fill="#727581"/>
<path d="M34.8286 22.9814V23.3819C34.8286 23.5895 34.8139 23.7378 34.8139 23.9158H34.8286C34.8876 23.7675 34.9319 23.6637 34.9761 23.545L35.2267 22.9814H35.728V24.3014H35.3447V23.901C35.3447 23.6933 35.3594 23.6043 35.3741 23.3226H35.3594C35.3152 23.4709 35.2709 23.5599 35.2267 23.6785C35.1383 23.8565 35.0498 24.0938 34.9466 24.3014H34.4453V22.9814H34.8286Z" fill="#727581"/>
<path d="M0.99632 16.5155C1.1585 16.3969 1.39439 16.4265 1.49759 16.6045C1.61554 16.7676 1.57132 17.0049 1.40914 17.1236C1.24696 17.2422 1.01106 17.2126 0.907858 17.0346C0.804654 16.8715 0.834142 16.6342 0.99632 16.5155Z" fill="#727581"/>
<path d="M0.701081 19.7479C0.848515 19.5996 1.06967 19.5996 1.2171 19.7479C1.36453 19.8963 1.36453 20.1335 1.2171 20.2819C1.06967 20.4302 0.848515 20.4302 0.701081 20.2819C0.56839 20.1187 0.56839 19.8814 0.701081 19.7479Z" fill="#727581"/>
<path d="M0.922331 22.9666C1.04028 22.8034 1.26143 22.7589 1.42361 22.8776C1.58578 22.9962 1.63001 23.2335 1.51207 23.3967C1.39412 23.5598 1.17297 23.6043 1.01079 23.4856C0.833871 23.367 0.804383 23.1445 0.922331 22.9666Z" fill="#727581"/>
<path d="M15.8859 6.75657C15.8859 6.75657 10.2834 7.98753 9.92958 8.06169L9.91483 8.22482L15.7975 7.55743L15.8859 6.75657ZM14.2052 10.5533L14.2936 9.75241C14.2936 9.75241 11.7578 10.6126 11.5219 10.7016L11.5071 10.8647L14.2052 10.5533ZM15.0898 8.25449C15.0898 8.25449 11.0206 9.30748 10.7257 9.38163L10.711 9.54478L15.0013 9.05536L15.0898 8.25449ZM22.0634 34.2531C21.7243 33.8081 21.2083 33.467 20.5006 33.467H16.1218V15.2843C16.1218 14.0237 15.1193 13.0449 13.7481 13.0449H7.54114C6.83346 13.0449 6.3027 13.386 5.97834 13.8161C5.78668 14.1127 5.55078 14.5428 5.55078 15.225C5.55078 15.9072 5.78668 16.3373 5.97834 16.6339C6.3027 17.0789 6.83346 17.4052 7.54114 17.4052H11.861V33.467H7.54114C7.11358 33.467 6.77449 33.5857 6.47962 33.7785C8.10139 35.4692 10.0328 36.8485 12.1558 37.857H20.4859C21.1935 37.857 21.7243 37.5159 22.0487 37.0709C22.2403 36.7743 22.4762 36.3442 22.4762 35.662C22.491 34.9798 22.2551 34.5497 22.0634 34.2531ZM16.1218 4.75439V4.17599C16.1218 2.95986 15.1193 1.93652 14.1757 1.93652H12.5981C11.6103 2.36662 10.6815 2.8857 9.78214 3.46411C9.70843 3.68657 9.6642 3.92386 9.6642 4.17599V6.84555L16.1218 6.11884V4.75439Z" fill="#727581"/>
<path d="M10.5939 22.5515C10.3874 22.5515 10.2253 22.7146 10.2253 22.9222C10.2253 23.1299 10.3874 23.293 10.5939 23.293C10.7855 23.293 10.9624 23.1299 10.9624 22.9222C10.9624 22.7294 10.8003 22.5515 10.5939 22.5515ZM10.24 18.384C10.4906 18.384 10.6971 18.384 10.8887 18.3691V18.7547L10.5054 18.7844V18.7992C10.6971 18.9179 10.9477 19.17 10.9477 19.6001C10.9477 19.9857 10.7413 20.4455 9.90091 20.4455H8.51503V20.0005H9.82719C10.2842 20.0005 10.5939 19.8671 10.5939 19.4518C10.5939 19.1552 10.3874 18.9475 10.1958 18.8734C10.1368 18.8437 10.0483 18.8289 9.97463 18.8289H8.51503V18.384H10.24ZM9.2522 22.0769C8.97208 22.0769 8.73618 22.0769 8.51503 22.0917V21.7061L8.98682 21.6913V21.6764C8.66247 21.5726 8.4708 21.3057 8.4708 21.009C8.4708 20.9645 8.4708 20.9201 8.48555 20.8904H8.89836C8.88362 20.9349 8.88362 20.9794 8.88362 21.0387C8.88362 21.3502 9.11951 21.5726 9.44387 21.6319C9.50284 21.6468 9.57656 21.6468 9.65028 21.6468H10.9182V22.0917H9.2522V22.0769ZM7.39453 24.257V23.8121H10.874V24.257H7.39453ZM9.91565 26.6744C9.98937 26.6744 10.0336 26.6596 10.0926 26.6596C10.3874 26.5706 10.6086 26.3185 10.6086 25.9922C10.6086 25.5176 10.24 25.2507 9.6945 25.2507C9.22271 25.2507 8.8099 25.5028 8.8099 25.9774C8.8099 26.274 9.01631 26.5558 9.34066 26.6448C9.39964 26.6596 9.45861 26.6744 9.51759 26.6744H9.91565ZM9.28169 27.1194C8.97208 27.1194 8.73618 27.1342 8.50029 27.1342V26.7338L8.91311 26.7189V26.7041C8.61824 26.5261 8.45606 26.2295 8.45606 25.8439C8.45606 25.2507 8.94259 24.8057 9.66502 24.8057C10.5201 24.8057 10.9329 25.3397 10.9329 25.9181C10.9329 26.2443 10.8003 26.5261 10.5644 26.6744V26.6893H11.847V27.1342H9.28169V27.1194ZM9.149 31.3165C8.89836 31.3165 8.70669 31.3165 8.50029 31.3313V30.9457L8.88362 30.9309V30.9161C8.66247 30.7826 8.44131 30.5453 8.44131 30.1449C8.44131 29.8186 8.63298 29.5516 8.91311 29.4478V29.433C8.78041 29.3588 8.67721 29.255 8.60349 29.166C8.48555 29.0177 8.44131 28.8546 8.44131 28.6173C8.44131 28.291 8.64772 27.8164 9.47335 27.8164H10.874V28.2465H9.53233C9.07528 28.2465 8.79516 28.4097 8.79516 28.7804C8.79516 29.0326 8.97208 29.2254 9.19323 29.2995C9.2522 29.3143 9.32592 29.3292 9.41438 29.3292H10.874V29.7593H9.45861C9.07528 29.7593 8.8099 29.9372 8.8099 30.2635C8.8099 30.5453 9.03105 30.7381 9.23746 30.8123C9.31117 30.8419 9.37015 30.8419 9.44387 30.8419H10.874V31.272H9.149V31.3165ZM10.8887 32.503H8.51503V32.0581H10.8887V32.503ZM7.76312 31.9097C7.96952 31.9097 8.11696 32.0581 8.11696 32.2954C8.11696 32.503 7.95478 32.6513 7.76312 32.6513C7.55671 32.6513 7.39453 32.4882 7.39453 32.2805C7.39453 32.0581 7.55671 31.9097 7.76312 31.9097Z" fill="#727581"/>
<path d="M19.8371 0.64612C19.6897 0.497811 19.6897 0.260517 19.8371 0.112208C19.9846 -0.0361007 20.2057 -0.0361007 20.3532 0.112208C20.5006 0.260517 20.5006 0.497811 20.3532 0.64612C20.2205 0.794429 19.9846 0.794429 19.8371 0.64612Z" fill="#727581"/>
<path d="M17.2124 0.334611C17.3746 0.453258 17.4189 0.690553 17.3009 0.853693C17.183 1.01683 16.9618 1.06133 16.7996 0.942678C16.6375 0.824031 16.5932 0.586736 16.7112 0.423596C16.8144 0.260457 17.0503 0.215964 17.2124 0.334611Z" fill="#727581"/>
<path d="M14.2193 1.0465C14.3963 1.13548 14.47 1.35794 14.3815 1.55074C14.2931 1.72872 14.0719 1.80287 13.895 1.71389C13.7181 1.6249 13.6443 1.40244 13.7328 1.20963C13.8213 1.03166 14.0277 0.95751 14.2193 1.0465Z" fill="#727581"/>
<path d="M11.4189 2.21793C11.6106 2.27725 11.7138 2.48489 11.6548 2.67769C11.5958 2.87049 11.3894 2.98914 11.1978 2.91498C11.0061 2.85566 10.9029 2.64803 10.9619 2.44039C11.0208 2.26242 11.2273 2.15861 11.4189 2.21793Z" fill="#727581"/>
<path d="M8.85408 3.80479C9.06049 3.83446 9.19318 4.02726 9.16369 4.23489C9.1342 4.44252 8.94254 4.576 8.75088 4.54634C8.55921 4.51668 8.41178 4.32388 8.44127 4.11624C8.47075 3.90861 8.66242 3.7603 8.85408 3.80479Z" fill="#727581"/>
<path d="M6.5678 5.74805C6.77421 5.74805 6.93639 5.91119 6.93639 6.11882C6.93639 6.32645 6.77421 6.48959 6.5678 6.48959C6.3614 6.48959 6.19922 6.32645 6.19922 6.11882C6.19922 5.92602 6.37614 5.74805 6.5678 5.74805Z" fill="#727581"/>
<path d="M4.59198 8.04708C4.78364 8.01742 4.97531 8.1509 5.00479 8.35853C5.03428 8.56617 4.90159 8.74414 4.69518 8.78863C4.50352 8.81829 4.31185 8.68481 4.28237 8.47718C4.26762 8.26955 4.40031 8.07674 4.59198 8.04708Z" fill="#727581"/>
<path d="M2.98683 10.627C3.17849 10.5677 3.3849 10.6715 3.44387 10.8643C3.50285 11.0571 3.39964 11.2647 3.20798 11.3241C3.01631 11.3834 2.80991 11.2796 2.75093 11.0868C2.69196 10.9088 2.79516 10.6863 2.98683 10.627Z" fill="#727581"/>
<path d="M1.77779 13.4752C1.95471 13.3862 2.17586 13.4604 2.26432 13.6383C2.35278 13.8163 2.27906 14.0388 2.10214 14.1426C1.92522 14.2316 1.70407 14.1574 1.61561 13.9795C1.52715 13.7867 1.60087 13.5642 1.77779 13.4752Z" fill="#727581"/>
<path d="M1.61561 26.0365C1.70407 25.8585 1.92522 25.7695 2.10214 25.8733C2.27906 25.9623 2.35278 26.1848 2.26432 26.3776C2.17586 26.5555 1.95471 26.6297 1.77779 26.5407C1.60087 26.4517 1.52715 26.2293 1.61561 26.0365Z" fill="#727581"/>
<path d="M2.75093 28.9139C2.80991 28.7211 3.01631 28.6025 3.20798 28.6766C3.39964 28.7359 3.50285 28.9436 3.44387 29.1512C3.3849 29.344 3.17849 29.4626 2.98683 29.3885C2.79516 29.3143 2.69196 29.1067 2.75093 28.9139Z" fill="#727581"/>
<path d="M4.29706 31.5392C4.32655 31.3316 4.51821 31.1981 4.70988 31.2277C4.90154 31.2574 5.04898 31.4502 5.01949 31.6578C4.99 31.8655 4.79834 31.999 4.60667 31.9693C4.40026 31.9248 4.26757 31.7468 4.29706 31.5392Z" fill="#727581"/>
<path d="M6.19922 33.8825C6.19922 33.6749 6.3614 33.5117 6.5678 33.5117C6.77421 33.5117 6.93639 33.6749 6.93639 33.8825C6.93639 34.0901 6.77421 34.2533 6.58254 34.2533C6.37614 34.2533 6.19922 34.0901 6.19922 33.8825Z" fill="#727581"/>
<path d="M8.44159 35.899C8.4121 35.6914 8.54479 35.4986 8.7512 35.469C8.94287 35.4393 9.13453 35.5728 9.16402 35.7804C9.1935 35.988 9.06081 36.1808 8.85441 36.2105C8.66274 36.2402 8.47108 36.1067 8.44159 35.899Z" fill="#727581"/>
<path d="M10.9619 37.5459C10.9029 37.3531 11.0061 37.1455 11.1978 37.0713C11.3894 37.012 11.5958 37.1158 11.6548 37.3086C11.7138 37.5014 11.6106 37.7091 11.4189 37.7832C11.2273 37.8574 11.0208 37.7536 10.9619 37.5459Z" fill="#727581"/>
<path d="M13.7328 38.791C13.6443 38.613 13.7181 38.3905 13.895 38.2867C14.0719 38.1977 14.2931 38.2719 14.3815 38.4499C14.47 38.6278 14.3963 38.8651 14.2193 38.9541C14.0277 39.058 13.8213 38.9838 13.7328 38.791Z" fill="#727581"/>
<path d="M16.6994 39.5922C16.5815 39.4291 16.6257 39.1918 16.7879 39.0731C16.9501 38.9545 17.186 38.9842 17.2892 39.1621C17.4071 39.3253 17.3629 39.5626 17.2007 39.6812C17.0533 39.7998 16.8174 39.7554 16.6994 39.5922Z" fill="#727581"/>
<path d="M19.8371 39.8891C19.6897 39.7408 19.6897 39.5035 19.8371 39.37C19.9846 39.2217 20.2057 39.2217 20.3532 39.37C20.5006 39.5183 20.5006 39.7556 20.3532 39.8891C20.2205 40.0374 19.9846 40.0374 19.8371 39.8891Z" fill="#727581"/>
<path d="M22.991 39.681C22.8289 39.5623 22.7846 39.325 22.9026 39.1619C23.0205 38.9987 23.2417 38.9542 23.4038 39.0729C23.566 39.1915 23.6102 39.4288 23.4923 39.592C23.3744 39.7551 23.1532 39.7996 22.991 39.681Z" fill="#727581"/>
<path d="M25.9848 38.9541C25.8079 38.8651 25.7342 38.6427 25.8226 38.4499C25.9111 38.2719 26.1322 38.1977 26.3092 38.2867C26.4861 38.3757 26.5598 38.5982 26.4714 38.791C26.3829 38.9838 26.1617 39.058 25.9848 38.9541Z" fill="#727581"/>
<path d="M28.7876 37.7975C28.5959 37.7382 28.4927 37.5305 28.5517 37.3377C28.6107 37.1449 28.8171 37.0263 29.0088 37.1004C29.2004 37.1598 29.3036 37.3674 29.2447 37.575C29.1857 37.753 28.9793 37.8568 28.7876 37.7975Z" fill="#727581"/>
<path d="M31.3524 36.2105C31.1608 36.1808 31.0133 35.988 31.0428 35.7804C31.0723 35.5728 31.264 35.4393 31.4556 35.469C31.662 35.4986 31.7947 35.6914 31.7652 35.899C31.7358 36.1067 31.5441 36.2402 31.3524 36.2105Z" fill="#727581"/>
<path d="M33.6381 34.2533C33.4317 34.2533 33.2695 34.0901 33.2695 33.8825C33.2695 33.6749 33.4317 33.5117 33.6381 33.5117C33.8445 33.5117 34.0067 33.6749 34.0067 33.8825C33.992 34.0901 33.8298 34.2533 33.6381 34.2533Z" fill="#727581"/>
<path d="M35.6005 31.9693C35.3941 31.999 35.2172 31.8655 35.1877 31.6578C35.1582 31.4502 35.2909 31.2574 35.4826 31.2277C35.689 31.1981 35.8659 31.3316 35.8954 31.5392C35.9396 31.7468 35.8069 31.9248 35.6005 31.9693Z" fill="#727581"/>
<path d="M37.2197 29.3731C37.028 29.4324 36.8216 29.3286 36.7627 29.1358C36.7037 28.943 36.8069 28.7353 36.9985 28.6612C37.1902 28.6019 37.3966 28.7057 37.4556 28.8985C37.5146 29.1061 37.3966 29.3137 37.2197 29.3731Z" fill="#727581"/>
<path d="M38.4303 26.541C38.2533 26.63 38.0322 26.5559 37.9437 26.3779C37.8553 26.1999 37.929 25.9626 38.1059 25.8736C38.2828 25.7847 38.504 25.8588 38.5924 26.0368C38.6809 26.2296 38.6072 26.4521 38.4303 26.541Z" fill="#727581"/>
<path d="M39.1959 23.4859C39.0338 23.6045 38.7979 23.5749 38.6799 23.3969C38.562 23.2338 38.6062 22.9965 38.7684 22.8778C38.9306 22.7592 39.1665 22.7888 39.2697 22.9668C39.4023 23.1448 39.3581 23.3672 39.1959 23.4859Z" fill="#727581"/>
<path d="M39.4899 20.2672C39.3424 20.4155 39.1213 20.4155 38.9739 20.2672C38.8264 20.1189 38.8264 19.8816 38.9739 19.7333C39.1213 19.585 39.3424 19.585 39.4899 19.7333C39.6373 19.8816 39.6373 20.1189 39.4899 20.2672Z" fill="#727581"/>
<path d="M39.2853 17.0344C39.1673 17.1975 38.9462 17.242 38.784 17.1233C38.6218 17.0047 38.5776 16.7674 38.6955 16.6043C38.8135 16.4411 39.0346 16.3966 39.2116 16.5153C39.359 16.6339 39.4032 16.8712 39.2853 17.0344Z" fill="#727581"/>
<path d="M38.5924 13.9648C38.504 14.1428 38.2828 14.2169 38.1059 14.1279C37.929 14.039 37.8553 13.8165 37.9437 13.6237C38.0322 13.4457 38.2533 13.3716 38.4303 13.4606C38.6072 13.5644 38.6809 13.7868 38.5924 13.9648Z" fill="#727581"/>
<path d="M37.4556 11.1014C37.3966 11.2942 37.1902 11.398 36.9985 11.3387C36.8069 11.2794 36.7037 11.0717 36.7627 10.8641C36.8216 10.6713 37.028 10.5527 37.2197 10.6268C37.3966 10.6861 37.5146 10.9086 37.4556 11.1014Z" fill="#727581"/>
<path d="M35.907 8.47718C35.8775 8.68481 35.6858 8.81829 35.4942 8.78863C35.3025 8.75897 35.1551 8.56617 35.1993 8.35853C35.2288 8.1509 35.4205 8.01742 35.6121 8.04708C35.8038 8.07674 35.9365 8.26955 35.907 8.47718Z" fill="#727581"/>
<path d="M33.9911 6.13335C33.9911 6.34099 33.8289 6.50413 33.6225 6.50413C33.4161 6.50413 33.2539 6.34099 33.2539 6.13335C33.2539 5.92572 33.4161 5.76258 33.6225 5.76258C33.8289 5.74775 33.9911 5.92572 33.9911 6.13335Z" fill="#727581"/>
<path d="M31.7656 4.10137C31.7951 4.309 31.6624 4.5018 31.456 4.53147C31.2496 4.56113 31.0727 4.42765 31.0432 4.22002C31.0137 4.01238 31.1464 3.83441 31.338 3.78992C31.5444 3.76026 31.7361 3.90857 31.7656 4.10137Z" fill="#727581"/>
<path d="M29.2447 2.4561C29.3036 2.6489 29.2004 2.85653 29.0088 2.93069C28.8171 2.99001 28.6107 2.8862 28.5517 2.69339C28.4927 2.50059 28.5959 2.29296 28.7876 2.2188C28.9793 2.15948 29.1857 2.2633 29.2447 2.4561Z" fill="#727581"/>
<path d="M26.4714 1.20963C26.5598 1.38761 26.4861 1.6249 26.3092 1.71389C26.1322 1.80287 25.9111 1.72872 25.8226 1.55074C25.7342 1.37277 25.8079 1.13548 25.9848 1.0465C26.1617 0.95751 26.3829 1.03166 26.4714 1.20963Z" fill="#727581"/>
<path d="M23.4934 0.423845C23.6114 0.586985 23.5819 0.82428 23.4197 0.942927C23.2575 1.06157 23.0364 1.03191 22.9184 0.853942C22.8005 0.690802 22.83 0.453507 23.0069 0.33486C23.1543 0.216213 23.3755 0.245875 23.4934 0.423845Z" fill="#727581"/>
<path d="M37.6933 11.176C37.5901 11.5172 37.2362 11.6951 36.9119 11.5913C36.5875 11.4875 36.4106 11.1316 36.5138 10.7904C36.617 10.4493 36.9708 10.2714 37.2952 10.3752C37.6195 10.479 37.7965 10.8498 37.6933 11.176Z" fill="#727581"/>
<path d="M36.1585 8.50649C36.1143 8.8476 35.7899 9.09972 35.4508 9.0404C35.1117 8.98108 34.8759 8.66963 34.9348 8.31369C34.9938 7.97258 35.3034 7.73528 35.6425 7.77977C35.9816 7.8391 36.2175 8.16538 36.1585 8.50649Z" fill="#727581"/>
<path d="M34.258 6.13382C34.258 6.48976 33.9779 6.77155 33.6388 6.77155C33.2997 6.77155 33.0195 6.48976 33.0195 6.13382C33.0195 5.77788 33.2997 5.49609 33.6388 5.49609C33.9779 5.49609 34.258 5.77788 34.258 6.13382Z" fill="#727581"/>
<path d="M32.0145 4.07229C32.0734 4.41341 31.8375 4.73969 31.4984 4.79901C31.1594 4.85833 30.8497 4.60621 30.7908 4.2651C30.7465 3.90915 30.9677 3.59771 31.3068 3.53838C31.6459 3.47906 31.9702 3.71635 32.0145 4.07229Z" fill="#727581"/>
<path d="M29.494 2.38126C29.5972 2.72237 29.4203 3.07832 29.096 3.18213C28.7716 3.28595 28.4178 3.10798 28.3146 2.76687C28.2114 2.42576 28.3883 2.06981 28.7126 1.966C29.037 1.86218 29.3908 2.04015 29.494 2.38126Z" fill="#727581"/>
<path d="M26.7079 1.09101C26.8554 1.40246 26.7374 1.78806 26.4278 1.93637C26.1182 2.09951 25.7496 1.96603 25.6022 1.65458C25.4547 1.34313 25.5727 0.957528 25.8823 0.794388C26.1772 0.66091 26.5458 0.779557 26.7079 1.09101Z" fill="#727581"/>
<path d="M23.7144 0.260603C23.9208 0.54239 23.847 0.942824 23.5669 1.15046C23.2868 1.35809 22.9035 1.28394 22.6971 1.00215C22.4906 0.720361 22.5644 0.319927 22.8297 0.112294C23.1246 -0.0805076 23.5079 -0.021184 23.7144 0.260603Z" fill="#727581"/>
</svg>
