<svg width="64" height="65" viewBox="0 0 64 65" fill="none" xmlns="http://www.w3.org/2000/svg">
<path d="M38.398 25.9468V28.3197H39.4237V25.9468H40.0916V28.3435L40.3778 28.3672L40.3539 29.6011H39.853L39.8292 28.8655H37.7539V25.9468H38.398Z" fill="black"/>
<path d="M41.21 28.011C41.2339 28.272 41.4963 28.4144 41.8064 28.4144C42.021 28.4144 42.2119 28.3906 42.4027 28.3195L42.4981 28.7703C42.2834 28.8652 42.0211 28.889 41.7348 28.889C41.0192 28.889 40.5898 28.4856 40.5898 27.8211C40.5898 27.2754 40.9238 26.6821 41.6633 26.6821C42.355 26.6821 42.6174 27.2042 42.6174 27.7262C42.6174 27.8449 42.5935 27.9398 42.5935 27.9872H41.21V28.011ZM41.9733 27.5601C41.9733 27.394 41.9018 27.133 41.5917 27.133C41.3055 27.133 41.21 27.394 41.1862 27.5601H41.9733Z" fill="black"/>
<path d="M43.6484 26.73V27.4893H44.3163V26.73H44.9842V28.8419H44.3163V28.0114H43.6484V28.8419H42.9805V26.73H43.6484Z" fill="black"/>
<path d="M47.1778 26.73V27.2283H46.5576V28.8419H45.8897V27.2283H45.2695V26.73H47.1778Z" fill="black"/>
<path d="M47.4613 27.4415C47.4613 27.1567 47.4614 26.9194 47.4375 26.7296H48.01L48.0338 27.0143C48.2008 26.8008 48.4393 26.6821 48.7494 26.6821C49.2027 26.6821 49.632 27.0855 49.632 27.75C49.632 28.5093 49.1311 28.889 48.6779 28.889C48.4155 28.889 48.2247 28.794 48.1292 28.6517V29.6958H47.4613V27.4415ZM48.1292 27.9398C48.1292 27.9872 48.1293 28.0347 48.1531 28.0822C48.2008 28.2483 48.3439 28.3906 48.5348 28.3906C48.821 28.3906 48.988 28.1534 48.988 27.7974C48.988 27.4652 48.8449 27.2042 48.5348 27.2042C48.3439 27.2042 48.177 27.3466 48.1292 27.5364C48.1292 27.5601 48.1054 27.6076 48.1054 27.655V27.9398H48.1292Z" fill="black"/>
<path d="M30.3835 32.3062H31.6477C31.6 31.9265 31.3376 31.618 30.8367 31.618C30.5982 31.618 30.3835 31.6892 30.2404 31.7367L30.1211 31.2384C30.2881 31.1672 30.5743 31.0723 30.9083 31.0723C31.934 31.0723 32.3872 31.7604 32.3872 32.5909C32.3872 33.5639 31.7193 34.0859 30.8606 34.0859C30.5505 34.0859 30.2642 34.0147 30.1211 33.9435L30.2404 33.4452C30.3835 33.5164 30.622 33.5401 30.8367 33.5401C31.3376 33.5401 31.6477 33.2316 31.6954 32.8045H30.455V32.3062H30.3835Z" fill="black"/>
<path d="M34.3425 33.9908C34.2232 34.0383 34.0085 34.0857 33.7461 34.0857C33.0544 34.0857 32.625 33.6823 32.625 32.9942C32.625 32.3772 33.0544 31.8789 33.8415 31.8789C34.0085 31.8789 34.1993 31.9026 34.3425 31.9501L34.2471 32.4484C34.1755 32.4247 34.0562 32.3772 33.8892 32.3772C33.5314 32.3772 33.3168 32.6145 33.3168 32.9705C33.3168 33.3501 33.5792 33.5637 33.8892 33.5637C34.0562 33.5637 34.1755 33.54 34.2709 33.4925L34.3425 33.9908Z" fill="black"/>
<path d="M36.463 31.9263V32.4246H35.8428V34.0382H35.1749V32.4246H34.5547V31.9263H36.463Z" fill="black"/>
<path d="M37.2296 33.1843C37.2534 33.4453 37.5158 33.5877 37.8259 33.5877C38.0406 33.5877 38.2314 33.564 38.4223 33.4928L38.5177 33.9437C38.303 34.0386 38.0406 34.0623 37.7543 34.0623C37.0387 34.0623 36.6094 33.6589 36.6094 32.9945C36.6094 32.4487 36.9433 31.8555 37.6828 31.8555C38.3745 31.8555 38.6369 32.3775 38.6369 32.8996C38.6369 33.0182 38.6131 33.1131 38.6131 33.1606H37.2296V33.1843ZM37.9929 32.7335C37.9929 32.5674 37.9213 32.3063 37.6112 32.3063C37.325 32.3063 37.2296 32.5674 37.2057 32.7335H37.9929Z" fill="black"/>
<path d="M40.6661 31.9263V32.4246H40.0459V34.0382H39.378V32.4246H38.7578V31.9263H40.6661Z" fill="black"/>
<path d="M41.5694 31.9263V32.567C41.5694 32.8992 41.5456 33.1365 41.5456 33.4212H41.5694C41.6648 33.1839 41.7364 33.0178 41.8079 32.828L42.2135 31.9263H43.0245V34.0382H42.3804V33.3975C42.3804 33.0653 42.4043 32.9229 42.4281 32.472H42.4043C42.3327 32.7093 42.2612 32.8517 42.1896 33.0416C42.0465 33.3263 41.9034 33.706 41.7364 34.0382H40.9492V31.9263H41.5694Z" fill="black"/>
<path d="M44.148 31.9263V32.567C44.148 32.8043 44.2434 32.9229 44.458 32.9229C44.5773 32.9229 44.6727 32.8754 44.7443 32.828V31.9263H45.4122V34.0382H44.7443V33.2551C44.625 33.3263 44.4103 33.3975 44.2195 33.3975C43.7663 33.3975 43.5039 33.1365 43.5039 32.6382V31.95H44.148V31.9263Z" fill="black"/>
<path d="M46.4366 33.1843C46.4604 33.4453 46.7228 33.5877 47.0329 33.5877C47.2476 33.5877 47.4384 33.564 47.6293 33.4928L47.7247 33.9437C47.51 34.0386 47.2476 34.0623 46.9614 34.0623C46.2458 34.0623 45.8164 33.6589 45.8164 32.9945C45.8164 32.4487 46.1504 31.8555 46.8898 31.8555C47.5816 31.8555 47.844 32.3775 47.844 32.8996C47.844 33.0182 47.8201 33.1131 47.8201 33.1606H46.4366V33.1843ZM47.2238 32.7335C47.2238 32.5674 47.1522 32.3063 46.8421 32.3063C46.5559 32.3063 46.4604 32.5674 46.4366 32.7335H47.2238Z" fill="black"/>
<path d="M49.8229 33.9908C49.7037 34.0383 49.489 34.0857 49.2266 34.0857C48.5348 34.0857 48.1055 33.6823 48.1055 32.9942C48.1055 32.3772 48.5348 31.8789 49.322 31.8789C49.489 31.8789 49.6798 31.9026 49.8229 31.9501L49.7275 32.4484C49.656 32.4247 49.5367 32.3772 49.3697 32.3772C49.0119 32.3772 48.7972 32.6145 48.7972 32.9705C48.7972 33.3501 49.0596 33.5637 49.3697 33.5637C49.5367 33.5637 49.656 33.54 49.7514 33.4925L49.8229 33.9908Z" fill="black"/>
<path d="M50.8519 31.9266V32.7808H50.9235L51.4483 31.9266H52.2116L51.4244 32.8283C51.6868 32.8757 51.8299 33.113 51.9492 33.4215C52.0207 33.5876 52.0923 33.8486 52.2116 34.0385H51.5198C51.4721 33.9436 51.4005 33.8012 51.329 33.5639C51.2336 33.3266 51.1143 33.1842 50.8758 33.1842H50.8042V34.0148H50.1602V31.9028H50.8519V31.9266Z" fill="black"/>
<path d="M54.5465 32.9467C54.5465 33.7298 53.9979 34.0857 53.4254 34.0857C52.8052 34.0857 52.3281 33.6823 52.3281 32.9942C52.3281 32.306 52.7813 31.8789 53.4731 31.8789C54.1171 31.8789 54.5465 32.3298 54.5465 32.9467ZM53.0199 32.9705C53.0199 33.3264 53.163 33.6112 53.4492 33.6112C53.7116 33.6112 53.8786 33.3501 53.8786 32.9705C53.8786 32.662 53.7593 32.3298 53.4492 32.3298C53.1392 32.3535 53.0199 32.662 53.0199 32.9705Z" fill="black"/>
<path d="M55.5694 31.9263V32.567C55.5694 32.8992 55.5456 33.1365 55.5456 33.4213H55.5694C55.6648 33.184 55.7364 33.0179 55.8079 32.8281L56.2135 31.9263H57.0245V34.0383H56.4043V33.3976C56.4043 33.0654 56.4281 32.923 56.452 32.4721H56.4281C56.3566 32.7094 56.285 32.8518 56.2135 33.0416C56.0703 33.3264 55.9272 33.706 55.7602 34.0383H54.9492V31.9263H55.5694ZM55.7841 31.0483C55.7841 31.2382 55.8557 31.3568 55.9749 31.3568C56.0942 31.3568 56.1658 31.2382 56.1896 31.0483H56.5951C56.5713 31.4517 56.3327 31.6653 55.9511 31.6653C55.5456 31.6653 55.3547 31.428 55.3309 31.0483H55.7841Z" fill="black"/>
<path d="M31.7661 39.1403C31.6468 39.2115 31.3606 39.259 31.0266 39.259C30.0248 39.259 29.5 38.642 29.5 37.8115C29.5 36.8148 30.2156 36.269 31.0982 36.269C31.4321 36.269 31.6945 36.3402 31.8138 36.3877L31.6707 36.9097C31.5275 36.8623 31.3606 36.7911 31.122 36.7911C30.5973 36.7911 30.1918 37.0996 30.1918 37.764C30.1918 38.3572 30.5496 38.7132 31.122 38.7132C31.3129 38.7132 31.5514 38.6657 31.6707 38.6183L31.7661 39.1403Z" fill="black"/>
<path d="M33.7672 37.0996V37.5979H33.147V39.2115H32.4792V37.5979H31.8828V37.0996H33.7672Z" fill="black"/>
<path d="M36.1285 38.1439C36.1285 38.927 35.5799 39.2829 35.0074 39.2829C34.3872 39.2829 33.9102 38.8795 33.9102 38.1914C33.9102 37.5032 34.3634 37.0761 35.0551 37.0761C35.6992 37.0524 36.1285 37.5032 36.1285 38.1439ZM34.5781 38.1676C34.5781 38.5236 34.7212 38.8083 35.0074 38.8083C35.2698 38.8083 35.4368 38.5473 35.4368 38.1676C35.4368 37.8592 35.3175 37.5269 35.0074 37.5269C34.6973 37.5269 34.5781 37.8592 34.5781 38.1676Z" fill="black"/>
<path d="M36.5849 37.0996H37.4198L37.6584 37.9064C37.6822 38.0251 37.7538 38.2386 37.8015 38.4285H37.8253C37.873 38.2861 37.9446 38.0488 37.9923 37.859L38.2308 37.0996H39.0657L39.185 39.2115H38.5648L38.5409 38.3573C38.5409 38.1674 38.5171 37.859 38.5171 37.6217H38.4932C38.4217 37.9064 38.3978 37.9776 38.2785 38.3098L37.9923 39.1641H37.5152L37.2528 38.3335C37.2051 38.12 37.1336 37.8352 37.0859 37.6454H37.062C37.062 37.9064 37.0382 38.2149 37.0382 38.381L37.0143 39.2115H36.418L36.5849 37.0996Z" fill="black"/>
<path d="M40.8518 39.2113L40.8041 38.9978H40.7803C40.6372 39.1639 40.4225 39.2588 40.1839 39.2588C39.7546 39.2588 39.4922 38.9503 39.4922 38.6181C39.4922 38.0723 39.9931 37.8113 40.7326 37.8113V37.7876C40.7326 37.6689 40.661 37.5265 40.3509 37.5265C40.1362 37.5265 39.8977 37.5977 39.7546 37.6926L39.6353 37.2655C39.7784 37.1943 40.0647 37.0757 40.4702 37.0757C41.1858 37.0757 41.4005 37.4791 41.4005 37.9774V38.713C41.4005 38.9266 41.4005 39.1164 41.4243 39.2351H40.8518V39.2113ZM40.7564 38.2147C40.3986 38.2147 40.1362 38.2859 40.1362 38.5469C40.1362 38.713 40.2555 38.8079 40.3986 38.8079C40.5656 38.8079 40.7087 38.6893 40.7326 38.5706C40.7326 38.5469 40.7564 38.4994 40.7564 38.452V38.2147Z" fill="black"/>
<path d="M43.5485 37.0996V37.5979H42.9283V39.2115H42.2604V37.5979H41.6641V37.0996H43.5485Z" fill="black"/>
<path d="M45.9137 38.1439C45.9137 38.927 45.3651 39.2829 44.7926 39.2829C44.1724 39.2829 43.6953 38.8795 43.6953 38.1914C43.6953 37.5032 44.1485 37.0761 44.8403 37.0761C45.4843 37.0524 45.9137 37.5032 45.9137 38.1439ZM44.3871 38.1676C44.3871 38.5236 44.5302 38.8083 44.8164 38.8083C45.0788 38.8083 45.2458 38.5473 45.2458 38.1676C45.2458 37.8592 45.1265 37.5269 44.8164 37.5269C44.4825 37.5269 44.3871 37.8592 44.3871 38.1676Z" fill="black"/>
<path d="M48.1542 37.0996V39.2115H47.4863V37.5979H47.0331V37.9776C47.0331 38.4996 46.9615 38.8556 46.723 39.0454C46.5799 39.1878 46.4129 39.259 46.1028 39.259L46.0312 38.7607C46.1267 38.7369 46.2221 38.7132 46.2698 38.642C46.3891 38.5234 46.4129 38.3335 46.4129 37.9539V37.0996H48.1542Z" fill="black"/>
<path d="M50.777 38.1439C50.777 38.927 50.2283 39.2829 49.6559 39.2829C49.0357 39.2829 48.5586 38.8795 48.5586 38.1914C48.5586 37.5032 49.0118 37.0761 49.7036 37.0761C50.3476 37.0524 50.777 37.5032 50.777 38.1439ZM49.2503 38.1676C49.2503 38.5236 49.3935 38.8083 49.6797 38.8083C49.9421 38.8083 50.1091 38.5473 50.1091 38.1676C50.1091 37.8592 49.9898 37.5269 49.6797 37.5269C49.3696 37.5269 49.2503 37.8592 49.2503 38.1676Z" fill="black"/>
<path d="M52.6864 37.0996V37.5979H51.8515V39.2115H51.1836V37.0996H52.6864Z" fill="black"/>
<path d="M53.5928 37.0996V37.7403C53.5928 38.0725 53.569 38.3098 53.569 38.5946H53.5928C53.6883 38.3573 53.7598 38.1912 53.8314 38.0013L54.2369 37.0996H55.0479V39.2115H54.4277V38.5708C54.4277 38.2386 54.4516 38.0962 54.4754 37.6454H54.4516C54.38 37.8827 54.3085 38.0251 54.2369 38.2149C54.0938 38.4996 53.9506 38.8793 53.7837 39.2115H52.9727V37.0996H53.5928Z" fill="black"/>
<path d="M56.1905 37.0996V37.7403C56.1905 38.0725 56.1667 38.3098 56.1667 38.5946H56.1905C56.2859 38.3573 56.3575 38.1912 56.429 38.0013L56.8345 37.0996H57.6456V39.2115H57.0254V38.5708C57.0254 38.2386 57.0492 38.0962 57.0731 37.6454H57.0492C56.9777 37.8827 56.9061 38.0251 56.8345 38.2149C56.6914 38.4996 56.5483 38.8793 56.3813 39.2115H55.5703V37.0996H56.1905Z" fill="black"/>
<path d="M1.45146 26.754C1.71385 26.5642 2.09551 26.6117 2.26248 26.8964C2.45331 27.1574 2.38175 27.5371 2.11937 27.7269C1.85698 27.9168 1.47531 27.8693 1.30834 27.5846C1.14136 27.3235 1.18907 26.9439 1.45146 26.754Z" fill="#7A303F"/>
<path d="M0.973511 31.927C1.21205 31.6897 1.56985 31.6897 1.80839 31.927C2.04692 32.1643 2.04692 32.544 1.80839 32.7812C1.56985 33.0185 1.21205 33.0185 0.973511 32.7812C0.75883 32.5202 0.75883 32.1406 0.973511 31.927Z" fill="#7A303F"/>
<path d="M1.33325 37.0763C1.52407 36.8153 1.88188 36.7441 2.14427 36.9339C2.40665 37.1237 2.47822 37.5034 2.28739 37.7644C2.09656 38.0255 1.73876 38.0967 1.47637 37.9068C1.19013 37.717 1.14242 37.361 1.33325 37.0763Z" fill="#7A303F"/>
<path d="M25.5417 11.1403C25.5417 11.1403 16.4773 13.1098 15.9048 13.2285L15.881 13.4895L25.3985 12.4217L25.5417 11.1403ZM22.8224 17.215L22.9655 15.9336C22.9655 15.9336 18.8627 17.3099 18.481 17.4523L18.4572 17.7133L22.8224 17.215ZM24.2536 13.537C24.2536 13.537 17.67 15.2218 17.1929 15.3404L17.1691 15.6014L24.1104 14.8184L24.2536 13.537ZM35.5363 55.1347C34.9877 54.4228 34.1528 53.877 33.0078 53.877H25.9233V24.7847C25.9233 22.7677 24.3013 21.2016 22.0829 21.2016H12.0405C10.8956 21.2016 10.0368 21.7473 9.51207 22.4355C9.20198 22.9101 8.82031 23.5982 8.82031 24.6898C8.82031 25.7814 9.20198 26.4695 9.51207 26.9441C10.0368 27.656 10.8956 28.178 12.0405 28.178H19.0296V53.877H12.0405C11.3488 53.877 10.8002 54.0668 10.3231 54.3753C12.947 57.0805 16.0718 59.2873 19.5067 60.9009H32.984C34.1289 60.9009 34.9877 60.3551 35.5124 59.6433C35.8225 59.1687 36.2042 58.4805 36.2042 57.389C36.228 56.2974 35.8464 55.6093 35.5363 55.1347ZM25.9233 7.93682V7.01137C25.9233 5.06555 24.3013 3.42822 22.7746 3.42822H20.2223C18.6241 4.11638 17.1214 4.94691 15.6663 5.87235C15.547 6.2283 15.4755 6.60797 15.4755 7.01137V11.2827L25.9233 10.1199V7.93682Z" fill="#7A303F"/>
<path d="M16.977 36.4119C16.6431 36.4119 16.3807 36.6729 16.3807 37.0052C16.3807 37.3374 16.6431 37.5984 16.977 37.5984C17.2871 37.5984 17.5733 37.3374 17.5733 37.0052C17.5733 36.6967 17.311 36.4119 16.977 36.4119ZM16.4045 29.7439C16.81 29.7439 17.144 29.7439 17.4541 29.7202V30.3372L16.8339 30.3846V30.4084C17.144 30.5982 17.5495 31.0016 17.5495 31.6898C17.5495 32.3067 17.2155 33.0423 15.8559 33.0423H13.6137V32.3305H15.7366C16.4761 32.3305 16.977 32.1169 16.977 31.4525C16.977 30.9779 16.6431 30.6457 16.333 30.527C16.2375 30.4796 16.0944 30.4558 15.9752 30.4558H13.6137V29.7439H16.4045ZM14.8063 35.6526C14.3531 35.6526 13.9715 35.6526 13.6137 35.6763V35.0593L14.377 35.0356V35.0119C13.8522 34.8458 13.5421 34.4186 13.5421 33.9441C13.5421 33.8729 13.5421 33.8017 13.5659 33.7542H14.2338C14.21 33.8254 14.21 33.8966 14.21 33.9915C14.21 34.4898 14.5917 34.8458 15.1164 34.9407C15.2118 34.9644 15.3311 34.9644 15.4504 34.9644H17.5018V35.6763H14.8063V35.6526ZM11.8008 39.1408V38.4289H17.4302V39.1408H11.8008ZM15.8797 43.0087C15.999 43.0087 16.0706 42.985 16.166 42.985C16.6431 42.8426 17.0009 42.4392 17.0009 41.9171C17.0009 41.1578 16.4045 40.7307 15.5219 40.7307C14.7586 40.7307 14.0907 41.1341 14.0907 41.8934C14.0907 42.368 14.4247 42.8189 14.9495 42.9612C15.0449 42.985 15.1403 43.0087 15.2357 43.0087H15.8797ZM14.854 43.7206C14.3531 43.7206 13.9715 43.7443 13.5898 43.7443V43.1036L14.2577 43.0799V43.0562C13.7806 42.7714 13.5182 42.2968 13.5182 41.6799C13.5182 40.7307 14.3054 40.0188 15.4742 40.0188C16.8577 40.0188 17.5256 40.8731 17.5256 41.7985C17.5256 42.3205 17.311 42.7714 16.9293 43.0087V43.0324H19.0046V43.7443H14.854V43.7206ZM14.6394 50.436C14.2338 50.436 13.9237 50.436 13.5898 50.4597V49.8428L14.21 49.819V49.7953C13.8522 49.5818 13.4944 49.2021 13.4944 48.5614C13.4944 48.0393 13.8045 47.6122 14.2577 47.4461V47.4224C14.043 47.3037 13.876 47.1376 13.7568 46.9952C13.5659 46.758 13.4944 46.4969 13.4944 46.1173C13.4944 45.5952 13.8283 44.8359 15.1641 44.8359H17.4302V45.524H15.2595C14.5201 45.524 14.0669 45.785 14.0669 46.3783C14.0669 46.7817 14.3531 47.0902 14.7109 47.2088C14.8063 47.2325 14.9256 47.2563 15.0687 47.2563H17.4302V47.9444H15.1403C14.5201 47.9444 14.0907 48.2292 14.0907 48.7512C14.0907 49.2021 14.4485 49.5106 14.7825 49.6292C14.9017 49.6767 14.9972 49.6767 15.1164 49.6767H17.4302V50.3648H14.6394V50.436ZM17.4541 52.3344H13.6137V51.6225H17.4541V52.3344ZM12.3971 51.3852C12.7311 51.3852 12.9696 51.6225 12.9696 52.0022C12.9696 52.3344 12.7072 52.5717 12.3971 52.5717C12.0632 52.5717 11.8008 52.3106 11.8008 51.9784C11.8008 51.6225 12.0632 51.3852 12.3971 51.3852Z" fill="black"/>
<path d="M31.9367 1.36377C31.6982 1.12648 31.6982 0.746808 31.9367 0.509514C32.1752 0.272219 32.5331 0.272219 32.7716 0.509514C33.0101 0.746808 33.0101 1.12648 32.7716 1.36377C32.5569 1.60107 32.1752 1.60107 31.9367 1.36377Z" fill="#7A303F"/>
<path d="M27.6884 0.865066C27.9508 1.0549 28.0223 1.43457 27.8315 1.6956C27.6407 1.95662 27.2829 2.02781 27.0205 1.83797C26.7581 1.64814 26.6865 1.26847 26.8773 1.00744C27.0443 0.746418 27.426 0.67523 27.6884 0.865066Z" fill="#7A303F"/>
<path d="M22.8478 2.00418C23.1341 2.14655 23.2533 2.50249 23.1102 2.81098C22.9671 3.09573 22.6093 3.21438 22.323 3.072C22.0368 2.92963 21.9175 2.57368 22.0606 2.2652C22.2038 1.98045 22.5377 1.8618 22.8478 2.00418Z" fill="#7A303F"/>
<path d="M18.3131 3.87886C18.6232 3.97378 18.7902 4.306 18.6948 4.61448C18.5994 4.92296 18.2654 5.1128 17.9553 4.99415C17.6452 4.89923 17.4782 4.56702 17.5737 4.23481C17.6691 3.95005 18.003 3.78395 18.3131 3.87886Z" fill="#7A303F"/>
<path d="M14.1662 6.41746C14.5001 6.46491 14.7148 6.7734 14.6671 7.10561C14.6194 7.43782 14.3093 7.65139 13.9992 7.60393C13.6891 7.55647 13.4506 7.24799 13.4983 6.91577C13.546 6.58356 13.8561 6.34627 14.1662 6.41746Z" fill="#7A303F"/>
<path d="M10.4674 9.52637C10.8014 9.52637 11.0638 9.78739 11.0638 10.1196C11.0638 10.4518 10.8014 10.7128 10.4674 10.7128C10.1335 10.7128 9.87109 10.4518 9.87109 10.1196C9.87109 9.81112 10.1573 9.52637 10.4674 9.52637Z" fill="#7A303F"/>
<path d="M7.26835 13.2043C7.57845 13.1569 7.88855 13.3704 7.93626 13.7027C7.98396 14.0349 7.76928 14.3196 7.43533 14.3908C7.12523 14.4383 6.81514 14.2247 6.76743 13.8925C6.74358 13.5603 6.95826 13.2518 7.26835 13.2043Z" fill="#7A303F"/>
<path d="M4.67016 17.3333C4.98026 17.2384 5.31421 17.4045 5.40963 17.713C5.50504 18.0214 5.33806 18.3537 5.02797 18.4486C4.71787 18.5435 4.38392 18.3774 4.28851 18.0689C4.19309 17.7842 4.36007 17.4282 4.67016 17.3333Z" fill="#7A303F"/>
<path d="M2.71366 21.8894C2.9999 21.7471 3.3577 21.8657 3.50083 22.1505C3.64395 22.4352 3.52468 22.7911 3.23843 22.9573C2.95219 23.0996 2.59439 22.981 2.45127 22.6962C2.30815 22.3877 2.42742 22.0318 2.71366 21.8894Z" fill="#7A303F"/>
<path d="M2.45127 41.9885C2.59439 41.7037 2.95219 41.5614 3.23843 41.7275C3.52468 41.8699 3.64395 42.2258 3.50083 42.5343C3.3577 42.819 2.9999 42.9377 2.71366 42.7953C2.42742 42.6529 2.30815 42.297 2.45127 41.9885Z" fill="#7A303F"/>
<path d="M4.28851 46.5917C4.38392 46.2832 4.71787 46.0933 5.02797 46.212C5.33806 46.3069 5.50504 46.6391 5.40963 46.9713C5.31421 47.2798 4.98026 47.4696 4.67016 47.351C4.36007 47.2323 4.19309 46.9001 4.28851 46.5917Z" fill="#7A303F"/>
<path d="M6.79568 50.792C6.84339 50.4598 7.15349 50.2462 7.46358 50.2937C7.77368 50.3412 8.01222 50.6496 7.96451 50.9819C7.9168 51.3141 7.6067 51.5276 7.29661 51.4802C6.96266 51.409 6.74797 51.1242 6.79568 50.792Z" fill="#7A303F"/>
<path d="M9.87109 54.541C9.87109 54.2088 10.1335 53.9478 10.4674 53.9478C10.8014 53.9478 11.0638 54.2088 11.0638 54.541C11.0638 54.8732 10.8014 55.1342 10.4913 55.1342C10.1573 55.1342 9.87109 54.8732 9.87109 54.541Z" fill="#7A303F"/>
<path d="M13.4949 57.7685C13.4472 57.4362 13.6619 57.1278 13.9958 57.0803C14.3059 57.0329 14.616 57.2464 14.6637 57.5786C14.7114 57.9108 14.4968 58.2193 14.1628 58.2668C13.8527 58.3142 13.5426 58.1007 13.4949 57.7685Z" fill="#7A303F"/>
<path d="M17.5737 60.4027C17.4782 60.0942 17.6452 59.762 17.9553 59.6433C18.2654 59.5484 18.5994 59.7145 18.6948 60.023C18.7902 60.3315 18.6232 60.6637 18.3131 60.7824C18.003 60.901 17.6691 60.7349 17.5737 60.4027Z" fill="#7A303F"/>
<path d="M22.0606 62.3955C21.9175 62.1107 22.0368 61.7548 22.323 61.5887C22.6093 61.4463 22.9671 61.5649 23.1102 61.8497C23.2533 62.1344 23.1341 62.5141 22.8478 62.6565C22.5377 62.8226 22.2038 62.7039 22.0606 62.3955Z" fill="#7A303F"/>
<path d="M26.8539 63.6773C26.6631 63.4163 26.7346 63.0366 26.997 62.8468C27.2594 62.657 27.6411 62.7044 27.808 62.9892C27.9989 63.2502 27.9273 63.6299 27.6649 63.8197C27.4264 64.0095 27.0447 63.9384 26.8539 63.6773Z" fill="#7A303F"/>
<path d="M31.9367 64.1521C31.6982 63.9148 31.6982 63.5351 31.9367 63.3215C32.1752 63.0842 32.5331 63.0842 32.7716 63.3215C33.0101 63.5588 33.0101 63.9385 32.7716 64.1521C32.5569 64.3894 32.1752 64.3894 31.9367 64.1521Z" fill="#7A303F"/>
<path d="M37.04 63.8189C36.7776 63.6291 36.7061 63.2494 36.8969 62.9884C37.0877 62.7274 37.4455 62.6562 37.7079 62.846C37.9703 63.0359 38.0418 63.4155 37.851 63.6766C37.6602 63.9376 37.3024 64.0088 37.04 63.8189Z" fill="#7A303F"/>
<path d="M41.8816 62.6565C41.5954 62.5141 41.4761 62.1582 41.6192 61.8497C41.7624 61.5649 42.1202 61.4463 42.4064 61.5887C42.6926 61.731 42.8119 62.087 42.6688 62.3955C42.5257 62.7039 42.1679 62.8226 41.8816 62.6565Z" fill="#7A303F"/>
<path d="M46.4163 60.8058C46.1062 60.7109 45.9392 60.3787 46.0346 60.0702C46.13 59.7617 46.464 59.5718 46.7741 59.6905C47.0842 59.7854 47.2511 60.1176 47.1557 60.4498C47.0603 60.7346 46.7264 60.9007 46.4163 60.8058Z" fill="#7A303F"/>
<path d="M50.5656 58.2668C50.2555 58.2193 50.017 57.9108 50.0647 57.5786C50.1124 57.2464 50.4225 57.0329 50.7326 57.0803C51.0665 57.1278 51.2812 57.4362 51.2335 57.7685C51.1858 58.1007 50.8757 58.3142 50.5656 58.2668Z" fill="#7A303F"/>
<path d="M54.2604 55.1342C53.9265 55.1342 53.6641 54.8732 53.6641 54.541C53.6641 54.2088 53.9265 53.9478 54.2604 53.9478C54.5943 53.9478 54.8567 54.2088 54.8567 54.541C54.8329 54.8732 54.5705 55.1342 54.2604 55.1342Z" fill="#7A303F"/>
<path d="M57.4323 51.4802C57.0984 51.5276 56.8122 51.3141 56.7644 50.9819C56.7167 50.6496 56.9314 50.3412 57.2415 50.2937C57.5755 50.2462 57.8617 50.4598 57.9094 50.792C57.981 51.1242 57.7663 51.409 57.4323 51.4802Z" fill="#7A303F"/>
<path d="M60.0592 47.3278C59.7491 47.4227 59.4152 47.2566 59.3198 46.9481C59.2243 46.6396 59.3913 46.3074 59.7014 46.1888C60.0115 46.0938 60.3455 46.2599 60.4409 46.5684C60.5363 46.9006 60.3454 47.2328 60.0592 47.3278Z" fill="#7A303F"/>
<path d="M62.0158 42.7947C61.7295 42.937 61.3717 42.8184 61.2286 42.5336C61.0855 42.2489 61.2048 41.8692 61.491 41.7268C61.7772 41.5845 62.1351 41.7031 62.2782 41.9879C62.4213 42.2963 62.302 42.6523 62.0158 42.7947Z" fill="#7A303F"/>
<path d="M63.2552 37.9066C62.9928 38.0965 62.6111 38.049 62.4203 37.7642C62.2295 37.5032 62.301 37.1236 62.5634 36.9337C62.8258 36.7439 63.2075 36.7914 63.3745 37.0761C63.5891 37.3609 63.5176 37.7168 63.2552 37.9066Z" fill="#7A303F"/>
<path d="M63.7325 32.7573C63.494 32.9946 63.1362 32.9946 62.8977 32.7573C62.6591 32.52 62.6591 32.1404 62.8977 31.9031C63.1362 31.6658 63.494 31.6658 63.7325 31.9031C63.9711 32.1404 63.9711 32.52 63.7325 32.7573Z" fill="#7A303F"/>
<path d="M63.3979 27.5843C63.2071 27.8453 62.8493 27.9165 62.5869 27.7266C62.3245 27.5368 62.2529 27.1571 62.4437 26.8961C62.6346 26.6351 62.9924 26.5639 63.2786 26.7537C63.5172 26.9436 63.5887 27.3232 63.3979 27.5843Z" fill="#7A303F"/>
<path d="M62.2782 22.6723C62.1351 22.9571 61.7772 23.0757 61.491 22.9333C61.2048 22.791 61.0855 22.435 61.2286 22.1265C61.3717 21.8418 61.7295 21.7231 62.0158 21.8655C62.302 22.0316 62.4213 22.3876 62.2782 22.6723Z" fill="#7A303F"/>
<path d="M60.4409 18.0924C60.3455 18.4009 60.0115 18.567 59.7014 18.4721C59.3913 18.3772 59.2243 18.045 59.3198 17.7127C59.4152 17.4043 59.7491 17.2144 60.0592 17.3331C60.3454 17.428 60.5363 17.7839 60.4409 18.0924Z" fill="#7A303F"/>
<path d="M57.9351 13.8925C57.8874 14.2247 57.5773 14.4383 57.2672 14.3908C56.9571 14.3434 56.7186 14.0349 56.7901 13.7027C56.8378 13.3704 57.1479 13.1569 57.458 13.2043C57.7681 13.2518 57.9828 13.5603 57.9351 13.8925Z" fill="#7A303F"/>
<path d="M54.8372 10.1434C54.8372 10.4757 54.5748 10.7367 54.2409 10.7367C53.9069 10.7367 53.6445 10.4757 53.6445 10.1434C53.6445 9.81124 53.9069 9.55021 54.2409 9.55021C54.5748 9.52648 54.8372 9.81124 54.8372 10.1434Z" fill="#7A303F"/>
<path d="M51.2341 6.89256C51.2818 7.22478 51.0671 7.53326 50.7331 7.58072C50.3992 7.62818 50.1129 7.41461 50.0652 7.0824C50.0175 6.75019 50.2322 6.46543 50.5423 6.39425C50.8763 6.34679 51.1863 6.58408 51.2341 6.89256Z" fill="#7A303F"/>
<path d="M47.1557 4.25886C47.2511 4.56734 47.0842 4.89955 46.7741 5.0182C46.464 5.11312 46.13 4.94701 46.0346 4.63853C45.9392 4.33005 46.1062 3.99783 46.4163 3.87919C46.7264 3.78427 47.0603 3.95038 47.1557 4.25886Z" fill="#7A303F"/>
<path d="M42.6688 2.2652C42.8119 2.54995 42.6926 2.92963 42.4064 3.072C42.1202 3.21438 41.7624 3.09573 41.6192 2.81098C41.4761 2.52622 41.5954 2.14655 41.8816 2.00418C42.1679 1.8618 42.5257 1.98045 42.6688 2.2652Z" fill="#7A303F"/>
<path d="M37.8495 1.00774C38.0403 1.26877 37.9926 1.64844 37.7302 1.83827C37.4678 2.02811 37.11 1.98065 36.9192 1.6959C36.7284 1.43487 36.7761 1.0552 37.0623 0.865366C37.3008 0.675531 37.6586 0.722989 37.8495 1.00774Z" fill="#7A303F"/>
<path d="M60.823 18.2114C60.6561 18.7571 60.0836 19.0419 59.5588 18.8758C59.034 18.7097 58.7478 18.1402 58.9148 17.5944C59.0817 17.0486 59.6542 16.7639 60.179 16.93C60.7038 17.0961 60.99 17.6893 60.823 18.2114Z" fill="#7A303F"/>
<path d="M58.3421 13.9404C58.2706 14.4861 57.7458 14.8895 57.1972 14.7946C56.6485 14.6997 56.2669 14.2014 56.3623 13.6319C56.4577 13.0861 56.9586 12.7064 57.5073 12.7776C58.0559 12.8725 58.4376 13.3946 58.3421 13.9404Z" fill="#7A303F"/>
<path d="M55.2615 10.1434C55.2615 10.7129 54.8083 11.1638 54.2597 11.1638C53.711 11.1638 53.2578 10.7129 53.2578 10.1434C53.2578 9.57391 53.711 9.12305 54.2597 9.12305C54.8083 9.12305 55.2615 9.57391 55.2615 10.1434Z" fill="#7A303F"/>
<path d="M51.6413 6.84487C51.7367 7.39065 51.355 7.9127 50.8064 8.00761C50.2578 8.10253 49.7568 7.69913 49.6614 7.15335C49.5899 6.58385 49.9477 6.08553 50.4963 5.99061C51.0449 5.89569 51.5697 6.27536 51.6413 6.84487Z" fill="#7A303F"/>
<path d="M47.5613 4.13981C47.7283 4.68558 47.4421 5.25509 46.9173 5.4212C46.3925 5.5873 45.82 5.30255 45.653 4.75677C45.4861 4.211 45.7723 3.64149 46.2971 3.47538C46.8219 3.30928 47.3944 3.59403 47.5613 4.13981Z" fill="#7A303F"/>
<path d="M43.0513 2.0754C43.2898 2.57371 43.099 3.19068 42.5981 3.42797C42.0971 3.689 41.5008 3.47543 41.2623 2.97711C41.0237 2.4788 41.2146 1.86183 41.7155 1.60081C42.1926 1.38724 42.7889 1.57708 43.0513 2.0754Z" fill="#7A303F"/>
<path d="M38.2055 0.746555C38.5394 1.19741 38.4202 1.83811 37.967 2.17032C37.5137 2.50253 36.8936 2.38389 36.5596 1.93303C36.2257 1.48217 36.3449 0.841472 36.7743 0.50926C37.2514 0.200778 37.8715 0.295695 38.2055 0.746555Z" fill="#7A303F"/>
</svg>
