<svg width="48" height="48" viewBox="0 0 48 48" fill="none" xmlns="http://www.w3.org/2000/svg">
<path d="M23.9983 2.66663C21.5094 2.66663 19.3316 4.8444 19.3316 7.33329C19.3316 9.82218 21.5094 12 23.9983 12C26.4872 12 28.6649 9.82218 28.6649 7.33329C28.6649 4.8444 26.4872 2.66663 23.9983 2.66663ZM13.1094 15.1111V18.2222C13.1094 18.2222 19.3316 18.2222 19.3316 24.4444V30.6666C19.3316 36.8888 13.1094 36.8888 13.1094 36.8888V40H34.8872V36.8888C34.8872 36.8888 28.6649 36.8888 28.6649 30.6666V18.2222C28.6649 16.6666 27.1094 15.1111 25.5538 15.1111H13.1094Z" fill="#BD9B74"/>
</svg>
