<svg width="25" height="24" viewBox="0 0 25 24" fill="none" xmlns="http://www.w3.org/2000/svg">
<path d="M12.6007 7.19347C9.94054 7.19347 7.79367 9.34035 7.79367 12.0005C7.79367 14.6607 9.94054 16.8075 12.6007 16.8075C15.2609 16.8075 17.4077 14.6607 17.4077 12.0005C17.4077 9.34035 15.2609 7.19347 12.6007 7.19347ZM12.6007 15.1247C10.8804 15.1247 9.47648 13.7208 9.47648 12.0005C9.47648 10.2802 10.8804 8.87628 12.6007 8.87628C14.321 8.87628 15.7249 10.2802 15.7249 12.0005C15.7249 13.7208 14.321 15.1247 12.6007 15.1247ZM17.6046 5.87628C16.9835 5.87628 16.4819 6.37785 16.4819 6.99894C16.4819 7.62003 16.9835 8.1216 17.6046 8.1216C18.2257 8.1216 18.7273 7.62238 18.7273 6.99894C18.7274 6.85146 18.6985 6.70539 18.6422 6.5691C18.5858 6.43281 18.5031 6.30897 18.3989 6.20469C18.2946 6.1004 18.1707 6.01772 18.0344 5.96136C17.8982 5.90501 17.7521 5.8761 17.6046 5.87628ZM21.971 12.0005C21.971 10.7068 21.9827 9.42472 21.9101 8.13331C21.8374 6.63331 21.4952 5.30206 20.3984 4.20519C19.2991 3.10597 17.9702 2.76613 16.4702 2.69347C15.1765 2.62081 13.8944 2.63253 12.603 2.63253C11.3093 2.63253 10.0273 2.62081 8.73585 2.69347C7.23585 2.76613 5.9046 3.10831 4.80773 4.20519C3.70851 5.30441 3.36867 6.63331 3.29601 8.13331C3.22335 9.42706 3.23507 10.7091 3.23507 12.0005C3.23507 13.2919 3.22335 14.5763 3.29601 15.8677C3.36867 17.3677 3.71085 18.6989 4.80773 19.7958C5.90695 20.895 7.23585 21.2349 8.73585 21.3075C10.0296 21.3802 11.3116 21.3685 12.603 21.3685C13.8968 21.3685 15.1788 21.3802 16.4702 21.3075C17.9702 21.2349 19.3015 20.8927 20.3984 19.7958C21.4976 18.6966 21.8374 17.3677 21.9101 15.8677C21.9851 14.5763 21.971 13.2943 21.971 12.0005ZM19.9085 17.5271C19.7374 17.9536 19.5312 18.2724 19.2007 18.6005C18.8702 18.931 18.5538 19.1372 18.1273 19.3083C16.8944 19.7982 13.9671 19.688 12.6007 19.688C11.2343 19.688 8.3046 19.7982 7.07179 19.3107C6.64523 19.1396 6.32648 18.9333 5.99835 18.6028C5.66788 18.2724 5.46163 17.956 5.29054 17.5294C4.80304 16.2943 4.9132 13.3669 4.9132 12.0005C4.9132 10.6341 4.80304 7.70441 5.29054 6.4716C5.46163 6.04503 5.66788 5.72628 5.99835 5.39816C6.32882 5.07003 6.64523 4.86144 7.07179 4.69035C8.3046 4.20285 11.2343 4.313 12.6007 4.313C13.9671 4.313 16.8968 4.20285 18.1296 4.69035C18.5562 4.86144 18.8749 5.06769 19.203 5.39816C19.5335 5.72863 19.7398 6.04503 19.9109 6.4716C20.3984 7.70441 20.2882 10.6341 20.2882 12.0005C20.2882 13.3669 20.3984 16.2943 19.9085 17.5271Z" fill="#727581"/>
</svg>
