<svg width="48" height="48" viewBox="0 0 48 48" fill="none" xmlns="http://www.w3.org/2000/svg">
<path d="M21.5166 20.143L30.7686 10.891C31.8057 11.6294 33.0259 12 34.2447 12C35.7798 12 37.3165 11.4141 38.4869 10.2437C40.8306 7.89994 40.8306 4.10156 38.4869 1.75781C37.3165 0.585938 35.7798 0 34.2447 0C32.7095 0 31.1744 0.585938 30.0025 1.75781C27.9004 3.85988 27.6851 7.13231 29.3551 9.47606L20.1031 18.7281L18.688 17.3145L1.60938 34.393C0.4375 35.5649 0.4375 37.4648 1.60938 38.6367C2.19381 39.2227 2.96294 39.5156 3.73047 39.5156C4.498 39.5156 5.26562 39.2227 5.85156 38.6367L22.9317 21.5566L21.5166 20.143ZM31.4161 3.17137C32.1719 2.41697 33.1768 2.001 34.2447 2.001C35.314 2.001 36.3174 2.41706 37.0733 3.17137C37.8291 3.92719 38.2452 4.93209 38.2452 6C38.2452 7.06931 37.8291 8.07272 37.0733 8.82862C36.3175 9.58453 35.314 10.0005 34.2447 10.0005C33.1768 10.0005 32.172 9.58444 31.4161 8.82862C29.8575 7.26853 29.8575 4.73147 31.4161 3.17137ZM4.4365 37.2217C4.18309 37.4766 3.88422 37.5146 3.73047 37.5146C3.57522 37.5146 3.27784 37.4766 3.02294 37.2217C2.63331 36.832 2.63331 36.1977 3.02294 35.8081L15.8594 22.9717L17.2744 24.3852L4.4365 37.2217ZM18.688 22.9717L17.2744 21.5566L18.688 20.143L20.1031 21.5566L18.688 22.9717Z" fill="#BD9B74"/>
<path d="M47.2466 16.4104L45.8316 9.33957C45.795 9.15207 45.7042 8.97338 45.5592 8.82835C45.1681 8.43873 44.5353 8.43873 44.1441 8.82835C43.8995 9.07445 43.8087 9.41579 43.8717 9.7322L45.0465 15.6062H40.6095C40.3532 15.6062 40.0968 15.7044 39.9019 15.8992L28.5874 27.2136L27.1739 25.7985L10.0938 42.8786C8.92188 44.0505 8.92188 45.9504 10.0938 47.1208C10.6797 47.7068 11.4473 47.9997 12.2148 47.9997C12.9839 47.9997 13.7515 47.7068 14.3374 47.1208L31.4161 30.0422L30.0025 28.6271L41.0225 17.6071H46.2652C46.5215 17.6071 46.7779 17.5089 46.9728 17.3141C47.2188 17.068 47.3096 16.7268 47.2466 16.4104ZM12.9224 45.7073C12.6675 45.9622 12.3701 46.0002 12.2148 46.0002C12.061 46.0002 11.7637 45.9622 11.5088 45.7073C11.2539 45.4524 11.2158 45.155 11.2158 44.9997C11.2158 44.8459 11.2539 44.5486 11.5088 44.2937L24.3452 31.4558L25.7603 32.8708L12.9224 45.7073ZM27.1739 31.4558L25.7603 30.0422L27.1739 28.6271L28.5874 30.0422L27.1739 31.4558Z" fill="#BD9B74"/>
</svg>
