<svg width="48" height="48" viewBox="0 0 48 48" fill="none" xmlns="http://www.w3.org/2000/svg">
<g clip-path="url(#clip0)">
<path d="M34.2879 39.4546L34.2879 39.4546L34.2817 39.4593L23.951 47.3702L13.6217 39.4605C13.6214 39.4602 13.621 39.4599 13.6207 39.4597C8.28066 35.337 5.09766 28.9676 5.09766 22.2275V7.86148C9.00608 7.6144 12.2108 4.49168 12.4594 0.5H35.5383C35.7869 4.49168 38.9916 7.6144 42.9001 7.86148V22.3234C42.9001 29.0641 39.7169 35.4297 34.2879 39.4546Z" stroke="#782F40" stroke-miterlimit="10" stroke-linejoin="round"/>
<path d="M32.6533 37.3513L32.6524 37.3519L24.044 43.9239L15.3422 37.3513C10.6754 33.8045 7.875 28.2029 7.875 22.3242V10.1433C11.1042 9.09217 13.6879 6.50846 14.739 3.2793H33.2565C34.3076 6.50846 36.8913 9.09217 40.1205 10.1433V22.3242C40.1205 28.2029 37.3201 33.8045 32.6533 37.3513Z" stroke="#782F40" stroke-miterlimit="10" stroke-linejoin="round"/>
<path d="M33.6265 18.6812H26.9199V11.9746H21.1714V18.6812H14.4648V24.4297H21.1714V31.1363H26.9199V24.4297H33.6265V18.6812Z" fill="#782F40"/>
</g>
<defs>
<clipPath id="clip0">
<rect width="48" height="48" fill="white"/>
</clipPath>
</defs>
</svg>
