<svg width="48" height="48" viewBox="0 0 48 48" fill="none" xmlns="http://www.w3.org/2000/svg">
<path d="M35 1V5C35 6.1 35.9 7 37 7H41" stroke="#782F40" stroke-width="1.3" stroke-miterlimit="10"/>
<path d="M7 45C7 46.1 7.9 47 9 47H39C40.1 47 41 46.1 41 45V7.8C41 7.3 40.8 6.8 40.4 6.4L35.6 1.6C35.2 1.2 34.7 1 34.2 1H9C7.9 1 7 1.9 7 3V45Z" stroke="#782F40" stroke-width="1.3" stroke-miterlimit="10"/>
<path d="M15 13C13.9 13 13 12.1 13 11V10C13 8.9 13.9 8 15 8C16.1 8 17 8.9 17 10V11C17 12.1 16.1 13 15 13Z" stroke="#782F40" stroke-width="1.3" stroke-miterlimit="10"/>
<path d="M11 18.0004V16.2004C11 14.9004 11.9 13.8004 13.1 13.5004C14.3 13.2004 15.6 13.2004 16.9 13.5004C18.1 13.8004 19 14.9004 19 16.2004V18.0004" stroke="#782F40" stroke-width="1.3" stroke-miterlimit="10"/>
<path d="M23 9H30" stroke="#782F40" stroke-width="1.3" stroke-miterlimit="10"/>
<path d="M10 21H38" stroke="#782F40" stroke-width="1.3" stroke-miterlimit="10"/>
<path d="M23 13H38" stroke="#782F40" stroke-width="1.3" stroke-miterlimit="10"/>
<path d="M32 35V42" stroke="#782F40" stroke-width="1.3" stroke-miterlimit="10"/>
<path d="M36 42V28" stroke="#782F40" stroke-width="1.3" stroke-miterlimit="10"/>
<path d="M24 34V42" stroke="#782F40" stroke-width="1.3" stroke-miterlimit="10"/>
<path d="M28 42V32" stroke="#782F40" stroke-width="1.3" stroke-miterlimit="10"/>
<path d="M16 34V42" stroke="#782F40" stroke-width="1.3" stroke-miterlimit="10"/>
<path d="M20 42V38" stroke="#782F40" stroke-width="1.3" stroke-miterlimit="10"/>
<path d="M23 17H38" stroke="#782F40" stroke-width="1.3" stroke-miterlimit="10"/>
<path d="M12 30V42" stroke="#782F40" stroke-width="1.3" stroke-miterlimit="10"/>
</svg>
