<svg width="17" height="17" viewBox="0 0 17 17" fill="none" xmlns="http://www.w3.org/2000/svg">
<path d="M8.48864 3.66455C9.52359 3.66455 10.4083 4.02762 11.1428 4.75375C11.8773 5.47989 12.2445 6.36043 12.2445 7.39538C12.2445 7.91286 12.1151 8.50962 11.8564 9.18568C11.5977 9.86173 11.2847 10.4877 10.9174 11.0636C10.5502 11.6395 10.183 12.182 9.81572 12.6912C9.44847 13.2003 9.13966 13.6051 8.88927 13.9056L8.48864 14.3312C8.38849 14.2311 8.25494 14.0808 8.08802 13.8805C7.92109 13.6802 7.62479 13.2921 7.19913 12.7162C6.77346 12.1403 6.3937 11.5811 6.05985 11.0386C5.72599 10.4961 5.42552 9.8826 5.15844 9.1982C4.89135 8.51379 4.75781 7.91286 4.75781 7.39538C4.75781 6.36043 5.12088 5.47989 5.84701 4.75375C6.57315 4.02762 7.45369 3.66455 8.48864 3.66455ZM8.48864 8.72245C8.85588 8.72245 9.17304 8.59308 9.44013 8.33435C9.70721 8.07561 9.84075 7.76262 9.84075 7.39538C9.84075 7.02814 9.70721 6.71515 9.44013 6.45641C9.17304 6.19768 8.85588 6.06831 8.48864 6.06831C8.1214 6.06831 7.80841 6.19768 7.54967 6.45641C7.29094 6.71515 7.16157 7.02814 7.16157 7.39538C7.16157 7.76262 7.29094 8.07561 7.54967 8.33435C7.80841 8.59308 8.1214 8.72245 8.48864 8.72245Z" fill="#727581"/>
</svg>
