<svg width="32" height="32" viewBox="0 0 32 32" fill="none" xmlns="http://www.w3.org/2000/svg">
<path d="M15.9734 5.3335C18.0433 5.3335 19.8127 6.05963 21.2817 7.5119C22.7506 8.96417 23.4851 10.7253 23.4851 12.7952C23.4851 13.8301 23.2264 15.0236 22.7089 16.3757C22.1914 17.7279 21.5654 18.9798 20.831 20.1316C20.0965 21.2834 19.362 22.3684 18.6275 23.3867C17.893 24.405 17.2754 25.2146 16.7746 25.8155L15.9734 26.6668C15.7731 26.4665 15.506 26.166 15.1721 25.7654C14.8383 25.3648 14.2457 24.5886 13.3943 23.4368C12.543 22.285 11.7835 21.1666 11.1158 20.0815C10.4481 18.9965 9.84714 17.7696 9.31297 16.4008C8.7788 15.032 8.51172 13.8301 8.51172 12.7952C8.51172 10.7253 9.23785 8.96417 10.6901 7.5119C12.1424 6.05963 13.9035 5.3335 15.9734 5.3335ZM15.9734 15.4493C16.7079 15.4493 17.3422 15.1906 17.8764 14.6731C18.4105 14.1556 18.6776 13.5296 18.6776 12.7952C18.6776 12.0607 18.4105 11.4347 17.8764 10.9172C17.3422 10.3997 16.7079 10.141 15.9734 10.141C15.2389 10.141 14.6129 10.3997 14.0954 10.9172C13.578 11.4347 13.3192 12.0607 13.3192 12.7952C13.3192 13.5296 13.578 14.1556 14.0954 14.6731C14.6129 15.1906 15.2389 15.4493 15.9734 15.4493Z" fill="#333638"/>
</svg>
