<svg width="48" height="48" viewBox="0 0 48 48" fill="none" xmlns="http://www.w3.org/2000/svg">
<path d="M3 22.9997L9.626 14.3617C10.3072 13.4745 11.1839 12.7565 12.188 12.2637" stroke="#782F40" stroke-width="1.3" stroke-linecap="round" stroke-linejoin="round"/>
<path d="M15 23.548V13C15 11.9391 15.4214 10.9217 16.1716 10.1716C16.9217 9.42143 17.9391 9 19 9H41C42.0609 9 43.0783 9.42143 43.8284 10.1716C44.5786 10.9217 45 11.9391 45 13V27C45 28.0609 44.5786 29.0783 43.8284 29.8284C43.0783 30.5786 42.0609 31 41 31H24.106" stroke="#782F40" stroke-width="1.3" stroke-linecap="round" stroke-linejoin="round"/>
<path d="M3 39.001H11.624C13.2776 39.0008 14.9055 38.5926 16.3635 37.8125C17.8215 37.0324 19.0644 35.9045 19.982 34.529C20.6532 33.5191 21.5253 32.6586 22.544 32.001L26.616 29.379C27.1708 28.8249 27.5151 28.0947 27.5898 27.3142C27.6645 26.5336 27.4648 25.7515 27.0251 25.1023C26.5854 24.453 25.9332 23.9773 25.1807 23.757C24.4282 23.5366 23.6224 23.5854 22.902 23.895L11 29.001" stroke="#782F40" stroke-width="1.3" stroke-linecap="round" stroke-linejoin="round"/>
<path d="M25.8948 21.2985L22.8028 18.2885C22.7412 18.2279 22.6977 18.1514 22.6773 18.0675C22.6568 17.9836 22.6602 17.8956 22.687 17.8135C22.7138 17.7314 22.763 17.6584 22.829 17.6028C22.8951 17.5471 22.9753 17.511 23.0608 17.4985L27.3268 16.8785C27.4011 16.8676 27.4716 16.8388 27.5322 16.7945C27.5929 16.7503 27.6418 16.6919 27.6748 16.6245L29.5828 12.7585C29.6211 12.6809 29.6804 12.6156 29.7539 12.5699C29.8274 12.5242 29.9122 12.5 29.9988 12.5C30.0853 12.5 30.1702 12.5242 30.2437 12.5699C30.3172 12.6156 30.3765 12.6809 30.4148 12.7585L32.3228 16.6245C32.3558 16.6919 32.4047 16.7503 32.4654 16.7945C32.526 16.8388 32.5965 16.8676 32.6708 16.8785L36.9368 17.4985C37.0222 17.511 37.1025 17.5471 37.1686 17.6028C37.2346 17.6584 37.2838 17.7314 37.3106 17.8135C37.3374 17.8956 37.3408 17.9836 37.3203 18.0675C37.2999 18.1514 37.2564 18.2279 37.1948 18.2885L34.1068 21.2885C34.0533 21.3411 34.0133 21.4058 33.9903 21.4772C33.9674 21.5486 33.962 21.6246 33.9748 21.6985L34.7028 25.9485C34.717 26.0336 34.7072 26.1209 34.6746 26.2007C34.6419 26.2806 34.5876 26.3497 34.5178 26.4004C34.448 26.4511 34.3654 26.4813 34.2794 26.4877C34.1934 26.4941 34.1073 26.4763 34.0308 26.4365L30.2148 24.4365" stroke="#782F40" stroke-width="1.3" stroke-linecap="round" stroke-linejoin="round"/>
</svg>
