<svg width="40" height="50" viewBox="0 0 40 50" fill="none" xmlns="http://www.w3.org/2000/svg">
<ellipse opacity="0.15" cx="20" cy="48.125" rx="19.3066" ry="1.5" fill="#96570E"/>
<ellipse opacity="0.3" cx="19.8066" cy="48.125" rx="13.1816" ry="1" fill="#96570E"/>
<ellipse opacity="0.3" cx="19.8066" cy="48.125" rx="7" ry="1" fill="#96570E"/>
<path d="M19.7515 0C24.3076 0 28.2022 1.6338 31.4355 4.90141C34.6689 8.16901 36.2855 12.1315 36.2855 16.7887C36.2855 19.1174 35.716 21.8028 34.577 24.8451C33.438 27.8873 32.0602 30.7042 30.4435 33.2958C28.8268 35.8873 27.2102 38.3286 25.5935 40.6197C23.9769 42.9108 22.6174 44.7324 21.5151 46.0845L19.7515 48C19.3106 47.5493 18.7227 46.8732 17.9879 45.9718C17.2531 45.0704 15.9487 43.3239 14.0749 40.7324C12.201 38.1408 10.5292 35.6244 9.05954 33.1831C7.58985 30.7418 6.26713 27.9812 5.09138 24.9014C3.91563 21.8216 3.32776 19.1174 3.32776 16.7887C3.32776 12.1315 4.92604 8.16901 8.12262 4.90141C11.3192 1.6338 15.1955 0 19.7515 0ZM19.7515 22.7606C21.3682 22.7606 22.7644 22.1784 23.9401 21.0141C25.1159 19.8498 25.7038 18.4413 25.7038 16.7887C25.7038 15.1362 25.1159 13.7277 23.9401 12.5634C22.7644 11.3991 21.3682 10.8169 19.7515 10.8169C18.1349 10.8169 16.757 11.3991 15.618 12.5634C14.479 13.7277 13.9095 15.1362 13.9095 16.7887C13.9095 18.4413 14.479 19.8498 15.618 21.0141C16.757 22.1784 18.1349 22.7606 19.7515 22.7606Z" fill="#782F40"/>
<path d="M19.7515 0.5C24.1727 0.5 27.9398 2.07944 31.0801 5.25309C34.2195 8.42572 35.7855 12.2612 35.7855 16.7887C35.7855 19.0389 35.2344 21.6631 34.1087 24.6698C32.9807 27.6828 31.6172 30.4695 30.0193 33.0311C28.4072 35.6154 26.7957 38.0487 25.185 40.3314C23.5762 42.6114 22.2274 44.4186 21.1371 45.7569L19.7475 47.2662C19.3743 46.8565 18.9174 46.3208 18.3754 45.6559C17.6511 44.7673 16.3547 43.0322 14.48 40.4394C12.6134 37.8579 10.9496 35.3532 9.48791 32.9252C8.03561 30.5128 6.72531 27.7795 5.5585 24.7231C4.39616 21.6784 3.82776 19.0368 3.82776 16.7887C3.82776 12.2594 5.37677 8.42328 8.48003 5.25106C11.5829 2.07924 15.3305 0.5 19.7515 0.5ZM19.7515 23.2606C21.5034 23.2606 23.025 22.624 24.292 21.3694C25.5624 20.1113 26.2038 18.575 26.2038 16.7887C26.2038 15.0025 25.5624 13.4662 24.292 12.2081C23.025 10.9535 21.5034 10.3169 19.7515 10.3169C17.9992 10.3169 16.4929 10.9541 15.2606 12.2137C14.0287 13.473 13.4095 15.0076 13.4095 16.7887C13.4095 18.5699 14.0287 20.1045 15.2606 21.3637C16.4929 22.6234 17.9992 23.2606 19.7515 23.2606Z" fill="#FFC839" stroke="#96570E"/>
</svg>
