<svg width="40" height="50" viewBox="0 0 40 50" fill="none" xmlns="http://www.w3.org/2000/svg">
<ellipse opacity="0.15" cx="20" cy="48.125" rx="19.3066" ry="1.5" fill="#96570E"/>
<ellipse opacity="0.3" cx="19.8066" cy="48.125" rx="13.1816" ry="1" fill="#96570E"/>
<ellipse opacity="0.3" cx="19.8066" cy="48.125" rx="7" ry="1" fill="#96570E"/>
<path d="M19.7515 0C24.3076 0 28.2022 1.6338 31.4355 4.90141C34.6689 8.16901 36.2855 12.1315 36.2855 16.7887C36.2855 19.1174 35.716 21.8028 34.577 24.8451C33.438 27.8873 32.0602 30.7042 30.4435 33.2958C28.8268 35.8873 27.2102 38.3286 25.5935 40.6197C23.9769 42.9108 22.6174 44.7324 21.5151 46.0845L19.7515 48C19.3106 47.5493 18.7227 46.8732 17.9879 45.9718C17.2531 45.0704 15.9487 43.3239 14.0749 40.7324C12.201 38.1408 10.5292 35.6244 9.05954 33.1831C7.58985 30.7418 6.26713 27.9812 5.09138 24.9014C3.91563 21.8216 3.32776 19.1174 3.32776 16.7887C3.32776 12.1315 4.92604 8.16901 8.12262 4.90141C11.3192 1.6338 15.1955 0 19.7515 0ZM19.7515 22.7606C21.3682 22.7606 22.7644 22.1784 23.9401 21.0141C25.1159 19.8498 25.7038 18.4413 25.7038 16.7887C25.7038 15.1362 25.1159 13.7277 23.9401 12.5634C22.7644 11.3991 21.3682 10.8169 19.7515 10.8169C18.1349 10.8169 16.757 11.3991 15.618 12.5634C14.479 13.7277 13.9095 15.1362 13.9095 16.7887C13.9095 18.4413 14.479 19.8498 15.618 21.0141C16.757 22.1784 18.1349 22.7606 19.7515 22.7606Z" fill="#782F40"/>
<path d="M19.7515 0C24.3076 0 28.2022 1.6338 31.4355 4.90141C34.6689 8.16901 36.2855 12.1315 36.2855 16.7887C36.2855 19.1174 35.716 21.8028 34.577 24.8451C33.438 27.8873 32.0602 30.7042 30.4435 33.2958C28.8268 35.8873 27.2102 38.3286 25.5935 40.6197C23.9769 42.9108 22.6174 44.7324 21.5151 46.0845L19.7515 48C19.3106 47.5493 18.7227 46.8732 17.9879 45.9718C17.2531 45.0704 15.9487 43.3239 14.0749 40.7324C12.201 38.1408 10.5292 35.6244 9.05954 33.1831C7.58985 30.7418 6.26713 27.9812 5.09138 24.9014C3.91563 21.8216 3.32776 19.1174 3.32776 16.7887C3.32776 12.1315 4.92604 8.16901 8.12262 4.90141C11.3192 1.6338 15.1955 0 19.7515 0ZM19.7515 22.7606C21.3682 22.7606 22.7644 22.1784 23.9401 21.0141C25.1159 19.8498 25.7038 18.4413 25.7038 16.7887C25.7038 15.1362 25.1159 13.7277 23.9401 12.5634C22.7644 11.3991 21.3682 10.8169 19.7515 10.8169C18.1349 10.8169 16.757 11.3991 15.618 12.5634C14.479 13.7277 13.9095 15.1362 13.9095 16.7887C13.9095 18.4413 14.479 19.8498 15.618 21.0141C16.757 22.1784 18.1349 22.7606 19.7515 22.7606Z" fill="#96570E"/>
</svg>
