<svg width="32" height="32" viewBox="0 0 32 32" fill="none" xmlns="http://www.w3.org/2000/svg">
<path d="M17.6866 17.6793C16.4606 18.9493 14.9773 19.9298 13.3407 20.5519L11.1267 18.7528C11.061 18.7066 10.9832 18.6819 10.9035 18.6819C10.8238 18.6819 10.746 18.7066 10.6803 18.7528L6.56935 21.4575C6.41328 21.5533 6.28117 21.6848 6.18345 21.8417C6.08572 21.9987 6.02507 22.1766 6.00627 22.3616C5.98748 22.5465 6.01105 22.7334 6.07514 22.9075C6.13923 23.0816 6.24207 23.238 6.37555 23.3645L8.30183 25.3075C8.57769 25.5859 8.91675 25.7902 9.28873 25.9021C9.66072 26.0141 10.0541 26.0303 10.4337 25.9492C14.2203 25.1506 17.7106 23.2803 20.5055 20.5519C23.2384 17.7964 25.1296 14.2903 25.9496 10.4589C26.0306 10.0773 26.0137 9.68075 25.9005 9.30776C25.7874 8.93477 25.5817 8.59795 25.3036 8.32996L23.3069 6.36293C23.1833 6.23327 23.0326 6.13383 22.8661 6.07206C22.6995 6.0103 22.5215 5.9878 22.3452 6.00626C22.169 6.02472 21.9991 6.08366 21.8483 6.17866C21.6975 6.27366 21.5698 6.40226 21.4745 6.55484L18.7378 10.6988C18.6906 10.7639 18.6651 10.8427 18.6651 10.9237C18.6651 11.0047 18.6906 11.0835 18.7378 11.1486L20.5408 13.3615C19.915 14.9992 18.94 16.4742 17.6866 17.6793V17.6793Z" fill="#333638"/>
</svg>
