<svg width="48" height="48" viewBox="0 0 48 48" fill="none" xmlns="http://www.w3.org/2000/svg">
<g clip-path="url(#clip0)">
<path d="M47.304 1.73926H0.695312V46.261H47.304V1.73926Z" fill="#FBEDD8"/>
<path d="M47.304 5.35665C46.8866 27.7567 26.0171 45.7045 0.695312 45.5653V1.73926H47.1649C47.304 2.99143 47.304 4.10448 47.304 5.35665Z" fill="#FFF9F0"/>
<path d="M47.304 1.73926H0.695312V46.261H47.304V1.73926Z" stroke="#BD9B74" stroke-width="2" stroke-linecap="round" stroke-linejoin="round"/>
<path d="M11.8242 35.1304H34.0851" stroke="#BD9B74" stroke-linecap="round" stroke-linejoin="round"/>
<path d="M11.8242 39.3042H34.0851" stroke="#BD9B74" stroke-linecap="round" stroke-linejoin="round"/>
<path d="M24.3477 11.478H39.652" stroke="#BD9B74" stroke-linecap="round" stroke-linejoin="round"/>
<path d="M24.3477 15.6523H39.652" stroke="#BD9B74" stroke-linecap="round" stroke-linejoin="round"/>
<path d="M24.3477 19.8262H39.652" stroke="#BD9B74" stroke-linecap="round" stroke-linejoin="round"/>
<path d="M14.75 9.53047L13.9153 9.80873C13.0805 10.087 12.1066 10.087 11.2718 9.80873L10.5761 9.53047C9.18483 8.97395 7.51526 9.6696 6.95874 11.2C6.54135 11.8957 6.68048 12.7305 6.95874 13.4261C7.65439 14.6783 7.65439 14.6783 7.93265 18.0174C8.21091 21.3566 9.88048 21.2174 9.88048 21.2174C10.5761 21.2174 10.8544 20.9392 11.2718 19.2696C11.4109 18.7131 11.55 18.2957 11.6892 17.7392C11.9674 17.3218 12.524 17.0435 13.0805 17.3218C13.2196 17.4609 13.3587 17.6 13.4979 17.7392C13.7761 18.2957 13.9153 18.7131 14.0544 19.2696C14.3327 20.9392 14.75 21.2174 15.4457 21.2174C15.4457 21.2174 17.1153 21.2174 17.3935 18.0174C17.6718 14.8174 17.6718 14.8174 18.3674 13.4261C19.0631 12.0348 18.5066 10.2261 16.9761 9.53047C16.2805 9.25221 15.4457 9.25221 14.75 9.53047Z" fill="#BD9B74"/>
</g>
<defs>
<clipPath id="clip0">
<rect width="48" height="48" fill="white"/>
</clipPath>
</defs>
</svg>
