<svg width="32" height="32" viewBox="0 0 32 32" fill="none" xmlns="http://www.w3.org/2000/svg">
<path d="M18.0599 21.3207H13.8542C13.8432 20.716 13.8377 20.3477 13.8377 20.2157C13.8377 18.8523 14.0631 17.7308 14.5139 16.8511C14.9647 15.9715 15.8663 14.9819 17.2188 13.8824C18.5712 12.7828 19.3793 12.0626 19.6432 11.7218C20.0501 11.183 20.2535 10.5893 20.2535 9.94054C20.2535 9.03892 19.8906 8.26924 19.1649 7.63151C18.4502 6.98278 17.4826 6.65842 16.2622 6.65842C15.0856 6.65842 14.1016 6.99378 13.3099 7.6645C12.5182 8.33521 11.974 9.35778 11.6771 10.7322L7.42188 10.2044C7.54282 8.23626 8.37847 6.56496 9.92882 5.19054C11.4902 3.81612 13.5353 3.12891 16.0642 3.12891C18.7251 3.12891 20.8417 3.82711 22.4141 5.22352C23.9864 6.60894 24.7726 8.22526 24.7726 10.0725C24.7726 11.0951 24.4812 12.0626 23.8984 12.9753C23.3267 13.8879 22.0952 15.1304 20.204 16.7027C19.2254 17.5163 18.6152 18.1706 18.3733 18.6654C18.1424 19.1602 18.0379 20.0453 18.0599 21.3207ZM13.8542 27.5551V22.9206H18.4887V27.5551H13.8542Z" fill="#BD9B74"/>
</svg>
