<svg width="48" height="48" viewBox="0 0 48 48" fill="none" xmlns="http://www.w3.org/2000/svg">
<path d="M29.1 6.3C27.3 5.5 25.3 5 23.2 5C17.5 5 12.6 8.4 10.4 13.4C5.2 13.4 1 17.6 1 22.8C1 28 5.2 32.3 10.5 32.3C11.1 32.3 11.6 32.2 12.1 32.2C13.1 35.5 16.1 37.8 19.7 37.8C21.8 37.8 23.6 37 25 35.7C26.5 37.6 28.9 38.9 31.6 38.9C34.4 38.9 36.8 37.5 38.4 35.4C38.8 35.5 39.2 35.5 39.6 35.5C43.7 35.5 47.1 32.2 47.1 28C47.1 25.1 45.5 22.7 43.1 21.4C43.4 20.6 43.5 19.7 43.5 18.8C43.5 16.5 42.6 14.5 41.1 13M40.6 40C38.7 40 37.1 41.6 37.1 43.5C37.1 45.4 38.7 47 40.6 47C42.5 47 44.1 45.4 44.1 43.5C44.1 41.6 42.5 40 40.6 40Z" stroke="#782F40" stroke-width="1.2" stroke-miterlimit="10"/>
<path d="M31.1016 12L32.7016 15.3L36.1016 17L32.7016 18.7L31.1016 22L29.4016 18.7L26.1016 17L29.4016 15.3L31.1016 12Z" stroke="#782F40" stroke-width="1.2" stroke-miterlimit="10" stroke-linejoin="round"/>
<path d="M22.5391 22.2266L23.6628 24.5443L26.0508 25.7383L23.6628 26.9323L22.5391 29.25L21.3451 26.9323L19.0273 25.7383L21.3451 24.5443L22.5391 22.2266Z" stroke="#782F40" stroke-width="1.2" stroke-miterlimit="10" stroke-linejoin="round"/>
<path d="M38.1016 1L40.1016 5L44.1016 7L40.1016 9L38.1016 13L36.1016 9L32.1016 7L36.1016 5L38.1016 1Z" stroke="#782F40" stroke-width="1.2" stroke-miterlimit="10" stroke-linejoin="round"/>
</svg>
