<svg width="48" height="48" viewBox="0 0 48 48" fill="none" xmlns="http://www.w3.org/2000/svg">
<g clip-path="url(#clip0)">
<path d="M24.2997 29.9999C19.9497 29.9999 18.1497 27.2999 17.9997 27.1499C17.9997 26.9999 17.8497 26.9999 17.8497 26.8499C17.5497 24.7499 17.5497 20.6999 17.9997 19.0499C18.4497 17.3999 23.0997 16.6499 24.2997 16.6499C25.3497 16.6499 30.1497 17.3999 30.5997 19.0499C31.0497 20.6999 31.0497 24.7499 30.7497 26.8499C30.7497 26.9999 30.7497 27.1499 30.5997 27.1499C30.4497 27.2999 28.4997 29.9999 24.2997 29.9999ZM19.1997 26.5499C19.6497 26.9999 21.1497 28.6499 24.1497 28.6499C27.1497 28.6499 28.7997 27.1499 29.0997 26.5499C29.3997 24.4499 29.3997 20.8499 28.9497 19.4999C28.6497 19.0499 25.6497 18.1499 24.1497 18.1499C22.6497 18.1499 19.6497 19.0499 19.1997 19.6499C19.0497 20.8499 19.0497 24.2999 19.1997 26.5499Z" fill="#BD9B74"/>
<path d="M33.9 13.6497C33.75 14.0997 33.45 14.3997 33.3 14.9997C33.3 14.5497 33.15 14.0997 33 13.4997C32.55 13.6497 32.1 13.7997 31.65 13.7997C31.95 14.8497 31.95 15.7497 31.95 16.4997C31.95 16.6497 31.95 16.9497 32.1 17.0997C32.25 17.2497 32.55 17.5497 33 17.5497C33.15 17.5497 33.15 17.5497 33.3 17.5497C34.05 17.3997 34.35 16.3497 34.5 16.0497V15.8997C34.5 16.0497 34.5 16.1997 34.5 16.3497C34.35 18.2997 33.6 18.7497 32.85 18.7497C32.55 18.7497 32.4 19.0497 32.25 19.1997C32.1 19.9497 31.8 20.6997 31.5 21.2997C31.5 22.3497 31.5 23.3997 31.5 24.4497C32.25 23.0997 33 21.7497 33.45 20.0997C34.95 19.6497 35.7 18.4497 35.85 16.3497C35.85 15.2997 35.7 14.5497 35.25 13.9497C35.55 13.4997 35.7 12.8997 35.7 12.4497C35.25 12.7497 34.65 12.8997 34.05 13.1997C34.2 13.1997 34.05 13.4997 33.9 13.6497Z" fill="#BD9B74"/>
<path d="M16.9492 21.3003C16.6492 20.7003 16.3492 19.9503 16.1992 19.2003C16.0492 18.9003 15.8992 18.7503 15.5992 18.7503C14.8492 18.6003 14.0992 18.3003 13.9492 16.3503C13.9492 16.2003 13.9492 16.2003 13.9492 16.0503C13.9492 16.0503 13.9492 16.0503 13.9492 16.2003C14.0992 16.5003 14.3992 17.5503 15.1492 17.7003C15.2992 17.7003 15.2992 17.7003 15.4492 17.7003C15.8992 17.7003 16.1992 17.5503 16.3492 17.2503C16.4992 17.1003 16.4992 16.9503 16.4992 16.6503C16.3492 15.9003 16.4992 15.0003 16.7992 13.9503C16.3492 13.6503 15.8992 13.6503 15.4492 13.5003C15.2992 13.9503 15.2992 14.5503 15.1492 15.0003C14.9992 14.4003 14.6992 13.9503 14.5492 13.6503C14.3992 13.5003 14.3992 13.2003 14.2492 13.0503C13.6492 12.9003 13.0492 12.6003 12.4492 12.3003C12.4492 12.9003 12.7492 13.3503 13.0492 13.8003C12.5992 14.4003 12.4492 15.3003 12.4492 16.2003C12.5992 18.3003 13.3492 19.5003 14.8492 19.9503C15.2992 21.6003 16.0492 23.1003 16.7992 24.3003C16.9492 23.4003 16.9492 22.3503 16.9492 21.3003Z" fill="#BD9B74"/>
<path d="M24.2992 13.95C20.6992 13.95 15.5992 13.2 12.8992 11.7C12.5992 11.55 12.4492 11.25 12.4492 11.1C12.4492 8.85 12.5992 3.75 13.4992 2.55C14.6992 1.2 20.3992 0 24.2992 0C28.1992 0 33.8992 1.2 35.0992 2.55C35.8492 3.6 35.9992 8.85 35.9992 11.1C35.9992 11.4 35.8492 11.55 35.5492 11.7C32.8492 13.2 27.7492 13.95 24.2992 13.95ZM13.9492 10.65C16.4992 11.85 20.9992 12.45 24.2992 12.45C27.5992 12.45 32.0992 11.85 34.6492 10.65C34.6492 7.5 34.3492 4.05 33.8992 3.45C33.2992 2.85 28.4992 1.5 24.2992 1.5C19.9492 1.5 15.2992 2.85 14.6992 3.45C14.2492 4.05 13.9492 7.5 13.9492 10.65Z" fill="#BD9B74"/>
<path d="M44.1 32.8503C42.9 30.1503 34.2 27.4503 32.4 27.0003C32.1 26.8503 31.65 27.1503 31.5 27.4503C30.15 30.9003 25.65 34.3503 24.15 35.4003C22.8 34.3503 18.15 30.9003 16.8 27.4503C16.65 27.1503 16.2 26.8503 15.9 27.0003C14.1 27.4503 5.4 30.3003 4.2 32.8503C3 35.8503 3 47.1003 3 47.2503C3 47.7003 3.3 48.0003 3.75 48.0003H44.7C45.15 48.0003 45.45 47.7003 45.45 47.2503C45.45 47.1003 45.45 35.8503 44.1 32.8503ZM4.5 46.5003C4.5 42.6003 4.8 35.4003 5.7 33.4503C6.6 31.6503 14.55 28.9503 15.9 28.5003C17.55 31.8003 21.3 34.8003 22.95 36.1503C22.2 36.6003 21.3 37.0503 20.4 37.3503C19.95 37.5003 19.8 37.9503 19.95 38.2503C20.1 38.5503 20.4 38.7003 20.7 38.7003C20.85 38.7003 20.85 38.7003 21 38.7003C22.95 37.9503 24.75 36.7503 24.75 36.7503C25.05 36.6003 30.6 32.7003 32.7 28.5003C34.05 28.9503 42 31.6503 42.9 33.4503C43.8 35.4003 44.1 42.6003 44.1 46.5003H4.5Z" fill="#BD9B74"/>
</g>
<defs>
<clipPath id="clip0">
<rect width="48" height="48" fill="white"/>
</clipPath>
</defs>
</svg>
