<svg width="20" height="20" viewBox="0 0 20 20" fill="none" xmlns="http://www.w3.org/2000/svg">
<path d="M9.53601 0.997175C9.70397 0.578939 10.296 0.578939 10.464 0.997174L12.4056 5.83212C12.6201 6.36643 13.1216 6.73076 13.6961 6.76972L18.8943 7.12219C19.344 7.15268 19.527 7.71577 19.1811 8.00474L15.1828 11.3454C14.7409 11.7145 14.5494 12.3041 14.6899 12.8624L15.961 17.9152C16.0709 18.3523 15.592 18.7003 15.2102 18.4607L10.7976 15.6903C10.3099 15.3842 9.69008 15.3842 9.20244 15.6903L4.78975 18.4607C4.40804 18.7003 3.92905 18.3523 4.03901 17.9152L5.31015 12.8624C5.45062 12.3041 5.25908 11.7145 4.81723 11.3454L0.818897 8.00474C0.47303 7.71577 0.655992 7.15268 1.10565 7.12219L6.30395 6.76972C6.87841 6.73076 7.37987 6.36643 7.59443 5.83212L9.53601 0.997175Z" stroke="#BD9B74"/>
</svg>
