<svg width="20" height="20" viewBox="0 0 20 20" fill="none" xmlns="http://www.w3.org/2000/svg">
<path d="M9.07203 0.810851C9.40793 -0.0256188 10.5921 -0.0256199 10.928 0.810849L12.8696 5.6458C13.0126 6.002 13.3469 6.24489 13.7299 6.27086L18.9282 6.62333C19.8275 6.68431 20.1934 7.8105 19.5017 8.38844L15.5034 11.7291C15.2088 11.9752 15.0811 12.3682 15.1747 12.7404L16.4459 17.7932C16.6658 18.6674 15.7078 19.3634 14.9444 18.8841L10.5317 16.1138C10.2066 15.9097 9.79339 15.9097 9.46829 16.1138L5.05561 18.8841C4.29219 19.3634 3.3342 18.6674 3.55411 17.7932L4.82525 12.7404C4.9189 12.3682 4.79121 11.9752 4.49664 11.7291L0.498312 8.38844C-0.193418 7.8105 0.172501 6.68431 1.07183 6.62333L6.27012 6.27086C6.6531 6.24489 6.9874 6.002 7.13045 5.6458L9.07203 0.810851Z" fill="#BD9B74"/>
</svg>
