<?xml version="1.0" encoding="utf-8"?>
<!-- Generator: Adobe Illustrator 22.1.0, SVG Export Plug-In . SVG Version: 6.00 Build 0)  -->
<svg version="1.1" id="Layer_1" xmlns="http://www.w3.org/2000/svg" xmlns:xlink="http://www.w3.org/1999/xlink" x="0px" y="0px"
	 viewBox="0 0 416 409" style="enable-background:new 0 0 416 409;" xml:space="preserve">
<style type="text/css">
	.st0{opacity:0.2;}
	.st1{fill:#F5CE92;}
	.st2{opacity:0.5;}
	.st3{fill:#B3B6BE;}
</style>
<title>wave_pattern</title>
<g id="Layer_2_1_">
	<g id="Layer_1-2">
		<g class="st0">
			<path class="st1" d="M44.3,5.6c2.2-1.7,4.4-3.5,6.7-5.2h-1.7c-1.9,1.5-3.8,3-5.7,4.4c-11.3,9-23,18.3-43.5,20.2v1
				C21.1,24.1,32.9,14.7,44.3,5.6z"/>
			<path class="st1" d="M407.8,25.4c-25.8,0-39-10.5-51.7-20.6c-1.9-1.5-3.7-3-5.7-4.4h-1.7c2.3,1.7,4.5,3.5,6.7,5.2
				c12.8,10.2,26.1,20.8,52.3,20.8c2.7,0,5.4-0.1,8-0.4v-1C413.2,25.3,410.5,25.4,407.8,25.4z"/>
			<path class="st1" d="M251.6,4.8c-12.7,10.1-25.8,20.6-51.7,20.6S161,15,148.3,4.8c-1.9-1.5-3.7-3-5.6-4.4h-1.7
				c2.3,1.7,4.5,3.5,6.7,5.2c12.8,10.2,26.1,20.8,52.3,20.8s39.4-10.6,52.3-20.8c2.2-1.7,4.4-3.5,6.7-5.2h-1.7
				C255.3,1.9,253.4,3.4,251.6,4.8z"/>
			<path class="st1" d="M199.9,26.4c25.8,0,38.9,10.5,51.7,20.6c12.8,10.2,26.1,20.8,52.3,20.8c26.2,0,39.4-10.6,52.3-20.8
				c12.7-10.1,25.8-20.6,51.7-20.6c2.8,0,5.5,0.1,8,0.4v-1c-2.6-0.2-5.3-0.4-8-0.4c-26.2,0-39.4,10.6-52.3,20.8
				c-12.7,10.1-25.8,20.6-51.7,20.6s-38.9-10.5-51.7-20.6c-12.8-10.2-26.1-20.8-52.3-20.8S160.5,36,147.6,46.2
				C134.9,56.3,121.8,66.8,96,66.8S57,56.3,44.3,46.2C32.9,37.1,21.1,27.7,0.2,25.8v1C20.7,28.7,32.4,38,43.7,47
				C56.5,57.2,69.8,67.8,96,67.8s39.4-10.6,52.3-20.8C161,36.9,174.1,26.4,199.9,26.4z"/>
			<path class="st1" d="M44.3,311.8C57,301.6,70.2,291.2,96,291.2s38.9,10.5,51.7,20.6c12.8,10.2,26.1,20.8,52.3,20.8
				s39.4-10.6,52.3-20.8c12.7-10.1,25.8-20.6,51.7-20.6c25.8,0,39,10.5,51.7,20.6c12.8,10.2,26.1,20.8,52.3,20.8
				c2.7,0,5.4-0.1,8-0.4v-1c-2.6,0.2-5.3,0.4-8,0.4c-25.8,0-39-10.5-51.7-20.6c-12.8-10.2-26.1-20.8-52.3-20.8s-39.4,10.6-52.3,20.8
				c-12.7,10.1-25.8,20.6-51.7,20.6S161,321.1,148.2,311c-12.8-10.2-26.1-20.8-52.3-20.8S56.5,300.8,43.7,311
				c-11.3,9-23,18.3-43.5,20.2v1C21.1,330.3,32.9,320.9,44.3,311.8z"/>
			<path class="st1" d="M199.9,332.6c25.8,0,38.9,10.5,51.7,20.6c12.8,10.2,26.1,20.8,52.3,20.8c26.2,0,39.4-10.6,52.3-20.8
				c12.7-10.1,25.8-20.6,51.7-20.6c2.8,0,5.5,0.1,8,0.4v-1c-2.6-0.2-5.3-0.4-8-0.4c-26.2,0-39.4,10.6-52.3,20.8
				c-12.7,10.1-25.8,20.6-51.7,20.6s-38.9-10.5-51.7-20.6c-12.8-10.2-26.1-20.8-52.3-20.8s-39.4,10.6-52.3,20.8
				c-12.7,10.1-25.8,20.6-51.7,20.6s-39-10.5-51.7-20.6c-11.4-9.1-23.2-18.5-44.1-20.4v1c20.5,1.9,32.2,11.2,43.5,20.2
				c12.8,10.2,26.1,20.8,52.3,20.8s39.4-10.6,52.3-20.8C161,343,174.1,332.6,199.9,332.6z"/>
			<path class="st1" d="M96,393.2c21.4,0,34,7.2,45,15.4h1.7c-11.3-8.6-24.3-16.4-46.6-16.4s-35.3,7.7-46.6,16.4H51
				C61.9,400.4,74.6,393.2,96,393.2z"/>
			<path class="st1" d="M303.8,393.2c21.4,0,34,7.2,45,15.4h1.7c-11.3-8.6-24.3-16.4-46.6-16.4s-35.3,7.7-46.6,16.4h1.7
				C269.8,400.4,282.5,393.2,303.8,393.2z"/>
			<path class="st1" d="M44.3,209.7C57,199.6,70.2,189.1,96,189.1s38.9,10.5,51.7,20.6c12.8,10.2,26.1,20.8,52.3,20.8
				s39.4-10.6,52.3-20.8c12.7-10.1,25.8-20.6,51.7-20.6c25.8,0,39,10.5,51.7,20.6c12.8,10.2,26.1,20.8,52.3,20.8
				c2.7,0,5.4-0.1,8-0.4v-1c-2.6,0.2-5.3,0.4-8,0.4c-25.8,0-39-10.5-51.7-20.6c-12.8-10.2-26.1-20.8-52.3-20.8s-39.4,10.6-52.3,20.8
				c-12.7,10.1-25.8,20.6-51.7,20.6s-38.9-10.5-51.7-20.6c-12.8-10.2-26.1-20.8-52.3-20.8s-39.4,10.6-52.3,20.8
				c-11.3,9-23,18.3-43.5,20.2v1C21.1,228.2,32.9,218.8,44.3,209.7z"/>
			<path class="st1" d="M44.3,107.7C57,97.6,70.2,87.1,96,87.1s38.9,10.5,51.7,20.6c12.8,10.2,26.1,20.8,52.3,20.8
				s39.4-10.6,52.3-20.8c12.7-10.1,25.8-20.6,51.7-20.6c25.8,0,39,10.5,51.7,20.6c12.8,10.2,26.1,20.8,52.3,20.8
				c2.7,0,5.4-0.1,8-0.4v-1c-2.6,0.2-5.3,0.4-8,0.4c-25.8,0-39-10.5-51.7-20.6c-12.8-10.2-26.1-20.8-52.3-20.8s-39.4,10.6-52.3,20.8
				c-12.7,10.1-25.8,20.6-51.7,20.6S161,117,148.3,106.9C135.4,96.7,122.1,86.1,96,86.1s-39.4,10.6-52.3,20.8
				c-11.3,9-23,18.3-43.5,20.2v1C21.1,126.2,32.9,116.8,44.3,107.7z"/>
			<path class="st1" d="M199.9,128.5c25.8,0,38.9,10.5,51.7,20.6c12.8,10.2,26.1,20.8,52.3,20.8c26.2,0,39.4-10.6,52.3-20.8
				c12.7-10.1,25.8-20.6,51.7-20.6c2.8,0,5.5,0.1,8,0.4v-1c-2.6-0.2-5.3-0.4-8-0.4c-26.2,0-39.4,10.6-52.3,20.8
				c-12.7,10.1-25.8,20.6-51.7,20.6s-38.9-10.5-51.7-20.6c-12.8-10.2-26.1-20.8-52.3-20.8s-39.4,10.6-52.3,20.8
				c-12.7,10.1-25.8,20.6-51.7,20.6s-39-10.5-51.7-20.6c-11.4-9.1-23.2-18.5-44.1-20.4v1c20.5,1.9,32.2,11.2,43.5,20.2
				c12.8,10.2,26.1,20.8,52.3,20.8s39.4-10.6,52.3-20.8C161,138.9,174.1,128.5,199.9,128.5z"/>
			<path class="st1" d="M199.9,230.5c25.8,0,38.9,10.5,51.7,20.6c12.8,10.2,26.1,20.8,52.3,20.8c26.2,0,39.4-10.6,52.3-20.8
				c12.7-10.1,25.8-20.6,51.7-20.6c2.8,0,5.5,0.1,8,0.4v-1c-2.6-0.2-5.3-0.4-8-0.4c-26.2,0-39.4,10.6-52.3,20.8
				c-12.7,10.1-25.8,20.6-51.7,20.6s-38.9-10.5-51.7-20.6c-12.8-10.2-26.1-20.8-52.3-20.8s-39.4,10.6-52.3,20.8
				c-12.7,10.1-25.8,20.6-51.7,20.6s-39-10.5-51.7-20.6c-11.4-9.1-23.2-18.5-44.1-20.4v1c20.5,1.9,32.2,11.2,43.5,20.2
				c12.8,10.2,26.1,20.8,52.3,20.8s39.4-10.6,52.3-20.8C161,241,174.1,230.5,199.9,230.5z"/>
			<g class="st2">
				<path class="st3" d="M304,15.4c-21.4,0-34.1-7.2-45-15.4h-1.7c11.3,8.6,24.3,16.4,46.7,16.4c22.4,0,35.3-7.7,46.7-16.4H349
					C338,8.2,325.3,15.4,304,15.4z"/>
				<path class="st3" d="M142.6,0h-1.7c-10.9,8.2-23.6,15.4-45,15.4S61.8,8.2,50.9,0h-1.7c11.3,8.6,24.3,16.4,46.7,16.4
					S131.2,8.6,142.6,0z"/>
				<path class="st3" d="M44.2,260.9c12.7-10.1,25.9-20.6,51.7-20.6s39,10.5,51.7,20.6c12.9,10.2,26.1,20.8,52.3,20.8
					s39.5-10.6,52.3-20.8c12.7-10.1,25.9-20.6,51.7-20.6c25.8,0,39,10.5,51.7,20.6c12.9,10.2,26.2,20.8,52.3,20.8
					c2.8,0,5.4-0.1,8-0.4v-1c-2.6,0.2-5.3,0.4-8,0.4c-25.8,0-39-10.5-51.7-20.6c-12.9-10.2-26.1-20.8-52.3-20.8
					s-39.5,10.6-52.3,20.8c-12.7,10.1-25.9,20.6-51.7,20.6s-39-10.5-51.7-20.6c-12.9-10.2-26.1-20.8-52.3-20.8s-39.5,10.6-52.3,20.8
					c-11.3,9-23,18.3-43.5,20.2v1C20.9,279.4,32.7,270,44.2,260.9z"/>
				<path class="st3" d="M199.9,281.7c25.8,0,39,10.5,51.7,20.6c12.9,10.2,26.1,20.8,52.3,20.8c26.2,0,39.5-10.6,52.3-20.8
					c12.7-10.1,25.9-20.6,51.7-20.6c2.8,0,5.5,0.1,8,0.4v-1c-2.6-0.2-5.3-0.4-8-0.4c-26.2,0-39.5,10.6-52.3,20.8
					c-12.7,10.1-25.9,20.6-51.7,20.6c-25.8,0-39-10.5-51.7-20.6c-12.9-10.2-26.1-20.8-52.3-20.8s-39.5,10.6-52.3,20.8
					c-12.7,10.1-25.9,20.6-51.7,20.6s-39-10.5-51.7-20.6C32.7,292.4,20.9,283,0,281.1v1c20.5,1.9,32.2,11.2,43.5,20.2
					c12.9,10.2,26.1,20.8,52.3,20.8s39.5-10.6,52.3-20.8C160.9,292.2,174.1,281.7,199.9,281.7z"/>
				<path class="st3" d="M44.2,363.1C56.9,353,70,342.5,95.9,342.5s39,10.5,51.7,20.6c12.9,10.2,26.1,20.8,52.3,20.8
					s39.5-10.6,52.3-20.8c12.7-10.1,25.9-20.6,51.7-20.6c25.8,0,39,10.5,51.7,20.6c12.9,10.2,26.2,20.8,52.3,20.8
					c2.8,0,5.4-0.1,8-0.4v-1c-2.6,0.2-5.3,0.4-8,0.4c-25.8,0-39-10.5-51.7-20.6c-12.9-10.2-26.1-20.8-52.3-20.8
					s-39.5,10.6-52.3,20.8c-12.7,10.1-25.9,20.6-51.7,20.6s-39-10.5-51.7-20.6c-12.9-10.2-26.1-20.8-52.3-20.8s-39.5,10.6-52.3,20.8
					c-11.3,9-23,18.3-43.5,20.2v1C20.9,381.6,32.7,372.2,44.2,363.1z"/>
				<path class="st3" d="M356.3,404.6c12.7-10.1,25.9-20.6,51.7-20.6c2.8,0,5.5,0.1,8,0.4v-1c-2.6-0.2-5.3-0.4-8-0.4
					c-26.2,0-39.5,10.6-52.3,20.8c-2.2,1.8-4.4,3.5-6.7,5.2h1.7C352.5,407.5,354.4,406,356.3,404.6z"/>
				<path class="st3" d="M44.2,403.8c-11.4-9.1-23.3-18.5-44.2-20.5v1c20.5,1.9,32.2,11.2,43.5,20.2c1.9,1.5,3.7,3,5.7,4.4h1.7
					C48.6,407.3,46.4,405.5,44.2,403.8z"/>
				<path class="st3" d="M148.2,404.6c12.7-10.1,25.9-20.6,51.7-20.6s39,10.5,51.7,20.6c1.9,1.5,3.7,3,5.7,4.4h1.7
					c-2.3-1.7-4.5-3.5-6.7-5.2c-12.9-10.2-26.1-20.8-52.3-20.8s-39.5,10.6-52.3,20.8c-2.2,1.8-4.4,3.5-6.7,5.2h1.7
					C144.5,407.5,146.3,406,148.2,404.6z"/>
				<path class="st3" d="M44.2,56.4C56.9,46.2,70,35.7,95.9,35.7s39,10.5,51.7,20.6c12.9,10.2,26.1,20.8,52.3,20.8
					s39.5-10.6,52.3-20.8c12.7-10.1,25.9-20.6,51.7-20.6c25.8,0,39,10.5,51.7,20.6c12.9,10.2,26.1,20.8,52.3,20.8
					c2.8,0,5.4-0.1,8-0.4v-1c-2.6,0.2-5.3,0.4-8,0.4c-25.8,0-39-10.5-51.7-20.6c-12.9-10.2-26.1-20.8-52.3-20.8
					s-39.5,10.6-52.3,20.8c-12.7,10.1-25.9,20.6-51.7,20.6s-39-10.5-51.7-20.6c-12.9-10.2-26.1-20.8-52.3-20.8S56.4,45.3,43.5,55.6
					c-11.3,9-23,18.3-43.5,20.2v1C20.9,74.9,32.7,65.5,44.2,56.4z"/>
				<path class="st3" d="M199.9,77.2c25.8,0,39,10.5,51.7,20.6c12.9,10.2,26.1,20.8,52.3,20.8c26.2,0,39.5-10.6,52.3-20.8
					C369,87.7,382.2,77.2,408,77.2c2.8,0,5.5,0.1,8,0.4v-1c-2.6-0.2-5.3-0.4-8-0.4c-26.2,0-39.5,10.6-52.3,20.8
					c-12.7,10.1-25.9,20.6-51.7,20.6c-25.8,0-39-10.5-51.7-20.6c-12.9-10.2-26.1-20.8-52.3-20.8S160.4,86.8,147.6,97
					c-12.7,10.1-25.9,20.6-51.7,20.6s-39-10.5-51.7-20.6C32.7,87.9,20.9,78.5,0,76.5v1c20.5,1.9,32.2,11.2,43.5,20.2
					c12.9,10.2,26.1,20.8,52.3,20.8s39.5-10.6,52.3-20.8C160.9,87.7,174.1,77.2,199.9,77.2z"/>
				<path class="st3" d="M44.2,158.6C56.9,148.5,70,138,95.9,138s39,10.5,51.7,20.6c12.9,10.2,26.1,20.8,52.3,20.8
					s39.5-10.6,52.3-20.8c12.7-10.1,25.9-20.6,51.7-20.6c25.8,0,39,10.5,51.7,20.6c12.9,10.2,26.1,20.8,52.3,20.8
					c2.8,0,5.4-0.1,8-0.4v-1c-2.6,0.2-5.3,0.4-8,0.4c-25.8,0-39-10.5-51.7-20.6c-12.9-10.2-26.1-20.8-52.3-20.8
					s-39.5,10.6-52.3,20.8c-12.7,10.1-25.9,20.6-51.7,20.6s-39-10.5-51.7-20.6c-12.9-10.2-26.1-20.8-52.3-20.8s-39.5,10.6-52.3,20.8
					c-11.3,9-23,18.3-43.5,20.2v1C20.9,177.1,32.7,167.7,44.2,158.6z"/>
				<path class="st3" d="M199.9,179.4c25.8,0,39,10.5,51.7,20.6c12.9,10.2,26.1,20.8,52.3,20.8c26.2,0,39.5-10.6,52.3-20.8
					c12.7-10.1,25.9-20.6,51.7-20.6c2.8,0,5.5,0.1,8,0.4v-1c-2.6-0.2-5.3-0.4-8-0.4c-26.2,0-39.5,10.6-52.3,20.8
					c-12.7,10.1-25.9,20.6-51.7,20.6c-25.8,0-39-10.5-51.7-20.6c-12.9-10.2-26.1-20.8-52.3-20.8s-39.5,10.6-52.3,20.8
					c-12.7,10.1-25.9,20.6-51.7,20.6s-39-10.5-51.7-20.6c-11.4-9.1-23.3-18.5-44.2-20.5v1c20.5,1.9,32.2,11.2,43.5,20.2
					c12.9,10.2,26.1,20.8,52.3,20.8s39.5-10.6,52.3-20.8C160.9,189.9,174.1,179.4,199.9,179.4z"/>
			</g>
		</g>
	</g>
</g>
</svg>
