<svg width="17" height="17" viewBox="0 0 17 17" fill="none" xmlns="http://www.w3.org/2000/svg">
<g clip-path="url(#clip0)">
<path fill-rule="evenodd" clip-rule="evenodd" d="M14.6467 3.18868C13.1429 1.69011 11.1428 0.864408 9.01164 0.863647C4.62029 0.863647 1.0464 4.42001 1.04488 8.79142C1.04411 10.1889 1.4112 11.5529 2.10833 12.7549L0.978027 16.8636L5.2013 15.7612C6.36484 16.393 7.67506 16.7257 9.0082 16.726H9.01164C9.01202 16.726 9.01126 16.726 9.01164 16.726C13.4022 16.726 16.9765 13.1693 16.978 8.79788C16.9788 6.67927 16.151 4.68725 14.6467 3.18868ZM9.01164 15.3871H9.00897C7.82098 15.3867 6.65553 15.0689 5.63868 14.4687L5.39688 14.3257L2.89065 14.98L3.55951 12.5481L3.40213 12.2987C2.73938 11.2495 2.3891 10.0368 2.38986 8.7918C2.39139 5.15865 5.36174 2.20256 9.01432 2.20256C10.7829 2.20332 12.4453 2.8895 13.6956 4.13527C14.9458 5.38066 15.6338 7.03662 15.633 8.79712C15.6315 12.4306 12.6612 15.3871 9.01164 15.3871ZM12.6436 10.4516C12.4446 10.3523 11.4659 9.87334 11.2833 9.80719C11.1007 9.74105 10.9682 9.70797 10.8356 9.90641C10.7031 10.1049 10.3215 10.5512 10.2054 10.6831C10.0892 10.8154 9.97311 10.8317 9.77409 10.7325C9.57508 10.6333 8.93372 10.4242 8.17318 9.74941C7.58147 9.22404 7.18191 8.57549 7.06579 8.37705C6.94966 8.17861 7.05357 8.0714 7.15288 7.97294C7.24227 7.88399 7.3519 7.74143 7.4516 7.62586C7.5513 7.51029 7.58415 7.42742 7.65061 7.2955C7.71708 7.16321 7.68385 7.04764 7.63419 6.94842C7.58453 6.8492 7.1865 5.8741 7.02033 5.4776C6.85875 5.09136 6.6945 5.14382 6.57264 5.13736C6.45652 5.13166 6.32397 5.13052 6.19103 5.13052C6.05848 5.13052 5.84266 5.17994 5.66007 5.37838C5.47748 5.57682 4.96332 6.0562 4.96332 7.03092C4.96332 8.00602 5.67649 8.94804 5.77619 9.08034C5.87589 9.21263 7.18 11.2134 9.17666 12.0718C9.65147 12.2759 10.0224 12.398 10.3116 12.4892C10.7883 12.6401 11.2222 12.6188 11.5652 12.5679C11.9476 12.5109 12.7429 12.0885 12.9087 11.6259C13.0745 11.1632 13.0745 10.7663 13.0248 10.6838C12.9752 10.6006 12.8426 10.5508 12.6436 10.4516Z" fill="#455A64"/>
</g>
<defs>
<clipPath id="clip0">
<rect width="16" height="16" fill="white" transform="translate(0.978027 0.863647)"/>
</clipPath>
</defs>
</svg>
