<svg width="121" height="120" viewBox="0 0 121 120" fill="none" xmlns="http://www.w3.org/2000/svg">
<g clip-path="url(#clip0)">
<path fill-rule="evenodd" clip-rule="evenodd" d="M72.1808 71.5714C62.7522 81.3 62.0665 93.4286 61.2522 120C86.0237 120 103.124 119.914 111.952 111.343C120.524 102.514 120.609 84.6 120.609 60.6429C94.0379 61.5 81.9094 62.1429 72.1808 71.5714ZM0.609375 60.6429C0.609375 84.6 0.695089 102.514 9.26652 111.343C18.0951 119.914 35.1951 120 59.9665 120C59.1094 93.4286 58.4665 81.3 49.0379 71.5714C39.3094 62.1429 27.1808 61.4571 0.609375 60.6429ZM59.9665 0C35.2379 0 18.0951 0.0857142 9.26652 8.65714C0.695089 17.4857 0.609375 35.4 0.609375 59.3571C27.1808 58.5 39.3094 57.8571 49.0379 48.4286C58.4665 38.7 59.1522 26.5714 59.9665 0ZM72.1808 48.4286C62.7522 38.7 62.0665 26.5714 61.2522 0C86.0237 0 103.124 0.0857142 111.952 8.65714C120.524 17.4857 120.609 35.4 120.609 59.3571C94.0379 58.5 81.9094 57.8571 72.1808 48.4286Z" fill="#2C3036"/>
<path fill-rule="evenodd" clip-rule="evenodd" d="M120.609 60.6429V59.3571C94.0379 58.5 81.9094 57.8571 72.1808 48.4286C62.7522 38.7 62.0665 26.5714 61.2522 0H59.9665C59.1094 26.5714 58.4665 38.7 49.0379 48.4286C39.3094 57.8571 27.1808 58.5429 0.609375 59.3571V60.6429C27.1808 61.5 39.3094 62.1429 49.0379 71.5714C58.4665 81.3 59.1522 93.4286 59.9665 120H61.2522C62.1094 93.4286 62.7522 81.3 72.1808 71.5714C81.9094 62.1429 94.0379 61.4571 120.609 60.6429Z" fill="white"/>
</g>
<defs>
<clipPath id="clip0">
<rect width="120" height="120" fill="white" transform="translate(0.609375)"/>
</clipPath>
</defs>
</svg>
